<?xml version="1.0" encoding="utf-8"?>
<!-- Generator: Adobe Illustrator 16.0.0, SVG Export Plug-In . SVG Version: 6.00 Build 0)  -->
<!DOCTYPE svg PUBLIC "-//W3C//DTD SVG 1.1 Tiny//EN" "http://www.w3.org/Graphics/SVG/1.1/DTD/svg11-tiny.dtd">
<svg version="1.1" baseProfile="tiny" id="Layer_1" xmlns="http://www.w3.org/2000/svg" xmlns:xlink="http://www.w3.org/1999/xlink"
	 x="0px" y="0px" width="500px" height="500px" viewBox="0 0 500 500" xml:space="preserve">
<path fill="#515151" d="M271.361,271.083v181.175c0,4.822-3.913,8.737-8.73,8.737H53.635c-4.817,0-8.718-3.915-8.718-8.737V271.083
	c0-4.817,3.901-8.733,8.718-8.733h208.996C267.448,262.35,271.361,266.266,271.361,271.083"/>
<path fill="#414141" d="M56.232,449.67L56.232,449.67v-64.93h0.005v64.93 M251.387,443.735H73.464
	c0-14.797,11.994-26.785,26.785-26.785h151.138V443.735 M98.621,421.553v19.274h119.024v-11.588v-5.581v-2.105H98.621"/>
<polyline fill="#414141" points="260.038,449.67 56.237,449.67 260.033,449.67 260.033,307.852 260.038,307.847 260.038,449.67 "/>
<path fill="#343434" d="M260.033,449.67H56.232l0.005-64.93c1.611,0.168,3.228,0.315,4.849,0.449v27.549h194.097v-99.782
	c1.638-1.677,3.257-3.376,4.851-5.104V449.67 M100.249,416.95c-14.792,0-26.785,11.988-26.785,26.785h177.923V416.95H100.249"/>
<polyline fill="#22252A" points="61.086,412.738 61.086,278.526 255.183,278.526 255.183,412.738 61.086,412.738 "/>
<polyline fill="#FDB26B" points="186.479,347.585 186.479,408.165 65.323,408.165 65.323,347.585 186.479,347.585 "/>
<polyline fill="#EB7260" points="186.479,282.852 186.479,343.427 65.323,343.427 65.323,282.852 186.479,282.852 "/>
<polyline fill="#F4867A" points="250.955,282.852 250.955,343.427 190.672,343.427 190.672,282.852 250.955,282.852 "/>
<polyline fill="#F29A71" points="250.955,347.585 250.955,408.165 190.672,408.165 190.672,347.585 250.955,347.585 "/>
<polyline fill="#22252A" points="190.672,282.852 190.672,408.565 186.479,408.565 186.479,282.852 190.672,282.852 "/>
<polyline fill="#22252A" points="251.387,343.427 251.387,347.585 64.875,347.585 64.875,343.427 251.387,343.427 "/>
<polyline fill="#BFBFBF" points="217.646,440.827 98.621,440.827 98.621,421.553 217.646,421.553 217.646,440.827 "/>
<polyline fill="#D3D3D3" points="217.646,429.239 98.621,429.239 98.621,423.658 217.646,423.658 217.646,429.239 "/>
<path fill="#22252A" d="M235.063,440.827h-17.417v-19.274h17.417c3.653,0,6.62,2.965,6.62,6.617v6.04
	C241.683,437.862,238.716,440.827,235.063,440.827L235.063,440.827z"/>
<path fill="#22252A" d="M81.204,421.553h17.417v19.274H81.204c-3.653,0-6.618-2.965-6.618-6.617v-6.04
	C74.586,424.518,77.551,421.553,81.204,421.553L81.204,421.553z"/>
<path fill="#7A7A7A" d="M56.232,384.74c-3.798-0.391-7.57-0.873-11.315-1.437V271.083c0-4.817,3.901-8.733,8.718-8.733h208.996
	c4.817,0,8.73,3.916,8.73,8.733v23.601c-3.621,4.526-7.394,8.914-11.323,13.163v-34.176H56.237h-0.005V384.74"/>
<polyline fill="#6E6E6E" points="56.237,384.74 56.232,384.74 56.232,273.671 56.237,384.74 "/>
<polyline fill="#6E6E6E" points="260.033,307.852 260.033,273.671 56.232,273.671 56.237,273.671 260.038,273.671 260.038,307.847 
	260.033,307.852 "/>
<path fill="#646464" d="M61.086,385.189c-1.621-0.134-3.237-0.281-4.849-0.449V273.671h203.796v34.181
	c-1.594,1.729-3.213,3.428-4.851,5.104v-34.43H61.086V385.189"/>
<path fill="#56595D" d="M65.323,385.5c-1.413-0.086-2.826-0.196-4.237-0.311V278.526h194.097v34.43
	c-1.394,1.422-2.8,2.826-4.228,4.216v-34.32h-60.283h-4.192v60.575H64.875v4.158h0.449V385.5 M65.323,282.852v60.575h121.156
	v-60.575H65.323"/>
<path fill="#FEC48E" d="M81.342,386.025c-5.381,0-10.719-0.177-16.019-0.525v-37.915h121.156v14.62
	C154.655,377.474,119.003,386.025,81.342,386.025"/>
<polyline fill="#EF9486" points="186.479,343.427 65.323,343.427 65.323,282.852 186.479,282.852 186.479,343.427 "/>
<path fill="#F6A299" d="M218.925,343.427h-28.253v-60.575h60.283v34.32C241.055,326.797,230.341,335.587,218.925,343.427"/>
<path fill="#F5B293" d="M190.672,360.143v-12.558h21.994C205.575,352.141,198.237,356.332,190.672,360.143"/>
<path fill="#56595D" d="M186.479,362.205v-14.62h4.192v12.558C189.28,360.844,187.881,361.531,186.479,362.205 M190.672,343.427
	h-4.192v-60.575h4.192V343.427"/>
<path fill="#56595D" d="M212.666,347.585h-21.994h-4.192H65.323h-0.449v-4.158h121.605h4.192h28.253
	C216.862,344.845,214.771,346.234,212.666,347.585"/>
<g>
	<path fill="#515151" d="M487.336,362.053c-0.009,25.742-2.382,51.47-6.928,76.806c-0.139,0.812-0.345,1.845-0.559,2.98
		c-1.155,6.082-5.924,10.85-12.014,11.979c-26.496,4.938-53.331,7.478-80.205,7.469c-26.754-0.014-53.483-2.565-79.771-7.478
		c-6.08-1.131-10.853-5.904-11.982-11.985c-2.338-12.506-4.14-25.119-5.377-37.779c-1.395-14.105-2.11-28.288-2.099-42.466
		c0.012-26.756,2.563-53.483,7.476-79.771c1.13-6.082,5.902-10.85,11.982-11.984c26.444-4.938,53.342-7.487,80.247-7.474
		c26.757,0.024,53.483,2.562,79.774,7.474c6.08,1.135,10.848,5.902,11.979,11.984c1.241,6.661,2.338,13.361,3.268,20.076
		C485.919,321.819,487.35,341.929,487.336,362.053"/>
	<path fill="#1A1A1A" d="M387.841,450.172c-0.063,0-0.123,0-0.183,0c-23.768-0.01-47.504-2.275-70.869-6.643
		c-2.646-0.487-5.02-1.763-6.856-3.564l3.602-3.599c1.753,1.705,4.017,2.932,6.544,3.4c9.791,1.821,19.648,3.256,29.549,4.299
		c12.634,1.329,25.333,2.015,38.04,2.02c0.063,0,0.125,0,0.189,0c22.697,0,45.377-2.154,67.692-6.304l0.041-0.01
		c0.01,0,0.024-0.005,0.033-0.005c0.099-0.021,0.198-0.038,0.295-0.063h0.005c0.004,0,0.011,0,0.018-0.004
		c2.537-0.538,4.789-1.831,6.521-3.629l3.594,3.599c-1.87,1.966-4.351,3.348-7.15,3.874
		C435.429,447.905,411.646,450.172,387.841,450.172 M466.055,439.67l1.518-1.874C467.13,438.462,466.617,439.096,466.055,439.67
		 M308.383,438.144L308.383,438.144c-1.096-1.536-1.871-3.328-2.227-5.261c-1.633-8.714-2.965-17.486-4.005-26.292
		c1.431,0.256,2.86,0.493,4.3,0.71c0.937,7.468,2.092,14.907,3.471,22.308c0.108,0.564,0.254,1.121,0.432,1.662
		c0.008,0.018,0.015,0.038,0.02,0.058c0.005,0.004,0.005,0.004,0.005,0.009c0.386,1.146,0.934,2.222,1.613,3.198L308.383,438.144
		 M467.572,437.796l-3.611-3.608c0.677-1.038,1.203-2.18,1.558-3.396c0.113-0.387,0.21-0.782,0.288-1.184
		c0.081-0.435,0.159-0.855,0.231-1.247c0.089-0.473,0.169-0.903,0.233-1.274c3.854-21.467,5.855-43.259,5.868-65.068
		c0.007-11.105-0.503-22.201-1.513-33.259c1.227-2.104,2.414-4.245,3.546-6.409c1.366,13.178,2.061,26.428,2.053,39.683
		c-0.014,22.863-2.11,45.706-6.151,68.218c-0.131,0.715-0.313,1.647-0.503,2.646C469.229,434.685,468.547,436.341,467.572,437.796
		L467.572,437.796"/>
	<path fill="#22252A" d="M455.549,439.781c-22.373,4.164-45.115,6.318-67.882,6.304c-22.665-0.01-45.311-2.174-67.589-6.327
		c-5.149-0.957-9.193-5.005-10.152-10.149c-4.176-22.415-6.339-45.195-6.33-67.995c0.015-22.665,2.175-45.311,6.33-67.589
		c0.959-5.15,5.003-9.193,10.152-10.149c22.412-4.184,45.192-6.342,67.995-6.328c22.664,0.01,45.308,2.174,67.586,6.328
		c5.149,0.956,9.19,5.005,10.152,10.149c4.179,22.414,6.339,45.194,6.328,67.994c-0.013,21.81-2.015,43.602-5.868,65.068
		c-0.12,0.686-0.287,1.564-0.471,2.525c-0.984,5.155-5.021,9.188-10.18,10.154L455.549,439.781"/>
	<path fill="#CCCCCC" d="M460.584,285.942l-44.805,44.803c-0.237-0.08-0.477-0.144-0.716-0.188
		c-8.943-1.671-18.024-2.54-27.111-2.54c-9.145,0-18.289,0.86-27.278,2.54l-0.285,0.06l-44.912-44.9
		c1.373-0.894,2.935-1.537,4.602-1.846c22.416-4.179,45.186-6.337,67.995-6.323c22.664,0.015,45.306,2.174,67.586,6.323
		C457.459,284.203,459.13,284.919,460.584,285.942"/>
	<path fill="#EFB04B" d="M472.136,362.019c-0.011,21.805-2.016,43.602-5.866,65.06c-0.118,0.694-0.285,1.573-0.463,2.53
		c-0.324,1.666-0.967,3.217-1.85,4.574l-44.898-44.895l0.072-0.275c0.069-0.396,0.13-0.739,0.19-1.015
		c1.536-8.608,2.348-17.347,2.348-26.1c0-9.145-0.857-18.289-2.538-27.278c-0.179-0.99-0.646-1.859-1.302-2.551l44.591-44.591
		c1.715,1.753,2.92,4.019,3.398,6.546C469.99,316.438,472.148,339.209,472.136,362.019"/>
	<path fill="#39B7A5" d="M462.453,436.066c-1.797,1.874-4.173,3.198-6.83,3.7c-22.447,4.184-45.197,6.328-67.956,6.318
		c-22.665-0.014-45.306-2.174-67.589-6.318c-2.527-0.469-4.791-1.695-6.544-3.4l44.59-44.591c0.69,0.656,1.571,1.121,2.55,1.3
		c8.941,1.671,18.027,2.541,27.113,2.541c9.13,0,18.251-0.86,27.23-2.527c1.146-0.218,2.131-0.787,2.859-1.599L462.453,436.066"/>
	<path fill="#96E2D6" d="M356.608,389.013c0.047,0.25,0.107,0.487,0.19,0.715l-44.803,44.803c-1.026-1.454-1.729-3.125-2.074-4.922
		c-4.172-22.415-6.331-45.187-6.32-67.995c0.014-22.665,2.169-45.307,6.32-67.589c0.5-2.657,1.809-5.019,3.683-6.815l44.591,44.586
		c-0.812,0.729-1.383,1.705-1.587,2.825c-1.669,8.941-2.538,18.027-2.538,27.113C354.07,370.879,354.926,380.022,356.608,389.013"/>
	<path fill="#22252A" d="M413.073,390.81c-8.358,1.541-16.81,2.348-25.286,2.348c-8.419,0-16.849-0.807-25.133-2.348
		c-0.906-0.18-1.718-0.604-2.36-1.203c-0.599-0.57-1.05-1.275-1.287-2.087l-0.132-0.487c-1.54-8.333-2.351-16.812-2.351-25.299
		c0-8.419,0.811-16.85,2.351-25.133c0.202-1.039,0.738-1.957,1.49-2.633c0.617-0.561,1.383-0.956,2.229-1.136
		c8.393-1.551,16.871-2.361,25.358-2.361c8.419,0,16.844,0.811,25.134,2.353l0.487,0.13c0.798,0.237,1.512,0.69,2.087,1.285
		c0.596,0.647,1.037,1.454,1.203,2.362c1.541,8.332,2.348,16.811,2.348,25.298c0,8.096-0.749,16.215-2.18,24.191
		c-0.047,0.261-0.106,0.585-0.178,0.942c-0.191,0.907-0.585,1.672-1.146,2.288C415.027,390.085,414.109,390.621,413.073,390.81
		 M419.059,389.288l0.072-0.275c0.069-0.396,0.13-0.739,0.19-1.015c1.536-8.608,2.348-17.347,2.348-26.1
		c0-9.145-0.857-18.289-2.538-27.278c-0.179-0.99-0.646-1.859-1.302-2.551l44.591-44.591c-0.57-0.574-1.179-1.082-1.836-1.536
		l-44.805,44.803c-0.237-0.08-0.477-0.144-0.716-0.188c-8.943-1.671-18.024-2.54-27.111-2.54c-9.145,0-18.289,0.86-27.278,2.54
		l-0.285,0.06l-44.912-44.9c-0.679,0.438-1.3,0.94-1.872,1.493l44.591,44.586c-0.812,0.729-1.383,1.705-1.587,2.825
		c-1.669,8.941-2.538,18.027-2.538,27.113c0,9.146,0.855,18.289,2.538,27.279c0.047,0.25,0.107,0.487,0.19,0.715l-44.803,44.803
		c0.454,0.657,0.967,1.266,1.538,1.836l44.59-44.591c0.69,0.656,1.571,1.121,2.55,1.3c8.941,1.671,18.027,2.541,27.113,2.541
		c9.13,0,18.251-0.86,27.23-2.527c1.146-0.218,2.131-0.787,2.859-1.599l44.576,44.576c0.561-0.57,1.063-1.203,1.504-1.884
		L419.059,389.288"/>
	<path fill="#22252A" d="M417.031,386.09c-0.047,0.261-0.106,0.585-0.178,0.942c-0.191,0.907-0.585,1.672-1.146,2.288
		c-0.681,0.765-1.599,1.301-2.635,1.489c-8.358,1.541-16.81,2.348-25.286,2.348c-8.419,0-16.849-0.807-25.133-2.348
		c-0.906-0.18-1.718-0.604-2.36-1.203c-0.599-0.57-1.05-1.275-1.287-2.087l-0.132-0.487c-1.54-8.333-2.351-16.812-2.351-25.299
		c0-8.419,0.811-16.85,2.351-25.133c0.202-1.039,0.738-1.957,1.49-2.633c0.617-0.561,1.383-0.956,2.229-1.136
		c8.393-1.551,16.871-2.361,25.358-2.361c8.419,0,16.844,0.811,25.134,2.353l0.487,0.13c0.798,0.237,1.512,0.69,2.087,1.285
		c0.596,0.647,1.037,1.454,1.203,2.362c1.541,8.332,2.348,16.811,2.348,25.298C419.211,369.994,418.462,378.113,417.031,386.09
		 M419.131,334.62c-0.179-0.99-0.646-1.859-1.302-2.551c-0.561-0.594-1.264-1.063-2.05-1.324c-0.237-0.08-0.477-0.144-0.716-0.188
		c-8.943-1.671-18.024-2.54-27.111-2.54c-9.145,0-18.289,0.86-27.278,2.54l-0.285,0.06c-0.835,0.202-1.583,0.617-2.193,1.179
		c-0.812,0.729-1.383,1.705-1.587,2.825c-1.669,8.941-2.538,18.027-2.538,27.113c0,9.146,0.855,18.289,2.538,27.279
		c0.047,0.25,0.107,0.487,0.19,0.715c0.262,0.787,0.728,1.487,1.325,2.048c0.69,0.656,1.571,1.121,2.55,1.3
		c8.941,1.671,18.027,2.541,27.113,2.541c9.13,0,18.251-0.86,27.23-2.527c1.146-0.218,2.131-0.787,2.859-1.599
		c0.573-0.609,0.979-1.357,1.182-2.202l0.072-0.275c0.069-0.396,0.13-0.739,0.19-1.015c1.536-8.608,2.348-17.347,2.348-26.1
		C421.669,352.754,420.812,343.609,419.131,334.62 M415.708,389.32c-0.681,0.765-1.599,1.301-2.635,1.489
		c-8.358,1.541-16.81,2.348-25.286,2.348c-8.419,0-16.849-0.807-25.133-2.348c-0.906-0.18-1.718-0.604-2.36-1.203l-2.17,2.169
		c0.69,0.656,1.571,1.121,2.55,1.3c8.941,1.671,18.027,2.541,27.113,2.541c9.13,0,18.251-0.86,27.23-2.527
		c1.146-0.218,2.131-0.787,2.859-1.599L415.708,389.32 M415.063,330.557c-8.943-1.671-18.024-2.54-27.111-2.54
		c-9.145,0-18.289,0.86-27.278,2.54l-0.285,0.06l2.205,2.216c8.393-1.551,16.871-2.361,25.358-2.361
		c8.419,0,16.844,0.811,25.134,2.353l0.487,0.13l2.206-2.208C415.542,330.665,415.303,330.602,415.063,330.557"/>
	<path fill="#BEE6F1" d="M419.211,361.898c0,8.096-0.749,16.215-2.18,24.191c-0.047,0.261-0.106,0.585-0.178,0.942
		c-0.191,0.907-0.585,1.672-1.146,2.288c-0.681,0.765-1.599,1.301-2.635,1.489c-8.358,1.541-16.81,2.348-25.286,2.348
		c-8.419,0-16.849-0.807-25.133-2.348c-0.906-0.18-1.718-0.604-2.36-1.203c-0.599-0.57-1.05-1.275-1.287-2.087l-0.132-0.487
		c-1.54-8.333-2.351-16.812-2.351-25.299c0-8.419,0.811-16.85,2.351-25.133c0.202-1.039,0.738-1.957,1.49-2.633
		c0.617-0.561,1.383-0.956,2.229-1.136c8.393-1.551,16.871-2.361,25.358-2.361c8.419,0,16.844,0.811,25.134,2.353l0.487,0.13
		c0.798,0.237,1.512,0.69,2.087,1.285c0.596,0.647,1.037,1.454,1.203,2.362C418.404,344.933,419.211,353.411,419.211,361.898"/>
	<path fill="#22252A" d="M310.007,283.604l3.598,3.604l44.591,44.586l2.17,2.173c0.617-0.561,1.383-0.956,2.229-1.136l-2.205-2.216
		l-44.912-44.9l-3.611-3.613L310.007,283.604"/>
	<path fill="#22252A" d="M466.055,439.67l-48.178-48.18l-2.169-2.17c0.561-0.616,0.954-1.381,1.131-2.245l2.22,2.213l48.514,48.508
		L466.055,439.67"/>
	<path fill="#22252A" d="M360.294,389.606l-2.17,2.169l-44.59,44.591l-3.602,3.599c-0.573-0.561-1.095-1.164-1.55-1.821
		l48.416-48.416l2.208-2.208C359.244,388.331,359.695,389.036,360.294,389.606"/>
	<path fill="#22252A" d="M466.019,283.879l-3.599,3.6l-44.591,44.591l-2.169,2.169c-0.575-0.595-1.289-1.048-2.087-1.285
		l2.206-2.208l48.419-48.417C464.85,282.784,465.459,283.305,466.019,283.879"/>
	<path fill="#7A7A7A" d="M302.151,406.591c-3.933-0.711-7.821-1.556-11.651-2.546l0,0c-1.386-13.994-2.101-28.07-2.099-42.137
		c0-0.105,0-0.218,0-0.329c0.012-26.756,2.563-53.483,7.476-79.771c1.13-6.082,5.902-10.85,11.982-11.984
		c26.38-4.924,53.216-7.474,80.062-7.474c0.064,0,0.123,0,0.186,0c26.757,0.024,53.483,2.562,79.774,7.474
		c6.08,1.135,10.848,5.902,11.979,11.984c1.241,6.661,2.338,13.361,3.268,20.076c-2.521,7.062-5.518,13.897-8.955,20.467
		c-1.1-10.59-2.632-21.139-4.589-31.602c-0.488-2.662-1.764-5.033-3.565-6.87c-0.56-0.574-1.169-1.095-1.82-1.551
		c-1.542-1.095-3.329-1.868-5.259-2.23c-23.359-4.361-47.096-6.628-70.857-6.637c-0.064,0-0.13,0-0.197,0
		c-23.836,0-47.663,2.265-71.087,6.637c-1.799,0.338-3.469,1.029-4.933,2.005c-0.671,0.444-1.288,0.941-1.858,1.502
		c-1.957,1.884-3.339,4.366-3.851,7.145c-4.366,23.356-6.633,47.093-6.642,70.855C299.504,376.637,300.397,391.664,302.151,406.591"
		/>
	<path fill="#515151" d="M306.451,407.301c-1.439-0.217-2.869-0.454-4.3-0.71c-1.754-14.927-2.647-29.954-2.637-44.986
		c0.009-23.763,2.275-47.499,6.642-70.855c0.512-2.778,1.894-5.261,3.851-7.145c0.57-0.561,1.188-1.058,1.858-1.502
		c1.464-0.976,3.134-1.667,4.933-2.005c23.424-4.372,47.251-6.637,71.087-6.637c0.067,0,0.133,0,0.197,0
		c23.762,0.009,47.498,2.275,70.857,6.637c1.93,0.362,3.717,1.136,5.259,2.23c0.651,0.456,1.261,0.977,1.82,1.551
		c1.802,1.837,3.077,4.208,3.565,6.87c1.957,10.463,3.489,21.012,4.589,31.602c-1.132,2.164-2.319,4.305-3.546,6.409
		c-0.29-3.188-0.619-6.375-0.992-9.56c-0.988-8.429-2.264-16.829-3.816-25.176c-0.479-2.527-1.684-4.793-3.398-6.546l3.599-3.6
		c-0.56-0.574-1.169-1.095-1.82-1.551l-3.609,3.609c-0.376-0.262-0.762-0.503-1.164-0.72c-1.16-0.642-2.428-1.102-3.766-1.348
		c-8.144-1.517-16.334-2.769-24.558-3.743c-14.277-1.701-28.648-2.575-43.028-2.58c-0.077,0-0.15,0-0.225,0
		c-14.525,0-29.049,0.884-43.463,2.609c-8.14,0.971-16.245,2.212-24.308,3.714c-1.667,0.309-3.229,0.952-4.602,1.846l0,0
		c0.003,0,0.003,0,0.003,0h-0.003l0,0l-3.611-3.613l-1.858,1.502l3.598,3.604c-1.874,1.797-3.183,4.158-3.683,6.815
		c-1.408,7.564-2.586,15.167-3.534,22.801c-1.835,14.853-2.782,29.818-2.792,44.788c-0.005,14.192,0.831,28.375,2.469,42.465
		C306.189,405.155,306.317,406.228,306.451,407.301"/>
	<path fill="#56595D" d="M306.064,404.078c-1.638-14.09-2.474-28.272-2.469-42.465c0.01-14.97,0.957-29.936,2.792-44.788
		c-1.833,14.853-2.777,29.818-2.786,44.788C303.596,375.81,304.427,389.988,306.064,404.078 M470.627,328.765
		c-0.29-3.192-0.619-6.38-0.992-9.564c0.373,3.185,0.702,6.372,0.992,9.56V328.765 M460.584,285.942
		c-0.371-0.267-0.763-0.508-1.159-0.725c0.402,0.217,0.788,0.458,1.164,0.72L460.584,285.942 M344.386,280.156
		c14.414-1.726,28.938-2.609,43.463-2.609c0.074,0,0.147,0,0.225,0c14.38,0.005,28.751,0.879,43.028,2.58
		c-14.277-1.701-28.648-2.57-43.028-2.58c-0.063,0-0.125,0-0.188,0C373.34,277.547,358.814,278.431,344.386,280.156"/>
	<path fill="#D8D8D8" d="M415.779,330.745c-0.237-0.08-0.477-0.144-0.716-0.188c-8.943-1.671-18.024-2.54-27.111-2.54
		c-9.145,0-18.289,0.86-27.278,2.54l-0.285,0.06l-44.912-44.9c1.373-0.894,2.935-1.537,4.602-1.846
		c8.063-1.502,16.168-2.743,24.308-3.714c14.429-1.726,28.954-2.609,43.499-2.609c0.063,0,0.126,0,0.188,0
		c14.38,0.01,28.751,0.879,43.028,2.58c8.224,0.975,16.414,2.227,24.558,3.743c1.338,0.246,2.605,0.706,3.766,1.348
		c0.396,0.217,0.788,0.458,1.159,0.725L415.779,330.745"/>
	<path fill="#F3C376" d="M420.24,382.211c0.941-6.726,1.429-13.516,1.429-20.313l0,0l0,0l0,0l0,0c0-9.145-0.857-18.289-2.538-27.278
		c-0.179-0.99-0.646-1.859-1.302-2.551l44.591-44.591c1.715,1.753,2.92,4.019,3.398,6.546c1.553,8.347,2.828,16.747,3.816,25.176
		c0.373,3.185,0.702,6.372,0.992,9.564C458.14,350.209,440.852,368.512,420.24,382.211"/>
	<path fill="#AFE9E0" d="M330.894,409.136c-8.311,0-16.472-0.628-24.442-1.835c-0.134-1.073-0.262-2.146-0.387-3.223
		c-1.638-14.09-2.469-28.269-2.463-42.465c0.009-14.97,0.953-29.936,2.786-44.788c0.948-7.634,2.126-15.236,3.534-22.801
		c0.5-2.657,1.809-5.019,3.683-6.815l0,0l44.591,44.586c-0.812,0.729-1.383,1.705-1.587,2.825
		c-1.669,8.941-2.538,18.027-2.538,27.113l0,0l0,0l0,0l0,0c0,9.146,0.855,18.289,2.538,27.279c0.047,0.25,0.107,0.487,0.19,0.715
		l0,0l-19.275,19.273C335.323,409.088,333.116,409.136,330.894,409.136"/>
	<path fill="#68C8BB" d="M341.082,408.818l17.042-17.043c0.69,0.656,1.571,1.121,2.55,1.3c8.941,1.671,18.027,2.541,27.113,2.541
		c2.827,0,5.652-0.083,8.474-0.246C379.213,402.919,360.618,407.605,341.082,408.818"/>
	<path fill="#56595D" d="M387.787,395.616c-9.086,0-18.172-0.87-27.113-2.541c-0.979-0.179-1.859-0.644-2.55-1.3l2.17-2.169
		c-0.599-0.57-1.05-1.275-1.287-2.087l-2.208,2.208l0,0l0,0c-0.083-0.228-0.144-0.465-0.19-0.715
		c-1.683-8.99-2.538-18.134-2.538-27.279l0,0c0-9.086,0.869-18.172,2.538-27.113c0.204-1.12,0.775-2.097,1.587-2.825l0,0l2.17,2.173
		c-0.752,0.676-1.288,1.594-1.49,2.633c-1.54,8.283-2.351,16.714-2.351,25.133l0,0l0,0c0,8.487,0.811,16.966,2.351,25.299
		l0.132,0.487c0.237,0.812,0.688,1.517,1.287,2.087c0.643,0.599,1.454,1.023,2.36,1.203c8.284,1.541,16.714,2.348,25.133,2.348
		c4.995,0,9.98-0.275,14.946-0.827c-2.133,1.063-4.289,2.077-6.473,3.04C393.439,395.533,390.614,395.616,387.787,395.616
		 M417.375,384.075c1.208-7.328,1.836-14.763,1.836-22.177l0,0l0,0c0-8.487-0.807-16.966-2.348-25.298
		c-0.166-0.908-0.607-1.715-1.203-2.362l2.169-2.169c0.656,0.691,1.123,1.561,1.302,2.551c1.681,8.989,2.538,18.134,2.538,27.278
		l0,0c0,6.797-0.487,13.587-1.429,20.313C419.292,382.844,418.341,383.462,417.375,384.075 M413.573,332.953L413.573,332.953
		l-0.487-0.13c-8.29-1.542-16.715-2.353-25.134-2.353c-8.487,0-16.966,0.811-25.358,2.361l0,0l0,0l-2.205-2.216l0,0l0.285-0.06
		c8.989-1.68,18.134-2.54,27.278-2.54c9.087,0,18.168,0.869,27.111,2.54c0.239,0.045,0.479,0.108,0.716,0.188l0,0L413.573,332.953"
		/>
	<path fill="#CEECF4" d="M387.787,393.157c-8.419,0-16.849-0.807-25.133-2.348c-0.906-0.18-1.718-0.604-2.36-1.203
		c-0.599-0.57-1.05-1.275-1.287-2.087l-0.132-0.487c-1.54-8.333-2.351-16.812-2.351-25.299l0,0c0-8.419,0.811-16.85,2.351-25.133
		c0.202-1.039,0.738-1.957,1.49-2.633l0,0c0.617-0.561,1.383-0.956,2.229-1.136l0,0l0,0c8.393-1.551,16.871-2.361,25.358-2.361
		c8.419,0,16.844,0.811,25.134,2.353l0.487,0.13l0,0c0.798,0.237,1.512,0.69,2.087,1.285l0,0c0.596,0.647,1.037,1.454,1.203,2.362
		c1.541,8.332,2.348,16.811,2.348,25.298l0,0c0,7.414-0.628,14.849-1.836,22.177c-4.72,2.995-9.607,5.753-14.642,8.255
		C397.768,392.882,392.782,393.157,387.787,393.157"/>
	<path fill="#56595D" d="M360.365,333.968L360.365,333.968l-2.17-2.173l-44.591-44.586l-3.598-3.604l1.858-1.502l3.611,3.613
		l44.912,44.9l2.205,2.216C361.748,333.012,360.982,333.407,360.365,333.968"/>
	<path fill="#56595D" d="M337.523,409.001l19.275-19.273l2.208-2.208c0.237,0.812,0.688,1.517,1.287,2.087l-2.17,2.169
		l-17.042,17.043C339.899,408.895,338.714,408.952,337.523,409.001"/>
	<path fill="#56595D" d="M415.66,334.238c-0.575-0.595-1.289-1.048-2.087-1.285l0,0l2.206-2.208l44.805-44.803l0.005-0.005
		l3.609-3.609c0.651,0.456,1.261,0.977,1.82,1.551l-3.599,3.6l-44.591,44.591L415.66,334.238"/>
</g>
<g>
	<polyline fill="#3D3D3D" points="81.051,242.355 48.621,242.355 48.621,149.396 81.051,149.396 81.051,242.355 	"/>
	<path fill="#5C5C5C" d="M57.196,242.355h-6.289v-92.959h0.858h0.649l0.628,0.129c1.372,0.281,2.758,0.5,4.153,0.66V242.355"/>
	<polyline fill="#373737" points="81.051,242.355 78.867,242.355 78.867,149.396 77.905,149.396 81.051,149.396 81.051,242.355 	"/>
	<path fill="#373737" d="M72.501,242.355h-5.535v-92.17c0.61-0.059,1.218-0.139,1.824-0.229l3.711-0.561V242.355"/>
	<polyline fill="#313131" points="78.867,242.355 72.501,242.355 72.501,149.396 76.146,149.396 77.905,149.396 78.867,149.396 
		78.867,242.355 	"/>
	<path fill="#7B7B7B" d="M62.111,150.457c-1.643,0-3.284-0.09-4.915-0.271v-0.789h1.481h7.875h0.413v0.789
		C65.354,150.367,63.732,150.457,62.111,150.457"/>
	<path fill="#909090" d="M57.196,150.186c-1.396-0.16-2.781-0.379-4.153-0.66l-0.628-0.129h1.193h3.588V150.186"/>
	<path fill="#777777" d="M66.966,150.186v-0.789h5.535l-3.711,0.561C68.184,150.047,67.576,150.127,66.966,150.186"/>
	<polyline fill="#515151" points="77.905,149.396 51.766,149.396 51.766,135.775 77.905,135.775 77.905,149.396 	"/>
	<path fill="#6D6D6D" d="M58.678,149.396h-1.481h-3.588v-13.621h0.389h0.826l0.507,0.102c1.105,0.229,2.223,0.41,3.348,0.529
		V149.396"/>
	<polyline fill="#494949" points="77.905,149.396 76.146,149.396 76.146,135.775 75.674,135.775 77.905,135.775 77.905,149.396 	"/>
	<path fill="#494949" d="M71.015,149.396h-4.462v-12.98c0.491-0.049,0.981-0.119,1.47-0.189l2.992-0.451V149.396"/>
	<polyline fill="#414141" points="76.146,149.396 72.501,149.396 71.015,149.396 71.015,135.775 74.215,135.775 75.674,135.775 
		76.146,135.775 76.146,149.396 	"/>
	<path fill="#888888" d="M62.643,136.627c-1.325,0-2.649-0.07-3.965-0.221v-0.631h1.051h6.531h0.293v0.641
		C65.255,136.557,63.949,136.627,62.643,136.627"/>
	<path fill="#9B9B9B" d="M58.678,136.406c-1.125-0.119-2.242-0.301-3.348-0.529l-0.507-0.102h0.702h3.152V136.406"/>
	<path fill="#838383" d="M66.553,136.416v-0.641h4.462l-2.992,0.451C67.534,136.297,67.044,136.367,66.553,136.416"/>
	<polyline fill="#515151" points="75.674,135.775 53.997,135.775 53.997,77.787 75.674,77.787 75.674,135.775 	"/>
	<path fill="#6D6D6D" d="M59.729,135.775h-1.051h-3.152V77.787h0.806h0.202l0.42,0.08c0.917,0.189,1.843,0.34,2.775,0.439V135.775"
		/>
	<polyline fill="#494949" points="75.674,135.775 74.215,135.775 74.215,77.787 74.382,77.787 75.674,77.787 75.674,135.775 	"/>
	<path fill="#494949" d="M69.96,135.775h-3.7V78.316c0.407-0.051,0.814-0.1,1.219-0.16l2.481-0.369V135.775"/>
	<polyline fill="#414141" points="74.215,135.775 71.015,135.775 69.96,135.775 69.96,77.787 73.345,77.787 74.215,77.787 
		74.215,135.775 	"/>
	<path fill="#888888" d="M63.017,78.486c-1.099,0-2.197-0.061-3.288-0.18v-0.52H61h5.26v0.529
		C65.183,78.426,64.1,78.486,63.017,78.486"/>
	<path fill="#9B9B9B" d="M59.729,78.307c-0.933-0.1-1.858-0.25-2.775-0.439l-0.42-0.08h3.195V78.307"/>
	<path fill="#838383" d="M66.26,78.316v-0.529h2.415h1.285l-2.481,0.369C67.074,78.217,66.667,78.266,66.26,78.316"/>
	<path fill="#D32F2D" d="M74.382,77.787H55.289V59.531c0-5.271,4.274-9.547,9.547-9.547s9.546,4.275,9.546,9.547V77.787"/>
	<path fill="#DA504F" d="M61,77.787h-1.271h-3.195h-0.202V63.795c0.536,1.059,1.264,2.002,2.137,2.787
		c0.747,0.674,1.6,1.229,2.532,1.639V77.787"/>
	<path fill="#C82B28" d="M73.345,77.787H69.96h-1.285v-9.566c2.024-0.893,3.679-2.471,4.67-4.439V77.787"/>
	<path fill="#DC5957" d="M74.356,59.506c0,5.258-4.263,9.52-9.521,9.52c-5.259,0-9.521-4.262-9.521-9.52s4.262-9.521,9.521-9.521
		C70.094,49.984,74.356,54.248,74.356,59.506"/>
	<path fill="#FFFFFF" d="M60.689,50.93c1.253-0.607,2.657-0.949,4.141-0.949c0.13,0,0.259,0,0.383,0.012
		c-0.104-0.004-0.21-0.006-0.315-0.006c-0.005,0-0.009,0-0.014,0c-0.016-0.002-0.032-0.002-0.048-0.002c-0.015,0-0.03,0-0.045,0
		c-0.006,0.002-0.011,0.002-0.018,0.002C63.312,49.994,61.927,50.332,60.689,50.93"/>
	<path fill="#DA504F" d="M56.331,63.795c-0.652-1.289-1.021-2.748-1.021-4.293c0-3.768,2.198-7.029,5.379-8.572
		c1.237-0.598,2.622-0.936,4.084-0.943c-5.229,0.031-9.458,4.281-9.458,9.52c0,1.541,0.366,2.996,1.016,4.283V63.795 M65.214,49.992
		c-0.105-0.004-0.21-0.006-0.316-0.006C65.003,49.986,65.108,49.988,65.214,49.992L65.214,49.992 M64.884,49.986
		c-0.016-0.002-0.032-0.002-0.048-0.002c-0.015,0-0.03,0-0.045,0c0.015,0,0.03,0,0.045,0C64.852,49.984,64.868,49.984,64.884,49.986
		"/>
	<path fill="#E06C6B" d="M58.468,66.582c-0.873-0.785-1.601-1.729-2.137-2.787v-0.006C56.866,64.85,57.594,65.795,58.468,66.582"/>
	<path fill="#E27472" d="M64.83,69.021c-2.444,0-4.675-0.922-6.362-2.439c-0.874-0.787-1.602-1.732-2.137-2.793
		c-0.649-1.287-1.016-2.742-1.016-4.283c0-5.238,4.229-9.488,9.458-9.52c0.007,0,0.012,0,0.018-0.002c0.015,0,0.03,0,0.045,0
		c0.016,0,0.032,0,0.048,0.002c0.005,0,0.009,0,0.014,0c0.106,0,0.211,0.002,0.316,0.006c0.057,0.006,0.114,0.012,0.169,0.021
		c-4.996,0.27-8.981,4.43-8.981,9.488c0,5.076,3.985,9.219,8.981,9.486C65.209,69.021,65.02,69.021,64.83,69.021"/>
	<polyline fill="#3D3D3D" points="124.469,242.355 92.039,242.355 92.039,149.396 124.469,149.396 124.469,242.355 	"/>
	<path fill="#5C5C5C" d="M100.613,242.355h-6.287v-92.959h0.857h0.649l0.629,0.129c1.371,0.281,2.757,0.5,4.151,0.66V242.355"/>
	<polyline fill="#373737" points="124.469,242.355 122.286,242.355 122.286,149.396 121.325,149.396 124.469,149.396 
		124.469,242.355 	"/>
	<path fill="#373737" d="M115.92,242.355h-5.535v-92.17c0.609-0.059,1.217-0.139,1.823-0.229l3.712-0.561V242.355"/>
	<polyline fill="#313131" points="122.286,242.355 115.92,242.355 115.92,149.396 119.565,149.396 121.325,149.396 122.286,149.396 
		122.286,242.355 	"/>
	<path fill="#7B7B7B" d="M105.53,150.457c-1.644,0-3.285-0.09-4.917-0.271v-0.789h1.483h7.875h0.413v0.789
		C108.772,150.367,107.15,150.457,105.53,150.457"/>
	<path fill="#909090" d="M100.613,150.186c-1.395-0.16-2.78-0.379-4.151-0.66l-0.629-0.129h1.194h3.586V150.186"/>
	<path fill="#777777" d="M110.385,150.186v-0.789h5.535l-3.712,0.561C111.602,150.047,110.994,150.127,110.385,150.186"/>
	<polyline fill="#515151" points="121.325,149.396 95.184,149.396 95.184,135.775 121.325,135.775 121.325,149.396 	"/>
	<path fill="#6D6D6D" d="M102.097,149.396h-1.483h-3.586v-13.621h0.389h0.825l0.508,0.102c1.104,0.229,2.223,0.41,3.348,0.529
		V149.396"/>
	<polyline fill="#494949" points="121.325,149.396 119.565,149.396 119.565,135.775 119.093,135.775 121.325,135.775 
		121.325,149.396 	"/>
	<path fill="#494949" d="M114.434,149.396h-4.462v-12.98c0.491-0.049,0.981-0.119,1.47-0.189l2.992-0.451V149.396"/>
	<polyline fill="#414141" points="119.565,149.396 115.92,149.396 114.434,149.396 114.434,135.775 117.634,135.775 
		119.093,135.775 119.565,135.775 119.565,149.396 	"/>
	<path fill="#888888" d="M106.062,136.627c-1.326,0-2.649-0.07-3.965-0.221v-0.631h1.051h6.531h0.293v0.641
		C108.673,136.557,107.367,136.627,106.062,136.627"/>
	<path fill="#9B9B9B" d="M102.097,136.406c-1.125-0.119-2.243-0.301-3.348-0.529l-0.508-0.102h0.702h3.153V136.406"/>
	<path fill="#838383" d="M109.972,136.416v-0.641h4.462l-2.992,0.451C110.953,136.297,110.463,136.367,109.972,136.416"/>
	<polyline fill="#515151" points="119.093,135.775 97.416,135.775 97.416,77.787 119.093,77.787 119.093,135.775 	"/>
	<path fill="#6D6D6D" d="M103.147,135.775h-1.051h-3.153V77.787h0.806h0.203l0.42,0.08c0.917,0.189,1.843,0.34,2.775,0.439V135.775"
		/>
	<polyline fill="#494949" points="119.093,135.775 117.634,135.775 117.634,77.787 117.801,77.787 119.093,77.787 119.093,135.775 	
		"/>
	<path fill="#494949" d="M113.378,135.775h-3.699V78.316c0.407-0.051,0.814-0.1,1.219-0.16l2.48-0.369V135.775"/>
	<polyline fill="#414141" points="117.634,135.775 114.434,135.775 113.378,135.775 113.378,77.787 116.763,77.787 117.634,77.787 
		117.634,135.775 	"/>
	<path fill="#888888" d="M106.436,78.486c-1.1,0-2.198-0.061-3.288-0.18v-0.52h1.271h5.26v0.529
		C108.602,78.426,107.518,78.486,106.436,78.486"/>
	<path fill="#9B9B9B" d="M103.147,78.307c-0.933-0.1-1.858-0.25-2.775-0.439l-0.42-0.08h3.195V78.307"/>
	<path fill="#838383" d="M109.679,78.316v-0.529h2.414h1.285l-2.48,0.369C110.493,78.217,110.086,78.266,109.679,78.316"/>
	<path fill="#F59A74" d="M117.801,77.787H98.708V59.531c0-5.271,4.273-9.547,9.546-9.547s9.547,4.275,9.547,9.547V77.787"/>
	<path fill="#F7AA8A" d="M104.419,77.787h-1.271h-3.195h-0.203V63.793c0.476,0.939,1.102,1.789,1.848,2.518
		c0.813,0.797,1.768,1.445,2.822,1.91V77.787"/>
	<path fill="#E88E67" d="M116.763,77.787h-3.385h-1.285v-9.566c2.024-0.893,3.679-2.471,4.67-4.439V77.787"/>
	<path fill="#F7AE90" d="M117.774,59.506c0,5.258-4.262,9.52-9.521,9.52c-5.258,0-9.521-4.262-9.521-9.52s4.263-9.521,9.521-9.521
		C113.513,49.984,117.774,54.248,117.774,59.506"/>
	<path fill="#FFFFFF" d="M104.249,50.863c1.217-0.566,2.572-0.883,3.999-0.883c0.131,0,0.26,0,0.385,0.012
		c-0.105-0.004-0.211-0.006-0.317-0.006c-0.006,0-0.011,0-0.016-0.002c-0.015,0-0.031,0-0.046,0c-0.017,0-0.032,0-0.048,0.002
		c-0.004,0-0.01,0-0.015,0C106.785,49.994,105.45,50.307,104.249,50.863"/>
	<path fill="#F7AA8A" d="M99.749,63.793c-0.652-1.289-1.02-2.746-1.02-4.291c0-3.822,2.264-7.125,5.52-8.639
		c1.201-0.557,2.536-0.869,3.942-0.877c-5.229,0.031-9.458,4.281-9.458,9.52c0,1.541,0.365,2.994,1.016,4.283V63.793
		 M108.634,49.992c-0.106-0.004-0.212-0.006-0.318-0.006C108.422,49.986,108.527,49.988,108.634,49.992
		C108.633,49.992,108.633,49.992,108.634,49.992 M108.206,49.986c0.016-0.002,0.031-0.002,0.048-0.002c0.015,0,0.031,0,0.046,0
		c-0.015,0-0.031,0-0.046,0C108.237,49.984,108.222,49.984,108.206,49.986"/>
	<path fill="#F9B89D" d="M101.597,66.311c-0.746-0.729-1.372-1.578-1.848-2.518v-0.004
		C100.224,64.729,100.851,65.582,101.597,66.311"/>
	<path fill="#F9BBA2" d="M108.248,69.021c-2.586,0-4.935-1.033-6.651-2.711c-0.746-0.729-1.373-1.582-1.848-2.521
		c-0.65-1.289-1.016-2.742-1.016-4.283c0-5.238,4.229-9.488,9.458-9.52c0.005,0,0.011,0,0.015,0
		c0.016-0.002,0.031-0.002,0.048-0.002c0.015,0,0.031,0,0.046,0c0.005,0.002,0.01,0.002,0.016,0.002
		c0.106,0,0.212,0.002,0.318,0.006c0.057,0.006,0.113,0.012,0.168,0.021c-4.997,0.27-8.982,4.43-8.982,9.488
		c0,5.076,3.985,9.219,8.982,9.486C108.628,69.021,108.438,69.021,108.248,69.021"/>
	<polyline fill="#3D3D3D" points="167.888,242.355 135.458,242.355 135.458,149.396 167.888,149.396 167.888,242.355 	"/>
	<path fill="#5C5C5C" d="M144.032,242.355h-6.287v-92.959h0.857h0.649l0.629,0.129c1.371,0.281,2.757,0.5,4.151,0.66V242.355"/>
	<polyline fill="#373737" points="167.888,242.355 165.705,242.355 165.705,149.396 164.743,149.396 167.888,149.396 
		167.888,242.355 	"/>
	<path fill="#373737" d="M159.339,242.355h-5.535v-92.17c0.609-0.059,1.217-0.139,1.823-0.229l3.712-0.561V242.355"/>
	<polyline fill="#313131" points="165.705,242.355 159.339,242.355 159.339,149.396 162.983,149.396 164.743,149.396 
		165.705,149.396 165.705,242.355 	"/>
	<path fill="#7B7B7B" d="M148.95,150.457c-1.645,0-3.286-0.09-4.918-0.271v-0.789h1.482h7.876h0.413v0.789
		C152.191,150.367,150.569,150.457,148.95,150.457"/>
	<path fill="#909090" d="M144.032,150.186c-1.395-0.16-2.78-0.379-4.151-0.66l-0.629-0.129h1.194h3.586V150.186"/>
	<path fill="#777777" d="M153.804,150.186v-0.789h5.535l-3.712,0.561C155.021,150.047,154.413,150.127,153.804,150.186"/>
	<polyline fill="#515151" points="164.743,149.396 138.603,149.396 138.603,135.775 164.743,135.775 164.743,149.396 	"/>
	<path fill="#6D6D6D" d="M145.515,149.396h-1.482h-3.586v-13.621h0.388h0.827l0.506,0.102c1.104,0.229,2.223,0.41,3.348,0.529
		V149.396"/>
	<polyline fill="#494949" points="164.743,149.396 162.983,149.396 162.983,135.775 162.512,135.775 164.743,135.775 
		164.743,149.396 	"/>
	<path fill="#494949" d="M157.852,149.396h-4.461v-12.98c0.491-0.049,0.981-0.119,1.469-0.189l2.992-0.451V149.396"/>
	<polyline fill="#414141" points="162.983,149.396 159.339,149.396 157.852,149.396 157.852,135.775 161.053,135.775 
		162.512,135.775 162.983,135.775 162.983,149.396 	"/>
	<path fill="#888888" d="M149.479,136.627c-1.324,0-2.649-0.07-3.965-0.221v-0.631h1.052h6.531h0.293v0.641
		C152.092,136.557,150.786,136.627,149.479,136.627"/>
	<path fill="#9B9B9B" d="M145.515,136.406c-1.125-0.119-2.243-0.301-3.348-0.529l-0.506-0.102h0.703h3.15V136.406"/>
	<path fill="#838383" d="M153.391,136.416v-0.641h4.461l-2.992,0.451C154.372,136.297,153.882,136.367,153.391,136.416"/>
	<polyline fill="#515151" points="162.512,135.775 140.834,135.775 140.834,77.787 162.512,77.787 162.512,135.775 	"/>
	<path fill="#6D6D6D" d="M146.566,135.775h-1.052h-3.15V77.787h0.804h0.202l0.42,0.08c0.917,0.189,1.844,0.34,2.776,0.439V135.775"
		/>
	<polyline fill="#494949" points="162.512,135.775 161.053,135.775 161.053,77.787 161.22,77.787 162.512,77.787 162.512,135.775 	
		"/>
	<path fill="#494949" d="M156.797,135.775h-3.699V78.316c0.407-0.051,0.814-0.1,1.219-0.16l2.48-0.369V135.775"/>
	<polyline fill="#414141" points="161.053,135.775 157.852,135.775 156.797,135.775 156.797,77.787 160.182,77.787 161.053,77.787 
		161.053,135.775 	"/>
	<path fill="#888888" d="M149.854,78.486c-1.099,0-2.197-0.061-3.288-0.18v-0.52h1.271h5.26v0.529
		C152.021,78.426,150.937,78.486,149.854,78.486"/>
	<path fill="#9B9B9B" d="M146.566,78.307c-0.933-0.1-1.859-0.25-2.776-0.439l-0.42-0.08h3.196V78.307"/>
	<path fill="#838383" d="M153.098,78.316v-0.529h2.414h1.285l-2.48,0.369C153.912,78.217,153.505,78.266,153.098,78.316"/>
	<path fill="#F4867A" d="M161.22,77.787h-19.094V59.531c0-5.271,4.274-9.547,9.547-9.547s9.547,4.275,9.547,9.547V77.787"/>
	<path fill="#F6998F" d="M147.838,77.787h-1.271h-3.196h-0.202V63.795c0.593,1.172,1.421,2.203,2.422,3.035
		c0.677,0.561,1.432,1.033,2.248,1.391V77.787"/>
	<path fill="#E77C6C" d="M160.182,77.787h-3.385h-1.285v-9.566c2.024-0.893,3.679-2.471,4.67-4.439V77.787"/>
	<path fill="#F69E95" d="M161.193,59.506c0,5.258-4.263,9.52-9.521,9.52s-9.521-4.262-9.521-9.52s4.263-9.521,9.521-9.521
		S161.193,54.248,161.193,59.506"/>
	<path fill="#FFFFFF" d="M147.512,50.936c1.256-0.609,2.666-0.955,4.155-0.955c0.13,0,0.26,0,0.384,0.012
		c-0.104-0.004-0.21-0.006-0.316-0.006c-0.005,0-0.009,0-0.014,0c-0.016-0.002-0.032-0.002-0.048-0.002s-0.031,0-0.047,0.002
		c-0.005,0-0.01,0-0.016,0C150.143,49.994,148.753,50.336,147.512,50.936"/>
	<path fill="#F6998F" d="M143.168,63.795c-0.653-1.289-1.021-2.748-1.021-4.293c0-3.762,2.191-7.02,5.364-8.566
		c1.241-0.6,2.631-0.941,4.099-0.949c-5.229,0.031-9.458,4.281-9.458,9.52c0,1.539,0.365,2.994,1.016,4.283V63.795 M152.052,49.992
		c-0.105-0.004-0.211-0.006-0.317-0.006C151.841,49.986,151.946,49.988,152.052,49.992
		C152.052,49.992,152.052,49.992,152.052,49.992 M151.721,49.986c-0.016-0.002-0.032-0.002-0.048-0.002s-0.031,0-0.047,0.002
		c0.016-0.002,0.031-0.002,0.047-0.002S151.705,49.984,151.721,49.986"/>
	<path fill="#F8A9A1" d="M145.59,66.83c-1.001-0.832-1.829-1.863-2.422-3.035v-0.006C143.76,64.961,144.588,65.996,145.59,66.83"/>
	<path fill="#F8AEA6" d="M151.667,69.021c-2.309,0-4.428-0.822-6.077-2.191c-1.002-0.834-1.83-1.869-2.422-3.041
		c-0.65-1.289-1.016-2.744-1.016-4.283c0-5.238,4.229-9.488,9.458-9.52c0.006,0,0.011,0,0.016,0
		c0.016-0.002,0.031-0.002,0.047-0.002s0.032,0,0.048,0.002c0.005,0,0.009,0,0.014,0c0.106,0,0.212,0.002,0.317,0.006
		c0.058,0.006,0.114,0.012,0.169,0.021c-4.997,0.27-8.981,4.43-8.981,9.488c0,5.076,3.984,9.219,8.981,9.486
		C152.047,69.021,151.856,69.021,151.667,69.021"/>
</g>
<g>
	<polyline fill="#F2F2F2" points="304.899,103.276 304.899,242.356 276.579,242.356 276.579,103.276 304.899,103.276 	"/>
	<path fill="#DE5046" d="M302.59,103.276v125.83c0,1.85-1.49,3.34-3.34,3.34h-17.03c-1.84,0-3.34-1.49-3.34-3.34v-125.83H302.59"/>
	<path fill="#F6F6F6" d="M286.96,242.356h-6.76v-10.59c0.56,0.43,1.26,0.68,2.02,0.68h4.74V242.356"/>
	<path fill="#E88881" d="M286.96,232.446h-4.74c-0.76,0-1.46-0.25-2.02-0.68v-128.49h5.939h0.82V232.446"/>
	<path fill="#D9CDBD" d="M304.899,242.356h-4.01v-10.34c1.01-0.57,1.7-1.66,1.7-2.91v-125.83h2.31V242.356"/>
	<path fill="#C74437" d="M300.89,232.016v-128.74h1.7v125.83C302.59,230.356,301.899,231.446,300.89,232.016"/>
	<polyline fill="#D9CDBD" points="296.87,242.356 292.859,242.356 292.859,232.446 296.87,232.446 296.87,242.356 	"/>
	<polyline fill="#C74437" points="296.87,232.446 292.859,232.446 292.859,103.276 293.729,103.276 296.87,103.276 296.87,232.446 	
		"/>
	<path fill="#C3AE93" d="M300.89,242.356h-4.02v-9.91h2.38c0.6,0,1.149-0.15,1.64-0.43V242.356"/>
	<path fill="#B33A2B" d="M299.25,232.446h-2.38v-129.17h0.739h3.28v128.74C300.399,232.295,299.85,232.446,299.25,232.446"/>
	<polyline fill="#515151" points="305.85,95.077 275.63,95.077 275.63,103.276 305.85,103.276 305.85,95.077 	"/>
	<polyline fill="#888888" points="286.14,103.276 279.84,103.276 279.84,95.077 281.04,95.077 286.14,95.077 286.14,103.276 	"/>
	<polyline fill="#414141" points="297.609,103.276 293.729,103.276 293.729,95.077 296.85,95.077 297.609,95.077 297.609,103.276 	
		"/>
	<polyline fill="#414141" points="305.85,103.276 301.56,103.276 301.56,95.077 304.18,95.077 305.85,95.077 305.85,103.276 	"/>
	<polyline fill="#343434" points="301.56,103.276 300.89,103.276 297.609,103.276 297.609,95.077 301.56,95.077 301.56,103.276 	"/>
	<polyline fill="#515151" points="304.18,23.661 277.29,23.661 277.29,95.077 304.18,95.077 304.18,23.661 	"/>
	<polyline fill="#888888" points="286.649,95.077 286.14,95.077 281.04,95.077 281.04,23.661 286.649,23.661 286.649,95.077 	"/>
	<polyline fill="#414141" points="296.85,95.077 293.399,95.077 293.399,23.661 300.37,23.661 296.85,23.661 296.85,95.077 	"/>
	<polyline fill="#2A2A2A" points="301.56,95.077 297.609,95.077 300.37,95.077 301.56,95.077 	"/>
	<polyline fill="#414141" points="304.18,95.077 301.56,95.077 300.37,95.077 300.37,23.661 304.18,23.661 304.18,95.077 	"/>
	<polyline fill="#343434" points="300.37,95.077 296.85,95.077 296.85,23.661 300.37,23.661 300.37,95.077 	"/>
	<polyline fill="#F2F2F2" points="260.319,103.276 260.319,242.356 232,242.356 232,103.276 260.319,103.276 	"/>
	<path fill="#E08D6C" d="M258.02,103.276v125.83c0,1.85-1.5,3.34-3.34,3.34h-17.03c-1.85,0-3.34-1.49-3.34-3.34v-125.83H258.02"/>
	<path fill="#F6F6F6" d="M242.39,242.356h-6.771v-10.59c0.561,0.43,1.261,0.68,2.03,0.68h4.74V242.356"/>
	<path fill="#EAB19B" d="M242.39,232.446h-4.74c-0.77,0-1.47-0.25-2.03-0.68v-128.49h5.94h0.83V232.446"/>
	<path fill="#D9CDBD" d="M260.319,242.356h-4.01v-10.34c1.02-0.57,1.71-1.66,1.71-2.91v-125.83h2.3V242.356"/>
	<path fill="#C97754" d="M256.31,232.016v-128.74h1.71v125.83C258.02,230.356,257.329,231.446,256.31,232.016"/>
	<polyline fill="#D9CDBD" points="252.3,242.356 248.29,242.356 248.29,232.446 252.3,232.446 252.3,242.356 	"/>
	<polyline fill="#C97754" points="252.3,232.446 248.29,232.446 248.29,103.276 249.149,103.276 252.3,103.276 252.3,232.446 	"/>
	<path fill="#C3AE93" d="M256.31,242.356h-4.01v-9.91h2.38c0.59,0,1.149-0.15,1.63-0.43V242.356"/>
	<path fill="#B56542" d="M254.68,232.446h-2.38v-129.17h0.729h3.28v128.74C255.829,232.295,255.27,232.446,254.68,232.446"/>
	<polyline fill="#515151" points="261.27,95.077 231.05,95.077 231.05,103.276 261.27,103.276 261.27,95.077 	"/>
	<polyline fill="#888888" points="241.56,103.276 235.27,103.276 235.27,95.077 236.46,95.077 241.56,95.077 241.56,103.276 	"/>
	<polyline fill="#414141" points="253.029,103.276 249.149,103.276 249.149,95.077 252.27,95.077 253.029,95.077 253.029,103.276 	
		"/>
	<polyline fill="#414141" points="261.27,103.276 256.979,103.276 256.979,95.077 259.609,95.077 261.27,95.077 261.27,103.276 	"/>
	<polyline fill="#343434" points="256.979,103.276 256.31,103.276 253.029,103.276 253.029,95.077 256.979,95.077 256.979,103.276 	
		"/>
	<polyline fill="#515151" points="259.609,23.661 232.71,23.661 232.71,95.077 259.609,95.077 259.609,23.661 	"/>
	<polyline fill="#888888" points="242.069,95.077 241.56,95.077 236.46,95.077 236.46,23.661 242.069,23.661 242.069,95.077 	"/>
	<polyline fill="#414141" points="252.27,95.077 248.819,95.077 248.819,23.661 255.79,23.661 252.27,23.661 252.27,95.077 	"/>
	<polyline fill="#2A2A2A" points="256.979,95.077 253.029,95.077 255.79,95.077 256.979,95.077 	"/>
	<polyline fill="#414141" points="259.609,95.077 256.979,95.077 255.79,95.077 255.79,23.661 259.609,23.661 259.609,95.077 	"/>
	<polyline fill="#343434" points="255.79,95.077 252.27,95.077 252.27,23.661 255.79,23.661 255.79,95.077 	"/>
	<polyline fill="#F2F2F2" points="215.739,103.276 215.739,242.356 187.42,242.356 187.42,103.276 215.739,103.276 	"/>
	<path fill="#FDB26B" d="M213.439,103.276v125.83c0,1.85-1.5,3.34-3.34,3.34h-17.03c-1.85,0-3.34-1.49-3.34-3.34v-125.83H213.439"/>
	<path fill="#F6F6F6" d="M197.81,242.356h-6.77v-10.59c0.569,0.43,1.27,0.68,2.029,0.68h4.74V242.356"/>
	<path fill="#FECA9A" d="M197.81,232.446h-4.74c-0.76,0-1.46-0.25-2.029-0.68v-128.49h5.949h0.82V232.446"/>
	<path fill="#D9CDBD" d="M215.739,242.356h-4.01v-10.34c1.021-0.57,1.71-1.66,1.71-2.91v-125.83h2.3V242.356"/>
	<path fill="#E39754" d="M211.729,232.016v-128.74h1.71v125.83C213.439,230.356,212.75,231.446,211.729,232.016"/>
	<polyline fill="#D9CDBD" points="207.72,242.356 203.71,242.356 203.71,232.446 207.72,232.446 207.72,242.356 	"/>
	<polyline fill="#E39754" points="207.72,232.446 203.71,232.446 203.71,103.276 204.569,103.276 207.72,103.276 207.72,232.446 	
		"/>
	<path fill="#C3AE93" d="M211.729,242.356h-4.01v-9.91h2.38c0.59,0,1.15-0.15,1.63-0.43V242.356"/>
	<path fill="#CC8042" d="M210.1,232.446h-2.38v-129.17h0.729h3.28v128.74C211.25,232.295,210.689,232.446,210.1,232.446"/>
	<polyline fill="#515151" points="216.689,95.077 186.479,95.077 186.479,103.276 216.689,103.276 216.689,95.077 	"/>
	<polyline fill="#888888" points="196.989,103.276 190.689,103.276 190.689,95.077 191.89,95.077 196.989,95.077 196.989,103.276 	
		"/>
	<polyline fill="#414141" points="208.449,103.276 204.569,103.276 204.569,95.077 207.699,95.077 208.449,95.077 208.449,103.276 	
		"/>
	<polyline fill="#414141" points="216.689,103.276 212.399,103.276 212.399,95.077 215.029,95.077 216.689,95.077 216.689,103.276 	
		"/>
	<polyline fill="#343434" points="212.399,103.276 211.729,103.276 208.449,103.276 208.449,95.077 212.399,95.077 212.399,103.276 
			"/>
	<polyline fill="#515151" points="215.029,23.661 188.14,23.661 188.14,95.077 215.029,95.077 215.029,23.661 	"/>
	<polyline fill="#888888" points="197.489,95.077 196.989,95.077 191.89,95.077 191.89,23.661 197.489,23.661 197.489,95.077 	"/>
	<polyline fill="#414141" points="207.699,95.077 204.239,95.077 204.239,23.661 211.21,23.661 207.699,23.661 207.699,95.077 	"/>
	<polyline fill="#2A2A2A" points="212.399,95.077 208.449,95.077 211.21,95.077 212.399,95.077 	"/>
	<polyline fill="#414141" points="215.029,95.077 212.399,95.077 211.21,95.077 211.21,23.661 215.029,23.661 215.029,95.077 	"/>
	<polyline fill="#343434" points="211.21,95.077 207.699,95.077 207.699,23.661 211.21,23.661 211.21,95.077 	"/>
</g>
<polyline fill="#EB7260" points="359.983,242.097 316.892,242.097 316.892,176.796 359.983,176.796 359.983,242.097 "/>
<polyline fill="#D3614B" points="359.983,242.097 348.874,242.097 348.874,176.796 355.438,176.796 359.983,176.796 
	359.983,242.097 "/>
<polyline fill="#F19F93" points="328.002,242.097 316.892,242.097 316.892,176.796 320.342,176.796 328.002,176.796 
	328.002,242.097 "/>
<polyline fill="#EFB04B" points="359.983,176.796 316.892,176.796 316.892,166.713 359.983,166.713 359.983,176.796 "/>
<polyline fill="#D7953B" points="359.983,176.796 355.438,176.796 355.438,166.713 354.429,166.713 359.983,166.713 
	359.983,176.796 "/>
<polyline fill="#D7953B" points="346.854,176.796 342.309,176.796 342.309,166.713 344.685,166.713 346.854,166.713 
	346.854,176.796 "/>
<polyline fill="#C17E2E" points="355.438,176.796 346.854,176.796 346.854,166.713 351.056,166.713 354.429,166.713 
	355.438,166.713 355.438,176.796 "/>
<path fill="#F4C984" d="M331.621,176.796h-3.619h-7.66v-10.083h2.104h2.562h6.613h-9.775c2.148,0.909,4.732,1.377,7.355,1.377
	c0.806,0,1.617-0.039,2.42-0.137V176.796"/>
<polyline fill="#EFB04B" points="354.429,166.713 322.446,166.713 322.446,123.92 354.429,123.92 354.429,166.713 "/>
<polyline fill="#D7953B" points="354.429,166.713 351.056,166.713 351.056,123.92 349.795,123.92 354.429,123.92 354.429,166.713 
	"/>
<polyline fill="#D7953B" points="344.685,166.713 341.31,166.713 341.31,124.067 342.197,123.92 341.31,123.92 343.424,123.92 
	344.685,123.92 344.685,166.713 "/>
<polyline fill="#C17E2E" points="351.056,166.713 344.685,166.713 344.685,123.92 348.747,123.92 349.795,123.92 351.056,123.92 
	351.056,166.713 "/>
<path fill="#F4C984" d="M333.378,166.713h-1.757h-6.613V123.92h2.073h1.048h5.249h-7.325c1.898,0.909,4.182,1.386,6.497,1.386
	c0.275,0,0.552-0.012,0.828-0.024V166.713"/>
<path fill="#EB7260" d="M349.795,123.92h-22.714l0.065-26.242c0.195-2.972,0.817-5.869,1.866-8.607
	c0.147-0.43,0.327-0.847,0.507-1.276c1.344-3.12,3.211-5.993,5.553-8.521c0.786-0.861,1.817-1.338,2.898-1.475
	c0.164-0.012,0.327-0.012,0.491-0.012s0.327,0,0.492,0.012c1.064,0.123,2.111,0.614,2.915,1.475
	c2.652,2.873,4.699,6.188,6.059,9.797c1.031,2.739,1.654,5.636,1.851,8.607L349.795,123.92"/>
<path fill="#EE897A" d="M333.451,123.92h-0.073h-5.249l0.064-26.242c0.112-1.842,0.37-3.669,0.777-5.439
	c0.326,4.101,2.048,7.639,4.507,9.701L333.451,123.92"/>
<path fill="#DF6955" d="M348.747,123.92h-5.323l-0.013-21.944c0.058-0.048,0.117-0.096,0.174-0.146
	c2.377-2.063,4.043-5.514,4.379-9.517c0.398,1.744,0.656,3.55,0.767,5.365L348.747,123.92"/>
<path fill="#EF8E80" d="M348.026,90.829c0,7.183-4.29,13.027-9.564,13.027c-5.272,0-9.548-5.845-9.548-13.027
	c0-0.59,0.034-1.18,0.099-1.758c0.147-0.43,0.327-0.847,0.507-1.276c1.344-3.12,3.211-5.993,5.553-8.521
	c0.786-0.861,1.817-1.338,2.898-1.475c0.164-0.012,0.327-0.012,0.491-0.012s0.327,0,0.492,0.012
	c1.064,0.123,2.111,0.614,2.915,1.475c2.652,2.873,4.699,6.188,6.059,9.797C347.994,89.648,348.026,90.239,348.026,90.829"/>
<path fill="#EE897A" d="M338.499,103.856c0.009,0,0.015,0,0.021,0C338.514,103.856,338.508,103.856,338.499,103.856 M338.53,103.856
	c0.006,0,0.014,0,0.021,0C338.544,103.856,338.536,103.856,338.53,103.856 M338.558,103.856c0.009,0,0.018,0,0.025,0
	C338.575,103.856,338.566,103.856,338.558,103.856 M338.587,103.856c1.764-0.024,3.413-0.712,4.824-1.88l0,0
	C342.001,103.144,340.356,103.832,338.587,103.856"/>
<path fill="#E48170" d="M343.411,101.976L343.411,101.976c0.058-0.048,0.116-0.096,0.174-0.146
	C343.528,101.88,343.469,101.928,343.411,101.976"/>
<path fill="#FFFFFF" d="M335.072,79.273c0.016-0.014,0.029-0.026,0.045-0.05C335.102,79.247,335.088,79.259,335.072,79.273"/>
<path fill="#F2A094" d="M338.462,103.856c-1.826,0-3.532-0.7-4.984-1.916c-2.459-2.063-4.181-5.6-4.507-9.701
	c-0.038-0.465-0.057-0.933-0.057-1.41c0-0.59,0.034-1.18,0.099-1.758c0.147-0.43,0.327-0.847,0.507-1.276
	c1.344-3.12,3.211-5.993,5.553-8.521l0,0c0.016-0.014,0.029-0.026,0.045-0.05c0.132-0.134,0.267-0.257,0.414-0.367
	c-2.246,2.456-4.029,5.231-5.324,8.25c-0.179,0.417-0.358,0.847-0.507,1.278c-0.065,0.576-0.099,1.166-0.099,1.755
	c0,7.183,4.274,13.028,9.549,13.028c1.948,0,3.767-0.799,5.272-2.161c-0.269,0.295-0.547,0.566-0.838,0.823
	c-0.058,0.05-0.116,0.098-0.174,0.146c-1.411,1.168-3.061,1.856-4.824,1.88c-0.001,0-0.003,0-0.004,0c-0.008,0-0.017,0-0.025,0
	c-0.001,0-0.003,0-0.007,0c-0.007,0-0.015,0-0.021,0c-0.004,0-0.007,0-0.01,0c-0.007,0-0.013,0-0.021,0c-0.002,0-0.006,0-0.008,0
	C338.481,103.856,338.472,103.856,338.462,103.856"/>
<path fill="#FCEDCE" d="M333.378,125.283v-1.362h7.932v0.146l-6.012,1.007C334.664,125.185,334.021,125.259,333.378,125.283"/>
<polyline fill="#F7E7CA" points="341.31,124.067 341.31,123.92 342.197,123.92 341.31,124.067 "/>
<path fill="#FDF3DE" d="M332.55,125.307c-2.315,0-4.599-0.477-6.497-1.386h7.325v1.362
	C333.102,125.294,332.825,125.307,332.55,125.307"/>
<path fill="#FCEDCE" d="M331.621,167.954v-1.24h8.499l-7.811,1.154C332.08,167.905,331.851,167.93,331.621,167.954"/>
<path fill="#FDF3DE" d="M329.201,168.09c-2.623,0-5.207-0.468-7.355-1.377h9.775v1.24
	C330.818,168.052,330.007,168.09,329.201,168.09"/>
<polyline fill="#DE5046" points="416.669,242.097 373.577,242.097 373.577,176.796 416.669,176.796 416.669,242.097 "/>
<polyline fill="#C74437" points="416.669,242.097 405.56,242.097 405.56,176.796 412.123,176.796 416.669,176.796 416.669,242.097 
	"/>
<polyline fill="#E88881" points="384.688,242.097 373.577,242.097 373.577,176.796 377.028,176.796 384.688,176.796 
	384.688,242.097 "/>
<polyline fill="#EFB04B" points="416.669,176.796 373.577,176.796 373.577,166.713 416.669,166.713 416.669,176.796 "/>
<path fill="#D7953B" d="M416.669,176.796h-4.546v-10.083h-1.009h5.555V176.796 M403.539,176.796h-4.545v-10.083h2.376h2.169V176.796
	"/>
<polyline fill="#C17E2E" points="412.123,176.796 403.539,176.796 403.539,166.713 407.741,166.713 411.114,166.713 
	412.123,166.713 412.123,176.796 "/>
<path fill="#F4C984" d="M388.306,176.796h-3.618h-7.659v-10.083h2.104h2.561h6.613h-9.775c2.149,0.909,4.733,1.377,7.357,1.377
	c0.805,0,1.616-0.039,2.418-0.137V176.796"/>
<polyline fill="#EFB04B" points="411.114,166.713 379.132,166.713 379.132,123.92 411.114,123.92 411.114,166.713 "/>
<path fill="#D7953B" d="M411.114,166.713h-3.373V123.92h-1.261h4.634V166.713 M401.37,166.713h-3.374v-42.646l0.887-0.146h-0.887
	h2.113h1.261V166.713"/>
<polyline fill="#C17E2E" points="407.741,166.713 401.37,166.713 401.37,123.92 405.433,123.92 406.48,123.92 407.741,123.92 
	407.741,166.713 "/>
<path fill="#F4C984" d="M390.063,166.713h-1.757h-6.613V123.92h2.074h1.048h5.248h-7.324c1.898,0.909,4.182,1.386,6.497,1.386
	c0.276,0,0.552-0.012,0.827-0.024V166.713"/>
<path fill="#DE5046" d="M406.48,123.92h-22.714l0.063-26.242c0.197-2.972,0.818-5.869,1.868-8.607
	c0.147-0.43,0.327-0.847,0.508-1.276c1.342-3.12,3.209-5.993,5.551-8.521c0.787-0.861,1.818-1.338,2.9-1.475
	c0.163-0.012,0.327-0.012,0.49-0.012c0.164,0,0.327,0,0.491,0.012c1.065,0.123,2.11,0.614,2.915,1.475
	c2.653,2.873,4.7,6.188,6.06,9.797c1.031,2.739,1.654,5.636,1.851,8.607L406.48,123.92"/>
<path fill="#E36C64" d="M390.136,123.92h-0.073h-5.248l0.064-26.242c0.111-1.842,0.369-3.669,0.777-5.439
	c0.325,4.101,2.049,7.639,4.508,9.701L390.136,123.92"/>
<path fill="#D24A3E" d="M405.433,123.92h-5.323l-0.013-21.944c0.059-0.048,0.119-0.096,0.177-0.159
	c2.375-2.05,4.04-5.501,4.376-9.504c0.398,1.744,0.656,3.55,0.767,5.365L405.433,123.92"/>
<path fill="#E5736B" d="M404.712,90.829c0,7.183-4.291,13.027-9.564,13.027c-5.274,0-9.548-5.845-9.548-13.027
	c0-0.59,0.033-1.18,0.099-1.758c0.147-0.43,0.327-0.847,0.508-1.276c1.342-3.12,3.209-5.993,5.551-8.521
	c0.787-0.861,1.818-1.338,2.9-1.475c0.163-0.012,0.327-0.012,0.49-0.012c0.164,0,0.327,0,0.491,0.012
	c1.065,0.123,2.11,0.614,2.915,1.475c2.653,2.873,4.7,6.188,6.06,9.797C404.68,89.648,404.712,90.239,404.712,90.829"/>
<path fill="#E36C64" d="M395.185,103.856c0.009,0,0.015,0,0.021,0C395.199,103.856,395.193,103.856,395.185,103.856
	 M395.216,103.856c0.007,0,0.013,0,0.021,0C395.229,103.856,395.222,103.856,395.216,103.856 M395.243,103.856
	c0.009,0,0.017,0,0.025,0C395.26,103.856,395.252,103.856,395.243,103.856 M395.272,103.856c1.763-0.024,3.412-0.712,4.824-1.88l0,0
	C398.688,103.144,397.042,103.832,395.272,103.856"/>
<path fill="#D9675D" d="M400.097,101.976L400.097,101.976c0.059-0.048,0.119-0.096,0.177-0.159
	C400.216,101.88,400.155,101.928,400.097,101.976"/>
<path fill="#E98983" d="M395.147,103.856c-1.826,0-3.531-0.7-4.983-1.916c-2.459-2.063-4.183-5.6-4.508-9.701
	c-0.039-0.465-0.057-0.933-0.057-1.41c0-0.59,0.033-1.18,0.099-1.758c0.147-0.43,0.327-0.847,0.508-1.276
	c1.342-3.12,3.209-5.993,5.551-8.521l0,0c0.007,0,0.013-0.014,0.019-0.014c0.001,0,0.002-0.012,0.004-0.012s0.006,0,0.008,0
	c0.138-0.146,0.276-0.269,0.43-0.391c-2.242,2.456-4.029,5.231-5.323,8.25c-0.18,0.417-0.359,0.847-0.509,1.278
	c-0.064,0.576-0.097,1.166-0.097,1.755c0,7.183,4.273,13.028,9.548,13.028c1.948,0,3.767-0.799,5.272-2.161
	c-0.268,0.295-0.546,0.566-0.835,0.811c-0.058,0.063-0.118,0.11-0.177,0.159c-1.412,1.168-3.062,1.856-4.824,1.88
	c-0.002,0-0.003,0-0.004,0c-0.009,0-0.017,0-0.025,0c-0.004,0-0.005,0-0.007,0c-0.008,0-0.014,0-0.021,0c-0.004,0-0.008,0-0.01,0
	c-0.007,0-0.013,0-0.021,0c-0.003,0-0.006,0-0.009,0C395.167,103.856,395.157,103.856,395.147,103.856"/>
<path fill="#FCEDCE" d="M390.063,125.283v-1.362h7.934v0.146l-6.014,1.007C391.349,125.185,390.706,125.259,390.063,125.283"/>
<polyline fill="#F7E7CA" points="397.996,124.067 397.996,123.92 398.883,123.92 397.996,124.067 "/>
<path fill="#FDF3DE" d="M389.235,125.307c-2.315,0-4.599-0.477-6.497-1.386h7.324v1.362
	C389.787,125.294,389.512,125.307,389.235,125.307"/>
<path fill="#FCEDCE" d="M388.306,167.954v-1.24h8.5l-7.81,1.154C388.767,167.905,388.536,167.93,388.306,167.954"/>
<path fill="#FDF3DE" d="M385.888,168.09c-2.624,0-5.208-0.468-7.357-1.377h9.775v1.24
	C387.504,168.052,386.692,168.09,385.888,168.09"/>
<polyline fill="#D32F2D" points="473.351,242.097 430.263,242.097 430.263,176.796 473.351,176.796 473.351,242.097 "/>
<polyline fill="#BD2823" points="473.351,242.097 462.245,242.097 462.245,176.796 468.807,176.796 473.351,176.796 
	473.351,242.097 "/>
<polyline fill="#E17170" points="441.372,242.097 430.263,242.097 430.263,176.796 433.714,176.796 441.372,176.796 
	441.372,242.097 "/>
<polyline fill="#EFB04B" points="473.351,176.796 430.263,176.796 430.263,166.713 473.351,166.713 473.351,176.796 "/>
<path fill="#D7953B" d="M473.351,176.796h-4.544v-10.083h-1.006h5.55V176.796 M460.224,176.796h-4.544v-10.083h2.375h2.169V176.796"
	/>
<polyline fill="#C17E2E" points="468.807,176.796 460.224,176.796 460.224,166.713 464.426,166.713 467.801,166.713 
	468.807,166.713 468.807,176.796 "/>
<path fill="#F4C984" d="M444.991,176.796h-3.619h-7.658v-10.083h2.102h2.562h6.614h-9.775c2.15,0.909,4.733,1.377,7.355,1.377
	c0.806,0,1.618-0.039,2.42-0.137V176.796"/>
<polyline fill="#EFB04B" points="467.801,166.713 435.815,166.713 435.815,123.92 467.801,123.92 467.801,166.713 "/>
<path fill="#D7953B" d="M467.801,166.713h-3.375V123.92h-1.26h4.635V166.713 M458.055,166.713h-3.373v-42.646l0.887-0.146h-0.887
	h2.114h1.259V166.713"/>
<polyline fill="#C17E2E" points="464.426,166.713 458.055,166.713 458.055,123.92 462.118,123.92 463.166,123.92 464.426,123.92 
	464.426,166.713 "/>
<path fill="#F4C984" d="M446.748,166.713h-1.757h-6.614V123.92h2.074h1.048h5.249h-7.324c1.898,0.909,4.182,1.386,6.497,1.386
	c0.275,0,0.552-0.012,0.827-0.024V166.713"/>
<path fill="#D32F2D" d="M463.166,123.92h-22.715l0.065-26.242c0.196-2.972,0.818-5.869,1.867-8.607
	c0.146-0.43,0.327-0.847,0.508-1.276c1.342-3.12,3.208-5.993,5.551-8.521c0.787-0.861,1.818-1.338,2.899-1.475
	c0.163-0.012,0.328-0.012,0.491-0.012c0.164,0,0.327,0,0.491,0.012c1.065,0.123,2.114,0.614,2.915,1.475
	c2.652,2.873,4.699,6.188,6.059,9.797c1.032,2.739,1.654,5.636,1.852,8.607L463.166,123.92"/>
<path fill="#DA504F" d="M446.821,123.92h-0.073h-5.249l0.065-26.242c0.112-1.842,0.369-3.669,0.777-5.439
	c0.324,4.101,2.049,7.639,4.507,9.701L446.821,123.92"/>
<path fill="#C82B28" d="M462.118,123.92h-5.322l-0.016-21.944c0.094-0.072,0.185-0.159,0.275-0.233l0.002-0.012
	c0.001,0,0.001,0,0.002,0c2.32-2.063,3.944-5.476,4.275-9.418c0.397,1.744,0.656,3.55,0.766,5.365L462.118,123.92"/>
<path fill="#DC5957" d="M461.396,90.829c0,7.183-4.289,13.027-9.563,13.027s-9.548-5.845-9.548-13.027
	c0-0.59,0.032-1.18,0.099-1.758c0.146-0.43,0.327-0.847,0.508-1.276c1.342-3.12,3.208-5.993,5.551-8.521
	c0.787-0.861,1.818-1.338,2.899-1.475c0.163-0.012,0.328-0.012,0.491-0.012c0.164,0,0.327,0,0.491,0.012
	c1.065,0.123,2.114,0.614,2.915,1.475c2.652,2.873,4.699,6.188,6.059,9.797C461.363,89.648,461.396,90.239,461.396,90.829"/>
<path fill="#DA504F" d="M451.87,103.856c0.007,0,0.014,0,0.021,0C451.884,103.856,451.877,103.856,451.87,103.856 M451.901,103.856
	c0.007,0,0.013,0,0.02,0C451.914,103.856,451.907,103.856,451.901,103.856 M451.928,103.856c0.009,0,0.018,0,0.026,0
	C451.945,103.856,451.937,103.856,451.928,103.856 M451.957,103.856c1.765-0.024,3.413-0.712,4.823-1.88l0,0
	C455.371,103.144,453.727,103.832,451.957,103.856"/>
<path fill="#D14D4A" d="M456.78,101.976L456.78,101.976c0.094-0.072,0.185-0.159,0.275-0.233
	C456.965,101.817,456.874,101.904,456.78,101.976 M457.058,101.731c0.001,0,0.001,0,0.002,0
	C457.059,101.731,457.059,101.731,457.058,101.731"/>
<path fill="#FFFFFF" d="M448.442,79.273c0.006,0,0.013-0.014,0.02-0.014C448.455,79.259,448.448,79.273,448.442,79.273"/>
<path fill="#E27472" d="M451.833,103.856c-1.826,0-3.532-0.7-4.984-1.916c-2.458-2.063-4.183-5.6-4.507-9.701
	c-0.039-0.465-0.057-0.933-0.057-1.41c0-0.59,0.032-1.18,0.099-1.758c0.146-0.43,0.327-0.847,0.508-1.276
	c1.342-3.12,3.208-5.993,5.551-8.521l0,0c0.006,0,0.013-0.014,0.02-0.014l0,0c0.004-0.012,0.007-0.012,0.012-0.012
	c0.137-0.146,0.274-0.269,0.429-0.391c-2.245,2.456-4.031,5.231-5.323,8.25c-0.18,0.417-0.36,0.847-0.508,1.278
	c-0.065,0.576-0.098,1.166-0.098,1.755c0,7.183,4.273,13.028,9.547,13.028c1.949,0,3.767-0.799,5.273-2.161
	c-0.236,0.259-0.481,0.504-0.734,0.725c-0.001,0-0.001,0-0.002,0c0,0,0,0-0.002,0.012c-0.091,0.074-0.182,0.161-0.275,0.233
	c-1.41,1.168-3.059,1.856-4.823,1.88c-0.001,0-0.002,0-0.003,0c-0.009,0-0.018,0-0.026,0c-0.003,0-0.004,0-0.007,0
	c-0.007,0-0.013,0-0.02,0c-0.004,0-0.008,0-0.01,0c-0.008,0-0.015,0-0.021,0c-0.003,0-0.006,0-0.009,0
	C451.852,103.856,451.842,103.856,451.833,103.856"/>
<path fill="#FCEDCE" d="M446.748,125.283v-1.362h7.934v0.146l-6.014,1.007C448.034,125.185,447.391,125.259,446.748,125.283"/>
<polyline fill="#F7E7CA" points="454.682,124.067 454.682,123.92 455.568,123.92 454.682,124.067 "/>
<path fill="#FDF3DE" d="M445.921,125.307c-2.315,0-4.599-0.477-6.497-1.386h7.324v1.362
	C446.473,125.294,446.196,125.307,445.921,125.307"/>
<path fill="#FCEDCE" d="M444.991,167.954v-1.24h8.5l-7.812,1.154C445.451,167.905,445.222,167.93,444.991,167.954"/>
<path fill="#FDF3DE" d="M442.571,168.09c-2.622,0-5.205-0.468-7.355-1.377h9.775v1.24
	C444.189,168.052,443.377,168.09,442.571,168.09"/>
</svg>
