<?xml version="1.0" encoding="utf-8"?>
<!-- Generator: Adobe Illustrator 16.0.0, SVG Export Plug-In . SVG Version: 6.00 Build 0)  -->
<!DOCTYPE svg PUBLIC "-//W3C//DTD SVG 1.1 Tiny//EN" "http://www.w3.org/Graphics/SVG/1.1/DTD/svg11-tiny.dtd">
<svg version="1.1" baseProfile="tiny" id="Layer_1" xmlns="http://www.w3.org/2000/svg" xmlns:xlink="http://www.w3.org/1999/xlink"
	 x="0px" y="0px" width="500px" height="500px" viewBox="0 0 500 500" xml:space="preserve">
<g>
	<path fill="#F4E9D5" d="M121.324,459.385H39.88c-2.058,0-3.734-1.673-3.734-3.739V180.628h88.913v275.018
		C125.059,457.712,123.382,459.385,121.324,459.385"/>
	<path fill="#D1E1BA" d="M108.125,446.241H53.092c-4.218,0-7.648-3.419-7.648-7.639V180.628h70.315v257.977
		C115.76,442.822,112.342,446.241,108.125,446.241"/>
	<path fill="#BCBF91" d="M83.555,200.577H83.53v-19.949h0.025V200.577 M77.674,200.577h-4.333v-19.949h4.333V200.577"/>
	<path fill="#BCBF91" d="M83.53,437.525h-5.856V200.577h5.856v35.632h-3.1v10.319h2.337v-4.151h0.763V437.525 M83.53,240.479h-0.763
		v-2.357h0.763V240.479"/>
	<polyline fill="#A9A271" points="83.53,200.577 77.674,200.577 77.674,180.628 83.53,180.628 83.53,200.577 	"/>
	<path fill="#838383" d="M55.658,241.033c0.203,0.044,0.445,0.06,0.788,0.06c1.232,0,2.007-0.63,2.007-1.685
		c0-0.95-0.66-1.516-1.83-1.516c-0.469,0-0.799,0.047-0.965,0.092V241.033 M53.347,236.343c0.724-0.119,1.727-0.211,3.15-0.211
		c1.449,0,2.465,0.273,3.164,0.826c0.66,0.519,1.092,1.375,1.092,2.387c0,1.01-0.33,1.869-0.939,2.452
		c-0.8,0.75-1.983,1.087-3.354,1.087c-0.305,0-0.585-0.015-0.801-0.045v3.689h-2.312V236.343"/>
	<path fill="#838383" d="M66.342,242.132l-0.647-2.188c-0.179-0.613-0.368-1.377-0.521-1.99c-0.177,0.613-0.33,1.392-0.509,1.99
		l-0.609,2.188H66.342 M63.726,243.878l-0.737,2.65h-2.427l3.164-10.319h3.061l3.202,10.319h-2.515l-0.802-2.65H63.726"/>
	<path fill="#838383" d="M73.659,240.787h0.928c1.156,0,1.855-0.583,1.855-1.486c0-0.95-0.648-1.424-1.716-1.439
		c-0.571,0-0.888,0.047-1.067,0.077V240.787L73.659,240.787z M71.36,236.343c0.749-0.119,1.867-0.211,3.1-0.211
		c1.536,0,2.604,0.228,3.34,0.812c0.61,0.489,0.953,1.21,0.953,2.158c0,1.315-0.939,2.218-1.829,2.541
		c0.725,0.337,1.118,1.027,1.384,1.975c0.318,1.166,0.635,2.511,0.839,2.91h-2.388c-0.165-0.292-0.419-1.134-0.725-2.407
		c-0.267-1.283-0.711-1.637-1.664-1.652h-0.712v4.059H71.36V236.343L71.36,236.343z"/>
	<polyline fill="#838383" points="80.43,236.209 86.731,236.209 86.731,238.122 82.768,238.122 82.768,240.479 86.477,240.479 
		86.477,242.377 82.768,242.377 82.768,246.528 80.43,246.528 80.43,236.209 	"/>
	<path fill="#838383" d="M90.823,236.209v5.938c0,1.779,0.66,2.683,1.867,2.683c1.219,0,1.893-0.856,1.893-2.683v-5.938h2.325v5.786
		c0,3.184-1.602,4.702-4.295,4.702c-2.604,0-4.141-1.441-4.141-4.731v-5.757H90.823"/>
	<path fill="#838383" d="M107.655,242.576c-0.051-1.241-0.102-2.739-0.102-4.243c-0.368,1.32-0.788,2.792-1.195,4l-1.258,4.027
		h-1.816l-1.105-3.998c-0.33-1.21-0.686-2.68-0.927-4.029c-0.102,1.397-0.14,2.987-0.216,4.275l-0.191,3.92h-2.16l0.661-10.319
		h3.111l1.018,3.444c0.317,1.193,0.635,2.479,0.863,3.689c0.342-1.196,0.686-2.556,1.03-3.705l1.104-3.429h3.049l0.559,10.319
		h-2.273L107.655,242.576"/>
	<path fill="#EFB04B" d="M121.399,106.46H39.805c-2.02,0-3.659,1.635-3.659,3.655v70.513h88.913v-70.513
		C125.059,108.096,123.419,106.46,121.399,106.46"/>
	<path fill="#EFB04B" d="M113.854,93.134H47.35c-1.574,0-2.871,1.285-2.871,2.873v10.453h72.246V96.007
		C116.725,94.419,115.442,93.134,113.854,93.134"/>
	<path fill="#EFB04B" d="M100.096,63.955v29.179H61.108V63.955c0-1.769,1.436-3.198,3.202-3.198h32.598
		C98.661,60.757,100.096,62.186,100.096,63.955"/>
	<path fill="#F7F0E2" d="M67.79,459.385H46.766c-3.734,0-6.758-3.457-6.758-7.717v-271.04h5.437v257.975
		c0,4.22,3.43,7.639,7.648,7.639H63.51v8.285C63.51,457.208,65.428,459.385,67.79,459.385"/>
	<path fill="#E0EBD0" d="M63.51,446.241H53.092c-4.218,0-7.648-3.419-7.648-7.639V180.628h1.932h8.042h5.678h2.414v56.261
		l-2.948,9.639h2.427l0.521-1.898V446.241 M56.497,236.132c-1.423,0-2.426,0.092-3.15,0.211v10.185h2.312v-3.689
		c0.216,0.03,0.496,0.045,0.801,0.045c1.371,0,2.553-0.337,3.354-1.087c0.609-0.583,0.939-1.441,0.939-2.452
		c0-1.012-0.432-1.868-1.092-2.387C58.962,236.405,57.946,236.132,56.497,236.132 M56.446,241.092c-0.342,0-0.584-0.015-0.788-0.06
		v-3.049c0.166-0.045,0.496-0.092,0.965-0.092c1.17,0,1.83,0.565,1.83,1.516C58.453,240.462,57.678,241.092,56.446,241.092"/>
	<path fill="#AAAAAA" d="M55.658,246.528h-2.312v-10.185c0.724-0.119,1.727-0.211,3.15-0.211c1.449,0,2.465,0.273,3.164,0.826
		c0.66,0.519,1.092,1.375,1.092,2.387c0,1.01-0.33,1.869-0.939,2.452c-0.8,0.75-1.983,1.087-3.354,1.087
		c-0.305,0-0.585-0.015-0.801-0.045V246.528 M56.623,237.892c-0.469,0-0.799,0.047-0.965,0.092v3.049
		c0.203,0.044,0.445,0.06,0.788,0.06c1.232,0,2.007-0.63,2.007-1.685C58.453,238.457,57.793,237.892,56.623,237.892"/>
	<polyline fill="#AAAAAA" points="62.989,246.528 60.562,246.528 63.51,236.889 63.51,244.63 62.989,246.528 	"/>
	<path fill="#DBD1BF" d="M118.708,459.263V180.628h6.352v271.04C125.059,455.462,122.315,458.618,118.708,459.263"/>
	<path fill="#DBD1BF" d="M118.708,459.385h-1.36c0.457,0,0.915-0.04,1.36-0.122V459.385 M93.414,459.385h-9.859v-13.144H98.28v8.285
		C98.28,457.208,96.094,459.385,93.414,459.385"/>
	<path fill="#BCCAA7" d="M98.28,446.241H83.555V242.377h2.922v-1.898h-2.922v-2.357h3.176v-1.913h-3.176v-35.632h4.308v-19.949
		H98.28V446.241 M88.472,236.209v5.757c0,3.29,1.537,4.731,4.141,4.731c2.693,0,4.295-1.519,4.295-4.702v-5.786h-2.325v5.938
		c0,1.826-0.674,2.683-1.893,2.683c-1.208,0-1.867-0.903-1.867-2.683v-5.938H88.472"/>
	<polyline fill="#A9AC82" points="87.863,200.577 83.555,200.577 83.555,180.628 87.863,180.628 87.863,200.577 	"/>
	<path fill="#767676" d="M86.477,242.377h-2.922v-1.898h2.922V242.377 M86.731,238.122h-3.176v-1.913h3.176V238.122"/>
	<path fill="#767676" d="M92.613,246.697c-2.604,0-4.141-1.441-4.141-4.731v-5.757h2.351v5.938c0,1.779,0.66,2.683,1.867,2.683
		c1.219,0,1.893-0.856,1.893-2.683v-5.938h2.325v5.786C96.908,245.179,95.306,246.697,92.613,246.697"/>
	<path fill="#C5BCAC" d="M117.348,459.385H93.414c2.68,0,4.866-2.177,4.866-4.858v-8.285h9.845c4.217,0,7.635-3.419,7.635-7.637
		V180.628h2.948v278.635C118.262,459.345,117.804,459.385,117.348,459.385"/>
	<path fill="#A9B596" d="M108.125,446.241H98.28V180.628h16.399h1.081v257.977C115.76,442.822,112.342,446.241,108.125,446.241
		 M110.081,246.528L110.081,246.528l-0.559-10.319h-3.049l-1.104,3.429c-0.344,1.149-0.688,2.508-1.03,3.705
		c-0.228-1.211-0.546-2.496-0.863-3.689l-1.018-3.444h-3.111l-0.661,10.319h2.16l0.191-3.92c0.076-1.288,0.114-2.878,0.216-4.275
		c0.241,1.35,0.597,2.819,0.927,4.029l1.105,3.998h1.816l1.258-4.027c0.407-1.208,0.827-2.68,1.195-4
		c0,1.504,0.051,3.002,0.102,4.243l0.152,3.952H110.081"/>
	<path fill="#6A6A6A" d="M110.081,246.528h-2.273l-0.152-3.952c-0.051-1.241-0.102-2.739-0.102-4.243
		c-0.368,1.32-0.788,2.792-1.195,4l-1.258,4.027h-1.816l-1.105-3.998c-0.33-1.21-0.686-2.68-0.927-4.029
		c-0.102,1.397-0.14,2.987-0.216,4.275l-0.191,3.92h-2.16l0.661-10.319h3.111l1.018,3.444c0.317,1.193,0.635,2.479,0.863,3.689
		c0.342-1.196,0.686-2.556,1.03-3.705l1.104-3.429h3.049L110.081,246.528"/>
	<path fill="#F4C984" d="M61.096,180.628h-5.678v-73.081c2.223,0.395,4.471,0.63,6.72,0.717c-0.649,0.883-1.042,2.025-1.042,3.273
		V180.628"/>
	<path fill="#F4C984" d="M47.376,180.628h-7.368v-66.629c0-3.866,2.515-7.052,5.78-7.488h1.854v0.005h-0.267V180.628"/>
	<path fill="#D79E43" d="M125.059,180.628h-10.38v-74.113h3.393v-0.005h0.216v-0.013c3.797,0.385,6.771,3.595,6.771,7.501V180.628"
		/>
	<polyline fill="#C5BCAC" points="125.059,180.628 118.708,180.628 115.76,180.628 125.059,180.628 	"/>
	<path fill="#F7DAAB" d="M55.417,180.628h-8.042v-74.113h0.267h0.75h2.451c1.512,0.419,3.037,0.762,4.574,1.032V180.628"/>
	<path fill="#D79E43" d="M100.782,180.628H83.555V106.51h5.425v0.005h4.509h2.973c2.453,0.37,4.32,2.476,4.32,5.022V180.628"/>
	<polyline fill="#98A387" points="114.679,180.628 98.28,180.628 100.782,180.628 114.679,180.628 	"/>
	<path fill="#C18E3C" d="M114.679,180.628h-13.897v-69.091c0-2.546-1.867-4.652-4.32-5.022h18.217V180.628"/>
	<path fill="#FCEFDB" d="M63.992,108.296c-0.623,0-1.246-0.01-1.854-0.032c0.672-0.92,1.625-1.561,2.706-1.749h0.102v-0.005h12.881
		l-4.18,0.831C70.458,107.979,67.219,108.296,63.992,108.296"/>
	<path fill="#FDF4E6" d="M62.138,108.264c-2.249-0.086-4.497-0.322-6.72-0.717v-1.032h8.854h0.572
		C63.763,106.704,62.81,107.344,62.138,108.264"/>
	<path fill="#FDF8EE" d="M55.417,107.547c-1.537-0.271-3.062-0.613-4.574-1.032h4.574V107.547"/>
	<polyline fill="#F7DAAB" points="48.392,106.515 47.643,106.515 47.643,106.51 48.392,106.51 48.392,106.515 	"/>
	<path fill="#FDF4E6" d="M64.945,106.515h-0.102c0.013,0,0.025-0.002,0.038-0.005h0.064V106.515"/>
	<path fill="#FEF7EE" d="M64.843,106.515h-0.572v-0.005h0.609C64.868,106.513,64.856,106.515,64.843,106.515"/>
	<polyline fill="#C18E3C" points="93.49,106.515 88.98,106.515 88.98,106.51 93.49,106.51 93.49,106.515 	"/>
	<path fill="#E5E5E5" d="M118.288,106.46h-0.216V61.747c0-3.595-2.072-6.714-5.069-8.239c-0.229-0.585-0.788-1.002-1.449-1.002
		H99.449v0.006H86.91c3.646,0,6.58,2.939,6.58,6.575v1.668h-9.935v0.001h-0.89l0.014-0.001c0,0-16.972,0-17.188,0
		c0.012,0,0.012,0.001,0.012,0.001H64.31c-0.013,0-0.026,0-0.039,0.001v-1.671c0-3.636,2.934-6.575,6.594-6.575H57.628
		c-5.095,0-9.236,4.139-9.236,9.235v31.387H47.35c-1.574,0-2.871,1.285-2.871,2.873v10.453h-1.562V57.356
		c0-2.68,2.172-4.851,4.852-4.851h65.666c2.68,0,4.853,2.171,4.853,4.851V106.46"/>
	<path fill="#D79E43" d="M83.555,106.51h-5.729l0.254-0.05c0,0-6.124,0-12.577,0l0,0h-0.558H88.98h-5.425V106.51 M45.788,106.51
		h-2.871v-0.05h1.562h3.164H46.55C46.296,106.46,46.042,106.476,45.788,106.51 M118.288,106.498
		c-0.077-0.007-0.152-0.015-0.216-0.02v-0.018h0.216V106.498"/>
	<path fill="#D79E43" d="M88.98,106.46H64.945v-9.274c0-1.013,0.317-1.938,0.838-2.658c0.05,0,0.114,0,0.177,0
		c2.655,0,5.31-0.26,7.928-0.784l3.061-0.61h6.606h5.425V106.46 M47.643,106.46h-3.164V96.007c0-1.588,1.296-2.873,2.871-2.873
		h1.042v2.923c-0.47,0.923-0.75,1.997-0.75,3.148V106.46"/>
	<path fill="#D79E43" d="M83.555,93.134h-6.606l0.572-0.114c0,0-2.413,0-5.653,0V62.18c0.661,0.056,1.322,0.083,1.982,0.083
		c2.032,0,4.052-0.261,6.059-0.784l2.756-0.722h0.89V93.134"/>
	<path fill="#DBB577" d="M47.643,106.51h-1.854c0.254-0.035,0.508-0.05,0.762-0.05h1.093V106.51"/>
	<path fill="#C18E3C" d="M118.288,106.51h-0.216v-0.032c0.063,0.005,0.139,0.012,0.216,0.02V106.51"/>
	<polyline fill="#C18E3C" points="88.98,106.51 83.555,106.51 83.555,106.46 88.98,106.46 88.98,106.51 	"/>
	<path fill="#E2D7C5" d="M77.826,106.51H64.945v-0.01c0.189-0.027,0.368-0.04,0.558-0.04c6.454,0,12.577,0,12.577,0L77.826,106.51"
		/>
	<path fill="#E3DBCF" d="M64.945,106.5v-0.04c0.189,0,0.381,0,0.558,0C65.313,106.46,65.135,106.473,64.945,106.5"/>
	<path fill="#DBB577" d="M48.392,106.46h-0.75v-7.255c0-1.151,0.279-2.226,0.75-3.148V106.46"/>
	<polyline fill="#DEC49A" points="48.392,106.51 47.643,106.51 47.643,106.46 48.392,106.46 48.392,106.51 	"/>
	<path fill="#DBB577" d="M64.945,106.46h-0.674V94.494c0.495,0.02,1.003,0.032,1.512,0.035c-0.521,0.72-0.838,1.645-0.838,2.658
		V106.46"/>
	<path fill="#E3DBCF" d="M64.945,106.51h-0.064c0.026-0.002,0.038-0.007,0.064-0.01V106.51"/>
	<path fill="#E4DED6" d="M64.881,106.51h-0.609v-0.05c0.229,0,0.444,0,0.674,0v0.04C64.919,106.503,64.907,106.508,64.881,106.51"/>
	<polyline fill="#C18E3C" points="93.49,106.46 88.98,106.46 88.98,93.134 93.49,93.134 93.49,106.46 	"/>
	<polyline fill="#AD8036" points="93.49,106.51 88.98,106.51 88.98,106.46 93.49,106.46 93.49,106.51 	"/>
	<path fill="#E2D7C5" d="M65.961,94.528c-0.063,0-0.127,0-0.177,0c0.483-0.682,1.169-1.181,1.943-1.394h4.141h5.082l-3.061,0.61
		C71.271,94.268,68.616,94.528,65.961,94.528"/>
	<path fill="#E2D7C5" d="M76.949,93.134h-5.082V93.02c3.24,0,5.653,0,5.653,0L76.949,93.134"/>
	<path fill="#E3DBCF" d="M65.784,94.528c-0.509-0.002-1.017-0.015-1.512-0.035v-1.359h0.991h2.464
		C66.953,93.348,66.267,93.846,65.784,94.528"/>
	<path fill="#DBB577" d="M65.263,93.02h-0.991V60.758c0.012-0.001,0.026-0.001,0.039-0.001h1.193
		c0.039,0.015,0.077,0.03,0.114,0.046h-0.355V93.02"/>
	<path fill="#E4DED6" d="M65.263,93.134h-0.991V93.02c0.33,0,0.66,0,0.991,0V93.134"/>
	<path fill="#DBB577" d="M71.868,93.02c-0.711,0-1.46,0-2.235,0V64.923c0-1.116,0.382-2.131,1.003-2.878
		c0.407,0.055,0.814,0.102,1.232,0.135V93.02"/>
	<path fill="#E3DBCF" d="M71.868,93.134h-2.235V93.02c0.775,0,1.524,0,2.235,0V93.134"/>
	<path fill="#DEC49A" d="M69.632,93.02c-0.355,0-0.711,0-1.067,0l0,0h-3.302V60.803h0.355c1.652,0.595,3.328,1.009,5.018,1.242
		c-0.622,0.747-1.003,1.762-1.003,2.878V93.02"/>
	<path fill="#E4DED6" d="M69.632,93.134h-1.906c0.267-0.075,0.546-0.114,0.838-0.114c0.356,0,0.712,0,1.067,0V93.134"/>
	<path fill="#E4E1DA" d="M67.727,93.134h-2.464V93.02c1.105,0,2.223,0,3.302,0C68.272,93.02,67.993,93.06,67.727,93.134"/>
	<polyline fill="#CECECE" points="93.49,60.757 83.555,60.757 83.555,60.756 93.49,60.756 93.49,60.757 	"/>
	<path fill="#C18E3C" d="M88.98,93.134h-5.425V60.757h9.935h-5.716c1.537,0,2.756,1.866,2.756,4.166V93.02H88.98V93.134"/>
	<polyline fill="#AD8036" points="90.53,93.134 88.98,93.134 88.98,93.02 90.53,93.02 90.53,93.134 	"/>
	<path fill="#AD8036" d="M93.49,93.02h-2.96V64.923c0-2.3-1.219-4.166-2.756-4.166h5.716V93.02"/>
	<polyline fill="#9B7330" points="93.49,93.134 90.53,93.134 90.53,93.02 93.49,93.02 93.49,93.134 	"/>
	<path fill="#E5E5E5" d="M82.666,60.757H65.503c0,0,0-0.001-0.012-0.001c0.216,0,17.188,0,17.188,0L82.666,60.757"/>
	<path fill="#E2D7C5" d="M73.85,62.263c-0.66,0-1.321-0.027-1.982-0.083v-1.108c0.419-0.204,0.89-0.315,1.386-0.315h-7.75l0,0
		h17.162l-2.756,0.722C77.902,62.002,75.882,62.263,73.85,62.263"/>
	<path fill="#E3DBCF" d="M71.868,61.072v-0.27h-6.25c-0.038-0.016-0.076-0.031-0.114-0.046h7.75
		C72.757,60.757,72.287,60.869,71.868,61.072"/>
	<path fill="#E3DBCF" d="M71.868,62.18c-0.418-0.034-0.825-0.081-1.232-0.135c0.344-0.417,0.763-0.75,1.232-0.973V62.18"/>
	<path fill="#E3DFD6" d="M70.636,62.045c-1.69-0.233-3.366-0.647-5.018-1.242h6.25v0.27C71.399,61.295,70.979,61.628,70.636,62.045"
		/>
	<path fill="#FAE6C6" d="M50.843,106.515h-2.451v-0.005h2.426C50.831,106.513,50.831,106.515,50.843,106.515"/>
	<path fill="#FEFAF3" d="M64.271,106.515h-5.348v-0.005h5.348V106.515 M52.33,106.515h-1.486c-0.012,0-0.012-0.002-0.025-0.005
		h1.511V106.515"/>
	<polyline fill="#FEFCF7" points="58.923,106.515 55.417,106.515 52.33,106.515 52.33,106.51 58.923,106.51 58.923,106.515 	"/>
	<path fill="#EDEDED" d="M51.987,93.134h-3.595V61.747c0-5.096,4.141-9.235,9.236-9.235h13.237c-3.66,0-6.594,2.939-6.594,6.575
		v1.671c-1.753,0.021-3.164,1.443-3.164,3.197V93.02h-8.092c-0.229,0-0.444,0.015-0.66,0.047H52.33v0.005
		C52.215,93.087,52.101,93.109,51.987,93.134"/>
	<path fill="#E4BD7F" d="M48.392,96.057v-2.923h3.595C50.462,93.477,49.155,94.566,48.392,96.057"/>
	<path fill="#EDEDED" d="M52.33,93.134h-0.342c0.114-0.025,0.228-0.047,0.342-0.062V93.134"/>
	<path fill="#E6CDA2" d="M52.33,106.46h-3.938V96.057c0.763-1.491,2.07-2.581,3.595-2.923h0.342V106.46"/>
	<path fill="#E8D7BA" d="M50.818,106.51h-2.426v-0.05h3.938c-1.028,0-1.639,0-1.69,0C50.691,106.476,50.755,106.493,50.818,106.51"
		/>
	<path fill="#E6CDA2" d="M64.271,106.46h-5.348V93.916c1.765,0.31,3.557,0.504,5.348,0.578V106.46"/>
	<path fill="#EDEDED" d="M55.175,93.067h-2.82c0.216-0.032,0.432-0.047,0.66-0.047h8.092c-3.404,0-6.008,0-6.098,0
		C55.062,93.035,55.112,93.05,55.175,93.067"/>
	<path fill="#EDE8E3" d="M64.271,106.51h-5.348v-0.05c1.702,0,3.518,0,5.348,0V106.51 M52.33,106.51h-1.511
		c-0.063-0.018-0.127-0.035-0.179-0.05c0.051,0,0.662,0,1.69,0V106.51"/>
	<path fill="#EDEDED" d="M52.33,93.072v-0.005h0.026C52.343,93.069,52.343,93.069,52.33,93.072"/>
	<path fill="#EDEDED" d="M55.417,93.134H52.33v-0.062c0.014-0.003,0.014-0.003,0.026-0.005h2.82
		C55.252,93.089,55.34,93.112,55.417,93.134"/>
	<path fill="#E8D7BA" d="M58.923,106.46H52.33V93.134h3.088c1.156,0.313,2.337,0.573,3.506,0.781V106.46"/>
	<path fill="#EDEBE6" d="M58.923,106.51H52.33v-0.05c1.5,0,3.888,0,6.594,0V106.51"/>
	<path fill="#EDEDED" d="M61.108,93.134h-2.185v-0.067h-3.748c-0.063-0.017-0.114-0.032-0.165-0.047c0.089,0,2.693,0,6.098,0V93.134
		"/>
	<path fill="#ECE6DE" d="M64.271,94.494c-1.792-0.074-3.583-0.268-5.348-0.578v-0.781h2.185h3.164V94.494"/>
	<path fill="#EDEDED" d="M58.923,93.134h-3.506c-0.077-0.022-0.165-0.045-0.242-0.067h3.748V93.134"/>
	<path fill="#ECE9E3" d="M58.923,93.916c-1.168-0.208-2.35-0.469-3.506-0.781h3.506V93.916"/>
	<path fill="#E6CDA2" d="M64.271,93.02h-3.164V63.955c0-1.754,1.411-3.176,3.164-3.197V93.02"/>
	<path fill="#EDE8E3" d="M64.271,93.134h-3.164V93.02c1.004,0,2.071,0,3.164,0V93.134"/>
	<polyline fill="#C18E3C" points="118.072,106.515 114.679,106.515 116.725,106.515 116.725,106.51 118.072,106.51 118.072,106.515 
			"/>
	<polyline fill="#AD8036" points="116.725,106.515 114.679,106.515 114.679,106.51 116.725,106.51 116.725,106.515 	"/>
	<polyline fill="#9B7330" points="114.679,106.515 108.899,106.515 108.899,106.51 113.105,106.51 114.679,106.51 114.679,106.515 	
		"/>
	<path fill="#AD8036" d="M96.462,106.515H93.49v-0.005h2.922C96.424,106.513,96.438,106.515,96.462,106.515"/>
	<path fill="#9B7330" d="M108.899,106.515H96.462c-0.025,0-0.039-0.002-0.051-0.005h3.037h0.076v0.005H108.899"/>
	<polyline fill="#8B672B" points="108.899,106.515 99.524,106.515 99.524,106.51 108.899,106.51 108.899,106.515 	"/>
	<path fill="#CECECE" d="M118.072,106.46h-1.347v-7.255l0,0v-3.198c0-1.588-1.283-2.873-2.871-2.873h-0.75V54.063
		c0-0.196-0.039-0.382-0.102-0.555c2.997,1.525,5.069,4.644,5.069,8.239V106.46"/>
	<path fill="#C18E3C" d="M118.072,106.478c-0.191-0.013-0.37-0.018-0.547-0.018h-0.8h1.347V106.478"/>
	<path fill="#C18E3C" d="M116.725,99.206c0-2.501-1.486-4.655-3.62-5.63v-0.441h0.75c1.588,0,2.871,1.285,2.871,2.873V99.206"/>
	<path fill="#AD8036" d="M118.072,106.51h-1.347v-0.05h0.8c0.177,0,0.356,0.005,0.547,0.018V106.51"/>
	<path fill="#AD8036" d="M116.725,106.46h-3.62V93.576c2.134,0.975,3.62,3.129,3.62,5.63V106.46"/>
	<polyline fill="#9B7330" points="116.725,106.51 114.679,106.51 114.679,106.46 113.105,106.46 116.725,106.46 116.725,106.51 	"/>
	<polyline fill="#8B672B" points="114.679,106.51 113.105,106.51 113.105,106.46 114.679,106.46 114.679,106.51 	"/>
	<path fill="#AD8036" d="M99.449,106.46H93.49V93.134h2.846c1.574,0.377,2.808,1.647,3.113,3.248V106.46"/>
	<path fill="#9B7330" d="M96.412,106.51H93.49v-0.05h2.197C95.941,106.46,96.183,106.476,96.412,106.51"/>
	<path fill="#8B672B" d="M99.449,106.51h-3.037c-0.229-0.035-0.47-0.05-0.725-0.05h3.762V106.51"/>
	<path fill="#9B7330" d="M99.449,96.382c-0.305-1.6-1.539-2.871-3.113-3.248h0.406h2.707V96.382"/>
	<path fill="#CECECE" d="M99.449,62.029c-0.586-0.773-1.513-1.272-2.541-1.272h-0.166v-0.001H93.49v-1.668
		c0-3.636-2.934-6.575-6.58-6.575h12.539V62.029"/>
	<path fill="#AD8036" d="M99.449,93.02h-2.707V60.757h0.166c1.028,0,1.955,0.499,2.541,1.272V93.02"/>
	<polyline fill="#8B672B" points="99.449,93.134 96.742,93.134 96.742,93.02 99.449,93.02 99.449,93.134 	"/>
	<polyline fill="#B9B9B9" points="96.742,60.757 93.49,60.757 93.49,60.756 96.742,60.756 96.742,60.757 	"/>
	<polyline fill="#9B7330" points="96.742,93.02 95.357,93.02 95.357,93.02 93.49,93.02 93.49,60.757 96.742,60.757 96.742,93.02 	
		"/>
	<path fill="#8B672B" d="M96.336,93.134H93.49V93.02h1.867C95.687,93.02,96.018,93.06,96.336,93.134"/>
	<path fill="#7D5C27" d="M96.742,93.134h-0.406c-0.318-0.075-0.649-0.114-0.979-0.114h1.385V93.134"/>
	<path fill="#CECECE" d="M113.003,53.508c-1.258-0.636-2.668-0.996-4.167-0.996h-9.387v-0.006h12.105
		C112.215,52.506,112.774,52.923,113.003,53.508"/>
	<path fill="#B9B9B9" d="M113.105,93.134h-1.384c-0.382-0.075-0.775-0.114-1.183-0.114h-10.442V63.955l0,0
		c0-0.724-0.242-1.392-0.647-1.926v-9.517h9.387c1.499,0,2.909,0.36,4.167,0.996c0.063,0.172,0.102,0.358,0.102,0.555V93.134"/>
	<path fill="#AD8036" d="M113.105,93.576c-0.432-0.198-0.903-0.347-1.384-0.441h1.384V93.576"/>
	<path fill="#A6A6A6" d="M111.721,93.134h-2.821V93.02h-8.803h10.442C110.945,93.02,111.338,93.06,111.721,93.134"/>
	<path fill="#9B7330" d="M113.105,106.46h-4.206V93.134h2.821c0.481,0.094,0.953,0.243,1.384,0.441V106.46"/>
	<polyline fill="#7D5C27" points="113.105,106.51 108.899,106.51 108.899,106.46 113.105,106.46 113.105,106.51 	"/>
	<path fill="#9B7330" d="M99.524,106.46h-0.076V96.382c0.049,0.261,0.076,0.529,0.076,0.804V106.46"/>
	<polyline fill="#7D5C27" points="99.524,106.51 99.449,106.51 99.449,106.46 99.524,106.46 99.524,106.51 	"/>
	<polyline fill="#959595" points="108.899,93.134 100.096,93.134 100.096,93.02 108.899,93.02 108.899,93.134 	"/>
	<path fill="#8B672B" d="M108.899,106.46h-9.375v-9.274c0-0.275-0.026-0.543-0.076-0.804v-3.248h0.647h8.803V106.46"/>
	<polyline fill="#705323" points="108.899,106.51 99.524,106.51 99.524,106.46 108.899,106.46 108.899,106.51 	"/>
	<path fill="#9B7330" d="M100.096,93.02h-0.647V62.029c0.405,0.535,0.647,1.202,0.647,1.926V93.02"/>
	<polyline fill="#7D5C27" points="100.096,93.134 99.449,93.134 99.449,93.02 100.096,93.02 100.096,93.134 	"/>
	<path fill="#515151" d="M94.583,73.376c0,2.171-1.767,3.928-3.939,3.928s-3.925-1.757-3.925-3.928s1.753-3.93,3.925-3.93
		S94.583,71.206,94.583,73.376L94.583,73.376z"/>
</g>
<g>
	<path fill="#515151" d="M206.894,198.402v-14.018H139.37v14.018c0,5.766-3.306,11.167-8.635,13.374
		c-12.563,5.198-21.624,19.862-21.624,33.836v184.014c0,17.485,14.173,31.655,31.654,31.655h64.733
		c17.482,0,31.655-14.17,31.655-31.655V245.612c0-13.974-9.062-28.638-21.626-33.836
		C210.199,209.57,206.894,204.168,206.894,198.402"/>
	<path fill="#414141" d="M194.046,442.543c0.722-3.942,1.125-8.312,1.125-12.906V245.614c0-13.981-12.112-28.632-17.254-33.836
		c-1.964-1.984-3.266-6.55-3.506-11.652h8.091c0.904,4.618,3.94,8.645,8.367,10.475c12.551,5.207,21.62,19.879,21.62,33.837V413.77
		C212.489,426.537,204.931,437.539,194.046,442.543"/>
	<path fill="#CCCCCC" d="M205.498,461.289h-64.733c-8.596,0-16.387-3.419-22.078-8.978c5.703,5.554,13.492,8.97,22.078,8.97h41.707
		c-0.091,0.005-0.18,0.008-0.272,0.008H205.498c17.486,0,31.655-14.19,31.655-31.652V245.614l0,0v184.022
		C237.153,447.099,222.984,461.289,205.498,461.289"/>
	<path fill="#414141" d="M182.472,461.281h-41.707c-8.586,0-16.375-3.416-22.078-8.97c-2.121-2.071-3.951-4.438-5.42-7.036
		c0.923,0.104,1.868,0.146,2.833,0.146h64.734c4.716,0,9.19-1.03,13.211-2.879C192.054,453.394,187.628,461.023,182.472,461.281"/>
	<path fill="#A3A3A3" d="M205.498,461.289H182.2c0.092,0,0.181-0.003,0.272-0.008h23.026c17.482,0,31.655-14.17,31.655-31.655
		V245.612c0,0.002,0,0.002,0,0.002v184.022C237.153,447.099,222.984,461.289,205.498,461.289 M215.76,211.873
		c-0.002-0.001-0.007-0.004-0.01-0.005C215.753,211.869,215.758,211.871,215.76,211.873 M215.743,211.865
		c-0.072-0.03-0.144-0.061-0.216-0.089c-0.242-0.102-0.48-0.208-0.713-0.321c0.234,0.115,0.475,0.222,0.717,0.324
		C215.602,211.806,215.672,211.835,215.743,211.865 M214.794,211.444c-0.005-0.002-0.011-0.005-0.018-0.007
		C214.783,211.439,214.789,211.442,214.794,211.444"/>
	<path fill="#343434" d="M205.498,461.281h-23.026c5.157-0.258,9.582-7.888,11.575-18.738c10.885-5.004,18.442-16.006,18.442-28.773
		V244.438c0-13.958-9.069-28.63-21.62-33.837c-4.427-1.83-7.462-5.857-8.367-10.475h1.293h10.242h12.259h0.686
		c0.554,4.829,3.422,9.178,7.793,11.311c0.006,0.002,0.013,0.005,0.018,0.007c0.006,0.004,0.012,0.006,0.02,0.01
		c0.233,0.113,0.471,0.219,0.713,0.321c0.072,0.028,0.144,0.06,0.216,0.089c0.002,0.001,0.003,0.001,0.007,0.002
		c0.002,0.001,0.007,0.003,0.01,0.005c12.435,5.288,21.393,19.846,21.393,33.742v184.012
		C237.153,447.111,222.98,461.281,205.498,461.281"/>
	<path fill="#686A6E" d="M149.254,439.045h-5.771c-8.55,0-15.481-6.93-15.481-15.48V260.89c0-8.549,6.931-15.48,15.481-15.48h5.771
		c8.55,0,15.48,6.931,15.48,15.48v162.675C164.735,432.115,157.805,439.045,149.254,439.045"/>
	<path fill="#686A6E" d="M158.702,234.235h-17.842c-4.202,0-7.61-3.404-7.61-7.607s3.408-7.609,7.61-7.609h17.842
		c4.202,0,7.608,3.406,7.608,7.609S162.904,234.235,158.702,234.235"/>
	<path fill="#3D3D3D" d="M210.74,200.126h-75.216v-45.303c0-4.541,3.679-8.222,8.223-8.222h58.771c4.542,0,8.222,3.681,8.222,8.222
		V200.126"/>
	<path fill="#CCCCCC" d="M210.746,200.126h-3.753l0,0h3.747v-45.303c0-3.813-2.595-7.02-6.118-7.949
		c3.52,0.929,6.124,4.132,6.124,7.956V200.126"/>
	<path fill="#CCCCCC" d="M204.621,146.874c-0.011-0.003-0.022-0.006-0.035-0.009C204.599,146.867,204.61,146.87,204.621,146.874
		 M204.571,146.86c-0.007-0.002-0.015-0.003-0.022-0.006C204.557,146.857,204.564,146.858,204.571,146.86 M204.522,146.848
		c-0.004-0.001-0.008-0.002-0.01-0.002C204.516,146.846,204.518,146.847,204.522,146.848 M202.625,146.603c-0.004,0-0.009,0-0.013,0
		C202.616,146.603,202.621,146.603,202.625,146.603"/>
	<path fill="#313131" d="M210.74,200.126h-3.747h-0.696v-45.8c0-4.261-3.463-7.725-7.725-7.725h-10.663
		c3.378,0,6.128,2.75,6.128,6.129v47.396h-10.242v-49.138c0-2.435-1.953-4.387-4.368-4.387h23.091c0.031,0,0.063,0.001,0.094,0.001
		c0.004,0,0.009,0,0.013,0c0.649,0.009,1.281,0.092,1.887,0.243c0.002,0,0.006,0.001,0.01,0.002c0.01,0.002,0.019,0.004,0.027,0.006
		c0.008,0.002,0.015,0.004,0.022,0.006c0.006,0.001,0.011,0.002,0.015,0.004c0.012,0.003,0.023,0.006,0.035,0.009
		c0.001,0,0.001,0,0.001,0c3.522,0.93,6.118,4.136,6.118,7.949V200.126"/>
	<path fill="#57595D" d="M152.225,200.126h-12.258v-45.8c0-4.261,3.465-7.725,7.725-7.725h10.664c-3.382,0-6.131,2.75-6.131,6.129
		V200.126"/>
	<path fill="#272727" d="M206.297,200.126h-12.259v-47.396c0-3.379-2.75-6.129-6.128-6.129h10.663c4.262,0,7.725,3.463,7.725,7.725
		V200.126"/>
	<path fill="#22252A" d="M181.612,161.47h-16.959c-3.479,0-6.297-2.82-6.297-6.297h29.554
		C187.909,158.65,185.09,161.47,181.612,161.47L181.612,161.47z"/>
	<polygon fill="#22252A" points="208.466,153.424 137.798,153.424 137.798,156.922 208.466,156.922 208.466,153.424 	"/>
</g>
<g>
	<path fill="#DD9331" d="M344.002,452.8c0.554,3.458-2.099,6.585-5.59,6.585H216.755c-3.491,0-6.145-3.127-5.591-6.585
		c0.031-0.176,0.046-0.351,0.078-0.521c3.572-22.877,5.893-45.972,6.888-69.099c0.253-5.847,0.427-11.66,0.505-17.488
		c0.128-8.419,0.08-16.793-0.142-25.181c-0.774-29.336-3.665-58.609-8.577-87.55H345.25c-6.319,37.235-9.289,75.006-8.733,112.746
		c0.029,2.4,0.077,4.788,0.142,7.188c0.094,3.429,0.221,6.84,0.362,10.27c1.012,23.126,3.317,46.223,6.905,69.114
		C343.955,452.449,343.973,452.624,344.002,452.8"/>
	<path fill="#E5D8C7" d="M231.668,287.002c0.654,0.336,1.663,0.671,2.702,0.671c1.12,0,1.71-0.466,1.71-1.169
		c0-0.67-0.512-1.055-1.806-1.519c-1.792-0.624-2.96-1.615-2.96-3.183c0-1.839,1.536-3.246,4.079-3.246
		c1.216,0,2.111,0.256,2.75,0.544l-0.543,1.966c-0.432-0.207-1.2-0.51-2.255-0.51c-1.055,0-1.568,0.479-1.568,1.038
		c0,0.688,0.608,0.991,2,1.521c1.903,0.702,2.799,1.694,2.799,3.213c0,1.809-1.391,3.345-4.35,3.345
		c-1.232,0-2.446-0.32-3.054-0.658L231.668,287.002"/>
	<polyline fill="#E5D8C7" points="242.67,278.73 242.67,282.874 246.685,282.874 246.685,278.73 249.116,278.73 249.116,289.512 
		246.685,289.512 246.685,285.003 242.67,285.003 242.67,289.512 240.224,289.512 240.224,278.73 242.67,278.73 	"/>
	<path fill="#E5D8C7" d="M253.324,284.154c0,2.11,0.992,3.598,2.623,3.598c1.647,0,2.59-1.568,2.59-3.662
		c0-1.936-0.927-3.599-2.606-3.599C254.283,280.491,253.324,282.058,253.324,284.154 M261.112,284.011
		c0,3.533-2.144,5.677-5.293,5.677c-3.2,0-5.07-2.415-5.07-5.486c0-3.23,2.063-5.645,5.245-5.645
		C259.307,278.557,261.112,281.035,261.112,284.011"/>
	<path fill="#E5D8C7" d="M264.345,289.512l-2.559-10.781h2.605l0.817,4.446c0.239,1.28,0.463,2.672,0.638,3.759
		c0.209-1.166,0.464-2.461,0.737-3.79l0.91-4.415h2.593l0.862,4.543c0.242,1.266,0.417,2.416,0.577,3.615
		c0.19-1.199,0.432-2.461,0.655-3.743l0.879-4.415h2.478l-2.782,10.781h-2.638l-0.912-4.638c-0.207-1.087-0.385-2.094-0.512-3.326
		c-0.224,1.215-0.401,2.239-0.655,3.326l-1.023,4.638H264.345"/>
	<polyline fill="#E5D8C7" points="283.218,284.953 279.25,284.953 279.25,287.512 283.682,287.512 283.682,289.512 276.804,289.512 
		276.804,278.73 283.457,278.73 283.457,280.732 279.25,280.732 279.25,282.971 283.218,282.971 283.218,284.953 	"/>
	<path fill="#E5D8C7" d="M287.761,283.515h0.958c1.216,0,1.935-0.608,1.935-1.551c0-0.993-0.67-1.489-1.791-1.504
		c-0.592,0-0.927,0.047-1.102,0.079V283.515 M285.346,278.877c0.782-0.129,1.951-0.226,3.245-0.226c1.599,0,2.718,0.24,3.487,0.849
		c0.64,0.512,0.992,1.263,0.992,2.255c0,1.376-0.975,2.317-1.903,2.655c0.751,0.35,1.166,1.071,1.439,2.063
		c0.335,1.216,0.67,2.624,0.878,3.039h-2.493c-0.178-0.303-0.432-1.184-0.753-2.51c-0.287-1.344-0.752-1.714-1.743-1.729h-0.734
		v4.238h-2.415V278.877"/>
	<path fill="#E5D8C7" d="M307.064,289.015c-0.751,0.257-2.175,0.608-3.598,0.608c-1.968,0-3.392-0.495-4.382-1.454
		c-0.992-0.928-1.536-2.335-1.521-3.92c0.018-3.581,2.624-5.63,6.158-5.63c1.393,0,2.462,0.272,2.99,0.528l-0.511,1.952
		c-0.591-0.258-1.328-0.464-2.512-0.464c-2.03,0-3.565,1.151-3.565,3.486c0,2.224,1.393,3.536,3.39,3.536
		c0.561,0,1.009-0.066,1.201-0.162v-2.255h-1.665v-1.903h4.015V289.015"/>
	<polyline fill="#E5D8C7" points="315.382,284.953 311.417,284.953 311.417,287.512 315.846,287.512 315.846,289.512 
		308.968,289.512 308.968,278.73 315.622,278.73 315.622,280.732 311.417,280.732 311.417,282.971 315.382,282.971 315.382,284.953 
			"/>
	<polyline fill="#E5D8C7" points="317.511,278.73 319.957,278.73 319.957,287.464 324.244,287.464 324.244,289.512 317.511,289.512 
		317.511,278.73 	"/>
	<image width="69" height="85" xlink:href="1E8A4DE2.png"  transform="matrix(1 0 0 1 241.5 327.5)">
	</image>
	<path fill="#3F3F3F" d="M268.098,310.395c0,0-0.288,0.983-2.17,0.492c0,0-1.78-4.304-2.875-7.34l-0.096-0.268
		c-0.212-0.602-0.391-1.133-0.521-1.565c-0.8-2.652-1.278-11.295,0.366-11.548c0.124-0.02,0.24-0.037,0.345-0.047
		c1.304-0.116,1.385,0.499,1.374,1.598c-0.008,1.191-0.734,5.409-0.263,7.993C264.74,302.297,268.098,310.395,268.098,310.395"/>
	<path fill="#CE852A" d="M307.631,406.86c1.303-0.854,2.451-1.799,3.483-2.797c0,0,0,0.003,0.002,0.003
		C310.082,405.062,308.934,406.007,307.631,406.86 M311.306,403.882l-0.003-0.002c0.097-0.094,0.193-0.19,0.288-0.287l0.002,0.002
		C311.496,403.691,311.402,403.786,311.306,403.882 M311.444,366.862c-0.491-0.652-0.973-1.28-1.446-1.891
		c-4.86-6.303-8.813-10.811-11.984-24.174c-0.465-1.958-0.961-3.835-1.488-5.634c0-0.003,0-0.009,0-0.012
		c0.528,1.802,1.026,3.685,1.492,5.646c3.414,14.374,7.725,18.504,13.099,25.623c0.109,0.145,0.219,0.291,0.328,0.438V366.862"/>
	<image width="70" height="79" xlink:href="1E8A4DE6.png"  transform="matrix(1 0 0 1 246.5 333.5)">
	</image>
	<path fill="#6B8F1D" d="M269.145,316.384c0.176-1.745-0.205-3.368-0.987-4.78c-0.582-1.053-1.514-1.404-2.388-2.29
		c-0.6-0.604-0.797-1.804-1.25-2.332c-4.06-4.736-11.555-3.812-16.479,1.216c-2.577,2.631-4.934,6.263-6.373,9.595
		c-1.913,4.438-3.072,8.003-4.19,13.701c-0.35,1.771-0.498,6.382-0.498,6.382s4.105-2.591,5.462-3.33
		c4.055-2.208,6.868-3.184,11.021-4.255c4.043-1.046,6.931-1.264,10.182-4.035C266.352,323.947,268.773,320.086,269.145,316.384"/>
	<path fill="#5C7415" d="M243.618,333.922c-0.044-2.047-0.093-4.093-0.149-6.139c3.097-4.483,6.809-9.371,9.978-12.165
		c1.791-1.578,3.388-2.767,4.791-3.662c0.134,5.68,0.24,11.365,0.323,17.056c-1.549,0.477-3.194,0.786-5.098,1.278
		c-0.615,0.158-1.202,0.314-1.768,0.474C248.827,331.571,246.501,332.436,243.618,333.922"/>
	<image width="15" height="29" xlink:href="1E8A4DE1.png"  transform="matrix(1 0 0 1 245.5 365.5)">
	</image>
	<image width="123" height="73" xlink:href="1E8A4DE3.png"  transform="matrix(1 0 0 1 215.5 364.5)">
	</image>
	<path fill="#E5D8C7" d="M343.926,452.278c-0.643-4.104-1.246-8.213-1.807-12.329c-0.003-0.028-0.008-0.06-0.013-0.088
		c-0.005-0.047-0.012-0.097-0.02-0.146c-0.251-1.847-0.491-3.696-0.728-5.545c0-0.008-0.002-0.018-0.002-0.025
		c-0.01-0.074-0.02-0.153-0.03-0.228c-0.005-0.05-0.012-0.103-0.02-0.151c-0.002-0.025-0.005-0.055-0.01-0.082
		c-0.643-5.116-1.224-10.237-1.739-15.367C340.705,429.675,342.161,441.001,343.926,452.278"/>
	<path fill="#C67D26" d="M343.975,452.618c-0.662-4.217-1.28-8.438-1.855-12.669c0.561,4.116,1.164,8.226,1.807,12.329l0,0
		C343.945,452.39,343.958,452.504,343.975,452.618 M342.106,439.861c-0.005-0.049-0.012-0.096-0.02-0.146
		C342.095,439.765,342.102,439.814,342.106,439.861 M341.359,434.171c-0.002-0.01-0.002-0.015-0.002-0.025
		C341.357,434.153,341.359,434.163,341.359,434.171 M341.327,433.918c-0.005-0.05-0.012-0.1-0.02-0.151
		C341.315,433.815,341.322,433.868,341.327,433.918 M341.298,433.685c-2.111-16.776-3.546-33.638-4.28-50.523l0,0
		c0.512,11.737,1.362,23.465,2.541,35.156C340.074,423.447,340.655,428.568,341.298,433.685"/>
	<image width="6" height="20" xlink:href="1E8A4DE0.png"  transform="matrix(1 0 0 1 334.5 364.5)">
	</image>
	<path fill="#C67D26" d="M313.593,430.124c-0.282-4.764-0.538-9.53-0.767-14.307c0.439-0.427,0.95-0.935,1.511-1.511
		c0.457-0.454,0.931-0.973,1.442-1.507c0.506-0.538,1.024-1.124,1.567-1.722c0.251-0.293,0.507-0.591,0.765-0.891
		c0.253,0.275,0.456,0.767,0.541,1.102c0.069,0.278,0.119,0.891,0.491,0.94c0.062-0.164-0.022-0.332-0.021-0.504
		c0.112,0.343,0.433,0.67,0.636,0.961c0.111,0.163,0.19,0.234,0.25,0.234c0.09,0,0.146-0.15,0.229-0.379
		c0.196,0.285,0.533,0.644,0.826,0.831c0.075,0.048,0.134,0.064,0.184,0.064c0.142,0,0.193-0.163,0.209-0.342
		c0.275,0.131,0.541,0.354,0.804,0.522c0.087,0.054,0.196,0.083,0.298,0.083c0.216,0,0.382-0.131,0.146-0.388
		c0.022-0.002,0.047-0.002,0.066-0.002c0.362,0,0.725,0.313,1.045,0.422c0.082,0.027,0.144,0.039,0.191,0.039
		c0.258,0,0.062-0.358-0.067-0.57c0.05-0.029,0.102-0.042,0.154-0.042c0.124,0,0.255,0.072,0.382,0.144
		C321.706,419.465,318.021,425.132,313.593,430.124 M312.789,415.002c-0.129-2.681-0.246-5.364-0.354-8.05
		c0.037,0.048,0.074,0.094,0.111,0.134c0.345,0.381,0.731,0.66,1.161,0.938c-0.861,0.452,0.662,0.864,0.992,0.935
		c-0.106,0.108-0.277,0.2-0.268,0.37c0.337,0.135,0.849,0.313,1.208,0.317c0.417,0.002,0.824,0.093,1.23,0.156
		c0.273,0.041,0.608,0.048,0.889,0.152c-0.253,0.279-0.504,0.556-0.749,0.826c-0.554,0.581-1.085,1.142-1.601,1.666
		c-0.523,0.518-1.005,1.018-1.474,1.458C313.523,414.307,313.139,414.674,312.789,415.002 M326.21,409.059
		c-0.058-0.013-0.114-0.022-0.174-0.029c0.013-0.116,0.137-0.149,0.256-0.189C326.265,408.912,326.237,408.986,326.21,409.059
		 M326.319,408.761c-0.13-0.104-0.301-0.139-0.484-0.139c-0.148,0-0.308,0.022-0.459,0.045c-0.151,0.021-0.295,0.042-0.422,0.042
		c-0.018,0-0.032,0-0.05,0c0.04-0.173,0.266-0.326,0.365-0.464c-0.206,0.073-1,0.291-1.504,0.291c-0.213,0-0.377-0.038-0.422-0.145
		c-0.052-0.128,0.179-0.157,0.104-0.301l-0.32-0.069c-0.203,0.02-0.481,0.111-0.731,0.111c-0.167,0-0.323-0.039-0.432-0.172
		c-0.177-0.21-0.087-0.484,0.064-0.677c0.377-0.479,1.06-0.784,1.578-1.083c0.389-0.225,0.657-0.474,0.97-0.768
		c0.34-0.317,0.846-0.432,1.218-0.706c0.103-0.075,0.286-0.222,0.298-0.366c0.018-0.188-0.134-0.181-0.042-0.373
		c0.156-0.316,0.749-0.577,1.035-0.771c0.161-0.114,0.59-0.616,0.104-0.635c0.162-0.211,1.333-1.104,0.442-1.198
		c0.052-0.246,0.322-0.46,0.459-0.665c0.092-0.14,0.295-0.557,0.062-0.557c-0.042,0-0.099,0.014-0.176,0.048
		c-0.067-0.32,0.144-0.718,0.19-1.025c0.018-0.12,0.154-0.151-0.007-0.268c-0.03-0.021-0.055-0.029-0.08-0.029
		c-0.131,0-0.213,0.25-0.308,0.336c-0.176-0.257,0.092-0.738,0.177-1.01c0.104-0.356,0.188-0.75,0.151-1.119l-0.201,0.229
		c-0.047-0.393,0.124-0.774,0.116-1.161l-0.064-0.739c-0.108,0.047-0.238,0.097-0.367,0.149c-0.144,0.05-0.26,0.108-0.377,0.165
		c-0.424,0.199-0.707,0.551-1.06,0.856l-0.037-0.311c-0.382,0.142-0.734,0.459-1.005,0.757c0.097,0.106,0.047,0.16-0.06,0.16
		c-0.158,0-0.441-0.118-0.551-0.344c-0.367,0.142-0.694,0.911-0.796,0.939c-0.05,0.016-0.095,0.023-0.132,0.023
		c-0.235,0-0.241-0.278-0.32-0.518c-0.387,0.262-0.451,1.122-0.931,1.265c-0.116-0.159-0.2-0.315-0.379-0.422
		c-0.479,0.382-0.514,1.229-0.869,1.667c-0.076-0.042-0.146-0.062-0.206-0.062c-0.553,0-0.558,1.558-0.565,1.886
		c-0.131-0.082-0.218-0.159-0.288-0.159c-0.06,0-0.106,0.055-0.158,0.206c-0.139,0.386-0.226,0.96-0.188,1.367
		c0.062,0.65,0.029,1.216-0.077,1.868c-0.015,0.102-0.106,0.997-0.317,0.997c-0.013,0-0.025-0.002-0.037-0.007
		c-0.479-0.209-0.68-0.816-0.911-1.235c-0.188-0.335-0.395-0.648-0.598-0.968c-0.022,0.116,0.013,0.268-0.092,0.362
		c-0.188-0.346-0.802-1.318-1.221-1.345c0.007,0.118,0.037,0.232,0.002,0.327c-0.414-0.402-1.026-0.825-1.57-1.055
		c0.085,0.149,0.179,0.297,0.174,0.472c-0.357-0.126-0.734-0.19-1.092-0.32c-0.266-0.1-0.548-0.196-0.829-0.196
		c0.594-0.697,1.142-1.401,1.66-2.103c3.462-4.678,4.809-14.754,1.66-23.948c-0.881-2.574-2.109-5.079-3.747-7.381
		c-0.416-0.576-0.823-1.127-1.223-1.661c-0.209-25.831,0.399-51.673,1.791-77.348h2.61v-2h-2.498
		c0.047-0.852,0.097-1.705,0.144-2.559h1.891v-1.982h-1.774c0.045-0.747,0.092-1.493,0.137-2.238h1.878v-2.002h-1.754
		c0.541-8.612,1.171-17.206,1.891-25.77h21.753c-5.957,39.59-8.548,79.793-7.615,119.934c0.022,0.92,0.045,1.841,0.069,2.759
		c-0.491-0.166-1.108-0.28-1.625-0.28c-0.029,0-0.06,0.002-0.087,0.002c0.142,0.095,0.283,0.19,0.348,0.348
		c-0.38,0.032-0.744,0.127-1.121,0.157c-0.333,0.017-0.681,0.049-0.948,0.206c0.156,0.078,0.362,0.031,0.506,0.159l-0.982,0.284
		c-0.424,0.142-0.851,0.362-1.263,0.553c0.253,0.095,0.57,0.631,0.65,0.71c0.156,0.159,0.645,0.348,0.645,0.616
		c0,0.094-0.064,0.121-0.153,0.121c-0.058,0-0.127-0.012-0.196-0.022c-0.067-0.013-0.132-0.022-0.187-0.022
		c-0.017,0-0.032,0-0.047,0.002c0,0.318,1.027,0.823,1.343,0.838c-0.774,0.587,0.836,0.869,1.136,1.011
		c-0.553,0.159-0.108,0.474,0.209,0.617c0.472,0.204,0.931,0.315,1.437,0.396c-0.348,0.437,0.024,0.543,0.467,0.543
		c0.024,0,0.047-0.002,0.071-0.002c0.021,0.533,0.042,1.066,0.063,1.602C330.576,392.374,329.167,400.909,326.319,408.761
		 M317.511,278.73v10.781h6.733v-2.048h-4.287v-8.733H317.511 M312.603,406.446c-0.044-0.005-0.084-0.008-0.116-0.008
		c-0.027,0-0.052,0.003-0.074,0.005c-0.003-0.06-0.005-0.121-0.005-0.181C312.494,406.339,312.565,406.401,312.603,406.446
		 M313.377,402.31l-0.531-0.068c0.064-0.073,0.127-0.147,0.191-0.221C313.151,402.116,313.305,402.171,313.377,402.31"/>
	<path fill="#CEB79B" d="M315.846,289.512h-2.61c0.037-0.668,0.075-1.33,0.112-2h2.498V289.512 M315.382,284.953h-1.891
		c0.04-0.662,0.077-1.319,0.116-1.982h1.774V284.953 M315.622,280.732h-1.878c0.04-0.667,0.082-1.334,0.124-2.002h1.754V280.732"/>
	<polyline fill="#CEB79B" points="324.244,289.512 317.511,289.512 317.511,278.73 319.957,278.73 319.957,287.464 324.244,287.464 
		324.244,289.512 	"/>
	<path fill="#B97121" d="M312.846,402.241h-0.005c0.064-0.075,0.129-0.147,0.193-0.223c0,0,0,0.001,0.003,0.002
		C312.973,402.094,312.91,402.168,312.846,402.241 M313.094,401.952c0,0-0.002,0-0.005,0c0.594-0.697,1.145-1.402,1.66-2.104
		c4.427-5.984,5.399-20.826-2.084-31.321c-0.412-0.578-0.819-1.132-1.221-1.665v-0.003c0.399,0.534,0.807,1.085,1.223,1.661
		c1.638,2.302,2.866,4.807,3.747,7.381c3.148,9.194,1.802,19.271-1.66,23.948C314.235,400.551,313.688,401.255,313.094,401.952"/>
	<image width="13" height="39" xlink:href="1E8A4DEE.png"  transform="matrix(1 0 0 1 309.5 365.5)">
	</image>
	<image width="23" height="43" xlink:href="1E8A4DE5.png"  transform="matrix(1 0 0 1 309.5 374.5)">
	</image>
	<path fill="#E2A353" d="M264.342,452.278h-7.968l0,0c0.28-5.617,0.535-11.241,0.768-16.88c0.167-0.052,0.418-0.249,0.526-0.314
		c0.12-0.069,0.346-0.182,0.505-0.229c-0.005,0.084,0.002,0.164,0.032,0.288c0.043,0.042,0.096,0.057,0.156,0.057
		c0.17,0,0.404-0.134,0.643-0.272c0.24-0.136,0.486-0.271,0.686-0.271c0.06,0,0.115,0.01,0.165,0.039
		c0.138,0.082,0.134,0.365,0.306,0.407c0.02,0.005,0.038,0.008,0.055,0.008c0.154,0,0.262-0.167,0.374-0.333
		c0.113-0.166,0.233-0.332,0.415-0.332c0.008,0,0.017,0,0.024,0c-0.019,0.218-0.035,0.562,0.119,0.562
		c0.055,0,0.128-0.041,0.229-0.14c0.255-0.256,0.449-0.737,0.812-0.865c-0.07,0.234,0.012,0.326,0.135,0.326
		c0.133,0,0.312-0.106,0.398-0.25c0.161-0.269,0.301-0.583,0.493-0.823c0.073,0.128,0.167,0.235,0.269,0.235
		c0.065,0,0.134-0.045,0.203-0.159c0.182-0.297,0.326-0.765,0.377-1.109c0.149,0.146,0.259,0.247,0.335,0.247
		c0.075,0,0.122-0.093,0.158-0.327c0.053-0.352,0.197-0.785,0.147-1.143c0.077,0.153,0.077,0.342,0.203,0.46
		c0.315-0.208,0.087-0.78,0.027-1.059c-0.07-0.34-0.106-0.87-0.001-1.229c0.364,0.157,0.726,0.312,1.08,0.463
		c0.751,0.301,1.477,0.595,2.166,0.857c0.695,0.255,1.347,0.508,1.958,0.719c1.216,0.432,2.24,0.764,2.96,0.991
		c0.719,0.227,1.137,0.349,1.137,0.349c0.032,0.01,0.063,0.014,0.094,0.014c0.149,0,0.284-0.097,0.328-0.247
		c0.051-0.18-0.054-0.37-0.243-0.425c0,0-0.409-0.106-1.128-0.313s-1.745-0.511-2.964-0.908c-0.613-0.19-1.267-0.425-1.965-0.662
		c-0.693-0.242-1.418-0.514-2.17-0.789c-0.341-0.137-0.688-0.275-1.038-0.412c0.206-0.217,0.503-0.371,0.73-0.528
		c0.336-0.235,0.664-0.496,1.033-0.683c0.325-0.161,0.705-0.546,0.95-0.818c-0.069-0.156-0.261-0.164-0.405-0.214
		c0.264-0.208,1.45-1.249,0.481-1.275c0.262-0.438,0.483-0.858,0.629-1.353c0.077-0.261,0.124-0.649-0.091-0.649
		c-0.06,0-0.14,0.03-0.244,0.102c0.08-0.313,0.791-1.553,0.129-1.553c-0.049,0-0.104,0.007-0.169,0.022
		c0.198-0.248,0.486-1.375,0.225-1.564c-0.111,0.096-0.215,0.431-0.357,0.431c-0.024,0-0.051-0.012-0.079-0.035
		c-0.197-0.176-0.027-0.671-0.046-0.898c-0.01-0.102-0.221-0.692-0.132-0.947c-0.409,0.193-0.851,0.374-1.233,0.607l-0.854,0.563
		c0.004-0.186,0.164-0.315,0.208-0.493c-0.3,0.109-0.548,0.355-0.771,0.588c-0.264,0.275-0.571,0.499-0.839,0.77
		c-0.079-0.153-0.06-0.33-0.05-0.499c-0.387,0.443-0.752,1.095-0.947,1.638l-0.141-0.296c-0.364,0.212-0.486,1.354-0.505,1.748
		c-0.134-0.04-0.17-0.194-0.24-0.288c-0.043,0.377-0.091,0.75-0.111,1.134c-0.023,0.478,0.063,1.11-0.276,1.509
		c-0.018,0.022-0.038,0.032-0.062,0.032c-0.209,0-0.633-0.683-0.69-0.765c-0.382-0.538-0.661-1.032-0.893-1.643
		c-0.145-0.379-0.477-0.858-0.77-1.145c-0.089-0.088-0.15-0.126-0.196-0.126c-0.087,0-0.128,0.124-0.227,0.279
		c-0.138-0.267-0.734-1.47-1.215-1.47c-0.101,0-0.196,0.052-0.279,0.174c-0.014-0.005-0.025-0.013-0.038-0.018
		c0.119-3.557,0.23-7.115,0.33-10.677c3.259,1.252,7.094,1.873,10.287,1.873c1.766-0.001,3.334-0.19,4.503-0.567
		c0.087-0.027,0.173-0.057,0.256-0.087c0.031-0.011,0.062-0.024,0.097-0.035c3.099-1.121,5.705-1.464,8.297-1.464
		c2.011,0,4.014,0.206,6.229,0.418c0.194,0.019,0.392,0.04,0.592,0.059c0.546,0.052,1.081,0.094,1.607,0.126
		c0.939,0.058,1.844,0.087,2.717,0.087c1.636,0,3.156-0.099,4.574-0.285c0.1,3.521,0.208,7.039,0.326,10.553
		c-0.011,0.005-0.022,0.013-0.034,0.018c-0.085-0.122-0.181-0.174-0.278-0.174c-0.482,0-1.078,1.203-1.216,1.47
		c-0.1-0.155-0.142-0.279-0.227-0.279c-0.048,0-0.107,0.038-0.197,0.126c-0.292,0.286-0.626,0.766-0.769,1.145
		c-0.231,0.61-0.512,1.104-0.895,1.643c-0.056,0.082-0.479,0.765-0.688,0.765c-0.023,0-0.046-0.01-0.063-0.032
		c-0.34-0.398-0.251-1.031-0.275-1.509c-0.021-0.384-0.069-0.757-0.111-1.134c-0.07,0.094-0.106,0.248-0.242,0.288
		c-0.016-0.395-0.139-1.536-0.502-1.748l-0.141,0.296c-0.197-0.543-0.562-1.194-0.947-1.638c0.01,0.169,0.028,0.346-0.05,0.499
		c-0.268-0.271-0.577-0.494-0.84-0.77c-0.224-0.232-0.472-0.479-0.77-0.588c0.042,0.178,0.204,0.308,0.209,0.493l-0.856-0.563
		c-0.381-0.233-0.823-0.414-1.23-0.607c0.087,0.255-0.124,0.846-0.134,0.947c-0.019,0.228,0.151,0.723-0.045,0.898
		c-0.028,0.023-0.055,0.035-0.081,0.035c-0.143,0-0.244-0.335-0.355-0.431c-0.261,0.189,0.026,1.316,0.226,1.564
		c-0.064-0.016-0.121-0.022-0.171-0.022c-0.661,0,0.05,1.24,0.129,1.553c-0.104-0.071-0.184-0.102-0.244-0.102
		c-0.214,0-0.165,0.389-0.091,0.649c0.146,0.494,0.367,0.914,0.63,1.353c-0.97,0.026,0.216,1.067,0.481,1.275
		c-0.146,0.05-0.337,0.058-0.405,0.214c0.244,0.272,0.624,0.657,0.948,0.818c0.371,0.187,0.696,0.447,1.035,0.683
		c0.226,0.157,0.523,0.312,0.729,0.528c-0.35,0.137-0.697,0.275-1.037,0.412c-0.752,0.275-1.477,0.547-2.171,0.789
		c-0.697,0.237-1.352,0.472-1.963,0.662c-1.221,0.397-2.245,0.702-2.965,0.908c-0.719,0.206-1.127,0.313-1.129,0.313l0,0
		c-0.188,0.055-0.293,0.245-0.241,0.425c0.043,0.15,0.178,0.247,0.325,0.247c0.032,0,0.064-0.004,0.097-0.014
		c0,0,0.417-0.122,1.136-0.349c0.718-0.228,1.743-0.56,2.96-0.991c0.609-0.211,1.262-0.464,1.957-0.719
		c0.691-0.263,1.416-0.557,2.165-0.857c0.355-0.151,0.718-0.306,1.081-0.463c0.105,0.359,0.07,0.89-0.002,1.229
		c-0.06,0.278-0.286,0.851,0.027,1.059c0.127-0.118,0.128-0.307,0.204-0.46c-0.05,0.357,0.094,0.791,0.148,1.143
		c0.035,0.234,0.083,0.327,0.156,0.327c0.08,0,0.187-0.101,0.335-0.247c0.053,0.345,0.196,0.813,0.377,1.109
		c0.07,0.114,0.14,0.159,0.204,0.159c0.102,0,0.194-0.107,0.271-0.235c0.189,0.24,0.33,0.555,0.491,0.823
		c0.087,0.144,0.267,0.25,0.399,0.25c0.121,0,0.203-0.092,0.134-0.326c0.363,0.128,0.559,0.609,0.813,0.865
		c0.1,0.099,0.172,0.14,0.227,0.14c0.153,0,0.139-0.344,0.12-0.562c0.008,0,0.015,0,0.023,0c0.181,0,0.302,0.166,0.414,0.332
		c0.114,0.166,0.221,0.333,0.375,0.333c0.018,0,0.036-0.003,0.055-0.008c0.171-0.042,0.169-0.325,0.305-0.407
		c0.05-0.029,0.105-0.039,0.165-0.039c0.2,0,0.445,0.135,0.687,0.271c0.238,0.139,0.473,0.272,0.643,0.272
		c0.062,0,0.114-0.015,0.156-0.057c0.032-0.124,0.037-0.204,0.033-0.288c0.159,0.047,0.384,0.159,0.505,0.229
		c0.107,0.065,0.356,0.263,0.523,0.314c0.104,2.481,0.211,4.96,0.323,7.434C288.44,448.822,276.816,452.278,264.342,452.278
		 M257.293,431.635c0-0.007,0-0.021,0.001-0.029c0.005,0.005,0.01,0.012,0.014,0.02
		C257.303,431.628,257.298,431.633,257.293,431.635 M297.871,431.635c-0.005-0.002-0.007-0.007-0.014-0.01
		c0.004-0.008,0.009-0.014,0.014-0.019C297.871,431.615,297.871,431.625,297.871,431.635 M257.311,431.171
		c0.043-1.101,0.085-2.198,0.125-3.3c0.258,0.072,0.511,0.124,0.809,0.143c0.596,0.041,1.344,0.016,1.894,0.279
		c0.221,0.106,0.422,0.313,0.357,0.578c-0.104,0.417-0.698,0.449-1.02,0.566l-0.256,0.205c-0.005,0.161,0.216,0.084,0.226,0.222
		c0.023,0.386-1.483,0.683-1.794,0.719c0.151,0.079,0.422,0.116,0.531,0.253C257.962,430.96,257.597,431.03,257.311,431.171
		 M297.854,431.171c-0.286-0.142-0.65-0.211-0.871-0.335c0.11-0.137,0.382-0.174,0.532-0.253c-0.312-0.036-1.817-0.333-1.793-0.719
		c0.009-0.138,0.229-0.061,0.224-0.222l-0.256-0.205c-0.321-0.117-0.915-0.149-1.019-0.566c-0.065-0.266,0.136-0.472,0.357-0.578
		c0.55-0.264,1.297-0.238,1.892-0.279c0.298-0.019,0.551-0.07,0.808-0.143C297.77,428.97,297.812,430.071,297.854,431.171
		 M296.525,335.152c-3.711-12.644-8.938-21.291-15.28-25.073c0,0,0,0,0,0.003c0-0.002-0.003-0.003-0.003-0.003
		c-2.518-1.502-4.553-1.991-6.357-1.991c-1.129,0-2.169,0.191-3.18,0.446c-1.313,0.337-2.578,0.779-3.937,1.055
		c-0.857-2.111-3.121-7.791-3.51-9.879c-0.472-2.584,0.255-6.802,0.263-7.993c0.008-1.012-0.057-1.612-1.085-1.612
		c-0.09,0-0.185,0.005-0.289,0.015s-0.221,0.027-0.345,0.047c-1.645,0.253-1.166,8.896-0.366,11.548
		c0.13,0.433,0.309,0.964,0.521,1.565l0.096,0.268c0.35,0.97,0.77,2.067,1.178,3.114c-1.671-1.775-3.863-2.666-6.198-2.768
		c-0.133-4.823-0.284-9.645-0.453-14.458c2.161-0.661,3.533-2.598,3.533-5.425c0-2.601-1.382-4.823-3.942-5.342
		c-0.349-8.593-0.757-17.165-1.221-25.708h43.267c-0.528,9.765-0.984,19.566-1.366,29.397c-0.184,0.57-0.281,1.202-0.286,1.891
		c-0.005,0.514,0.05,1.008,0.159,1.474C297.113,302.145,296.713,318.636,296.525,335.152 M287.761,285.273h0.734
		c0.991,0.015,1.456,0.385,1.743,1.729c0.321,1.326,0.575,2.207,0.753,2.51h2.493c-0.208-0.415-0.543-1.823-0.878-3.039
		c-0.273-0.991-0.688-1.713-1.439-2.063c0.929-0.338,1.903-1.279,1.903-2.655c0-0.992-0.353-1.743-0.992-2.255
		c-0.77-0.608-1.889-0.849-3.487-0.849c-1.294,0-2.463,0.097-3.245,0.226v10.635h2.415V285.273 M276.804,278.73v10.781h6.878v-2
		h-4.432v-2.559h3.968v-1.982h-3.968v-2.238h4.207v-2.002H276.804 M268.694,281.548c0.127,1.232,0.305,2.239,0.512,3.326
		l0.912,4.638h2.638l2.782-10.781h-2.478l-0.879,4.415c-0.224,1.282-0.465,2.544-0.655,3.743c-0.16-1.199-0.335-2.35-0.577-3.615
		l-0.862-4.543h-2.593l-0.91,4.415c-0.273,1.329-0.528,2.624-0.737,3.79c-0.175-1.087-0.398-2.479-0.638-3.759l-0.817-4.446h-2.605
		l2.559,10.781h2.671l1.023-4.638C268.293,283.787,268.471,282.763,268.694,281.548 M257.498,287.14
		c-0.075-2.074-0.154-4.146-0.237-6.218c0.832,0.617,1.276,1.828,1.276,3.168C258.537,285.395,258.173,286.497,257.498,287.14
		 M288.719,283.515h-0.958v-2.976c0.175-0.032,0.51-0.079,1.102-0.079c1.121,0.015,1.791,0.511,1.791,1.504
		C290.653,282.906,289.935,283.515,288.719,283.515"/>
	<path fill="#E8DED0" d="M257.579,289.436c-0.027-0.766-0.054-1.531-0.081-2.296c0.675-0.643,1.039-1.745,1.039-3.05
		c0-1.34-0.444-2.551-1.276-3.168c-0.028-0.751-0.06-1.502-0.091-2.253c2.561,0.519,3.942,2.741,3.942,5.342
		C261.112,286.838,259.74,288.774,257.579,289.436"/>
	<path fill="#E8DED0" d="M272.756,289.512h-2.638l-0.912-4.638c-0.207-1.087-0.385-2.094-0.512-3.326
		c-0.224,1.215-0.401,2.239-0.655,3.326l-1.023,4.638h-2.671l-2.559-10.781h2.605l0.817,4.446c0.239,1.28,0.463,2.672,0.638,3.759
		c0.209-1.166,0.464-2.461,0.737-3.79l0.91-4.415h2.593l0.862,4.543c0.242,1.266,0.417,2.416,0.577,3.615
		c0.19-1.199,0.432-2.461,0.655-3.743l0.879-4.415h2.478L272.756,289.512"/>
	<polyline fill="#E8DED0" points="283.682,289.512 276.804,289.512 276.804,278.73 283.457,278.73 283.457,280.732 279.25,280.732 
		279.25,282.971 283.218,282.971 283.218,284.953 279.25,284.953 279.25,287.512 283.682,287.512 283.682,289.512 	"/>
	<path fill="#E8DED0" d="M293.484,289.512h-2.493c-0.178-0.303-0.432-1.184-0.753-2.51c-0.287-1.344-0.752-1.714-1.743-1.729h-0.734
		v4.238h-2.415v-10.635c0.782-0.129,1.951-0.226,3.245-0.226c1.599,0,2.718,0.24,3.487,0.849c0.64,0.512,0.992,1.263,0.992,2.255
		c0,1.376-0.975,2.317-1.903,2.655c0.751,0.35,1.166,1.071,1.439,2.063C292.941,287.688,293.276,289.097,293.484,289.512
		 M288.862,280.46c-0.592,0-0.927,0.047-1.102,0.079v2.976h0.958c1.216,0,1.935-0.608,1.935-1.551
		C290.653,280.971,289.983,280.475,288.862,280.46"/>
	<path fill="#E8DED0" d="M297.723,285.723c-0.109-0.466-0.164-0.96-0.159-1.474c0.005-0.688,0.103-1.32,0.286-1.891
		C297.806,283.477,297.765,284.601,297.723,285.723"/>
	<image width="45" height="108" xlink:href="1E8A4DE7.png"  transform="matrix(1 0 0 1 256.5 306.5)">
	</image>
	<path fill="#595B5F" d="M266.313,309.803c-0.182-0.146-0.362-0.307-0.544-0.489c-0.6-0.604-0.797-1.804-1.25-2.332
		c-0.095-0.109-0.19-0.216-0.289-0.32c-0.408-1.047-0.828-2.145-1.178-3.114l-0.096-0.268c-0.212-0.602-0.391-1.133-0.521-1.565
		c-0.8-2.652-1.278-11.295,0.366-11.548c0.124-0.02,0.24-0.037,0.345-0.047s0.199-0.015,0.289-0.015
		c1.028,0,1.093,0.601,1.085,1.612c-0.008,1.191-0.734,5.409-0.263,7.993c0.389,2.088,2.652,7.768,3.51,9.879l0,0
		c-0.451,0.092-0.912,0.164-1.389,0.209C266.358,309.8,266.336,309.803,266.313,309.803"/>
	<image width="8" height="6" xlink:href="1E8A4DE4.png"  transform="matrix(1 0 0 1 265.5 307.5)">
	</image>
	<path fill="#555759" d="M267.616,310.879c-0.388-0.399-0.842-0.699-1.303-1.076c0.022,0,0.045-0.003,0.066-0.005
		c0.477-0.045,0.938-0.117,1.389-0.209c0.205,0.504,0.329,0.806,0.329,0.806S268.011,310.693,267.616,310.879"/>
	<path fill="#D5974D" d="M272.794,411.773c0.087-0.027,0.17-0.057,0.251-0.087c0.033-0.011,0.066-0.024,0.102-0.035
		c-0.035,0.011-0.065,0.024-0.097,0.035C272.967,411.717,272.881,411.746,272.794,411.773 M289.872,410.79
		c-0.526-0.032-1.062-0.074-1.607-0.126c-0.2-0.019-0.397-0.04-0.592-0.059c0.194,0.019,0.391,0.039,0.589,0.056
		C288.809,410.714,289.346,410.757,289.872,410.79 M296.525,335.164c-3.711-12.649-8.938-21.298-15.28-25.082
		c0-0.003,0-0.003,0-0.003c6.343,3.782,11.569,12.43,15.28,25.073C296.525,335.155,296.525,335.161,296.525,335.164"/>
	<image width="45" height="106" xlink:href="69FD41F5.png"  transform="matrix(1 0 0 1 256.5 308.5)">
	</image>
	<path fill="#7F9F42" d="M269.187,315.535c-0.003-1.423-0.375-2.752-1.029-3.932c-0.582-1.053-1.514-1.404-2.388-2.29
		c0,0-0.166-0.037-0.498-0.037c-0.961,0-3.313,0.306-7.034,2.68c-0.063-2.689-0.131-5.377-0.205-8.063
		c2.335,0.102,4.527,0.992,6.198,2.768c0.099,0.104,0.194,0.211,0.289,0.32c0.453,0.528,0.65,1.728,1.25,2.332
		c0.182,0.183,0.362,0.343,0.544,0.489c0.461,0.377,0.915,0.677,1.303,1.076c0.148,0.154,0.29,0.325,0.417,0.519
		c0.042,0.066,0.084,0.135,0.124,0.206C268.812,312.783,269.184,314.112,269.187,315.535"/>
	<path fill="#72883C" d="M258.561,329.012c-0.083-5.69-0.189-11.376-0.323-17.056c3.722-2.374,6.073-2.68,7.034-2.68
		c0.332,0,0.498,0.037,0.498,0.037c0.874,0.886,1.806,1.237,2.388,2.29c0.654,1.18,1.026,2.509,1.029,3.932
		c0,0.279-0.013,0.563-0.042,0.849c-0.371,3.702-2.793,7.563-5.5,9.871C261.922,327.724,260.304,328.474,258.561,329.012"/>
	<image width="20" height="29" xlink:href="69FD420B.png"  transform="matrix(1 0 0 1 256.5 365.5)">
	</image>
	<image width="45" height="20" xlink:href="69FD420D.png"  transform="matrix(1 0 0 1 254.5 417.5)">
	</image>
	<path fill="#E8B572" d="M239.583,452.278h-18.735l0,0c3.147-23.594,5.148-47.396,5.961-71.256c0.056-0.024,0.112-0.047,0.167-0.07
		c0.315-0.144,0.757-0.458,0.205-0.617c0.302-0.142,1.912-0.424,1.138-1.011c0.315-0.015,1.342-0.52,1.342-0.838
		c-0.015-0.002-0.03-0.002-0.047-0.002c-0.054,0-0.122,0.01-0.189,0.022c-0.067,0.011-0.135,0.022-0.193,0.022
		c-0.089,0-0.154-0.027-0.154-0.121c0-0.269,0.489-0.457,0.646-0.616c0.081-0.079,0.396-0.615,0.569-0.71
		c-0.333-0.19-0.759-0.411-1.184-0.553l-0.98-0.284c0.141-0.128,0.347-0.081,0.503-0.159c-0.268-0.157-0.614-0.189-0.948-0.206
		c-0.242-0.019-0.479-0.065-0.718-0.104c0.315-11.751,0.341-23.512,0.073-35.266c-0.665-29.336-3.13-58.609-7.331-87.55h19.114
		c0.831,8.565,1.563,17.155,2.191,25.77h-0.792v10.781h1.524c0.532,8.48,0.967,16.983,1.299,25.492
		c-0.52,0.935-0.984,1.872-1.38,2.788c-1.913,4.438-3.072,8.003-4.19,13.701c-0.35,1.771-0.498,6.382-0.498,6.382l0,0l0,0
		c0,0,4.105-2.591,5.462-3.33c0.403-0.22,0.794-0.427,1.176-0.623c0.047,2.196,0.087,4.392,0.121,6.589
		c0.17,11.191,0.161,22.395-0.021,33.584c-2.932,9.521-2.604,16.195-0.563,21.316c-0.082,2.254-0.171,4.509-0.268,6.762
		c-0.027,0.003-0.054,0.006-0.082,0.008l-1.015,0.129c0.084-0.163,0.288-0.211,0.405-0.353c-0.039-0.005-0.077-0.005-0.114-0.005
		c-0.282,0-0.568,0.095-0.836,0.196c-0.357,0.13-0.733,0.194-1.091,0.32c-0.005-0.175,0.09-0.322,0.173-0.472
		c-0.541,0.229-1.156,0.652-1.57,1.055c-0.035-0.095-0.005-0.209,0.002-0.327c-0.418,0.026-1.032,0.999-1.221,1.345
		c-0.104-0.095-0.07-0.246-0.091-0.362c-0.204,0.319-0.412,0.633-0.599,0.968c-0.232,0.419-0.432,1.026-0.911,1.235
		c-0.014,0.005-0.025,0.007-0.037,0.007c-0.211,0-0.301-0.896-0.318-0.997c-0.106-0.652-0.139-1.218-0.078-1.868
		c0.039-0.407-0.049-0.981-0.185-1.367c-0.055-0.151-0.102-0.206-0.161-0.206c-0.07,0-0.155,0.077-0.288,0.159
		c-0.007-0.328-0.011-1.886-0.563-1.886c-0.062,0-0.132,0.02-0.206,0.062c-0.357-0.438-0.392-1.285-0.869-1.667
		c-0.18,0.106-0.267,0.263-0.382,0.422c-0.478-0.143-0.541-1.003-0.931-1.265c-0.079,0.239-0.083,0.518-0.317,0.518
		c-0.039,0-0.082-0.008-0.133-0.023c-0.102-0.028-0.429-0.798-0.795-0.939c-0.111,0.226-0.395,0.344-0.551,0.344
		c-0.106,0-0.159-0.054-0.06-0.16c-0.274-0.298-0.625-0.615-1.007-0.757l-0.037,0.311c-0.354-0.306-0.633-0.657-1.06-0.856
		c-0.117-0.057-0.233-0.115-0.354-0.153c-0.151-0.064-0.281-0.114-0.39-0.161l-0.064,0.739c-0.005,0.387,0.164,0.769,0.116,1.161
		l-0.2-0.229c-0.038,0.369,0.047,0.763,0.153,1.119c0.082,0.271,0.35,0.753,0.175,1.01c-0.098-0.086-0.177-0.336-0.308-0.336
		c-0.025,0-0.051,0.008-0.081,0.029c-0.161,0.116-0.025,0.147-0.007,0.268c0.047,0.308,0.258,0.705,0.191,1.025
		c-0.076-0.034-0.134-0.048-0.176-0.048c-0.233,0-0.03,0.417,0.063,0.557c0.135,0.205,0.406,0.419,0.458,0.665
		c-0.891,0.094,0.281,0.987,0.442,1.198c-0.486,0.019-0.057,0.521,0.104,0.635c0.286,0.193,0.878,0.454,1.035,0.771
		c0.092,0.192-0.057,0.185-0.041,0.373c0.013,0.145,0.195,0.291,0.297,0.366c0.372,0.274,0.878,0.389,1.218,0.706
		c0.315,0.294,0.581,0.543,0.97,0.768c0.516,0.299,1.201,0.604,1.578,1.083c0.151,0.192,0.241,0.467,0.066,0.677
		c-0.11,0.133-0.267,0.172-0.433,0.172c-0.25,0-0.528-0.092-0.732-0.111l-0.32,0.069c-0.076,0.144,0.156,0.173,0.104,0.301
		c-0.044,0.106-0.207,0.145-0.42,0.145c-0.506,0-1.299-0.218-1.505-0.291c0.099,0.138,0.325,0.291,0.365,0.464
		c-0.016,0-0.032,0-0.05,0c-0.124,0-0.271-0.021-0.423-0.042c-0.15-0.022-0.309-0.045-0.458-0.045c-0.208,0-0.402,0.045-0.536,0.188
		c0.131,0.058,0.32,0.075,0.335,0.22c-0.469,0.066-0.951,0.245-1.426,0.314c0.043,0.109,0.165,0.156,0.282,0.197
		c-0.149,0.118-0.568,0.104-0.782,0.141c-0.289,0.055-0.548,0.089-0.729,0.327l0.218,0.182l-0.911,0.553
		c-0.263,0.211-0.452,0.485-0.65,0.744c0.143,0.067,0.292,0.123,0.439,0.173c0.071,0.023,0.133,0.031,0.193,0.031
		c0.048,0,0.094-0.005,0.144-0.01c0.048-0.003,0.098-0.008,0.154-0.008c0.016,0,0.032,0,0.051,0.002
		c0.401,0.018,0.796,0.157,1.185,0.187c-0.075,0.159-0.281,0.315-0.068,0.454c0.039,0.026,0.104,0.036,0.18,0.036
		c0.176,0,0.411-0.049,0.516-0.059c0.053-0.004,0.124-0.006,0.199-0.006c0.122,0,0.255,0.006,0.357,0.023l-0.089,0.229
		c0.052,0.172,0.262,0.208,0.516,0.208c0.092,0,0.189-0.005,0.287-0.01c0.1-0.005,0.199-0.01,0.294-0.01
		c0.251,0,0.472,0.032,0.573,0.181c0.087,0.134-0.042,0.388,0.094,0.5c0.045,0.037,0.093,0.053,0.146,0.053
		c0.114,0,0.242-0.076,0.375-0.15s0.268-0.151,0.398-0.151c0.05,0,0.102,0.013,0.151,0.042c-0.129,0.212-0.325,0.57-0.068,0.57
		c0.048,0,0.11-0.012,0.193-0.039c0.321-0.109,0.681-0.422,1.043-0.422c0.021,0,0.044,0,0.067,0.002
		c-0.236,0.257-0.069,0.388,0.149,0.388c0.099,0,0.211-0.029,0.296-0.083c0.262-0.169,0.527-0.392,0.805-0.522
		c0.013,0.179,0.064,0.342,0.205,0.342c0.051,0,0.111-0.017,0.186-0.064c0.292-0.188,0.629-0.546,0.825-0.831
		c0.083,0.229,0.139,0.379,0.229,0.379c0.061,0,0.139-0.071,0.25-0.234c0.202-0.291,0.522-0.618,0.635-0.961
		c0.002,0.172-0.08,0.34-0.02,0.504c0.374-0.05,0.422-0.662,0.491-0.94c0.085-0.335,0.288-0.826,0.541-1.102
		c0.258,0.3,0.514,0.598,0.767,0.891c0.54,0.598,1.062,1.184,1.565,1.722c0.511,0.534,0.985,1.053,1.443,1.507
		c0.513,0.527,0.984,0.996,1.395,1.399C241.551,427.938,240.669,440.136,239.583,452.278L239.583,452.278 M231.668,287.002
		l-0.496,2.013c0.608,0.338,1.822,0.658,3.054,0.658c2.959,0,4.35-1.536,4.35-3.345c0-1.519-0.896-2.511-2.799-3.213
		c-1.392-0.529-2-0.832-2-1.521c0-0.56,0.514-1.038,1.568-1.038c1.056,0,1.824,0.303,2.255,0.51l0.543-1.966
		c-0.639-0.288-1.535-0.544-2.75-0.544c-2.543,0-4.079,1.407-4.079,3.246c0,1.567,1.167,2.559,2.96,3.183
		c1.294,0.464,1.806,0.849,1.806,1.519c0,0.703-0.59,1.169-1.71,1.169C233.331,287.673,232.322,287.338,231.668,287.002
		 M242.27,414.899c-0.32-0.301-0.669-0.633-1.041-0.995c-0.464-0.44-0.948-0.94-1.471-1.458c-0.515-0.524-1.046-1.085-1.601-1.666
		c-0.246-0.271-0.496-0.547-0.75-0.826c0.281-0.104,0.616-0.111,0.889-0.152c0.407-0.063,0.813-0.154,1.229-0.156
		c0.362-0.004,0.872-0.183,1.212-0.317c0.007-0.17-0.161-0.262-0.27-0.37c0.328-0.07,1.853-0.482,0.993-0.935
		c0.429-0.277,0.814-0.557,1.16-0.938c0.017-0.018,0.032-0.034,0.049-0.055C242.545,409.656,242.413,412.279,242.27,414.899
		 M242.563,406.446c0.028-0.034,0.078-0.08,0.139-0.135c-0.001,0.043-0.003,0.085-0.005,0.127c-0.005,0-0.011,0-0.016,0
		C242.646,406.438,242.608,406.441,242.563,406.446"/>
	<path fill="#EDE4D9" d="M234.227,289.673c-1.232,0-2.446-0.32-3.054-0.658l0.496-2.013c0.654,0.336,1.663,0.671,2.702,0.671
		c1.12,0,1.71-0.466,1.71-1.169c0-0.67-0.512-1.055-1.806-1.519c-1.792-0.624-2.96-1.615-2.96-3.183
		c0-1.839,1.536-3.246,4.079-3.246c1.216,0,2.111,0.256,2.75,0.544l-0.543,1.966c-0.432-0.207-1.2-0.51-2.255-0.51
		c-1.055,0-1.568,0.479-1.568,1.038c0,0.688,0.608,0.991,2,1.521c1.903,0.702,2.799,1.694,2.799,3.213
		C238.576,288.137,237.186,289.673,234.227,289.673"/>
	<path fill="#EDE4D9" d="M241.748,289.512h-1.524V278.73h0.792C241.278,282.321,241.522,285.916,241.748,289.512"/>
	<image width="8" height="25" xlink:href="69FD420F.png"  transform="matrix(1 0 0 1 239.5 372.5)">
	</image>
	<path fill="#9AB365" d="M236.979,337.875c0,0,0.147-4.611,0.498-6.382c1.119-5.698,2.278-9.263,4.19-13.701
		c0.396-0.916,0.86-1.854,1.38-2.788c0.166,4.26,0.308,8.517,0.421,12.779C239.79,333.113,236.979,337.875,236.979,337.875
		L236.979,337.875"/>
	<path fill="#90A05F" d="M236.979,337.875c0,0,2.81-4.762,6.489-10.092c0.056,2.046,0.104,4.092,0.149,6.139
		c-0.382,0.196-0.773,0.403-1.176,0.623C241.084,335.284,236.979,337.875,236.979,337.875"/>
	<image width="23" height="43" xlink:href="69FD420C.png"  transform="matrix(1 0 0 1 223.5 374.5)">
	</image>
	<path fill="#C67D26" d="M312.377,459.385H297.03c1.116,0,1.963-3.127,1.786-6.585c-0.01-0.176-0.014-0.351-0.023-0.521
		c-0.157-3.145-0.308-6.295-0.447-9.446c5.708-3.453,10.846-7.746,15.247-12.708c0.439,7.401,0.945,14.788,1.517,22.154
		c0.017,0.171,0.017,0.346,0.032,0.521C315.427,456.258,314.116,459.385,312.377,459.385 M258.137,459.385h-15.395
		c-2.006,0-3.523-3.127-3.206-6.585l0.047-0.521h16.791c-0.011,0.171-0.016,0.346-0.025,0.521
		C256.173,456.258,257.021,459.385,258.137,459.385 M225.555,459.385h-8.799c-3.177,0-5.661-2.591-5.665-5.665
		c-0.001-0.303,0.023-0.611,0.073-0.92c0.031-0.176,0.046-0.351,0.078-0.521h9.606c-0.032,0.171-0.05,0.346-0.081,0.521
		C220.295,456.258,222.569,459.385,225.555,459.385"/>
	<path fill="#E5D8C7" d="M344.002,452.8c-0.01-0.062-0.02-0.122-0.027-0.182C343.985,452.678,343.995,452.738,344.002,452.8"/>
	<path fill="#CEB79B" d="M342.119,439.949c-0.003-0.028-0.008-0.06-0.013-0.088C342.111,439.89,342.116,439.921,342.119,439.949
		 M342.087,439.716c-0.251-1.849-0.491-3.694-0.728-5.545C341.596,436.02,341.836,437.869,342.087,439.716 M341.357,434.146
		c-0.01-0.076-0.02-0.151-0.03-0.228C341.338,433.992,341.348,434.071,341.357,434.146 M341.308,433.767
		c-0.002-0.027-0.005-0.055-0.01-0.082C341.303,433.712,341.306,433.741,341.308,433.767 M337,330.882
		c0.003-0.084,0.008-0.168,0.011-0.25C337.008,330.714,337.003,330.798,337,330.882 M337.016,330.521
		c1.116-25.984,3.88-51.9,8.234-77.561l0,0C340.9,278.616,338.135,304.532,337.016,330.521"/>
	<path fill="#B26A1E" d="M338.412,459.385h-26.035c1.739,0,3.05-3.127,2.765-6.585c-0.016-0.176-0.016-0.351-0.032-0.521
		c-0.571-7.366-1.077-14.753-1.517-22.154c4.429-4.992,8.113-10.659,10.883-16.82c0.005,0.003,0.01,0.005,0.015,0.008
		c0.132,0.074,0.258,0.15,0.375,0.15c0.052,0,0.099-0.016,0.144-0.053c0.137-0.112,0.01-0.366,0.097-0.5
		c0.097-0.144,0.308-0.179,0.551-0.179c0.112,0,0.226,0.008,0.34,0.013c0.114,0.008,0.226,0.017,0.33,0.017
		c0.226,0,0.404-0.035,0.457-0.176c-0.027-0.126-0.058-0.2-0.097-0.272c0.099-0.018,0.235-0.023,0.354-0.023
		c0.074,0,0.146,0.002,0.201,0.006c0.104,0.01,0.337,0.059,0.514,0.059c0.076,0,0.141-0.01,0.181-0.036
		c0.214-0.139,0.008-0.295-0.069-0.454c0.39-0.029,0.784-0.169,1.186-0.187c0.018-0.002,0.032-0.002,0.05-0.002
		c0.055,0,0.107,0.005,0.154,0.008c0.05,0.005,0.094,0.01,0.142,0.01c0.064,0,0.126-0.008,0.195-0.031
		c0.149-0.05,0.298-0.105,0.438-0.171c-0.196-0.261-0.385-0.535-0.646-0.746l-0.913-0.553l0.219-0.182
		c-0.182-0.238-0.439-0.272-0.729-0.327c-0.214-0.037-0.633-0.022-0.782-0.141c0.117-0.041,0.238-0.088,0.283-0.197
		c-0.417-0.061-0.839-0.206-1.253-0.285c0.027-0.072,0.055-0.146,0.082-0.219c0.027-0.01,0.054-0.02,0.079-0.03
		c-0.015-0.018-0.035-0.034-0.052-0.049c2.848-7.852,4.257-16.387,3.91-25.271c-0.021-0.535-0.042-1.068-0.063-1.602
		c0.306-0.008,0.626-0.06,0.757-0.083c-0.064,0.143-0.174,0.283-0.111,0.442c0.38-0.018,0.915-0.05,1.248-0.189
		c0.38-0.175,0.791-0.253,1.186-0.365c0.269-0.063,0.568-0.188,0.869-0.204c-0.112,0.347-0.238,0.709-0.348,1.058
		c-0.285,0.743-0.536,1.471-0.807,2.165c-0.268,0.68-0.506,1.327-0.759,1.928c-0.475,1.184-0.916,2.164-1.216,2.843
		c-0.315,0.695-0.489,1.075-0.489,1.075c-0.079,0.174,0,0.377,0.156,0.458c0.048,0.021,0.095,0.031,0.145,0.031
		c0.131,0,0.258-0.079,0.314-0.206c0,0,0.174-0.395,0.475-1.09c0.285-0.694,0.694-1.689,1.153-2.905
		c0.221-0.602,0.459-1.266,0.71-1.96c0.238-0.696,0.491-1.438,0.744-2.211c0.109-0.364,0.221-0.744,0.345-1.121
		c0.335,0.156,0.727,0.52,0.933,0.789c0.159,0.216,0.41,0.677,0.725,0.677c0.032,0,0.064-0.004,0.1-0.015
		c0-0.174-0.144-0.283-0.224-0.441c0.236,0.252,0.646,0.424,0.945,0.598c0.734,16.886,2.169,33.747,4.28,50.523
		c0.005,0.027,0.008,0.055,0.01,0.082c0.008,0.052,0.015,0.102,0.02,0.151c0.011,0.076,0.021,0.151,0.03,0.228
		c0,0.011,0,0.016,0.002,0.025c0.236,1.851,0.477,3.696,0.728,5.545c0.008,0.05,0.015,0.097,0.02,0.146
		c0.005,0.028,0.01,0.06,0.013,0.088c0.575,4.23,1.193,8.452,1.855,12.669c0.008,0.06,0.018,0.12,0.027,0.182l0,0
		c0.05,0.309,0.075,0.617,0.075,0.92C344.074,456.794,341.588,459.385,338.412,459.385 M333.845,377.192
		c-0.521,0-0.948-0.475-1.325-0.775c-0.317-0.221-0.633-0.424-0.948-0.646c0.032,0.126,0.127,0.252,0.063,0.379
		c-0.271-0.215-1.082-0.765-1.528-0.765c-0.048,0-0.092,0.008-0.132,0.021l0.144,0.302c-0.049-0.021-0.099-0.037-0.151-0.055
		c-0.024-0.918-0.047-1.839-0.069-2.759c-0.933-40.141,1.658-80.344,7.615-119.934h0.111h6.437h1.19
		c-4.354,25.66-7.118,51.576-8.234,77.561c-0.003,0.036-0.003,0.073-0.005,0.11c-0.003,0.082-0.008,0.166-0.011,0.25
		c-0.367,8.668-0.553,17.342-0.553,26.019c0,2.938,0.022,5.878,0.064,8.816l-0.077,0.165l-0.156-0.269
		c-0.285,0.284-0.488,0.711-0.615,1.09c0.211,0.1,0.024,0.22-0.221,0.22c-0.139,0-0.298-0.038-0.412-0.14
		c-0.285,0.282-0.268,1.121-0.348,1.184c-0.079,0.067-0.148,0.097-0.211,0.097c-0.161,0-0.268-0.204-0.404-0.365
		c-0.253,0.395,0.03,1.201-0.347,1.531c-0.174-0.095-0.303-0.204-0.521-0.236c-0.285,0.536,0.032,1.327-0.127,1.879
		c-0.024-0.003-0.044-0.003-0.066-0.003c-0.749,0-0.04,1.655,0.097,1.978c-0.114-0.012-0.203-0.034-0.268-0.034
		c-0.095,0-0.135,0.049-0.127,0.257c0.032,0.41,0.188,0.979,0.38,1.326c0.314,0.567,0.521,1.106,0.68,1.739
		C333.797,376.245,334.098,377.192,333.845,377.192"/>
	<image width="18" height="51" xlink:href="69FD4214.png"  transform="matrix(1 0 0 1 322.5 364.5)">
	</image>
	<path fill="#CB8A41" d="M297.03,459.385h-38.894c-1.115,0-1.964-3.127-1.788-6.585c0.01-0.176,0.015-0.351,0.025-0.521h7.968
		c12.475,0,24.099-3.456,34.004-9.446c0.14,3.151,0.29,6.302,0.447,9.446c0.01,0.171,0.014,0.346,0.023,0.521
		C298.993,456.258,298.146,459.385,297.03,459.385"/>
	<path fill="#D09959" d="M242.742,459.385h-17.188c-2.986,0-5.26-3.127-4.787-6.585c0.031-0.176,0.048-0.351,0.081-0.521h18.735
		l-0.047,0.521C239.219,456.258,240.736,459.385,242.742,459.385"/>
	<path fill="#EFB04B" d="M335.417,209.788H219.749c-5.432,0-9.833,4.402-9.833,9.833v33.34H345.25v-33.34
		C345.25,214.19,340.849,209.788,335.417,209.788"/>
	<path fill="#F1BB69" d="M299.22,248.461h-42.752v-31.115c0-2.401,1.57-4.434,3.739-5.129c0.137,4.533,3.854,8.168,8.421,8.168
		h18.431c4.567,0,8.287-3.635,8.421-8.168c2.171,0.695,3.74,2.728,3.74,5.129V248.461"/>
	<path fill="#F4C984" d="M239.141,248.461h-19.747v-27.515c0-4.965,4.234-8.987,9.461-8.987h17.979c-4.249,0-7.693,3.27-7.693,7.307
		V248.461"/>
	<path fill="#D7953B" d="M316.027,249.834v-30.568c0-4.037-3.444-7.307-7.695-7.307h25.376c2.382,1.868,3.915,4.771,3.915,8.034
		v9.251c0,11.113-8.838,20.213-19.946,20.541L316.027,249.834"/>
	<polyline fill="#A05A17" points="345.25,252.961 344.06,252.961 337.623,252.961 337.512,252.961 337.512,252.961 345.235,252.961 
		345.25,252.961 345.25,252.961 	"/>
	<path fill="#D7953B" d="M345.25,252.961L345.25,252.961h-0.015v-32.015c0-4.965-4.232-8.987-9.463-8.987h-2.064
		c-1.734-1.36-3.921-2.171-6.292-2.171h7.629c5.638,0,10.205,4.568,10.205,10.205V252.961 M316.027,252.961h-16.812h-43.267h-17.125
		H219.71h-9.794l106.111-3.126V252.961"/>
	<path fill="#C17E2E" d="M345.235,252.961h-29.208v-3.126l1.649-0.049c11.108-0.328,19.946-9.427,19.946-20.541v-9.251
		c0-3.263-1.533-6.166-3.915-8.034h2.064c5.23,0,9.463,4.022,9.463,8.987V252.961"/>
	<path fill="#EFB04B" d="M287.059,220.385h-18.431c-4.653,0-8.425-3.772-8.425-8.426h35.281
		C295.484,216.613,291.712,220.385,287.059,220.385"/>
	<path fill="#D7953B" d="M287.059,220.385h-18.431c-4.653,0-8.425-3.772-8.425-8.426h35.281
		C295.484,216.613,291.712,220.385,287.059,220.385 M263.235,211.959c0,3.272,2.652,5.925,5.924,5.925h17.368
		c3.272,0,5.925-2.652,5.925-5.925l0,0l0,0H263.235L263.235,211.959"/>
	<path fill="#EFB04B" d="M286.527,217.884h-17.368c-3.271,0-5.924-2.652-5.924-5.925h29.217
		C292.452,215.232,289.8,217.884,286.527,217.884"/>
	<path fill="#F1BB69" d="M286.527,217.884h-17.368c-3.271,0-5.924-2.652-5.924-5.925h29.217
		C292.452,215.232,289.8,217.884,286.527,217.884"/>
</g>
<g>
	<polyline fill="#3D3D3D" points="361.058,456.115 319.86,456.115 319.86,338.023 361.058,338.023 361.058,456.115 	"/>
	<path fill="#5C5C5C" d="M330.753,456.115h-7.989V338.023h1.092h0.823l0.799,0.164c1.742,0.357,3.504,0.635,5.275,0.838V456.115"/>
	<polyline fill="#373737" points="361.058,456.115 358.284,456.115 358.284,338.023 357.061,338.023 361.058,338.023 
		361.058,456.115 	"/>
	<path fill="#373737" d="M350.195,456.115h-7.031v-117.09c0.776-0.074,1.548-0.176,2.317-0.29l4.714-0.712V456.115"/>
	<polyline fill="#313131" points="358.284,456.115 350.195,456.115 350.195,338.023 354.828,338.023 357.061,338.023 
		358.284,338.023 358.284,456.115 	"/>
	<path fill="#7B7B7B" d="M336.998,339.371c-2.087,0-4.174-0.114-6.245-0.346v-1.002h1.883h10.005h0.523v1.002
		C341.117,339.257,339.058,339.371,336.998,339.371"/>
	<path fill="#909090" d="M330.753,339.025c-1.771-0.203-3.533-0.48-5.275-0.838l-0.799-0.164h1.517h4.558V339.025"/>
	<path fill="#777777" d="M343.164,339.025v-1.002h7.031l-4.714,0.712C344.712,338.85,343.94,338.951,343.164,339.025"/>
	<polyline fill="#515151" points="357.061,338.023 323.855,338.023 323.855,320.72 357.061,320.72 357.061,338.023 	"/>
	<path fill="#6D6D6D" d="M332.636,338.023h-1.883h-4.558V320.72h0.493h1.05l0.645,0.129c1.404,0.29,2.824,0.521,4.253,0.673V338.023
		"/>
	<polyline fill="#494949" points="357.061,338.023 354.828,338.023 354.828,320.72 354.228,320.72 357.061,320.72 357.061,338.023 	
		"/>
	<path fill="#494949" d="M348.308,338.023h-5.667v-16.49c0.622-0.062,1.245-0.151,1.865-0.24l3.802-0.573V338.023"/>
	<polyline fill="#414141" points="354.828,338.023 350.195,338.023 348.308,338.023 348.308,320.72 352.374,320.72 354.228,320.72 
		354.828,320.72 354.828,338.023 	"/>
	<path fill="#888888" d="M337.673,321.802c-1.685,0-3.367-0.09-5.037-0.28v-0.802h1.335h8.297h0.373v0.813
		C340.99,321.712,339.333,321.802,337.673,321.802"/>
	<path fill="#9B9B9B" d="M332.636,321.521c-1.429-0.151-2.849-0.383-4.253-0.673l-0.645-0.129h0.894h4.004V321.521"/>
	<path fill="#838383" d="M342.641,321.533v-0.813h5.667l-3.802,0.573C343.886,321.382,343.263,321.472,342.641,321.533"/>
	<polyline fill="#515151" points="354.228,320.72 326.688,320.72 326.688,247.053 354.228,247.053 354.228,320.72 	"/>
	<path fill="#6D6D6D" d="M333.971,320.72h-1.335h-4.004v-73.667h1.021h0.259l0.533,0.102c1.163,0.241,2.34,0.432,3.525,0.559V320.72
		"/>
	<polyline fill="#494949" points="354.228,320.72 352.374,320.72 352.374,247.053 352.585,247.053 354.228,247.053 354.228,320.72 	
		"/>
	<path fill="#494949" d="M346.968,320.72h-4.7v-72.994c0.517-0.064,1.035-0.126,1.549-0.204l3.151-0.469V320.72"/>
	<polyline fill="#414141" points="352.374,320.72 348.308,320.72 346.968,320.72 346.968,247.053 351.268,247.053 352.374,247.053 
		352.374,320.72 	"/>
	<path fill="#888888" d="M338.146,247.941c-1.395,0-2.791-0.077-4.176-0.228v-0.66h1.615h6.682v0.672
		C340.898,247.865,339.523,247.941,338.146,247.941"/>
	<path fill="#9B9B9B" d="M333.971,247.713c-1.186-0.126-2.362-0.318-3.525-0.559l-0.533-0.102h4.059V247.713"/>
	<path fill="#838383" d="M342.268,247.726v-0.672h3.067h1.633l-3.151,0.469C343.303,247.599,342.784,247.661,342.268,247.726"/>
	<path fill="#D32F2D" d="M352.585,247.053h-24.254v-23.192c0-6.696,5.429-12.128,12.128-12.128c6.697,0,12.126,5.432,12.126,12.128
		V247.053"/>
	<path fill="#DA504F" d="M335.586,247.053h-1.615h-4.059h-0.259v-17.775c0.683,1.345,1.605,2.543,2.715,3.541
		c0.95,0.856,2.032,1.561,3.218,2.082V247.053"/>
	<path fill="#C82B28" d="M351.268,247.053h-4.3h-1.633V234.9c2.573-1.134,4.675-3.139,5.933-5.64V247.053"/>
	<path fill="#DC5957" d="M352.553,223.829c0,6.68-5.414,12.094-12.094,12.094c-6.682,0-12.096-5.414-12.096-12.094
		c0-6.679,5.414-12.096,12.096-12.096C347.139,211.733,352.553,217.15,352.553,223.829"/>
	<path fill="#FFFFFF" d="M335.191,212.935c1.591-0.772,3.375-1.206,5.261-1.206c0.163,0,0.327,0,0.486,0.015
		c-0.135-0.005-0.269-0.008-0.402-0.008c-0.005,0-0.01,0-0.018,0c-0.02-0.002-0.039-0.002-0.06-0.002c-0.02,0-0.039,0-0.057,0
		c-0.008,0.002-0.015,0.002-0.022,0.002C338.521,211.746,336.762,212.175,335.191,212.935"/>
	<path fill="#DA504F" d="M329.653,229.278c-0.828-1.637-1.295-3.491-1.295-5.454c0-4.786,2.791-8.93,6.833-10.89
		c1.57-0.759,3.33-1.188,5.188-1.199c-6.645,0.04-12.017,5.439-12.017,12.093c0,1.958,0.467,3.806,1.29,5.441V229.278
		 M340.938,211.744c-0.135-0.005-0.266-0.008-0.402-0.008C340.67,211.736,340.804,211.738,340.938,211.744L340.938,211.744
		 M340.519,211.736c-0.02-0.002-0.039-0.002-0.06-0.002c-0.02,0-0.039,0-0.057,0c0.018,0,0.037,0,0.057,0
		C340.479,211.733,340.499,211.733,340.519,211.736"/>
	<path fill="#E06C6B" d="M332.368,232.819c-1.109-0.998-2.032-2.196-2.715-3.541v-0.007
		C330.333,230.618,331.259,231.819,332.368,232.819"/>
	<path fill="#E27472" d="M340.452,235.917c-3.106,0-5.94-1.171-8.084-3.099c-1.109-1-2.035-2.201-2.715-3.548
		c-0.823-1.635-1.29-3.483-1.29-5.441c0-6.654,5.372-12.053,12.017-12.093c0.008,0,0.015,0,0.022-0.002c0.018,0,0.037,0,0.057,0
		c0.021,0,0.04,0,0.06,0.002c0.008,0,0.013,0,0.018,0c0.137,0,0.268,0.002,0.402,0.008c0.071,0.007,0.146,0.015,0.216,0.027
		c-6.348,0.343-11.411,5.627-11.411,12.054c0,6.449,5.063,11.711,11.411,12.051C340.934,235.917,340.692,235.917,340.452,235.917"/>
	<polyline fill="#3D3D3D" points="416.215,456.115 375.018,456.115 375.018,338.023 416.215,338.023 416.215,456.115 	"/>
	<path fill="#5C5C5C" d="M385.909,456.115h-7.986V338.023h1.089h0.824l0.799,0.164c1.741,0.357,3.503,0.635,5.274,0.838V456.115"/>
	<polyline fill="#373737" points="416.215,456.115 413.44,456.115 413.44,338.023 412.22,338.023 416.215,338.023 416.215,456.115 	
		"/>
	<path fill="#373737" d="M405.354,456.115h-7.031v-117.09c0.773-0.074,1.546-0.176,2.314-0.29l4.717-0.712V456.115"/>
	<polyline fill="#313131" points="413.44,456.115 405.354,456.115 405.354,338.023 409.984,338.023 412.22,338.023 413.44,338.023 
		413.44,456.115 	"/>
	<path fill="#7B7B7B" d="M392.154,339.371c-2.086,0-4.173-0.114-6.245-0.346v-1.002h1.884h10.004h0.526v1.002
		C396.273,339.257,394.214,339.371,392.154,339.371"/>
	<path fill="#909090" d="M385.909,339.025c-1.771-0.203-3.533-0.48-5.274-0.838l-0.799-0.164h1.519h4.555V339.025"/>
	<path fill="#777777" d="M398.323,339.025v-1.002h7.031l-4.717,0.712C399.869,338.85,399.097,338.951,398.323,339.025"/>
	<polyline fill="#515151" points="412.22,338.023 379.012,338.023 379.012,320.72 412.22,320.72 412.22,338.023 	"/>
	<path fill="#6D6D6D" d="M387.793,338.023h-1.884h-4.555V320.72h0.493h1.047l0.646,0.129c1.404,0.29,2.823,0.521,4.253,0.673
		V338.023"/>
	<polyline fill="#494949" points="412.22,338.023 409.984,338.023 409.984,320.72 409.384,320.72 412.22,320.72 412.22,338.023 	"/>
	<path fill="#494949" d="M403.467,338.023h-5.67v-16.49c0.625-0.062,1.248-0.151,1.868-0.24l3.802-0.573V338.023"/>
	<polyline fill="#414141" points="409.984,338.023 405.354,338.023 403.467,338.023 403.467,320.72 407.53,320.72 409.384,320.72 
		409.984,320.72 409.984,338.023 	"/>
	<path fill="#888888" d="M392.83,321.802c-1.686,0-3.365-0.09-5.037-0.28v-0.802h1.335h8.297h0.372v0.813
		C396.146,321.712,394.489,321.802,392.83,321.802"/>
	<path fill="#9B9B9B" d="M387.793,321.521c-1.43-0.151-2.849-0.383-4.253-0.673l-0.646-0.129h0.894h4.005V321.521"/>
	<path fill="#838383" d="M397.797,321.533v-0.813h5.67l-3.802,0.573C399.045,321.382,398.422,321.472,397.797,321.533"/>
	<polyline fill="#515151" points="409.384,320.72 381.848,320.72 381.848,247.053 409.384,247.053 409.384,320.72 	"/>
	<path fill="#6D6D6D" d="M389.128,320.72h-1.335h-4.005v-73.667h1.022h0.258l0.533,0.102c1.166,0.241,2.343,0.432,3.526,0.559
		V320.72"/>
	<polyline fill="#494949" points="409.384,320.72 407.53,320.72 407.53,247.053 407.744,247.053 409.384,247.053 409.384,320.72 	
		"/>
	<path fill="#494949" d="M402.124,320.72h-4.699v-72.994c0.519-0.064,1.034-0.126,1.548-0.204l3.151-0.469V320.72"/>
	<polyline fill="#414141" points="407.53,320.72 403.467,320.72 402.124,320.72 402.124,247.053 406.424,247.053 407.53,247.053 
		407.53,320.72 	"/>
	<path fill="#888888" d="M393.306,247.941c-1.396,0-2.794-0.077-4.178-0.228v-0.66h1.615h6.682v0.672
		C396.058,247.865,394.681,247.941,393.306,247.941"/>
	<path fill="#9B9B9B" d="M389.128,247.713c-1.184-0.126-2.36-0.318-3.526-0.559l-0.533-0.102h4.06V247.713"/>
	<path fill="#838383" d="M397.425,247.726v-0.672h3.066h1.633l-3.151,0.469C398.459,247.599,397.943,247.661,397.425,247.726"/>
	<path fill="#F59A74" d="M407.744,247.053h-24.256v-23.192c0-6.696,5.429-12.128,12.128-12.128c6.696,0,12.128,5.432,12.128,12.128
		V247.053"/>
	<path fill="#F7AA8A" d="M390.743,247.053h-1.615h-4.06h-0.258v-17.778c0.605,1.193,1.399,2.273,2.347,3.198
		c1.032,1.013,2.246,1.836,3.586,2.427V247.053"/>
	<path fill="#E88E67" d="M406.424,247.053h-4.3h-1.633V234.9c2.573-1.134,4.675-3.139,5.933-5.64V247.053"/>
	<path fill="#F7AE90" d="M407.709,223.829c0,6.68-5.414,12.094-12.093,12.094c-6.68,0-12.096-5.414-12.096-12.094
		c0-6.679,5.416-12.096,12.096-12.096C402.295,211.733,407.709,217.15,407.709,223.829"/>
	<path fill="#FFFFFF" d="M390.527,212.85c1.546-0.72,3.268-1.122,5.081-1.122c0.166,0,0.33,0,0.489,0.015
		c-0.135-0.005-0.269-0.008-0.404-0.008c-0.008,0-0.013,0-0.021-0.002c-0.018,0-0.039,0-0.057,0c-0.022,0-0.042,0-0.063,0.002
		c-0.005,0-0.012,0-0.018,0C393.75,211.746,392.053,212.143,390.527,212.85"/>
	<path fill="#F7AA8A" d="M384.811,229.275c-0.829-1.638-1.295-3.488-1.295-5.451c0-4.855,2.875-9.051,7.012-10.974
		c1.525-0.707,3.223-1.104,5.009-1.114c-6.642,0.04-12.016,5.439-12.016,12.093c0,1.958,0.464,3.804,1.29,5.441V229.275
		 M396.098,211.744c-0.135-0.005-0.269-0.008-0.404-0.008C395.829,211.736,395.963,211.738,396.098,211.744L396.098,211.744
		 M395.554,211.736c0.021-0.002,0.04-0.002,0.063-0.002c0.018,0,0.039,0,0.057,0c-0.018,0-0.039,0-0.057,0
		C395.594,211.733,395.574,211.733,395.554,211.736"/>
	<path fill="#F9B89D" d="M387.157,232.474c-0.947-0.925-1.741-2.005-2.347-3.198v-0.005
		C385.413,230.464,386.21,231.548,387.157,232.474"/>
	<path fill="#F9BBA2" d="M395.608,235.917c-3.285,0-6.27-1.313-8.451-3.444c-0.947-0.925-1.744-2.01-2.347-3.203
		c-0.826-1.638-1.29-3.483-1.29-5.441c0-6.654,5.374-12.053,12.016-12.093c0.006,0,0.013,0,0.018,0
		c0.021-0.002,0.04-0.002,0.063-0.002c0.018,0,0.039,0,0.057,0c0.008,0.002,0.013,0.002,0.021,0.002c0.136,0,0.27,0.002,0.404,0.008
		c0.071,0.007,0.144,0.015,0.213,0.027c-6.347,0.343-11.411,5.627-11.411,12.054c0,6.449,5.064,11.711,11.411,12.051
		C396.09,235.917,395.85,235.917,395.608,235.917"/>
	<polyline fill="#3D3D3D" points="471.371,456.115 430.174,456.115 430.174,338.023 471.371,338.023 471.371,456.115 	"/>
	<path fill="#5C5C5C" d="M441.066,456.115h-7.987V338.023h1.09h0.826l0.799,0.164c1.741,0.357,3.501,0.635,5.272,0.838V456.115"/>
	<polyline fill="#373737" points="471.371,456.115 468.6,456.115 468.6,338.023 467.377,338.023 471.371,338.023 471.371,456.115 	
		"/>
	<path fill="#373737" d="M460.512,456.115h-7.032v-117.09c0.774-0.074,1.546-0.176,2.317-0.29l4.715-0.712V456.115"/>
	<polyline fill="#313131" points="468.6,456.115 460.512,456.115 460.512,338.023 465.142,338.023 467.377,338.023 468.6,338.023 
		468.6,456.115 	"/>
	<path fill="#7B7B7B" d="M447.314,339.371c-2.09,0-4.174-0.114-6.248-0.346v-1.002h1.883h10.007h0.523v1.002
		C451.433,339.257,449.371,339.371,447.314,339.371"/>
	<path fill="#909090" d="M441.066,339.025c-1.771-0.203-3.531-0.48-5.272-0.838l-0.799-0.164h1.516h4.556V339.025"/>
	<path fill="#777777" d="M453.479,339.025v-1.002h7.032l-4.715,0.712C455.025,338.85,454.254,338.951,453.479,339.025"/>
	<polyline fill="#515151" points="467.377,338.023 434.169,338.023 434.169,320.72 467.377,320.72 467.377,338.023 	"/>
	<path fill="#6D6D6D" d="M442.949,338.023h-1.883h-4.556V320.72h0.494h1.049l0.644,0.129c1.404,0.29,2.823,0.521,4.252,0.673
		V338.023"/>
	<polyline fill="#494949" points="467.377,338.023 465.142,338.023 465.142,320.72 464.543,320.72 467.377,320.72 467.377,338.023 	
		"/>
	<path fill="#494949" d="M458.623,338.023h-5.667v-16.49c0.623-0.062,1.246-0.151,1.866-0.24l3.801-0.573V338.023"/>
	<polyline fill="#414141" points="465.142,338.023 460.512,338.023 458.623,338.023 458.623,320.72 462.689,320.72 464.543,320.72 
		465.142,320.72 465.142,338.023 	"/>
	<path fill="#888888" d="M447.986,321.802c-1.683,0-3.364-0.09-5.037-0.28v-0.802h1.338h8.297h0.372v0.813
		C451.307,321.712,449.646,321.802,447.986,321.802"/>
	<path fill="#9B9B9B" d="M442.949,321.521c-1.429-0.151-2.848-0.383-4.252-0.673l-0.644-0.129h0.894h4.002V321.521"/>
	<path fill="#838383" d="M452.956,321.533v-0.813h5.667l-3.801,0.573C454.202,321.382,453.579,321.472,452.956,321.533"/>
	<polyline fill="#515151" points="464.543,320.72 437.005,320.72 437.005,247.053 464.543,247.053 464.543,320.72 	"/>
	<path fill="#6D6D6D" d="M444.287,320.72h-1.338h-4.002v-73.667h1.022h0.256l0.533,0.102c1.166,0.241,2.342,0.432,3.528,0.559
		V320.72"/>
	<polyline fill="#494949" points="464.543,320.72 462.689,320.72 462.689,247.053 462.9,247.053 464.543,247.053 464.543,320.72 	
		"/>
	<path fill="#494949" d="M457.283,320.72h-4.699v-72.994c0.516-0.064,1.035-0.126,1.548-0.204l3.151-0.469V320.72"/>
	<polyline fill="#414141" points="462.689,320.72 458.623,320.72 457.283,320.72 457.283,247.053 461.583,247.053 462.689,247.053 
		462.689,320.72 	"/>
	<path fill="#888888" d="M448.463,247.941c-1.395,0-2.791-0.077-4.176-0.228v-0.66h1.615h6.682v0.672
		C451.215,247.865,449.837,247.941,448.463,247.941"/>
	<path fill="#9B9B9B" d="M444.287,247.713c-1.187-0.126-2.362-0.318-3.528-0.559l-0.533-0.102h4.062V247.713"/>
	<path fill="#838383" d="M452.584,247.726v-0.672h3.066h1.633l-3.151,0.469C453.619,247.599,453.1,247.661,452.584,247.726"/>
	<path fill="#F4867A" d="M462.9,247.053h-24.256v-23.192c0-6.696,5.432-12.128,12.128-12.128c6.699,0,12.128,5.432,12.128,12.128
		V247.053"/>
	<path fill="#F6998F" d="M445.902,247.053h-1.615h-4.062h-0.256v-17.775c0.752,1.489,1.804,2.799,3.076,3.856
		c0.859,0.712,1.819,1.313,2.856,1.767V247.053"/>
	<path fill="#E77C6C" d="M461.583,247.053h-4.3h-1.633V234.9c2.571-1.134,4.673-3.139,5.933-5.64V247.053"/>
	<path fill="#F69E95" d="M462.868,223.829c0,6.68-5.416,12.094-12.096,12.094c-6.679,0-12.093-5.414-12.093-12.094
		c0-6.679,5.414-12.096,12.093-12.096C457.452,211.733,462.868,217.15,462.868,223.829"/>
	<path fill="#FFFFFF" d="M445.488,212.942c1.595-0.774,3.387-1.213,5.277-1.213c0.166,0,0.33,0,0.488,0.015
		c-0.134-0.005-0.268-0.008-0.401-0.008c-0.008,0-0.013,0-0.018,0c-0.021-0.002-0.042-0.002-0.063-0.002c-0.02,0-0.039,0-0.06,0.002
		c-0.005,0-0.012,0-0.02,0C448.83,211.746,447.063,212.18,445.488,212.942"/>
	<path fill="#F6998F" d="M439.97,229.278c-0.831-1.637-1.298-3.491-1.298-5.454c0-4.779,2.784-8.917,6.816-10.882
		c1.575-0.762,3.342-1.196,5.205-1.206c-6.643,0.04-12.014,5.439-12.014,12.093c0,1.956,0.464,3.804,1.29,5.441V229.278
		 M451.254,211.744c-0.134-0.005-0.268-0.008-0.401-0.008C450.986,211.736,451.12,211.738,451.254,211.744L451.254,211.744
		 M450.835,211.736c-0.021-0.002-0.042-0.002-0.063-0.002c-0.02,0-0.039,0-0.06,0.002c0.021-0.002,0.04-0.002,0.06-0.002
		C450.793,211.733,450.814,211.733,450.835,211.736"/>
	<path fill="#F8A9A1" d="M443.046,233.134c-1.272-1.057-2.324-2.367-3.076-3.856v-0.007
		C440.722,230.759,441.773,232.074,443.046,233.134"/>
	<path fill="#F8AEA6" d="M450.766,235.917c-2.933,0-5.625-1.044-7.72-2.784c-1.272-1.06-2.324-2.375-3.076-3.863
		c-0.826-1.638-1.29-3.486-1.29-5.441c0-6.654,5.371-12.053,12.014-12.093c0.008,0,0.015,0,0.02,0
		c0.021-0.002,0.04-0.002,0.06-0.002c0.021,0,0.042,0,0.063,0.002c0.005,0,0.01,0,0.018,0c0.134,0,0.268,0.002,0.401,0.008
		c0.074,0.007,0.146,0.015,0.216,0.027c-6.349,0.343-11.411,5.627-11.411,12.054c0,6.449,5.063,11.711,11.411,12.051
		C451.249,235.917,451.006,235.917,450.766,235.917"/>
</g>
</svg>
