<?xml version="1.0" encoding="utf-8"?>
<!-- Generator: Adobe Illustrator 16.0.0, SVG Export Plug-In . SVG Version: 6.00 Build 0)  -->
<!DOCTYPE svg PUBLIC "-//W3C//DTD SVG 1.1//EN" "http://www.w3.org/Graphics/SVG/1.1/DTD/svg11.dtd">
<svg version="1.1" id="Layer_1" xmlns="http://www.w3.org/2000/svg" xmlns:xlink="http://www.w3.org/1999/xlink" x="0px" y="0px"
	 width="500px" height="500px" viewBox="0 0 500 500" enable-background="new 0 0 500 500" xml:space="preserve">
<g>
	<path fill="#D34418" d="M191.715,12.068c-1.772-2.729-1.265-6.521,1.532-8.36c2.641-1.735,6.193-1.034,7.867,1.686
		c1.955,3.179-0.23,7.072-1.459,10.108c-1.383,3.416-2.767,6.832-4.151,10.248c-0.17,0.422,0.513,0.605,0.683,0.188
		c1.34-3.31,2.68-6.619,4.021-9.927c1.141-2.819,2.933-6.04,2.247-9.18c-0.502-2.3-2.479-4.2-4.773-4.684
		c-2.355-0.497-4.895,0.507-6.373,2.388c-1.777,2.266-1.749,5.515-0.207,7.89C191.35,12.806,191.964,12.452,191.715,12.068
		L191.715,12.068L191.715,12.068z"/>
	<path fill="#D34418" d="M254.038,48.928c-1.892-0.982-3.786-1.964-5.676-2.946c-4.527-2.35-9.054-4.701-13.583-7.051
		c-5.467-2.838-10.934-5.675-16.4-8.513c-4.625-2.401-9.252-4.802-13.877-7.204c-1.474-0.765-2.948-1.53-4.422-2.294
		c-0.569-0.294-1.222-0.785-1.842-0.957c-0.452-0.124-0.997,0.297-1.397,0.497c-1.223,0.609-2.444,1.218-3.666,1.827
		c-4.368,2.177-8.736,4.353-13.102,6.53c-5.472,2.727-10.944,5.453-16.413,8.179c-4.916,2.45-9.831,4.899-14.747,7.349
		c-2.685,1.339-5.371,2.677-8.057,4.016c-0.127,0.063-0.254,0.126-0.381,0.189c-0.323,0.162-0.157,0.659,0.18,0.659
		c3.774,0.013,7.548,0.025,11.322,0.039c9.002,0.029,18.002,0.06,27.002,0.089c10.88,0.036,21.759,0.072,32.641,0.108
		c9.454,0.032,18.904,0.063,28.357,0.094c3.083,0.011,6.166,0.021,9.248,0.031c1.469,0.005,2.976,0.106,4.44,0.015
		c0.064-0.004,0.13,0,0.194,0c0.454,0.001,0.456-0.707,0-0.708c-3.776-0.013-7.549-0.025-11.326-0.037c-9-0.03-18-0.06-27.002-0.09
		c-10.879-0.036-21.76-0.072-32.64-0.108c-9.453-0.031-18.906-0.063-28.358-0.095c-3.083-0.01-6.164-0.02-9.247-0.031
		c-0.973-0.003-1.944-0.006-2.916-0.01c-0.456-0.001-1.083-0.117-1.526-0.005c-0.054,0.014-0.133-0.001-0.191-0.001
		c0.058,0.22,0.119,0.439,0.179,0.66c1.896-0.945,3.79-1.89,5.687-2.834c4.58-2.283,9.159-4.565,13.741-6.848
		c5.516-2.75,11.033-5.499,16.549-8.248c4.773-2.377,9.544-4.755,14.315-7.134c1.576-0.785,3.152-1.571,4.728-2.356
		c0.493-0.245,0.986-0.491,1.478-0.736c0.207-0.103,0.634-0.218,0.789-0.394c0.017-0.021,0.07-0.035,0.096-0.048
		c-0.12,0-0.237,0-0.358,0c1.845,0.957,3.686,1.914,5.528,2.869c4.453,2.311,8.905,4.622,13.357,6.933
		c5.366,2.785,10.729,5.568,16.092,8.353c4.659,2.419,9.321,4.838,13.98,7.257c1.53,0.793,3.058,1.586,4.585,2.379
		c0.71,0.368,1.433,0.848,2.184,1.132c0.033,0.013,0.064,0.034,0.097,0.051C254.084,49.75,254.443,49.138,254.038,48.928
		L254.038,48.928z"/>
	<g>
		<path fill="#D34418" d="M162.161,37.658c0.014,0.009,0.024,0.014,0.04,0.023C162.187,37.673,162.175,37.667,162.161,37.658z"/>
		<path fill="#D34418" d="M146.67,88.872c-8.859,1.544-18.323,1.441-26.837-1.158c-2.979,7.538-5.743,15.434-7.815,22.894
			l14.758,4.733c2.775-7.184,6.752-14.049,10.674-20.707c2.913,6.523,2.162,14.28-0.824,20.769
			c-0.419,0.909-0.881,1.792-1.375,2.657l12.979,4.163l-2.812-1.021L146.67,88.872z"/>
		<path fill="#D34418" d="M172.895,59.708c4.551,8.446,9.352,16.756,14.281,24.986c1.893,3.162,3.812,6.309,5.742,9.448
			c-6.976-11.786-16.061-27.34-22.601-39.283C171.166,56.481,172.026,58.098,172.895,59.708z"/>
		<path fill="#D34418" d="M285.365,322.023c-8.583-3.65-16.161-9.68-21.54-17.307c-4.574-6.49-7.542-13.949-10.465-21.33
			c11.634,5.279,21.857,13.531,29.655,23.645c-10.066-62.429-19.455-97.224-26.586-116.573
			c-5.723,12.792-15.714,23.708-28.165,30.18c4.469-8.794,7.023-18.464,11.549-27.231c2.874-5.569,6.825-10.899,11.79-14.605
			c-0.085-0.179-0.17-0.357-0.254-0.531c-3.445,0.304-6.904,0.323-10.344-0.063c-7.892-0.883-15.725-4.054-21.135-9.865
			c8.868-0.942,17.879-0.425,26.598,1.455c-2.093-2.861-3.263-3.348-3.263-3.348l6.147-44.229l-3.414-45.36l6.68,43.731l-3.266,1.63
			l43.729-17.082c0,0-8.268-19.472-16.973-35.582c0.012,5.92-1.116,11.834-3.445,17.285c-5.35-5.576-7.73-13.474-8.064-21.193
			c-0.189-4.334,0.218-8.653,0.868-12.948c-1.378-1.656-2.665-2.899-3.813-3.588c-0.863-0.517-1.783-1.025-2.738-1.521
			c-1.486,7.954-4.715,15.586-9.505,22.11c-1.779-7.489-3.569-15.169-2.632-22.809c0.172-1.403,0.459-2.809,0.852-4.187
			c-7.439-2.762-13.991-4.526-13.991-4.526s-11.132,41.479-30.104,72.86c0.243,0.38,0.483,0.762,0.727,1.141
			c5.981,9.304,12.1,18.522,18.355,27.642c5.886,8.581,11.897,17.078,18.087,25.442c0.136,0.185-0.172,0.36-0.306,0.179
			c-0.724-0.979-1.446-1.958-2.166-2.94c-6.252-8.539-12.328-17.207-18.283-25.958c-5.655-8.312-11.188-16.707-16.618-25.169
			c-0.021,0.035-0.042,0.069-0.063,0.104c0,0-0.718-1.189-1.957-3.255c-5.643-8.862-11.167-17.803-16.52-26.845
			c-4.791-8.09-9.455-16.26-13.847-24.575c-2.659-5.033-5.244-10.122-7.547-15.333c-0.24-0.525-0.454-1.013-0.642-1.459
			c-0.348-0.813-0.69-1.629-1.023-2.448c-1.8,0.78-19.219,8.414-23.751,13.596c-2.83,3.233-9.005,14.835-14.993,28.863
			c8.425,1.02,16.621,3.965,23.687,8.67l0.564-14.567l0.988,48.092l3.783,32.623c8.067,7.889,12.834,19.273,11.873,30.56
			c-6.038-2.458-10.34-7.53-13.781-13.21c-2.45,3.486-6.018,11.204-10.282,28.208c2.417,1.676,4.484,3.967,5.954,6.505
			c3.16,5.465,4.131,11.88,5.043,18.125c-5.438-3.198-10.125-7.622-13.737-12.794c-4.535,21.081-9.676,52.501-15.004,99.325
			c1.674-2.578,3.503-5.072,5.375-7.494c2.489,13.891,0.882,28.479-4.48,41.527c4.051-1.355,8.401-2.141,12.605-2.738
			c6.931-0.988,13.894-1.734,20.86-2.412c-7.247,10.121-19.833,15.844-32.215,15.625c7.704,6.75,13.361,15.852,15.821,25.805
			c-7.31-0.818-14.217-4.758-18.643-10.629c-2.106-2.791-3.63-6.006-4.525-9.387c-0.709,7.512-1.417,15.307-2.127,23.414
			l21.014,4.168c32.186,6.387,65.088,7.898,97.606,4.539c-1.765-4.367-3.035-8.984-4.032-13.576
			c-2.17-9.98-3.306-20.238-6.76-29.848c8.505,6.156,13.917,15.887,16.628,26.033c0.524,1.965,0.955,3.947,1.309,5.945
			c0.542-2.734,1.36-5.422,2.412-7.99c3.433-8.381,9.181-15.635,15.604-22.02c2.387,8.582,0.883,17.893-2.599,26.094
			c-2.022,4.764-4.685,9.205-7.632,13.467c5.861-0.877,11.705-1.91,17.523-3.109l27.938-5.752
			C290.945,360.539,288.135,340.221,285.365,322.023z M197.327,207.967c9.502,14.252,11.949,32.976,6.426,49.189
			c-0.431-0.199-0.814-0.451-1.168-0.736c-7.386-1.824-13.782-6.738-18.648-12.625c-5.11-6.181-8.741-13.427-12.327-20.6
			c10.778,2.345,18.291,11.818,24.875,20.667c0.792,1.065,1.585,2.141,2.353,3.234C196.641,234.191,196.119,221.001,197.327,207.967
			z M178.525,328.271c0.259-6.848,4.431-13.09,9.807-17.34c5.375-4.25,11.88-6.791,18.349-9.053
			C200.46,313.395,190.419,322.809,178.525,328.271z M193.396,138.028c-8.194-6.921-15.667-14.679-22.272-23.128
			c-0.138-0.177,0.11-0.429,0.252-0.25c3.688,4.72,7.643,9.225,11.85,13.487c7.488,7.586,15.752,14.402,24.621,20.316
			c8.869,5.916,18.336,10.92,28.222,14.905c0.208,0.083,0.116,0.426-0.094,0.342c-5.525-2.226-10.921-4.764-16.156-7.605
			C210.427,150.992,201.561,144.924,193.396,138.028z"/>
		<path fill="#281607" d="M146.677,88.697c0.072,0.048,0.147,0.091,0.22,0.139c-0.075,0.014-0.152,0.022-0.226,0.036l-1.252,32.33
			l2.812,1.021l-0.989-48.092L146.677,88.697z"/>
		<polygon fill="#281607" points="245.938,76.861 249.353,122.222 252.619,120.592 		"/>
		<path fill="#EDA342" d="M163.399,41.476c-0.214-0.486-0.431-0.971-0.641-1.459C162.945,40.463,163.158,40.95,163.399,41.476z"/>
		<path fill="#EDA342" d="M170.315,54.859c6.542,11.943,15.625,27.498,22.602,39.284c3.484,5.668,7.025,11.301,10.617,16.9
			c18.971-31.381,30.104-72.861,30.104-72.861c-41.095,16.054-68.31,1.331-71.438-0.499c-0.017-0.009-0.025-0.015-0.04-0.023
			c-0.003-0.002-0.007-0.004-0.012-0.006c0.265,0.644,0.531,1.286,0.805,1.926C165.183,44.773,167.692,49.849,170.315,54.859z"/>
		<path fill="#EDA342" d="M201.312,108.228c1.24,2.065,1.958,3.255,1.958,3.255c0.021-0.035,0.042-0.069,0.063-0.104
			c-0.579-0.901-1.162-1.799-1.737-2.703C201.5,108.526,201.407,108.377,201.312,108.228z"/>
		<path fill="#FFFFFF" d="M163.399,41.476c2.303,5.21,4.888,10.299,7.547,15.332c4.392,8.315,9.056,16.485,13.846,24.575
			c5.354,9.042,10.878,17.982,16.52,26.844c0.096,0.148,0.189,0.299,0.285,0.448c0.575,0.903,1.159,1.801,1.737,2.703
			c5.43,8.462,10.963,16.857,16.618,25.17c5.954,8.75,12.03,17.419,18.283,25.958c0.719,0.982,1.441,1.962,2.166,2.94
			c0.134,0.181,0.441,0.005,0.306-0.179c-6.19-8.364-12.202-16.861-18.087-25.442c-6.256-9.12-12.374-18.338-18.355-27.643
			c-0.244-0.379-0.484-0.76-0.727-1.14c-3.592-5.599-7.132-11.232-10.617-16.9c-1.93-3.139-3.849-6.286-5.743-9.449
			c-4.927-8.23-9.73-16.54-14.281-24.985c-0.868-1.61-1.728-3.226-2.578-4.849c-2.625-5.01-5.134-10.085-7.362-15.281
			c-0.274-0.639-0.541-1.282-0.804-1.926c-0.166-0.098-0.254-0.153-0.254-0.153s-0.063,0.027-0.163,0.069
			c0.334,0.819,0.675,1.636,1.024,2.448C162.967,40.504,163.184,40.989,163.399,41.476z"/>
		<path fill="#FFFFFF" d="M236.068,163.358c-9.885-3.985-19.353-8.989-28.222-14.905c-8.868-5.914-17.131-12.73-24.62-20.316
			c-4.208-4.263-8.163-8.769-11.851-13.487c-0.142-0.179-0.389,0.072-0.251,0.25c6.604,8.449,14.077,16.207,22.272,23.128
			c8.166,6.896,17.031,12.963,26.423,18.067c5.233,2.842,10.631,5.379,16.155,7.605
			C236.185,163.785,236.276,163.442,236.068,163.358z"/>
		<path fill="#5B80BC" d="M202.583,256.42c0.355,0.287,0.739,0.537,1.168,0.738c5.524-16.215,3.077-34.939-6.425-49.19
			c-1.208,13.035-0.687,26.225,1.508,39.131c2.083,2.974,3.942,6.094,4.87,9.581C203.329,256.604,202.957,256.512,202.583,256.42z"
			/>
		<path fill="#5B80BC" d="M163.885,185.405c0.961-11.286-3.804-22.671-11.874-30.56l1.684,14.522c0,0-1.311-0.419-3.592,2.827
			C153.545,177.875,157.847,182.947,163.885,185.405z"/>
		<path fill="#5B80BC" d="M156.438,340.449c-6.966,0.678-13.929,1.422-20.86,2.41c-4.205,0.598-8.554,1.383-12.606,2.738
			c-0.716,1.744-1.494,3.463-2.344,5.146c-0.903-0.914-1.69-1.912-2.39-2.967c-0.118,1.189-0.234,2.379-0.352,3.584
			c2.235,1.398,4.355,2.975,6.338,4.713C136.605,356.293,149.192,350.57,156.438,340.449z"/>
		<path fill="#5B80BC" d="M122.972,345.598c5.362-13.049,6.968-27.635,4.479-41.527c-1.872,2.424-3.701,4.916-5.375,7.494
			c-1.272,11.172-2.553,23.223-3.84,36.215c0.7,1.055,1.486,2.053,2.39,2.967C121.477,349.061,122.254,347.342,122.972,345.598z"/>
		<path fill="#5B80BC" d="M140.046,381.877c-2.461-9.951-8.118-19.053-15.823-25.803c-1.982-1.74-4.103-3.314-6.338-4.713
			c-0.336,3.432-0.672,6.936-1.009,10.502c0.896,3.381,2.419,6.594,4.526,9.385C125.829,377.119,132.736,381.059,140.046,381.877z"
			/>
		<path fill="#5B80BC" d="M240.517,382.539c-0.354-1.998-0.785-3.982-1.309-5.947c-2.711-10.145-8.123-19.877-16.63-26.033
			c3.456,9.609,4.59,19.869,6.76,29.848c0.997,4.592,2.269,9.209,4.032,13.578c2.178-0.225,4.355-0.477,6.53-0.748
			C239.581,389.686,239.816,386.072,240.517,382.539z"/>
		<path fill="#5B80BC" d="M258.533,352.527c-6.424,6.387-12.171,13.639-15.604,22.02c-1.052,2.568-1.87,5.256-2.412,7.99
			c-0.701,3.535-0.935,7.148-0.616,10.699c2.805-0.346,5.604-0.729,8.403-1.148c2.948-4.262,5.608-8.703,7.632-13.467
			C259.416,370.42,260.92,361.109,258.533,352.527z"/>
		<path fill="#5B80BC" d="M239.813,193.406c-4.526,8.767-7.08,18.438-11.549,27.232c12.451-6.472,22.442-17.388,28.165-30.181
			c-1.752-4.759-3.369-8.584-4.826-11.656C246.638,182.508,242.687,187.838,239.813,193.406z"/>
		<path fill="#5B80BC" d="M219.87,168.343c5.411,5.811,13.243,8.982,21.135,9.865c3.44,0.385,6.899,0.366,10.344,0.063
			c-1.941-4.03-3.587-6.706-4.881-8.473C237.75,167.918,228.738,167.401,219.87,168.343z"/>
		<path fill="#5B80BC" d="M146.67,88.872c0.074-0.013,0.151-0.022,0.226-0.036c-0.073-0.049-0.148-0.091-0.22-0.139
			c-7.065-4.704-15.261-7.651-23.687-8.67c-1.066,2.496-2.124,5.069-3.156,7.686C128.347,90.313,137.812,90.416,146.67,88.872z"/>
		<path fill="#5B80BC" d="M137.451,94.633c-3.922,6.659-7.899,13.523-10.674,20.707l8.475,2.719
			c0.495-0.865,0.957-1.748,1.375-2.657C139.612,108.914,140.363,101.156,137.451,94.633z"/>
		<path fill="#5B80BC" d="M253.36,283.387c2.923,7.381,5.891,14.842,10.465,21.33c5.379,7.627,12.957,13.656,21.54,17.307
			c-0.787-5.166-1.57-10.16-2.35-14.992C275.218,296.918,264.992,288.666,253.36,283.387z"/>
		<path fill="#5B80BC" d="M171.609,223.197c3.586,7.173,7.218,14.418,12.328,20.599c4.865,5.887,11.261,10.801,18.646,12.624
			c0.372,0.092,0.744,0.184,1.122,0.26c-0.928-3.486-2.786-6.607-4.87-9.581c-0.767-1.095-1.56-2.17-2.352-3.234
			C189.9,235.015,182.387,225.542,171.609,223.197z"/>
		<path fill="#5B80BC" d="M150.819,225.034c-0.912-6.245-1.883-12.661-5.043-18.125c-1.47-2.538-3.537-4.829-5.954-6.505
			c-0.885,3.53-1.8,7.46-2.742,11.836C140.692,217.412,145.381,221.835,150.819,225.034z"/>
		<path fill="#5B80BC" d="M178.525,328.271c11.895-5.463,21.935-14.877,28.155-26.393c-6.467,2.262-12.973,4.803-18.349,9.053
			C182.956,315.182,178.783,321.424,178.525,328.271z"/>
		<path fill="#5B80BC" d="M249.409,69.704c4.791-6.524,8.02-14.156,9.505-22.111c-3.498-1.819-7.503-3.481-11.285-4.884
			c-0.394,1.377-0.68,2.782-0.852,4.186C245.84,54.534,247.63,62.215,249.409,69.704z"/>
		<path fill="#5B80BC" d="M264.599,65.651c0.335,7.719,2.716,15.616,8.063,21.192c2.33-5.45,3.457-11.365,3.446-17.285
			c-3.665-6.784-7.407-12.968-10.642-16.856C264.816,56.999,264.409,61.316,264.599,65.651z"/>
	</g>
</g>
<g>
	<g>
		<g>
			<path fill="#D34418" d="M343.084,64.605c-2.507-3.86-1.791-9.228,2.169-11.83c3.736-2.456,8.763-1.463,11.132,2.387
				c2.768,4.498-0.324,10.006-2.065,14.303c-1.956,4.833-3.915,9.667-5.871,14.501c-0.242,0.597,0.727,0.857,0.965,0.266
				c1.896-4.683,3.793-9.365,5.689-14.048c1.615-3.989,4.15-8.547,3.18-12.991c-0.711-3.254-3.508-5.943-6.754-6.627
				c-3.333-0.702-6.926,0.717-9.015,3.379c-2.518,3.207-2.478,7.804-0.295,11.166C342.568,65.649,343.436,65.148,343.084,64.605
				L343.084,64.605z"/>
		</g>
		<g>
			<path fill="#D34418" d="M431.275,116.765c-2.677-1.39-5.354-2.779-8.031-4.169c-6.407-3.325-12.814-6.651-19.221-9.977
				c-7.736-4.016-15.472-8.031-23.208-12.047c-6.546-3.397-13.092-6.795-19.638-10.193c-2.085-1.082-4.171-2.165-6.258-3.248
				c-0.802-0.417-1.728-1.111-2.606-1.353c-0.639-0.176-1.41,0.42-1.978,0.703c-1.729,0.862-3.457,1.723-5.187,2.585
				c-6.18,3.08-12.359,6.16-18.541,9.24c-7.74,3.858-15.482,7.716-23.225,11.575c-6.955,3.466-13.911,6.933-20.866,10.399
				c-3.801,1.894-7.602,3.788-11.402,5.682c-0.18,0.09-0.359,0.179-0.539,0.269c-0.457,0.228-0.223,0.932,0.253,0.934
				c5.341,0.018,10.683,0.035,16.024,0.053c12.736,0.042,25.473,0.085,38.21,0.127c15.396,0.051,30.792,0.103,46.188,0.154
				c13.377,0.044,26.752,0.089,40.128,0.134c4.362,0.015,8.724,0.029,13.085,0.043c2.079,0.007,4.211,0.151,6.287,0.021
				c0.09-0.006,0.182,0,0.271,0.001c0.645,0.002,0.646-1,0-1.002c-5.342-0.018-10.683-0.035-16.024-0.054
				c-12.737-0.042-25.474-0.084-38.21-0.127c-15.396-0.051-30.791-0.103-46.188-0.154c-13.375-0.044-26.751-0.089-40.128-0.134
				c-4.361-0.015-8.723-0.029-13.085-0.043c-1.375-0.005-2.752-0.009-4.127-0.014c-0.645-0.002-1.529-0.166-2.159-0.007
				c-0.079,0.02-0.188,0-0.271-0.001c0.084,0.311,0.168,0.622,0.253,0.934c2.682-1.337,5.365-2.674,8.047-4.011
				c6.481-3.23,12.964-6.46,19.445-9.69c7.806-3.89,15.612-7.781,23.42-11.671c6.752-3.365,13.504-6.73,20.256-10.095
				c2.23-1.111,4.461-2.223,6.69-3.334c0.697-0.347,1.395-0.695,2.091-1.042c0.292-0.146,0.896-0.309,1.115-0.556
				c0.027-0.031,0.1-0.05,0.138-0.068c-0.168,0-0.337,0-0.506,0c2.607,1.353,5.215,2.706,7.822,4.06
				c6.301,3.271,12.6,6.541,18.901,9.811c7.59,3.94,15.18,7.88,22.771,11.819c6.595,3.423,13.188,6.846,19.783,10.27
				c2.162,1.122,4.325,2.245,6.488,3.368c1.004,0.521,2.027,1.201,3.087,1.603c0.048,0.018,0.094,0.048,0.139,0.072
				C431.341,117.926,431.848,117.062,431.275,116.765z"/>
		</g>
	</g>
	<g>
		<defs>
			<path id="SVGID_1_" d="M288.186,295.994h126.343c0,0-3.938-16.389,4.728-61.022c8.595-44.263,1.289-61.453,1.289-61.453
				c1.29-13.751,3.958-61.023,3.958-61.023l-17.294-8.887l-8.15,64.754c-25.785,3.008-50.28,27.073-50.28,27.073
				c-21.916-21.917-52.857-27.933-52.857-27.933l-4.727-62.312l-14.894,6.824l4.149,55.917c0,0-9.454,21.057-1.289,57.585
				C287.326,262.045,288.186,295.994,288.186,295.994z"/>
		</defs>
		<clipPath id="SVGID_2_">
			<use xlink:href="#SVGID_1_"  overflow="visible"/>
		</clipPath>
		<path clip-path="url(#SVGID_2_)" fill="#5B80BC" d="M288.186,295.994h126.343c0,0-3.938-16.389,4.728-61.022
			c8.595-44.263,1.289-61.453,1.289-61.453c1.29-13.751,6.446-71.336,6.446-71.336l-19.338-0.86l-8.595,67.04
			c-25.785,3.008-50.28,27.073-50.28,27.073c-21.916-21.917-52.857-27.933-52.857-27.933l-4.727-62.312l-15.901-0.43l5.157,63.172
			c0,0-9.454,21.057-1.289,57.585C287.326,262.045,288.186,295.994,288.186,295.994z"/>
		<path clip-path="url(#SVGID_2_)" fill="#EDA342" d="M328.48,248.125c0.63-2.572,0.359-5.276-0.093-7.886
			c-1.141-6.581-3.424-12.963-6.715-18.775c-0.742-1.311-1.666-2.697-3.117-3.102c-1.545-0.434-3.184,0.42-4.32,1.555
			c-1.138,1.134-1.959,2.552-3.097,3.686c-1.598,1.593-3.741,2.55-5.341,4.14c-2.22,2.208-3.154,5.383-3.714,8.463
			c-1.158,6.377-1.058,12.98,0.295,19.319c0.316,1.486,0.749,3.039,1.85,4.086c0.896,0.85,2.113,1.25,3.29,1.619
			c3.365,1.053,7.061,2.043,10.337,0.738c2.802-1.117,4.711-3.689,6.468-6.141C326.034,253.441,327.78,250.979,328.48,248.125z"/>
		<path clip-path="url(#SVGID_2_)" fill="#EDA342" d="M382.99,215.917c1.54,2.154,3.768,3.712,6.041,5.07
			c5.734,3.424,12.063,5.854,18.616,7.146c1.478,0.292,3.131,0.494,4.384-0.342c1.336-0.891,1.757-2.69,1.638-4.291
			c-0.119-1.602-0.659-3.149-0.777-4.75c-0.166-2.25,0.505-4.5,0.342-6.749c-0.228-3.122-2.026-5.902-3.998-8.333
			c-4.082-5.036-9.154-9.263-14.844-12.369c-1.333-0.728-2.793-1.414-4.305-1.261c-1.228,0.125-2.325,0.788-3.371,1.44
			c-2.994,1.865-6.152,4.022-7.299,7.357c-0.979,2.853-0.272,5.977,0.441,8.908C380.554,210.597,381.283,213.528,382.99,215.917z"/>
		<path clip-path="url(#SVGID_2_)" fill="#EDA342" d="M359.151,285.422c2.614-0.416,5.002-1.715,7.232-3.145
			c5.623-3.604,10.62-8.184,14.699-13.473c0.92-1.191,1.838-2.582,1.65-4.076c-0.201-1.594-1.624-2.771-3.11-3.379
			s-3.113-0.814-4.6-1.424c-2.087-0.854-3.8-2.459-5.888-3.316c-2.896-1.189-6.184-0.818-9.24-0.139
			c-6.327,1.406-12.374,4.061-17.691,7.766c-1.246,0.869-2.512,1.871-3.049,3.291c-0.436,1.154-0.333,2.434-0.216,3.66
			c0.335,3.51,0.856,7.301,3.331,9.814c2.114,2.148,5.227,2.91,8.168,3.578C353.302,285.23,356.251,285.885,359.151,285.422z"/>
		<path clip-path="url(#SVGID_2_)" fill="#EDA342" d="M298.299,216.505c0.917-2.484,0.956-5.202,0.802-7.845
			c-0.389-6.668-1.934-13.268-4.546-19.416c-0.589-1.386-1.351-2.868-2.745-3.436c-1.488-0.605-3.213,0.058-4.471,1.056
			c-1.258,0.999-2.234,2.315-3.493,3.313c-1.769,1.401-4.006,2.109-5.775,3.508c-2.455,1.941-3.743,4.991-4.648,7.988
			c-1.872,6.204-2.52,12.776-1.894,19.228c0.146,1.513,0.399,3.106,1.376,4.27c0.791,0.946,1.957,1.481,3.085,1.98
			c3.225,1.429,6.784,2.83,10.186,1.905c2.911-0.792,5.099-3.132,7.121-5.37C295.267,221.509,297.281,219.259,298.299,216.505z"/>
		<g clip-path="url(#SVGID_2_)">
			<path fill="#FFFFFF" d="M349.04,195.864c0.666,25.085,0.6,50.187-0.213,75.267c-0.232,7.143-0.525,14.281-0.875,21.418
				c-0.017,0.322,0.484,0.322,0.5,0c1.23-25.063,1.73-50.161,1.481-75.251c-0.071-7.146-0.203-14.29-0.394-21.434
				C349.532,195.542,349.031,195.541,349.04,195.864L349.04,195.864z"/>
		</g>
		<g clip-path="url(#SVGID_2_)">
			<path fill="#476144" d="M307.603,301.182c-1.499-11.336,0.304-23.037,5.253-33.357c4.971-10.367,13.405-18.667,17.936-29.27
				c2.388-5.593,3.621-11.708,2.393-17.742c-0.064-0.315-0.548-0.182-0.483,0.134c2.432,11.929-4.643,22.796-11.176,32.087
				c-3.293,4.68-6.619,9.361-9.102,14.537c-2.33,4.859-3.988,10.039-4.927,15.346c-1.066,6.031-1.197,12.195-0.395,18.266
				C307.145,301.498,307.646,301.502,307.603,301.182L307.603,301.182z"/>
		</g>
		<g clip-path="url(#SVGID_2_)">
			<path fill="#476144" d="M311.822,262.211c-2.141-10.043-1.824-20.551,0.995-30.434c0.314-1.102,0.655-2.199,1.036-3.279
				c0.407-1.152,0.948-2.909,1.937-3.734c0.673-0.562,1.726-0.409,2.183,0.357c0.342,0.574,0.335,1.429,0.4,2.074
				c0.14,1.355,0.132,2.725,0.069,4.082c-0.237,5.13-1.327,10.057-2.792,14.963c-1.579,5.288-3.39,10.514-4.311,15.971
				c-0.054,0.316,0.43,0.451,0.482,0.135c1.908-11.314,7.462-21.78,7.153-33.479c-0.039-1.504,0.162-4.258-1.652-4.857
				c-1.849-0.609-2.814,1.587-3.397,2.925c-2.178,4.989-3.216,10.696-3.727,16.088c-0.613,6.459-0.213,12.979,1.141,19.323
				C311.406,262.66,311.89,262.527,311.822,262.211L311.822,262.211z"/>
		</g>
		<g clip-path="url(#SVGID_2_)">
			<path fill="#476144" d="M331.257,238.071c3.941-11.92,12.119-22.297,22.743-28.981c2.569-1.617,5.467-3.376,8.4-4.22
				c2.218-0.639,4.519,0.176,4.485,2.805c-0.026,1.991-1.533,3.621-2.787,5.006c-4.418,4.889-9.748,8.858-15.155,12.578
				c-6.053,4.163-12.318,8.03-18.104,12.568c-0.254,0.2,0.103,0.551,0.354,0.354c5.86-4.598,12.222-8.497,18.344-12.725
				c5.762-3.979,11.725-8.293,16.117-13.817c1.503-1.89,2.873-5.384,0.232-7.04c-2.504-1.571-6.147,0.739-8.374,1.898
				c-5.881,3.059-11.181,7.232-15.588,12.18c-4.98,5.589-8.8,12.152-11.15,19.259C330.672,238.244,331.155,238.376,331.257,238.071
				L331.257,238.071z"/>
		</g>
		<g clip-path="url(#SVGID_2_)">
			<path fill="#476144" d="M359.263,174.036c4.277-0.688,8.395,1.162,11.48,4.054c3.24,3.038,5.127,7.055,6.338,11.272
				c1.233,4.29,1.814,8.728,2.708,13.094c0.79,3.865,1.798,7.686,3.013,11.44c4.813,14.876,12.831,28.694,23.292,40.31
				c5.904,6.557,12.589,12.387,19.893,17.334c0.268,0.182,0.519-0.25,0.253-0.432c-13.585-9.205-24.96-21.508-33.234-35.669
				c-4.102-7.018-7.438-14.483-9.897-22.23c-1.236-3.893-2.249-7.854-3.031-11.863c-0.873-4.475-1.49-9.023-2.894-13.375
				c-1.377-4.266-3.563-8.242-7.084-11.104c-3.102-2.522-6.959-3.957-10.969-3.313C358.813,173.604,358.947,174.086,359.263,174.036
				L359.263,174.036z"/>
		</g>
		<g clip-path="url(#SVGID_2_)">
			<path fill="#476144" d="M380.256,204.396c-2.073,8.603-4.256,17.295-5.633,26.042c-1.126,7.157-0.752,14.986,3.128,21.311
				c1.09,1.775,3.174,5.08,5.625,4.861c1.173-0.104,1.913-1.275,2.461-2.191c0.841-1.408,1.299-2.992,1.573-4.602
				c0.619-3.637,0.484-7.512,0.345-11.188c-0.131-3.447-0.65-6.878-1.287-10.263c-1.521-8.082-3.856-15.97-5.729-23.97
				c-0.073-0.314-0.557-0.18-0.483,0.133c1.488,6.357,3.273,12.641,4.7,19.012c0.76,3.393,1.437,6.811,1.88,10.26
				c0.404,3.156,0.446,6.293,0.458,9.469c0.013,3.52,0.041,7.446-1.724,10.608c-0.38,0.68-0.822,1.457-1.469,1.918
				c-0.816,0.578-1.74,0.229-2.49-0.291c-1.271-0.879-2.263-2.217-3.101-3.494c-4.034-6.165-4.512-13.926-3.467-21.034
				c0.641-4.347,1.668-8.663,2.6-12.954c0.979-4.509,2.014-9.007,3.096-13.494C380.814,204.216,380.332,204.082,380.256,204.396
				L380.256,204.396z"/>
		</g>
		<g clip-path="url(#SVGID_2_)">
			<path fill="#476144" d="M376.361,187.213c3.172,5.812,6.277,11.681,9.936,17.208c3.335,5.039,7.376,10.392,12.771,13.341
				c2.433,1.329,5.635,2.39,8.187,0.753c2.396-1.537,2.313-4.187,1.092-6.496c-2.874-5.438-7.677-10.022-12.496-13.732
				c-5.904-4.547-12.502-8.087-19.146-11.417c-0.288-0.144-0.542,0.288-0.253,0.433c10.35,5.186,20.934,11.024,28.248,20.251
				c1.841,2.322,5.721,6.729,3.27,9.687c-2.317,2.796-6.396,1.389-9.006-0.113c-5.13-2.952-9.021-8.104-12.233-12.96
				c-3.658-5.526-6.765-11.396-9.937-17.208C376.64,186.677,376.206,186.929,376.361,187.213L376.361,187.213z"/>
		</g>
		<g clip-path="url(#SVGID_2_)">
			<path fill="#476144" d="M399.872,246.791c-0.081,8.493-0.12,17.53,3.929,25.25c0.709,1.352,1.626,2.885,3.256,3.193
				c1.459,0.275,2.461-0.617,2.896-1.938c1.338-4.057-0.588-8.645-2.163-12.338c-2.11-4.947-4.76-9.645-7.451-14.295
				c-0.162-0.277-0.595-0.027-0.434,0.254c1.965,3.394,3.898,6.809,5.628,10.331c1.736,3.535,3.58,7.332,4.173,11.264
				c0.277,1.834,0.532,5.848-1.92,6.242c-2.214,0.355-3.48-2.699-4.207-4.305c-1.588-3.52-2.416-7.326-2.824-11.15
				c-0.443-4.152-0.422-8.338-0.383-12.508C400.375,246.468,399.874,246.468,399.872,246.791L399.872,246.791z"/>
		</g>
		<g clip-path="url(#SVGID_2_)">
			<path fill="#476144" d="M281.411,233.812c-2.417-13.009,1.093-26.318,7.541-37.662c6.551-11.525,16.167-20.915,26.432-29.149
				c5.954-4.776,12.174-9.208,18.393-13.633c0.26-0.185,0.011-0.619-0.253-0.432c-21.508,15.304-44.952,32.484-51.755,59.509
				c-1.77,7.032-2.167,14.357-0.841,21.5C280.986,234.262,281.47,234.128,281.411,233.812L281.411,233.812z"/>
		</g>
		<g clip-path="url(#SVGID_2_)">
			<path fill="#476144" d="M282.444,213.604c2.13-10.303,8.407-20.134,17.155-26.058c2.138-1.448,4.462-2.695,6.91-3.528
				c1.58-0.538,3.352-0.894,4.932-0.159c1.732,0.806,2.31,2.528,1.7,4.295c-0.989,2.87-3.735,5.386-5.919,7.396
				c-2.174,2.001-4.533,3.787-6.944,5.49c-5.974,4.221-12.103,8.239-18.201,12.281c-0.268,0.176-0.018,0.61,0.253,0.432
				c6.216-4.119,12.474-8.202,18.549-12.526c2.553-1.817,5.047-3.732,7.313-5.9c2.017-1.928,4.514-4.331,5.433-7.039
				c0.822-2.425-0.474-4.661-2.968-5.219c-2.645-0.591-5.521,0.815-7.827,1.987c-4.959,2.518-9.203,6.343-12.595,10.722
				c-4.018,5.185-6.943,11.26-8.272,17.693C281.896,213.785,282.38,213.919,282.444,213.604L282.444,213.604z"/>
		</g>
		<g clip-path="url(#SVGID_2_)">
			<path fill="#476144" d="M286.009,201.831c1.565-4.294,2.79-8.755,3.422-13.288c0.296-2.116,0.333-4.227,0.438-6.355
				c0.099-2.033,0.243-4.096-0.094-6.116c-0.274-1.647-0.958-3.724-2.576-4.533c-1.314-0.657-2.261,0.298-3.07,1.271
				c-2.608,3.134-2.337,8.519-1.97,12.303c0.552,5.674,2.331,11.132,3.367,16.719c0.059,0.316,0.542,0.182,0.483-0.133
				c-0.779-4.206-1.969-8.323-2.756-12.527c-0.793-4.241-1.319-9.013-0.084-13.223c0.43-1.464,1.704-4.647,3.776-3.977
				c1.016,0.328,1.686,1.82,1.989,2.737c0.321,0.968,0.458,1.996,0.515,3.01c0.105,1.885-0.07,3.768-0.135,5.651
				c-0.065,1.903-0.17,3.774-0.458,5.66c-0.658,4.319-1.835,8.568-3.331,12.668C285.415,202.001,285.898,202.132,286.009,201.831
				L286.009,201.831z"/>
		</g>
		<g clip-path="url(#SVGID_2_)">
			<path fill="#476144" d="M294.42,226.47c3.712,18.295,12.605,36.786,29.771,45.864c8.823,4.666,18.62,5.221,28.382,5.869
				c5.354,0.355,10.743,0.814,15.933,2.252c4.177,1.156,8.156,2.973,11.796,5.32c8.258,5.332,14.694,13.365,17.916,22.664
				c0.105,0.303,0.59,0.172,0.483-0.135c-2.713-7.828-7.656-14.777-14.078-20.004c-6.848-5.57-14.922-8.684-23.633-9.828
				c-10.337-1.359-21.08-0.615-31.043-4.15c-8.871-3.146-16.461-9.361-22.062-16.852c-6.821-9.122-10.734-20.054-12.981-31.134
				C294.839,226.021,294.356,226.155,294.42,226.47L294.42,226.47z"/>
		</g>
		<g clip-path="url(#SVGID_2_)">
			<path fill="#476144" d="M355.201,278.381c0.872,6.65,1.744,13.365,3.886,19.752c1.77,5.275,4.482,10.998,8.731,14.746
				c1.445,1.273,3.794,2.266,5.193,0.357c1.335-1.818,0.811-4.734,0.541-6.795c-0.677-5.188-2.563-10.158-5.313-14.598
				c-3.208-5.178-7.515-9.586-12.378-13.225c-0.258-0.193-0.508,0.242-0.253,0.432c7.775,5.818,14.192,13.822,16.655,23.348
				c0.624,2.42,1.041,4.951,1.057,7.455c0.008,1.182-0.103,2.633-1.065,3.455c-1.563,1.336-3.536-0.191-4.665-1.348
				c-3.728-3.814-6.252-8.754-7.954-13.766c-2.175-6.4-3.059-13.139-3.935-19.814C355.66,278.066,355.159,278.061,355.201,278.381
				L355.201,278.381z"/>
		</g>
		<g clip-path="url(#SVGID_2_)">
			<path fill="#476144" d="M325.651,272.861c7.469-7.088,17.276-11.602,27.545-12.529c2.586-0.232,5.919-0.398,7.884,1.646
				c2.298,2.389-1.38,5.52-3.347,6.76c-3.857,2.432-8.712,3.068-13.162,3.5c-6.359,0.617-12.737-0.467-19.098,0.195
				c-0.316,0.033-0.32,0.535,0,0.502c6.52-0.68,13.063,0.449,19.578-0.246c4.709-0.504,9.882-1.205,13.79-4.105
				c1.493-1.107,3.835-3.213,3.496-5.301c-0.348-2.15-2.957-3.164-4.826-3.443c-2.635-0.395-5.442,0.031-8.048,0.484
				c-2.834,0.494-5.619,1.254-8.313,2.264c-5.893,2.209-11.29,5.59-15.853,9.92C325.063,272.73,325.418,273.084,325.651,272.861
				L325.651,272.861z"/>
		</g>
	</g>
</g>
<g>
	<rect x="193.012" y="340.756" fill="#FFFFFF" width="141.043" height="115.336"/>
	<rect x="186.396" y="326.66" fill="#5B80BC" width="154.276" height="27.588"/>
	<path fill="#281607" d="M282.849,369.195H244.22c-2.685,0-4.86-2.176-4.86-4.859v-7.777h48.349v7.777
		C287.708,367.02,285.533,369.195,282.849,369.195z"/>
	<g>
		<path fill="#BA340F" d="M254.855,286.045c2.622-2.303,3.611-4.182,4.872-7.438c1.26-3.254,0.523-7.57-2.542-9.238
			c-2.254-1.227-5.066-0.719-7.438,0.266c-6,2.492-10.438,7.586-15.234,11.969c-9.763,8.926-24.341,15.799-37.183,18.979
			c0,0,3.006,2.516,10.284,2.531s34.396-5.947,38.919-8.697C251.058,291.666,254.855,286.045,254.855,286.045z"/>
		<g>
			<path fill="#BA340F" d="M254.855,286.045c-12.92,9.221-29.106,12.73-44.948,13.723c-11.108,0.697-26.388,0.496-32.962,6.182
				c-0.71,0.979-1.125,2.098-1.287,3.266c0.993,5.023,10.345,10.172,15.68,11.645c9.885,2.73,21.083-0.455,33.133-2.186
				c13.428-1.928,24.31-3.797,37.832-4.895c8.183-0.664,16.403-0.703,24.61-0.92c6.02-0.16,12.967-0.91,16.297-5.928
				c-0.14-9.416-4.817-22.16-9.684-28.988l0.068-0.031c-4.808,5.234-10.853,9.512-17.727,11.322S260.646,290.168,254.855,286.045z"
				/>
			<g>
				<path fill="#281607" d="M206.735,300.193c8.348,0.064,16.697-1.125,24.727-3.396c3.89-1.102,7.698-2.475,11.401-4.096
					c3.883-1.703,7.959-3.594,11.409-6.082c0.176-0.127,0.024-0.402-0.174-0.295c-3.682,1.984-7.201,4.156-11.03,5.879
					c-3.788,1.703-7.699,3.143-11.683,4.318c-8.011,2.361-16.306,3.533-24.65,3.646
					C206.717,300.168,206.717,300.193,206.735,300.193L206.735,300.193z"/>
			</g>
		</g>
		<path fill="#FFE5CA" d="M175.803,309.533c-0.46,2.816,0.458,5.455,2.366,7.68c2.652,3.094,6.586,4.758,10.464,6.008
			c7.623,2.457,15.628,3.727,23.638,3.75c10.162,0.027,20.229-1.934,30.381-2.352c10.202-0.422,22.038,1.775,32.244,2.078
			c9.487,0.281,19.776,0.248,28.782-3.148c2.376-0.896,4.707-2.332,5.44-4.91c0.704-2.479-1.132-4.947-2.346-7
			c-0.255-0.43-3.55-4.727-3.563-4.707c-3.33,5.018-10.277,5.768-16.297,5.928c-8.207,0.217-16.428,0.256-24.61,0.92
			c-13.522,1.098-24.404,2.967-37.832,4.895c-12.05,1.73-23.248,4.916-33.133,2.186
			C186.003,319.387,176.796,314.555,175.803,309.533z"/>
	</g>
	<g>
		<path fill="#D34418" d="M293.938,286.045c2.622-2.303,3.611-4.182,4.871-7.438c1.261-3.254,0.524-7.57-2.541-9.238
			c-2.255-1.227-5.066-0.719-7.438,0.266c-6,2.492-10.438,7.586-15.234,11.969c-9.764,8.926-24.342,15.799-37.184,18.979
			c0,0,3.006,2.516,10.284,2.531s34.396-5.947,38.919-8.697S293.938,286.045,293.938,286.045z"/>
		<g>
			<path fill="#D34418" d="M293.938,286.045c-12.92,9.221-29.106,12.73-44.948,13.723c-11.106,0.697-26.387,0.496-32.962,6.182
				c-0.71,0.979-1.125,2.098-1.287,3.266c0.993,5.023,10.345,10.172,15.681,11.645c9.884,2.73,21.082-0.455,33.132-2.186
				c13.429-1.928,24.31-3.797,37.832-4.895c8.184-0.664,16.402-0.703,24.61-0.92c6.02-0.16,12.967-0.91,16.297-5.928
				c-0.141-9.416-4.817-22.16-9.685-28.988l0.07-0.031c-4.808,5.234-10.854,9.512-17.728,11.322
				C308.076,291.045,299.728,290.168,293.938,286.045z"/>
			<g>
				<path fill="#281607" d="M245.817,300.193c8.348,0.064,16.696-1.125,24.726-3.396c3.891-1.102,7.699-2.475,11.401-4.096
					c3.884-1.703,7.96-3.594,11.41-6.082c0.176-0.127,0.024-0.402-0.173-0.295c-3.683,1.984-7.202,4.156-11.031,5.879
					c-3.787,1.703-7.699,3.143-11.684,4.318c-8.01,2.361-16.305,3.533-24.649,3.646C245.8,300.168,245.8,300.193,245.817,300.193
					L245.817,300.193z"/>
			</g>
		</g>
		<path fill="#FFE5CA" d="M214.885,309.533c-0.46,2.816,0.458,5.455,2.365,7.68c2.652,3.094,6.586,4.758,10.464,6.008
			c7.622,2.457,15.627,3.727,23.638,3.75c10.161,0.027,20.228-1.934,30.381-2.352c10.201-0.422,22.038,1.775,32.244,2.078
			c9.486,0.281,19.776,0.248,28.781-3.148c2.377-0.896,4.708-2.332,5.44-4.91c0.705-2.479-1.132-4.947-2.345-7
			c-0.255-0.43-3.549-4.727-3.563-4.707c-3.33,5.018-10.277,5.768-16.297,5.928c-8.208,0.217-16.427,0.256-24.61,0.92
			c-13.522,1.098-24.403,2.967-37.832,4.895c-12.05,1.73-23.248,4.916-33.132,2.186
			C225.085,319.387,215.878,314.555,214.885,309.533z"/>
	</g>
</g>
<g>
	<g>
		<path fill="#281607" d="M411.532,341.377c0.49-9.664-1.587-20.422-4.885-29.52c-3.297-9.098-9.854-16.105-18.9-19.539
			c-11.26-4.271-25.296,0.6-33.366,9.539c-8.069,8.939-11.503,25.27-9.746,37.184h-14.229c-3.075-16.365,5.044-40.695,18.037-51.111
			c12.992-10.416,31.819-12.979,47.123-6.418c5.278,2.264,10.171,5.559,13.889,9.936c5.989,7.051,9.674,16.143,12.059,25.082
			c1.38,5.172,3.61,14.865,4.247,21.236"/>
	</g>
	<path fill="#281607" d="M314.319,367.504c-0.809,15.363,1.698,30.895,7.302,45.223c1.996,5.105,4.45,10.16,8.3,14.063
		c2.324,2.355,5.095,4.225,7.953,5.893c19.577,11.422,43.826,13.586,65.818,8.104c3.711-0.926,7.385-2.063,10.833-3.715
		c11.643-5.584,19.894-16.77,24.325-28.898c4.432-12.127,5.435-25.221,5.698-38.131"/>
	<g>
		<path fill="#D34418" d="M445.087,335.217c0.556,14.023,0.833,27.568,0.537,41.598c-0.064,3.078-0.401,6.639-2.953,8.359
			c-1.734,1.17-6.006,2.164-8.097,2.234c-25.956,0.875-51.925,2.57-77.902,1.639c-10.121-0.363-20.23-1.035-30.311-2.014
			c-2.634-0.256-6.444-0.137-8.803-1.426c-2.177-1.191-3.437-4.061-3.997-6.332c-1.518-6.141-1.523-12.416-1.689-18.695
			c-0.214-8.135-0.008-16.371,0.643-24.486l0.053-0.664C355.891,335.43,401.763,335.217,445.087,335.217z"/>
	</g>
	<path fill="#FFE5CA" d="M391.954,395.318h-22.857c-0.49,0-0.889-0.398-0.889-0.889v-19.883c0-0.492,0.398-0.891,0.889-0.891h22.857
		c0.491,0,0.89,0.398,0.89,0.891v19.883C392.844,394.92,392.445,395.318,391.954,395.318z"/>
	<g>
		<path fill="#EDA342" d="M329.319,334.41c1.065,0.633,2.288,0.6,3.496,0.633c1.541,0.043,3.087,0.043,4.629,0.047
			c1.543,0.006,3.086-0.002,4.628-0.004c1.389,0,2.845,0.143,4.208-0.143c0.569-0.117,0.57-1.033,0-1.15
			c-1.363-0.285-2.819-0.143-4.208-0.143c-1.542-0.002-3.085-0.01-4.628-0.004c-1.542,0.004-3.088,0.004-4.629,0.047
			c-1.208,0.033-2.431,0-3.496,0.633C329.288,334.346,329.288,334.391,329.319,334.41L329.319,334.41z"/>
	</g>
	<g>
		<path fill="#EDA342" d="M410.658,334.41c1.064,0.633,2.287,0.6,3.495,0.633c1.541,0.043,3.087,0.043,4.629,0.047
			c1.543,0.006,3.085-0.002,4.628-0.004c1.389,0,2.845,0.143,4.209-0.143c0.569-0.117,0.569-1.033,0-1.15
			c-1.364-0.285-2.82-0.143-4.209-0.143c-1.543-0.002-3.085-0.01-4.628-0.004c-1.542,0.004-3.088,0.004-4.629,0.047
			c-1.208,0.033-2.431,0-3.495,0.633C410.627,334.346,410.627,334.391,410.658,334.41L410.658,334.41z"/>
	</g>
</g>
</svg>
