<?xml version="1.0" encoding="utf-8"?>
<!-- Generator: Adobe Illustrator 16.0.0, SVG Export Plug-In . SVG Version: 6.00 Build 0)  -->
<!DOCTYPE svg PUBLIC "-//W3C//DTD SVG 1.1 Tiny//EN" "http://www.w3.org/Graphics/SVG/1.1/DTD/svg11-tiny.dtd">
<svg version="1.1" baseProfile="tiny" id="Layer_1" xmlns="http://www.w3.org/2000/svg" xmlns:xlink="http://www.w3.org/1999/xlink"
	 x="0px" y="0px" width="500px" height="500px" viewBox="0 0 500 500" xml:space="preserve">
<g>
	<path fill-rule="evenodd" fill="#948A6B" d="M243.128,457.229c-32.304,0-50.717-3.634-51.814-12.638
		c-0.144-1.202-0.13-2.783-0.13-3.998V188.082c0.039-2.195,0.052-4.391,0.313-6.573c2.196-18.635,24.672-29.717,29.468-35.466
		c0.954-1.15,1.02-1.843,1.02-3.188V72.157c0-0.353-0.026-0.902-0.183-1.215c-0.157-0.327-0.497-0.745-1.516-1.098
		c-1.385-0.497-1.438-2.078-1.438-3.397V48.19c0-7.227,48.56-7.227,48.56,0v18.256c0,1.32-0.053,2.901-1.424,3.397
		c-1.02,0.353-1.359,0.771-1.516,1.098c-0.17,0.313-0.197,0.863-0.197,1.215v70.698c0,1.346,0.078,2.038,1.033,3.188
		c4.795,5.75,27.26,16.832,29.469,35.466c0.262,2.182,0.262,4.377,0.313,6.573v252.512c0,1.215,0.014,2.796-0.131,3.998
		C293.856,453.596,275.444,457.229,243.128,457.229L243.128,457.229z"/>
	<rect x="255.712" y="102.03" fill-rule="evenodd" fill="#877C5A" width="4.73" height="48.469"/>
	<path fill-rule="evenodd" fill="#C2A87F" d="M243.128,457.229c-32.304,0-50.717-3.634-51.814-12.638
		c-0.144-1.202-0.13-2.783-0.13-3.998V188.082c0.039-2.195,0.052-4.391,0.313-6.573c2.196-18.635,24.672-29.717,29.468-35.466
		c0.379-0.458,0.627-0.836,0.771-1.229h42.797c0.145,0.392,0.393,0.771,0.771,1.229c4.795,5.75,27.26,16.832,29.469,35.466
		c0.262,2.182,0.262,4.377,0.313,6.573v252.512c0,1.215,0.014,2.796-0.131,3.998C293.856,453.596,275.444,457.229,243.128,457.229
		L243.128,457.229z"/>
	<path fill-rule="evenodd" fill="#D4BF88" d="M225.865,144.814h9.239c0.601,0.575,0.98,0.954,0.98,0.954
		c-0.366,5.488-7.789,10.742-9.2,18.831c-1.019,5.894-3.96,2.81-7.789,2.261c-1.424-0.209-4.038,0.497-5.789,1.673
		c-2.313,1.529-2.562-0.196-1.438-3.372c1.15-3.202,4.574-8.05,7.605-11.251C224.048,149.048,225.447,147.729,225.865,144.814
		L225.865,144.814z"/>
	<path fill-rule="evenodd" fill="#EAE4E2" d="M271.093,150.982c8.416,6.417,21.994,16.256,23.68,30.527
		c0.262,2.182,0.262,4.377,0.313,6.573v252.512c0,1.215,0.014,2.796-0.131,3.998c-0.811,6.626-10.988,10.337-29.193,11.84
		c-0.771-1.176-0.914-2.247-0.17-3.136c4.875-5.868,11.225-4.888,18.557-7.815c7.332-2.939,0-3.907-5.854-10.258
		c-5.867-6.351-4.301-13.682-4.301-29.808s0-171.974,0-197.012c0-25.039-3.895-48.809-14.754-55.082
		C259.239,153.322,264.075,152.315,271.093,150.982L271.093,150.982z"/>
	<path fill-rule="evenodd" fill="#B5B68C" d="M243.128,457.229c-32.304,0-50.717-3.634-51.814-12.638
		c-0.079-0.652-0.118-1.424-0.118-2.182c7.514,6.795,20.425,9.565,51.933,9.383c31.52,0.183,44.43-2.588,51.945-9.383
		c0,0.758-0.039,1.529-0.119,2.182C293.856,453.596,275.444,457.229,243.128,457.229L243.128,457.229z"/>
	<path fill-rule="evenodd" fill="#AA915E" d="M243.128,457.229c-16.492,0-29.377-0.941-38.172-3.071
		c-4.077-2.522-7.305-5.449-9.422-8.639c8.076,4.535,21.405,6.43,47.594,6.273c2.43,0.013,4.756,0.013,6.965-0.013v5.396
		C247.845,457.216,245.532,457.229,243.128,457.229L243.128,457.229z"/>
	<path fill-rule="evenodd" fill="#948A6B" d="M250.093,451.78c21.652-0.21,33.322-2.144,40.641-6.261
		c-2.117,3.189-5.344,6.116-9.422,8.639c-7.527,1.816-18.02,2.771-31.219,3.019V451.78z"/>
	<path fill-rule="evenodd" fill="#1E0105" d="M243.128,457.229c-13.003,0-23.758-0.589-32.043-1.883
		c-3.241-1.999-5.972-4.299-8.076-6.821c8.389,2.379,20.726,3.385,40.119,3.268c2.43,0.013,4.756,0.013,6.965-0.013v5.396
		C247.845,457.216,245.532,457.229,243.128,457.229L243.128,457.229z"/>
	<path fill-rule="evenodd" fill="#A8723A" d="M250.093,451.78c15.459-0.145,25.834-1.177,33.166-3.255
		c-2.104,2.522-4.834,4.822-8.076,6.821c-6.756,1.059-15.158,1.647-25.09,1.83V451.78z"/>
	<path fill-rule="evenodd" fill="#B5B68C" d="M243.128,457.229c-8.167,0-15.434-0.235-21.771-0.719
		c-2.235-1.673-4.182-3.607-5.789-5.737c7.161,0.771,16.139,1.084,27.561,1.02c2.43,0.013,4.756,0.013,6.965-0.013v5.396
		C247.845,457.216,245.532,457.229,243.128,457.229L243.128,457.229z"/>
	<path fill-rule="evenodd" fill="#1E0105" d="M250.093,451.78c8.193-0.079,14.963-0.405,20.607-1.007
		c-1.607,2.13-3.555,4.064-5.789,5.737c-4.469,0.34-9.422,0.562-14.818,0.666V451.78z"/>
	<path fill-rule="evenodd" fill="#948A6B" d="M243.128,457.229c-5.973,0-11.474-0.118-16.479-0.379
		c-1.725-1.621-3.241-3.477-4.509-5.528c5.894,0.366,12.82,0.522,20.988,0.471c8.18,0.052,15.094-0.104,21-0.471
		c-1.268,2.052-2.783,3.907-4.51,5.528C254.614,457.111,249.112,457.229,243.128,457.229L243.128,457.229z"/>
	<path fill-rule="evenodd" fill="#D1B689" d="M217.658,149.062c1.424-1.137,2.574-2.143,3.306-3.019
		c0.862-1.032,1.006-1.712,1.02-2.823h42.3c0.014,1.111,0.156,1.791,1.02,2.823c0.379,0.457,0.863,0.941,1.451,1.463v1.555H217.658z
		"/>
	<path fill-rule="evenodd" fill="#B49D87" d="M225.996,143.22h7.344c1.555,1.346,2.744,2.548,2.744,2.548
		c-0.079,1.098-0.431,2.195-0.967,3.293h-11.225C225.46,147.101,225.891,145.794,225.996,143.22L225.996,143.22z"/>
	<path fill-rule="evenodd" fill="#1E0105" d="M197.926,166.716c7.605-9.945,19.51-16.557,22.96-20.582
		c0.301-0.039,0.523-0.013,0.68,0.065c2.548,1.516,9.069,2.404,21.615,2.404c12.557,0,19.064-0.889,21.627-2.404
		c0.131-0.079,0.326-0.091,0.561-0.079c3.516,4.116,15.904,10.951,23.484,21.274c2.6,4.378,4.391,9.122,4.6,13.957l0.039,4.313
		l-0.758,250.891c-2.352-0.641-0.928-178.69-1.334-225.996c-0.104-11.108,0.275-28.41-5.029-37.296
		c-4.418-7.396-16.492-21.823-43.189-21.823c-26.685,0-38.773,14.427-43.19,21.823c-5.306,8.886-4.927,26.188-5.018,37.296
		c-0.418,47.306,1.006,225.355-1.333,225.996l-0.771-250.891l0.052-4.313C193.13,176.269,195.103,171.277,197.926,166.716
		L197.926,166.716z"/>
	<path fill-rule="evenodd" fill="#42020B" d="M225.029,147.402c2.391,0.51,5.775,0.875,10.362,1.072
		c-0.522,1.202-1.268,2.417-2.117,3.685c-6.834,1.032-12.454,3.097-17.04,5.619c1.045-1.398,2.169-2.744,3.24-3.868
		C222.507,150.682,224.153,149.009,225.029,147.402L225.029,147.402z"/>
	<path fill-rule="evenodd" fill="#1E0105" d="M196.972,439.248c12.323-1.908,18.844-24.634,46.156-24.634
		c28.867,0,34.512,25.352,48.143,24.946c1.41,0.589,1.998,0.98-2.953,4.953c-4.967,3.973-29.404,7.344-21.264,5.162
		c8.143-2.182,4.771-3.973,9.934-4.561c5.16-0.602,12.713-2.588,9.135-3.385c-3.568-0.797-13.5-5.763-18.662-13.106
		c-5.162-7.345-13.904-12.911-25.43-12.507c-11.513,0.393-19.458,3.973-24.816,11.513c-4.744,6.665-9.944,13.186-19.863,14.741
		C190.777,443.416,193.548,439.783,196.972,439.248L196.972,439.248z"/>
	<path fill-rule="evenodd" fill="#1E0105" d="M197.167,444.854c11.291,4.3,13.173,4.025,22.856,4.835
		c9.684,0.811-8.337-1.071-8.337-4.835C211.687,441.077,202.539,441.626,197.167,444.854L197.167,444.854z"/>
	<path fill-rule="evenodd" fill="#866631" d="M243.128,450.225c-23.849,0-31.899-8.063-28.162-10.48
		c3.737-2.431,12.924-21.522,28.162-21.522c15.236,0,24.436,19.092,28.174,21.522C275.04,442.162,266.989,450.225,243.128,450.225
		L243.128,450.225z"/>
	<path fill-rule="evenodd" fill="#FEFBDA" d="M204.604,397.861V195.662c0.588-24.071,24.581-44.667,25.064,4.325v185.956
		C229.759,415.046,205.466,435.955,204.604,397.861L204.604,397.861z"/>
	<path fill-rule="evenodd" fill="#FFFFFF" d="M219.148,188.017c-9.37,0-6.848,43.869-6.848,107.34s-0.719,89.45,5.044,89.032
		c5.763-0.432,4.679-58.361,4.679-110.332C222.023,222.098,222.742,187.586,219.148,188.017L219.148,188.017z"/>
	<path fill-rule="evenodd" fill="#DDCAB2" d="M286.944,211.291c0,30.984,0,49.318,0,64.386c0,15.08-6.182,28.108-6.182-20.373
		c0-24.934,0-44.692-0.836-58.845c-0.34-5.829-0.719-13.381-2.73-18.779c-1.947-5.24-5.32-10.271-4.98-10.35
		C285.376,164.599,286.944,201.425,286.944,211.291L286.944,211.291z M283.259,297.082c-3.02-0.811-2.717,36.015-2.717,66.607
		c0,30.578,0.338,54.375,2.377,54.375s2.719-32.291,2.719-70.005C285.638,310.332,285.298,297.761,283.259,297.082L283.259,297.082z
		"/>
	<path fill-rule="evenodd" fill="#AC8B4F" d="M231.824,424.023c-4.822,3.084-14.074,16.766-11.173,19.85
		c2.888,3.085,11.761,4.247,15.616,3.855c3.855-0.379-5.397-2.692-5.018-10.402C231.641,429.616,234.725,424.22,231.824,424.023
		L231.824,424.023z"/>
	<path fill-rule="evenodd" fill="#BEB081" d="M243.128,146.474c11.381,0,20.66-1.463,20.66-3.254c0-1.803-9.279-3.267-20.66-3.267
		c-11.37,0-20.647,1.464-20.647,3.267C222.48,145.011,231.758,146.474,243.128,146.474L243.128,146.474z"/>
	<path fill-rule="evenodd" fill="#C9C2AB" d="M236.215,82.846v63.445c-4.299-0.235-7.933-0.706-10.389-1.293v-64.83
		C228.452,81.422,232.059,82.363,236.215,82.846L236.215,82.846z"/>
	<path fill-rule="evenodd" fill="#A35633" d="M221.984,103.729V72.157c0-0.353-0.026-0.902-0.183-1.215
		c-0.157-0.327-0.497-0.745-1.516-1.098c-1.385-0.497-1.438-2.078-1.438-3.397V48.19c0-7.227,48.56-7.227,48.56,0v18.256
		c0,1.32-0.053,2.901-1.424,3.397c-1.02,0.353-1.359,0.771-1.516,1.098c-0.17,0.313-0.197,0.863-0.197,1.215v31.572h-0.025
		c0.025,0.065,0.025,0.118,0.025,0.183c0,1.843-9.461,3.333-21.143,3.333c-11.67,0-21.144-1.49-21.144-3.333
		c0-0.065,0.013-0.117,0.039-0.183H221.984z"/>
	<path fill-rule="evenodd" fill="#99451F" d="M243.128,50.634c11.656,0,21.143-1.49,21.143-3.332c0-1.83-9.486-3.332-21.143-3.332
		c-11.644,0-21.144,1.502-21.144,3.332C221.984,49.144,231.484,50.634,243.128,50.634L243.128,50.634z"/>
	<path fill-rule="evenodd" fill="#99451F" d="M251.216,51.601v20.425c4.418-0.288,8.09-0.81,10.391-1.464V50.242
		C258.966,50.856,255.372,51.34,251.216,51.601L251.216,51.601z"/>
	<path fill-rule="evenodd" fill="#B06948" d="M235.051,51.601v17.955v2.47c-0.418-0.026-0.823-0.052-1.215-0.092
		c-2.993-0.222-5.58-0.562-7.566-0.98c-0.601-0.118-1.137-0.248-1.621-0.392V50.242C227.302,50.856,230.896,51.34,235.051,51.601
		L235.051,51.601z"/>
	<path fill-rule="evenodd" fill="#99451F" d="M250.054,72.68v33.075c4.156-0.196,7.762-0.601,10.389-1.124V71.542
		C257.815,72.065,254.21,72.471,250.054,72.68L250.054,72.68z"/>
	<path fill-rule="evenodd" fill="#B06948" d="M236.215,72.68v33.075c-4.156-0.196-7.763-0.601-10.389-1.124V71.542
		C228.452,72.065,232.059,72.471,236.215,72.68L236.215,72.68z"/>
	<path fill-rule="evenodd" fill="#BF8163" d="M230.125,74.013c-1.974-0.523-1.855,5.488-1.855,17.55
		c0,12.062,3.502,13.499,4.273,10.311C233.313,98.698,234.189,74.013,230.125,74.013L230.125,74.013z"/>
	<path fill-rule="evenodd" fill="#BF8163" d="M228.047,52.633c-1.555,0-1.699,4.352-1.555,8.651c0.131,4.208,0.483,8.35,2.535,8.35
		c1.83,0,2.234-3.581,2.248-7.24C231.288,57.704,230.386,52.686,228.047,52.633L228.047,52.633z"/>
</g>
</svg>
