<?xml version="1.0" encoding="utf-8"?>
<!-- Generator: Adobe Illustrator 16.0.0, SVG Export Plug-In . SVG Version: 6.00 Build 0)  -->
<!DOCTYPE svg PUBLIC "-//W3C//DTD SVG 1.1 Tiny//EN" "http://www.w3.org/Graphics/SVG/1.1/DTD/svg11-tiny.dtd">
<svg version="1.1" baseProfile="tiny" id="Layer_1" xmlns="http://www.w3.org/2000/svg" xmlns:xlink="http://www.w3.org/1999/xlink"
	 x="0px" y="0px" width="500px" height="500px" viewBox="0 0 500 500" xml:space="preserve">
<path fill-rule="evenodd" fill="#D9CAAE" d="M277.858,39.779c-11.09-32.298-67.004-20.823-78.013,31.549
	c-10.988,52.373-19.144,77.507-19.144,77.507s7.527-76.03,19.468-100.516c11.939-24.507,35.819-39.583,57.169-36.447
	C278.709,15.009,284.982,37.634,277.858,39.779L277.858,39.779z"/>
<path fill-rule="evenodd" fill="#E6D3B3" d="M330.191,195.036c-8.439-39.907-14.733-152.484-57.068-179.116
	c-28.149-17.707-61.662,5.14-76.313,30.457C175.38,83.39,164.067,152.62,161.113,186.9c-3.602,41.85,20.823,39.057,20.823,39.057
	l8.236-37.357c0,0,5.687-125.367,16.453-146.899c8.803-17.586,22.665-24.507,38.471-26.591c6.395-0.85,21.167-0.283,28.614,14.732
	c2.914,5.869,5.424,13.073,7.589,20.965c3.987,14.388,6.941,31.063,9.552,45.978c6.335,36.103,8.864,115.876,8.864,115.876
	L330.191,195.036z"/>
<path fill-rule="evenodd" fill="#EBDBBE" d="M239.935,196.979c27.26,2.267,58.02-0.587,94.749-4.675
	c28.776-3.197,42.133-5.059,47.213,0.223c4.31,4.452,2.429,13.275,2.044,38.248c-0.83,53.242-2.551,98.877-1.6,153.921
	c0.77,45.229,2.327,92.199,0.77,100.779c-1.559,8.58-3.905,8.58-45.998,10.139c-42.113,1.558-55.368-6.253-95.902-3.905
	c-27.037,1.558-79.066,0.688-110.716-0.062c-30.032-0.708-26.511,6.011-26.612-17.1c-0.101-27.3-0.041-49.803,1.66-82.829
	c2.226-42.902-3.278-111.06-0.465-187.818c0.202-5.929-0.971-10.766,4.027-13.052C136.606,178.138,212.696,194.712,239.935,196.979
	L239.935,196.979z"/>
<path fill-rule="evenodd" fill="#E6D3B3" d="M274.419,197.505c2.975-0.122,5.989-0.284,9.046-0.465
	c-0.405,19.144-0.628,38.996-5.747,38.571C272.598,235.186,272.941,217.397,274.419,197.505L274.419,197.505z M291.195,196.533
	c13.559-0.991,27.987-2.509,43.488-4.229c3.582-0.405,6.921-0.769,10.038-1.113c-0.547,0.627-1.275,1.214-2.308,1.72
	c-19.388,9.694-41.223,9.694-41.223,9.694l-1.801,34.544c0,0-4.857-10.907-5.464-27.279
	C293.725,204.668,292.611,200.196,291.195,196.533L291.195,196.533z M227.226,195.481c4.007,0.546,7.629,1.012,10.726,1.315
	c-1.315,16.918,1.903,44.177-3.845,41.89C228.36,236.379,232.69,221.749,227.226,195.481L227.226,195.481z"/>
<path fill-rule="evenodd" fill="#E6D3B3" d="M104.631,218.47c0.122-4.816,0.264-9.673,0.446-14.57
	c0.202-5.929-0.971-10.766,4.027-13.052c20.945-9.673,70.04-2.388,104.3,2.65c-0.142,0.324-0.567,0.547-1.315,0.628
	c-16.372,1.801-24.851,0-36.973-0.607c-12.122-0.607-16.372,1.214-16.372,1.214s0,19.994,0,24.851c0,4.836-3.622,6.658-3.622,6.658
	s-1.214-30.901-9.713-30.315c-8.479,0.607-11.515,23.05-16.959,23.657c-5.463,0.607-1.214-23.657-6.678-22.442
	C117.057,198.192,113.698,202.422,104.631,218.47L104.631,218.47z"/>
<path fill-rule="evenodd" fill="#E6D3B3" d="M382.24,323.762c-0.242,19.549-0.283,39.523,0.101,60.934
	c0.77,45.229,2.327,92.199,0.77,100.779c-1.559,8.58-3.905,8.58-45.998,10.139c-42.113,1.558-55.368-6.253-95.902-3.905
	c-27.037,1.558-79.066,0.688-110.716-0.062c-30.032-0.708-26.511,6.011-26.612-17.1c12.506,11.96,28.959,1.093,38.875,3.218
	c17.889,3.804,34.524,6.476,69.776,7.427c34.059,0.931,45.815-12.668,70.182-4.877c24.385,7.812,35.091,17.546,38.024,7.812
	c2.935-9.755,51.665,2.914,54.6-10.726c2.914-13.66,4.876-25.357-2.935-30.234c-7.791-4.876,1.963-11.696,3.905-40.938
	c1.943-29.242-3.905-47.779,0-63.361C377.14,339.526,379.306,332.687,382.24,323.762L382.24,323.762z M104.51,415.962
	c0.243-7.549,0.587-15.522,1.032-24.244c1.942-37.621-2.044-94.647-1.154-159.831c9.066-2.003,18.659-3.703,26.248-4.067
	c20.479-0.971,100.415,13.66,100.415,13.66s-47.779-1.963-55.57-1.963c-7.792,0-32.177-3.906-36.062,3.905
	c-3.906,7.791-12.688-5.848-22.422-3.905c-9.754,1.963-6.84,38.024-6.84,55.57c0,17.545,0.991,53.627,11.696,54.599
	c10.726,0.972-8.762,13.64-8.762,27.3C113.091,385.282,108.396,397.545,104.51,415.962L104.51,415.962z M366.01,189.269
	c8.277-0.324,13.215,0.485,15.887,3.258c4.31,4.452,2.429,13.275,2.044,38.248c-0.162,11.19-0.385,22.038-0.607,32.702
	C382.422,235.752,379.69,197.97,366.01,189.269L366.01,189.269z"/>
<path fill="#FEFFEA" d="M249.828,395.333c-2.459,2.966-6.021,4.702-10.09,5.534c-4.339,0.886-9.204,0.741-13.959-0.091
	c-6.365-1.104-12.423-3.418-16.709-6.13c3.382-3.798,8.572-7.667,14.376-10.488c4.358-2.098,8.987-3.58,13.399-3.924
	c4.141-0.308,8.047,0.38,11.23,2.55c1.446,0.976,2.784,2.296,3.942,3.96c-2.821,0.85-5.497,1.41-7.975,1.682
	c-7.812,0.868-10.832,2.062-10.94,3.074c-0.145,1.429,5.534,2.495,11.682,1.735c2.296-0.271,4.719-0.759,7.233-1.464
	C251.419,393.127,250.696,394.32,249.828,395.333L249.828,395.333z M196.357,319.584c-1.862-4.015-2.857-8.788-3.164-13.598
	c-0.397-6.438,0.434-12.875,2.08-17.667c4.467,2.387,9.457,6.546,13.544,11.519c3.056,3.743,5.588,7.92,6.926,12.134
	c1.284,3.941,1.519,7.902,0.145,11.5c-0.615,1.646-1.573,3.237-2.93,4.757c-1.465-2.551-2.658-5.01-3.49-7.36
	c-2.658-7.396-4.52-10.054-5.533-9.909c-1.429,0.181-1.139,5.949,1.013,11.754c0.813,2.17,1.862,4.394,3.11,6.69
	c-1.447-0.253-2.767-0.705-3.96-1.284C200.643,326.401,198.129,323.346,196.357,319.584L196.357,319.584z M234.548,327.975
	c-0.524-4.394,0.036-9.24,1.284-13.905c1.645-6.239,4.448-12.08,7.522-16.13c3.49,3.688,6.908,9.204,9.223,15.226
	c1.736,4.503,2.803,9.258,2.767,13.688c-0.036,4.141-1.066,7.975-3.49,10.958c-0.832,1.049-1.863,1.989-3.074,2.821
	c0.199-2.604,0.217-5.063,0.054-7.36c-0.452-6.184-2.586-11.555-3.959-11.139c-0.977,0.308-1.574,3.49-0.923,11.32
	c0.217,2.495,0.163,5.226-0.108,8.155c-1.863-0.832-3.4-1.881-4.647-3.11C236.465,335.805,235.036,332.098,234.548,327.975
	L234.548,327.975z M283.119,421.392c-3.815,2.242-8.463,3.707-13.236,4.466c-6.365,1.013-12.839,0.813-17.776-0.361
	c1.953-4.684,5.588-10.036,10.163-14.594c3.417-3.417,7.341-6.311,11.392-8.083c3.816-1.646,7.74-2.261,11.447-1.247
	c1.699,0.452,3.363,1.266,5.009,2.459c-2.388,1.718-4.738,3.128-6.98,4.195c-7.124,3.363-9.565,5.461-9.349,6.455
	c0.344,1.411,6.058,0.561,11.628-2.151c2.062-1.013,4.194-2.261,6.347-3.743c-0.109,1.482-0.416,2.839-0.887,4.087
	C289.502,416.454,286.699,419.275,283.119,421.392L283.119,421.392z M209.956,366.003c-3.002,2.387-6.854,3.382-11.013,3.382
	c-4.412,0-9.15-1.121-13.652-2.894c-6.004-2.369-11.483-5.841-15.135-9.367c4.068-3.02,9.945-5.786,16.184-7.377
	c4.684-1.194,9.53-1.7,13.924-1.158c4.124,0.524,7.812,1.989,10.488,4.756c1.23,1.248,2.261,2.803,3.056,4.666
	c-2.929,0.253-5.66,0.271-8.137,0.054c-7.83-0.724-11.031-0.163-11.338,0.796c-0.416,1.393,4.918,3.563,11.103,4.068
	c2.296,0.182,4.755,0.182,7.36,0.019C211.963,364.158,211.004,365.171,209.956,366.003L209.956,366.003z M275.759,351.374
	c-0.523-4.395,0.037-9.24,1.284-13.906c1.646-6.238,4.467-12.079,7.522-16.111c3.49,3.688,6.926,9.187,9.223,15.208
	c1.735,4.521,2.803,9.258,2.767,13.688c-0.037,4.159-1.049,7.992-3.49,10.976c-0.832,1.031-1.862,1.989-3.074,2.821
	c0.199-2.604,0.217-5.081,0.055-7.378c-0.452-6.184-2.586-11.536-3.961-11.121c-0.976,0.29-1.572,3.473-0.904,11.32
	c0.199,2.478,0.163,5.208-0.126,8.138c-1.862-0.814-3.399-1.863-4.647-3.093C277.676,359.204,276.247,355.497,275.759,351.374
	L275.759,351.374z M320.279,391.771c-11.501-0.543-23.201-3.256-34.466-7.469c1.338-4.25,2.387-8.372,3.11-12.278
	c3.978-1.627,7.016-3.905,9.239-6.654c3.473-4.268,4.919-9.512,4.974-15.063c0.054-5.28-1.193-10.851-3.2-16.076
	c-3.22-8.408-8.5-16.039-13.563-20.145l-2.297-1.881l-2.098,2.116c-4.593,4.629-9.005,12.784-11.302,21.482
	c-1.429,5.407-2.079,11.085-1.465,16.328c0.651,5.534,2.677,10.579,6.564,14.431c2.188,2.17,4.918,3.906,8.281,5.117
	c-0.668,3.436-1.608,7.07-2.803,10.832c-13.309-5.461-25.912-12.911-36.798-21.157c1.411-4.412,2.495-8.68,3.254-12.73
	c3.979-1.627,6.999-3.924,9.241-6.672c3.472-4.25,4.937-9.494,4.973-15.046c0.054-5.279-1.193-10.867-3.2-16.093
	c-3.22-8.391-8.499-16.021-13.563-20.145l-2.296-1.881l-2.098,2.115c-4.593,4.63-9.005,12.803-11.302,21.483
	c-1.428,5.424-2.079,11.103-1.465,16.347c0.651,5.516,2.676,10.578,6.565,14.43c2.188,2.152,4.918,3.906,8.282,5.118
	c-0.615,3.146-1.465,6.455-2.514,9.873c-9.837-7.902-18.01-16.329-23.707-24.268c2.568-2.495,4.322-5.226,5.407-8.083
	c1.935-5.136,1.682-10.578-0.019-15.858c-1.627-5.027-4.556-9.928-8.101-14.268c-5.714-6.943-13.128-12.531-19.222-14.846
	l-2.785-1.049l-1.302,2.658c-2.912,5.841-4.521,14.973-3.978,23.959c0.344,5.588,1.537,11.176,3.761,15.968
	c2.35,5.027,5.876,9.187,10.777,11.627c3.183,1.573,6.89,2.405,11.194,2.225c4.339,6.185,10.035,12.585,16.78,18.806
	c-3.002,0.851-5.877,1.537-8.662,2.044c-1.157-3.364-2.893-6.112-5.027-8.318c-3.815-3.924-8.86-5.985-14.358-6.69
	c-5.243-0.651-10.94-0.072-16.364,1.302c-8.716,2.225-16.908,6.582-21.591,11.121l-2.116,2.079l1.845,2.314
	c4.068,5.1,11.646,10.435,20.018,13.743c5.208,2.043,10.777,3.346,16.057,3.346c5.552,0,10.814-1.411,15.1-4.828
	c2.784-2.225,5.099-5.226,6.762-9.187c4.014-0.724,8.246-1.754,12.622-3.109c2.423,2.079,4.955,4.122,7.577,6.111
	c7.649,5.822,16.13,11.266,25.117,15.949c-2.641,1.356-5.244,2.567-7.758,3.58c-1.826-3.056-4.068-5.406-6.601-7.125
	c-4.538-3.092-9.873-4.104-15.424-3.688c-5.262,0.416-10.706,2.115-15.751,4.575c-8.101,3.924-15.243,9.819-18.914,15.208
	l-1.664,2.459l2.278,1.898c4.991,4.178,13.508,7.902,22.369,9.439c5.516,0.977,11.229,1.121,16.401,0.072
	c5.443-1.121,10.307-3.563,13.815-7.775c2.278-2.713,3.942-6.131,4.774-10.344c3.815-1.519,7.794-3.399,11.845-5.624
	c9.583,4.557,19.674,8.229,29.872,10.524c-1.988,2.08-3.996,3.997-5.968,5.732c-2.729-2.314-5.623-3.797-8.57-4.611
	c-5.298-1.429-10.688-0.65-15.787,1.556c-4.846,2.097-9.438,5.497-13.398,9.457c-6.365,6.347-11.211,14.268-12.93,20.561
	l-0.777,2.856l2.784,1.067c6.095,2.314,15.335,3.038,24.231,1.628c5.533-0.887,10.977-2.604,15.515-5.299
	c4.792-2.821,8.59-6.727,10.543-11.845c1.248-3.327,1.717-7.088,1.121-11.338c2.947-2.531,5.931-5.425,8.86-8.644
	c4.357,0.777,8.716,1.266,13.073,1.483c2.496,0.108,4.955,0.126,7.396,0.054l-0.146-4.937
	C324.963,391.897,322.611,391.88,320.279,391.771L320.279,391.771z"/>
<path fill="#F5E7D0" d="M281.926,38.545c11.029,31.063,18.537,107.7,19.529,130.75c1.012,23.05,2.51,21.552,12.041,21.046
	c9.511-0.506,10.503-4.513,10.503-4.513s-15.522-6.517-17.02-12.527c-1.518-6.01,7.002-10.523,2.51-12.526
	c-4.514-2.003-6.03-19.022-6.517-26.551c-0.506-7.508,5.504-9.511,0.992-14.53C299.451,114.696,290.446,50.565,281.926,38.545
	L281.926,38.545z"/>
<path fill="#F5E7D0" d="M169.957,182.186c3.035,0,13.579,3.298,12.931-3.076c-0.242-2.388-12.567-16.271-3.015-17.403
	c0.931-0.122-11.737-19.934-0.242-20.864c1.719-0.142-1.255-3.157,0.242-11.211c3.804-20.156,11.576-58.687,14.187-65.871
	C202.76,39.658,176.614,77.096,169.957,182.186L169.957,182.186z"/>
<path fill="#F5E7D0" d="M196.77,204.325c0.425-3.279,12.324,3.298,19.306,3.298c6.982,0,5.747,20.925,5.342,25.033
	c-0.404,4.108-6.981,0.83-9.045-4.917c-2.044-5.748-4.917-8.621-8.621-3.704C200.069,228.973,198.43,232.656,196.77,204.325
	L196.77,204.325z"/>
<path fill="#F5E7D0" d="M241.938,210.072c10.26,2.064,20.944,2.064,23.818,1.234c2.874-0.809,3.703,19.306,0,22.18
	s-4.107-11.919-4.917-15.603c-0.83-3.703-2.895,8.216-9.856,11.495C244.002,232.656,241.534,223.226,241.938,210.072
	L241.938,210.072z"/>
<g>
	<path fill="#FEFFEA" d="M106.47,194.821c-0.325,0-0.629-0.205-0.739-0.529c-0.139-0.409,0.08-0.853,0.488-0.992
		c0.299-0.102,0.6-0.201,0.903-0.298c0.411-0.131,0.851,0.095,0.982,0.505s-0.094,0.851-0.505,0.982
		c-0.294,0.095-0.586,0.191-0.876,0.29C106.639,194.808,106.554,194.821,106.47,194.821z"/>
	<path fill="#FEFFEA" d="M255.564,203.083c-0.487,0-0.977-0.002-1.469-0.005c-0.431-0.003-0.778-0.355-0.775-0.787
		c0.003-0.43,0.353-0.775,0.781-0.775c0.002,0,0.004,0,0.006,0c0.5,0.003,1,0.006,1.495,0.005l0.364,0c0,0,0,0,0.001,0
		c0.431,0,0.781,0.349,0.781,0.779c0.001,0.432-0.348,0.782-0.779,0.783l-0.366,0C255.591,203.083,255.577,203.083,255.564,203.083z
		 M259.855,203.037c-0.424,0-0.771-0.338-0.78-0.764c-0.01-0.431,0.332-0.789,0.764-0.798c0.611-0.014,1.231-0.03,1.859-0.05
		c0.429-0.009,0.792,0.325,0.806,0.756s-0.325,0.792-0.757,0.806c-0.633,0.02-1.258,0.037-1.874,0.051
		C259.867,203.037,259.861,203.037,259.855,203.037z M250.212,203.017c-0.006,0-0.012,0-0.019,0
		c-0.622-0.015-1.245-0.032-1.872-0.051c-0.432-0.014-0.77-0.374-0.757-0.805c0.014-0.432,0.377-0.768,0.806-0.756
		c0.622,0.02,1.242,0.037,1.86,0.051c0.432,0.01,0.772,0.368,0.762,0.799C250.983,202.679,250.636,203.017,250.212,203.017z
		 M265.611,202.829c-0.414,0-0.759-0.325-0.779-0.743c-0.021-0.431,0.312-0.797,0.742-0.818c0.613-0.03,1.233-0.062,1.86-0.097
		c0.429-0.022,0.799,0.307,0.822,0.737c0.024,0.431-0.306,0.799-0.737,0.823c-0.629,0.035-1.252,0.067-1.87,0.097
		C265.638,202.829,265.624,202.829,265.611,202.829z M244.461,202.815c-0.012,0-0.024,0-0.036,0
		c-0.622-0.028-1.245-0.059-1.87-0.091c-0.431-0.022-0.762-0.39-0.74-0.82s0.393-0.763,0.82-0.739
		c0.622,0.032,1.242,0.062,1.86,0.09c0.431,0.02,0.765,0.385,0.745,0.815C245.222,202.488,244.875,202.815,244.461,202.815z
		 M238.713,202.5c-0.017,0-0.033,0-0.05-0.002c-0.621-0.04-1.243-0.081-1.867-0.124c-0.43-0.03-0.755-0.403-0.725-0.833
		c0.03-0.43,0.402-0.756,0.833-0.725c0.621,0.043,1.24,0.084,1.858,0.124c0.43,0.028,0.757,0.399,0.729,0.83
		C239.466,202.182,239.123,202.5,238.713,202.5z M271.361,202.494c-0.408,0-0.751-0.316-0.778-0.729
		c-0.029-0.43,0.296-0.802,0.727-0.832c0.615-0.041,1.235-0.084,1.859-0.13c0.436-0.031,0.805,0.293,0.835,0.723
		c0.031,0.43-0.292,0.804-0.723,0.835c-0.627,0.045-1.249,0.089-1.867,0.13C271.396,202.494,271.379,202.494,271.361,202.494z
		 M232.972,202.086c-0.021,0-0.042,0-0.063-0.002c-0.623-0.05-1.246-0.101-1.871-0.153c-0.429-0.037-0.749-0.414-0.713-0.844
		c0.036-0.43,0.413-0.748,0.844-0.712c0.622,0.052,1.243,0.104,1.863,0.153c0.43,0.034,0.75,0.41,0.717,0.84
		C233.717,201.776,233.375,202.086,232.972,202.086z M277.105,202.066c-0.403,0-0.745-0.31-0.778-0.718
		c-0.035-0.43,0.285-0.807,0.716-0.841c0.615-0.05,1.235-0.102,1.858-0.155c0.43-0.036,0.808,0.282,0.844,0.712
		c0.037,0.43-0.282,0.808-0.712,0.844c-0.625,0.053-1.246,0.105-1.864,0.155C277.147,202.065,277.126,202.066,277.105,202.066z
		 M227.228,201.589c-0.024,0-0.048-0.001-0.073-0.003c-0.622-0.058-1.243-0.117-1.865-0.178c-0.43-0.042-0.744-0.423-0.702-0.853
		c0.042-0.429,0.426-0.744,0.854-0.702c0.62,0.06,1.24,0.119,1.858,0.177c0.43,0.04,0.746,0.42,0.706,0.85
		C227.967,201.285,227.626,201.589,227.228,201.589z M282.843,201.569c-0.399,0-0.739-0.304-0.776-0.709
		c-0.04-0.43,0.276-0.81,0.706-0.85c0.617-0.056,1.236-0.114,1.857-0.173c0.431-0.042,0.81,0.274,0.851,0.704
		c0.041,0.43-0.275,0.811-0.704,0.852c-0.622,0.059-1.242,0.117-1.861,0.173C282.891,201.567,282.867,201.569,282.843,201.569z
		 M221.494,201.021c-0.027,0-0.055-0.001-0.083-0.004c-0.62-0.065-1.24-0.131-1.86-0.198c-0.429-0.047-0.739-0.432-0.693-0.861
		c0.047-0.429,0.432-0.74,0.861-0.692c0.618,0.066,1.237,0.133,1.854,0.198c0.429,0.044,0.74,0.429,0.696,0.858
		C222.228,200.723,221.888,201.021,221.494,201.021z M288.576,201.019c-0.397,0-0.737-0.301-0.777-0.703
		c-0.042-0.43,0.271-0.813,0.7-0.855c0.616-0.062,1.232-0.124,1.851-0.187c0.429-0.044,0.813,0.269,0.856,0.698
		c0.043,0.429-0.269,0.813-0.698,0.856c-0.619,0.063-1.237,0.125-1.854,0.187C288.628,201.017,288.602,201.019,288.576,201.019z
		 M294.294,200.429c-0.395,0-0.733-0.298-0.775-0.699c-0.046-0.429,0.265-0.814,0.694-0.859c0.618-0.065,1.236-0.132,1.855-0.198
		c0.429-0.045,0.814,0.264,0.86,0.693c0.046,0.429-0.264,0.814-0.693,0.86c-0.62,0.067-1.239,0.133-1.858,0.198
		C294.349,200.428,294.321,200.429,294.294,200.429z M215.771,200.392c-0.03,0-0.06-0.002-0.09-0.005
		c-0.618-0.071-1.237-0.143-1.855-0.215c-0.428-0.051-0.735-0.439-0.684-0.867c0.05-0.429,0.437-0.735,0.867-0.685
		c0.616,0.073,1.233,0.145,1.851,0.215c0.429,0.05,0.736,0.437,0.688,0.865C216.5,200.098,216.163,200.392,215.771,200.392z
		 M300.021,199.808c-0.393,0-0.73-0.295-0.774-0.695c-0.048-0.429,0.262-0.815,0.69-0.862c0.621-0.068,1.242-0.137,1.861-0.207
		c0.43-0.047,0.815,0.261,0.863,0.689c0.048,0.429-0.262,0.815-0.689,0.863c-0.621,0.07-1.242,0.138-1.863,0.207
		C300.08,199.807,300.051,199.808,300.021,199.808z M210.06,199.711c-0.033,0-0.064-0.002-0.097-0.006
		c-0.618-0.076-1.235-0.153-1.851-0.23c-0.428-0.054-0.731-0.444-0.678-0.873c0.054-0.428,0.445-0.73,0.873-0.677
		c0.615,0.077,1.231,0.154,1.847,0.23c0.429,0.052,0.733,0.442,0.681,0.871C210.784,199.421,210.448,199.711,210.06,199.711z
		 M305.752,199.166c-0.393,0-0.729-0.294-0.775-0.693c-0.049-0.428,0.26-0.815,0.688-0.864l1.855-0.211
		c0.429-0.049,0.815,0.259,0.864,0.688c0.049,0.428-0.26,0.815-0.688,0.864l-1.856,0.211
		C305.812,199.165,305.781,199.166,305.752,199.166z M204.357,198.988c-0.034,0-0.068-0.002-0.102-0.007
		c-0.62-0.08-1.236-0.162-1.853-0.243c-0.428-0.057-0.729-0.449-0.672-0.877c0.057-0.428,0.449-0.728,0.877-0.671
		c0.615,0.081,1.231,0.162,1.849,0.243c0.428,0.056,0.73,0.448,0.673,0.875C205.079,198.701,204.743,198.988,204.357,198.988z
		 M311.475,198.512c-0.392,0-0.73-0.294-0.775-0.692c-0.05-0.429,0.258-0.816,0.687-0.865l1.855-0.213
		c0.428-0.05,0.815,0.258,0.865,0.687c0.05,0.428-0.259,0.815-0.688,0.865l-1.855,0.213
		C311.533,198.511,311.504,198.512,311.475,198.512z M198.651,198.228c-0.036,0-0.071-0.002-0.107-0.007
		c-0.618-0.084-1.235-0.169-1.851-0.253c-0.427-0.059-0.726-0.453-0.667-0.88c0.059-0.427,0.452-0.726,0.88-0.667
		c0.615,0.084,1.231,0.169,1.849,0.253c0.427,0.058,0.727,0.452,0.668,0.879C199.371,197.943,199.036,198.228,198.651,198.228z
		 M317.195,197.855c-0.391,0-0.729-0.294-0.774-0.692c-0.049-0.429,0.258-0.816,0.687-0.865l1.856-0.212
		c0.428-0.05,0.815,0.259,0.865,0.688c0.048,0.429-0.26,0.815-0.688,0.865l-1.854,0.212
		C317.256,197.853,317.226,197.855,317.195,197.855z M192.949,197.438c-0.036,0-0.072-0.002-0.109-0.008
		c-0.619-0.086-1.235-0.173-1.849-0.26c-0.427-0.061-0.725-0.456-0.664-0.883c0.06-0.427,0.456-0.725,0.882-0.664
		c0.614,0.086,1.23,0.173,1.848,0.26c0.428,0.06,0.725,0.455,0.666,0.882C193.667,197.156,193.333,197.438,192.949,197.438z
		 M322.919,197.204c-0.393,0-0.73-0.295-0.775-0.694c-0.049-0.429,0.26-0.815,0.688-0.864c0.624-0.07,1.243-0.14,1.857-0.208
		c0.425-0.048,0.814,0.261,0.862,0.69s-0.261,0.815-0.689,0.863c-0.614,0.068-1.232,0.138-1.855,0.208
		C322.978,197.202,322.948,197.204,322.919,197.204z M187.25,196.629c-0.037,0-0.074-0.002-0.112-0.008l-1.848-0.265
		c-0.427-0.062-0.724-0.458-0.662-0.884c0.061-0.427,0.458-0.724,0.884-0.662l1.848,0.265c0.427,0.062,0.724,0.457,0.663,0.884
		C187.966,196.349,187.632,196.629,187.25,196.629z M328.645,196.571c-0.395,0-0.733-0.297-0.776-0.697
		c-0.047-0.429,0.264-0.814,0.692-0.86c0.627-0.068,1.246-0.134,1.859-0.199c0.431-0.046,0.813,0.266,0.858,0.695
		c0.046,0.429-0.266,0.813-0.694,0.859c-0.612,0.064-1.23,0.131-1.855,0.198C328.7,196.569,328.672,196.571,328.645,196.571z
		 M376.371,196.068c-0.078,0-0.157-0.012-0.235-0.037c-0.538-0.17-1.122-0.324-1.735-0.459c-0.422-0.092-0.688-0.509-0.595-0.93
		c0.092-0.421,0.509-0.688,0.93-0.596c0.659,0.145,1.288,0.312,1.871,0.496c0.412,0.129,0.64,0.568,0.509,0.979
		C377.011,195.855,376.703,196.068,376.371,196.068z M334.373,195.974c-0.396,0-0.735-0.301-0.775-0.704
		c-0.043-0.429,0.27-0.812,0.699-0.854c0.63-0.063,1.252-0.124,1.862-0.182c0.43-0.041,0.811,0.274,0.852,0.703
		c0.041,0.43-0.273,0.811-0.703,0.852c-0.608,0.058-1.228,0.119-1.855,0.181C334.426,195.973,334.399,195.974,334.373,195.974z
		 M181.552,195.809c-0.037,0-0.075-0.002-0.113-0.008l-1.848-0.267c-0.427-0.062-0.724-0.458-0.662-0.884
		c0.062-0.427,0.457-0.723,0.885-0.662l1.848,0.267c0.427,0.062,0.723,0.458,0.662,0.885
		C182.268,195.529,181.934,195.809,181.552,195.809z M340.109,195.441c-0.401,0-0.743-0.308-0.777-0.715
		c-0.036-0.43,0.282-0.808,0.713-0.844c0.637-0.054,1.26-0.105,1.867-0.152c0.428-0.034,0.806,0.289,0.84,0.718
		c0.033,0.43-0.289,0.806-0.719,0.839c-0.604,0.046-1.224,0.097-1.856,0.151C340.154,195.44,340.132,195.441,340.109,195.441z
		 M345.856,195.028c-0.411,0-0.756-0.322-0.779-0.738c-0.023-0.431,0.306-0.8,0.737-0.824c0.656-0.037,1.289-0.067,1.878-0.091
		c0.426-0.021,0.794,0.318,0.812,0.749c0.018,0.431-0.318,0.794-0.75,0.812c-0.58,0.023-1.203,0.054-1.854,0.089
		C345.886,195.027,345.871,195.028,345.856,195.028z M370.729,195.006c-0.026,0-0.053-0.002-0.079-0.004
		c-0.575-0.058-1.192-0.108-1.833-0.15c-0.43-0.028-0.757-0.399-0.728-0.83c0.027-0.431,0.398-0.756,0.829-0.729
		c0.659,0.043,1.294,0.095,1.887,0.154c0.43,0.042,0.742,0.425,0.699,0.854C371.464,194.705,371.124,195.006,370.729,195.006z
		 M175.854,194.987c-0.037,0-0.074-0.002-0.112-0.007l-1.847-0.265c-0.428-0.061-0.724-0.457-0.663-0.884
		c0.061-0.427,0.457-0.723,0.884-0.663l1.849,0.265c0.427,0.062,0.724,0.458,0.662,0.885
		C176.57,194.707,176.236,194.987,175.854,194.987z M351.61,194.831c-0.423,0-0.771-0.338-0.78-0.762
		c-0.011-0.432,0.33-0.79,0.762-0.8c0.635-0.015,1.257-0.03,1.867-0.043c0.427-0.012,0.789,0.332,0.798,0.763
		c0.011,0.431-0.332,0.789-0.764,0.798c-0.608,0.014-1.23,0.029-1.864,0.043C351.623,194.831,351.616,194.831,351.61,194.831z
		 M357.363,194.71c-0.425,0-0.773-0.342-0.78-0.769c-0.007-0.431,0.337-0.786,0.769-0.793c0.638-0.011,1.261-0.02,1.87-0.026
		c0.002,0,0.005,0,0.008,0c0.428,0,0.776,0.344,0.781,0.772c0.005,0.432-0.341,0.785-0.772,0.79
		c-0.606,0.007-1.227,0.016-1.861,0.026C357.372,194.71,357.368,194.71,357.363,194.71z M364.983,194.697c-0.005,0-0.011,0-0.016,0
		c-0.584-0.012-1.209-0.02-1.855-0.024c-0.431-0.003-0.778-0.355-0.776-0.786c0.003-0.43,0.353-0.776,0.781-0.776
		c0.002,0,0.004,0,0.006,0c0.653,0.004,1.285,0.013,1.876,0.025c0.432,0.008,0.773,0.365,0.766,0.796
		C365.756,194.357,365.407,194.697,364.983,194.697z M170.156,194.18c-0.036,0-0.072-0.002-0.108-0.007
		c-0.616-0.085-1.23-0.169-1.844-0.252c-0.428-0.058-0.728-0.451-0.67-0.878c0.058-0.428,0.451-0.728,0.878-0.67
		c0.616,0.083,1.232,0.167,1.85,0.252c0.428,0.059,0.727,0.454,0.667,0.881C170.875,193.897,170.54,194.18,170.156,194.18z
		 M111.099,193.468c-0.35,0-0.669-0.238-0.757-0.593c-0.104-0.419,0.151-0.842,0.57-0.946c0.603-0.15,1.221-0.293,1.84-0.428
		c0.421-0.092,0.837,0.175,0.93,0.597c0.092,0.421-0.176,0.838-0.597,0.93c-0.604,0.131-1.208,0.272-1.795,0.418
		C111.225,193.46,111.162,193.468,111.099,193.468z M164.454,193.422c-0.032,0-0.065-0.002-0.1-0.006
		c-0.617-0.079-1.232-0.155-1.847-0.231c-0.428-0.053-0.732-0.442-0.68-0.871s0.442-0.733,0.87-0.68
		c0.617,0.075,1.235,0.153,1.854,0.232c0.428,0.054,0.73,0.445,0.676,0.873C165.178,193.134,164.842,193.422,164.454,193.422z
		 M158.745,192.734c-0.029,0-0.059-0.001-0.088-0.005c-0.618-0.07-1.234-0.138-1.849-0.204c-0.429-0.046-0.739-0.432-0.693-0.861
		c0.046-0.429,0.431-0.738,0.86-0.692c0.617,0.066,1.237,0.135,1.857,0.205c0.429,0.048,0.737,0.435,0.688,0.864
		C159.475,192.44,159.137,192.734,158.745,192.734z M116.737,192.321c-0.376,0-0.708-0.272-0.771-0.656
		c-0.069-0.426,0.221-0.828,0.646-0.896c0.609-0.099,1.236-0.193,1.864-0.28c0.427-0.059,0.822,0.24,0.881,0.667
		c0.059,0.427-0.239,0.822-0.667,0.881c-0.615,0.085-1.23,0.178-1.828,0.275C116.82,192.318,116.778,192.321,116.737,192.321z
		 M153.026,192.136c-0.024,0-0.05-0.002-0.075-0.004c-0.619-0.059-1.236-0.116-1.851-0.171c-0.43-0.039-0.747-0.417-0.709-0.847
		c0.039-0.43,0.417-0.747,0.848-0.709c0.618,0.055,1.239,0.112,1.861,0.172c0.43,0.041,0.744,0.423,0.703,0.852
		C153.764,191.833,153.424,192.136,153.026,192.136z M147.297,191.649c-0.02,0-0.039-0.001-0.058-0.002
		c-0.621-0.046-1.24-0.089-1.855-0.129c-0.431-0.028-0.756-0.4-0.729-0.831c0.028-0.43,0.399-0.757,0.831-0.729
		c0.621,0.041,1.243,0.084,1.868,0.131c0.43,0.031,0.753,0.406,0.722,0.836C148.044,191.336,147.702,191.649,147.297,191.649z
		 M122.444,191.596c-0.398,0-0.739-0.303-0.777-0.707c-0.041-0.43,0.274-0.811,0.704-0.852c0.614-0.058,1.244-0.112,1.873-0.159
		c0.43-0.034,0.805,0.29,0.838,0.72c0.033,0.43-0.29,0.805-0.72,0.838c-0.619,0.047-1.239,0.1-1.844,0.157
		C122.494,191.595,122.469,191.596,122.444,191.596z M141.553,191.299c-0.012,0-0.024,0-0.037,0
		c-0.622-0.029-1.241-0.055-1.857-0.078c-0.431-0.016-0.768-0.378-0.752-0.81c0.016-0.431,0.375-0.77,0.81-0.751
		c0.621,0.023,1.246,0.049,1.872,0.079c0.431,0.021,0.764,0.386,0.744,0.817C142.313,190.973,141.968,191.299,141.553,191.299z
		 M128.182,191.212c-0.417,0-0.762-0.329-0.78-0.749c-0.018-0.431,0.317-0.794,0.749-0.812c0.613-0.025,1.244-0.046,1.875-0.063
		c0.426-0.007,0.79,0.329,0.801,0.761c0.011,0.431-0.329,0.79-0.761,0.801c-0.624,0.016-1.247,0.037-1.852,0.062
		C128.204,191.212,128.193,191.212,128.182,191.212z M135.801,191.12c-0.004,0-0.007,0-0.011,0
		c-0.619-0.009-1.244-0.014-1.857-0.015c-0.431-0.001-0.78-0.352-0.779-0.783c0.001-0.431,0.351-0.779,0.781-0.779
		c0,0,0.001,0,0.001,0c0.619,0.001,1.25,0.006,1.875,0.015c0.432,0.006,0.776,0.361,0.771,0.792
		C136.576,190.777,136.227,191.12,135.801,191.12z"/>
	<path fill="#FEFFEA" d="M380.57,198.211c-0.17,0-0.34-0.055-0.483-0.167c-0.225-0.177-0.463-0.349-0.706-0.509
		c-0.36-0.238-0.459-0.722-0.223-1.083c0.238-0.36,0.723-0.459,1.083-0.222c0.279,0.185,0.553,0.382,0.813,0.586
		c0.339,0.267,0.397,0.758,0.131,1.097C381.03,198.109,380.801,198.211,380.57,198.211z"/>
</g>
<path fill="#FEFFEA" d="M299.578,235.648c-0.172,0-0.345-0.056-0.489-0.172c-0.336-0.27-0.39-0.762-0.12-1.098l1.173-1.462
	c0.271-0.337,0.762-0.391,1.098-0.121c0.337,0.27,0.391,0.762,0.121,1.098l-1.173,1.462
	C300.033,235.547,299.807,235.648,299.578,235.648z M299.222,232.758c-0.432,0-0.782-0.349-0.782-0.781v-1.875
	c0-0.432,0.351-0.781,0.782-0.781s0.78,0.35,0.78,0.781v1.875C300.002,232.409,299.653,232.758,299.222,232.758z M303.193,231.139
	c-0.171,0-0.344-0.056-0.487-0.172c-0.337-0.27-0.391-0.761-0.121-1.098l1.173-1.462c0.27-0.337,0.762-0.391,1.098-0.121
	c0.337,0.27,0.391,0.761,0.121,1.098l-1.173,1.463C303.649,231.039,303.423,231.139,303.193,231.139z M329.607,230.108
	c-0.206,0-0.412-0.082-0.565-0.243l-1.292-1.359c-0.297-0.313-0.284-0.807,0.028-1.104c0.313-0.297,0.807-0.284,1.104,0.029
	l0.987,1.039c-0.006-0.034-0.011-0.069-0.013-0.105l-0.106-1.872c-0.024-0.431,0.305-0.8,0.735-0.824
	c0.426-0.026,0.8,0.305,0.824,0.735l0.106,1.872c0.024,0.431-0.305,0.8-0.735,0.825c-0.122,0.007-0.241-0.015-0.348-0.06
	c0.114,0.288,0.05,0.627-0.188,0.853C329.994,230.037,329.801,230.108,329.607,230.108z M299.222,226.978
	c-0.432,0-0.782-0.35-0.782-0.781v-1.875c0-0.431,0.351-0.781,0.782-0.781s0.78,0.35,0.78,0.781v1.875
	C300.002,226.628,299.653,226.978,299.222,226.978z M306.81,226.629c-0.171,0-0.344-0.056-0.487-0.172
	c-0.337-0.27-0.392-0.761-0.121-1.098l1.173-1.462c0.271-0.336,0.762-0.391,1.098-0.121c0.337,0.27,0.392,0.761,0.121,1.098
	l-1.173,1.462C307.266,226.529,307.039,226.629,306.81,226.629z M325.627,225.917c-0.206,0-0.413-0.082-0.566-0.243l-1.291-1.359
	c-0.297-0.313-0.285-0.807,0.028-1.104c0.313-0.297,0.808-0.285,1.104,0.028l1.292,1.359c0.297,0.313,0.284,0.807-0.028,1.104
	C326.014,225.847,325.819,225.917,325.627,225.917z M330.309,223.331c-0.411,0-0.756-0.321-0.779-0.737l-0.106-1.872
	c-0.024-0.43,0.306-0.799,0.736-0.824c0.428-0.024,0.799,0.305,0.823,0.736l0.107,1.872c0.023,0.431-0.306,0.8-0.736,0.824
	C330.339,223.33,330.323,223.331,330.309,223.331z M310.427,222.121c-0.172,0-0.345-0.056-0.488-0.172
	c-0.337-0.27-0.391-0.762-0.121-1.098l1.173-1.462c0.271-0.336,0.762-0.39,1.098-0.121c0.337,0.27,0.391,0.762,0.121,1.098
	l-1.173,1.462C310.882,222.021,310.655,222.121,310.427,222.121z M321.646,221.727c-0.207,0-0.413-0.082-0.567-0.243l-1.291-1.359
	c-0.297-0.313-0.284-0.807,0.029-1.104c0.312-0.297,0.807-0.284,1.104,0.028l1.291,1.359c0.298,0.313,0.284,0.807-0.028,1.104
	C322.032,221.656,321.839,221.727,321.646,221.727z M299.222,221.198c-0.432,0-0.782-0.35-0.782-0.781v-1.875
	c0-0.431,0.351-0.781,0.782-0.781s0.78,0.35,0.78,0.781v1.875C300.002,220.848,299.653,221.198,299.222,221.198z M314.042,217.611
	c-0.171,0-0.344-0.056-0.487-0.172c-0.337-0.27-0.391-0.761-0.121-1.098l1.173-1.463c0.27-0.336,0.762-0.39,1.099-0.12
	c0.037,0.03,0.071,0.063,0.103,0.099c0.009-0.01,0.019-0.019,0.027-0.028c0.313-0.297,0.808-0.285,1.105,0.028l1.291,1.359
	c0.297,0.312,0.284,0.807-0.029,1.104c-0.313,0.297-0.807,0.284-1.104-0.028l-1.291-1.359c-0.009-0.008-0.017-0.017-0.024-0.026
	l-1.131,1.411C314.498,217.511,314.271,217.611,314.042,217.611z M329.98,217.56c-0.41,0-0.755-0.321-0.779-0.737l-0.106-1.872
	c-0.023-0.431,0.306-0.8,0.736-0.824c0.425-0.024,0.799,0.305,0.823,0.735l0.107,1.872c0.024,0.43-0.306,0.799-0.736,0.824
	C330.011,217.559,329.995,217.56,329.98,217.56z M299.222,215.418c-0.432,0-0.782-0.35-0.782-0.781v-1.875
	c0-0.431,0.351-0.781,0.782-0.781s0.78,0.35,0.78,0.781v1.875C300.002,215.068,299.653,215.418,299.222,215.418z M313.684,213.346
	c-0.206,0-0.413-0.082-0.566-0.243l-1.291-1.359c-0.297-0.313-0.284-0.808,0.028-1.105c0.313-0.297,0.808-0.284,1.104,0.029
	l1.291,1.359c0.297,0.313,0.284,0.807-0.028,1.104C314.071,213.274,313.877,213.346,313.684,213.346z M317.659,213.102
	c-0.172,0-0.345-0.056-0.489-0.172c-0.336-0.27-0.39-0.761-0.12-1.098l1.173-1.462c0.271-0.336,0.762-0.391,1.098-0.121
	c0.337,0.27,0.391,0.761,0.121,1.098l-1.173,1.462C318.114,213.002,317.888,213.102,317.659,213.102z M329.652,211.789
	c-0.41,0-0.755-0.321-0.779-0.736l-0.105-1.872c-0.024-0.431,0.305-0.8,0.735-0.825c0.427-0.024,0.8,0.305,0.824,0.736l0.106,1.872
	c0.024,0.431-0.305,0.8-0.735,0.824C329.683,211.788,329.668,211.789,329.652,211.789z M299.222,209.638
	c-0.432,0-0.782-0.35-0.782-0.781v-1.874c0-0.432,0.351-0.782,0.782-0.782s0.78,0.35,0.78,0.782v1.874
	C300.002,209.288,299.653,209.638,299.222,209.638z M309.703,209.155c-0.207,0-0.413-0.082-0.567-0.243l-1.291-1.359
	c-0.297-0.313-0.284-0.807,0.029-1.104c0.313-0.297,0.807-0.285,1.104,0.028l1.291,1.359c0.298,0.313,0.284,0.807-0.028,1.104
	C310.09,209.084,309.896,209.155,309.703,209.155z M321.274,208.593c-0.171,0-0.343-0.056-0.487-0.172
	c-0.337-0.27-0.391-0.762-0.121-1.098l1.173-1.462c0.27-0.336,0.762-0.391,1.098-0.121c0.337,0.27,0.391,0.761,0.121,1.098
	l-1.173,1.462C321.73,208.493,321.504,208.593,321.274,208.593z M329.325,206.018c-0.412,0-0.756-0.321-0.779-0.737l-0.106-1.872
	c-0.024-0.431,0.305-0.8,0.736-0.824c0.424-0.026,0.799,0.305,0.823,0.736l0.106,1.872c0.024,0.43-0.305,0.799-0.735,0.824
	C329.355,206.018,329.34,206.018,329.325,206.018z M305.722,204.965c-0.207,0-0.413-0.082-0.566-0.243l-1.291-1.359
	c-0.298-0.313-0.284-0.807,0.028-1.104s0.807-0.284,1.104,0.028l1.291,1.359c0.297,0.313,0.284,0.807-0.028,1.104
	C306.108,204.894,305.915,204.965,305.722,204.965z M324.892,204.084c-0.172,0-0.345-0.056-0.489-0.172
	c-0.336-0.27-0.39-0.761-0.12-1.098l1.173-1.463c0.271-0.336,0.762-0.39,1.098-0.12c0.337,0.27,0.391,0.761,0.121,1.098
	l-1.173,1.462C325.347,203.984,325.12,204.084,324.892,204.084z M299.222,203.858c-0.432,0-0.782-0.35-0.782-0.781v-1.875
	c0-0.432,0.351-0.781,0.782-0.781s0.78,0.35,0.78,0.781v1.875C300.002,203.508,299.653,203.858,299.222,203.858z M328.997,200.247
	c-0.408,0-0.751-0.316-0.778-0.728c-0.07-0.028-0.138-0.067-0.199-0.116c-0.337-0.27-0.391-0.762-0.12-1.098l1.694-2.114
	l0.184,3.231c0.025,0.431-0.305,0.799-0.735,0.824C329.027,200.247,329.012,200.247,328.997,200.247z"/>
<path fill="#FEFFEA" d="M187.05,231.058c-0.012,0-0.023,0-0.035-0.001c-0.432-0.019-0.765-0.384-0.746-0.815l0.083-1.873
	c0.019-0.431,0.384-0.767,0.814-0.746c0.431,0.02,0.766,0.384,0.746,0.815l-0.083,1.873
	C187.811,230.73,187.465,231.058,187.05,231.058z M185.484,230.384c-0.24,0-0.477-0.11-0.629-0.317l-1.112-1.509
	c-0.256-0.348-0.183-0.836,0.165-1.093c0.348-0.255,0.836-0.182,1.092,0.165l1.113,1.509c0.256,0.348,0.182,0.836-0.166,1.092
	C185.808,230.334,185.645,230.384,185.484,230.384z M157.345,226.256c-0.012,0-0.024,0-0.037,0c-0.431-0.02-0.764-0.385-0.745-0.816
	l0.085-1.872c0.02-0.431,0.387-0.767,0.816-0.745c0.431,0.02,0.764,0.385,0.745,0.816l-0.085,1.873
	C158.105,225.93,157.759,226.256,157.345,226.256z M159.136,225.977c-0.213,0-0.425-0.086-0.579-0.257
	c-0.29-0.319-0.266-0.813,0.054-1.103l1.389-1.259c0.32-0.29,0.814-0.265,1.104,0.054c0.29,0.32,0.265,0.814-0.055,1.104
	l-1.389,1.259C159.51,225.91,159.322,225.977,159.136,225.977z M182.053,225.731c-0.239,0-0.476-0.109-0.629-0.317l-1.112-1.509
	c-0.256-0.347-0.182-0.836,0.165-1.092c0.348-0.256,0.836-0.182,1.093,0.165l1.112,1.509c0.256,0.347,0.183,0.836-0.165,1.092
	C182.377,225.682,182.215,225.731,182.053,225.731z M187.307,225.283c-0.013,0-0.024,0-0.036-0.001
	c-0.431-0.019-0.765-0.384-0.746-0.815l0.083-1.873c0.02-0.431,0.386-0.763,0.815-0.746c0.431,0.02,0.764,0.384,0.745,0.815
	l-0.083,1.873C188.067,224.956,187.722,225.283,187.307,225.283z M163.419,222.096c-0.213,0-0.425-0.086-0.579-0.256
	c-0.29-0.32-0.266-0.813,0.054-1.103l1.389-1.259c0.32-0.29,0.813-0.265,1.103,0.055c0.29,0.319,0.266,0.813-0.054,1.103
	l-1.39,1.259C163.794,222.029,163.606,222.096,163.419,222.096z M178.624,221.08c-0.24,0-0.477-0.11-0.629-0.317l-1.112-1.509
	c-0.256-0.348-0.183-0.836,0.164-1.093c0.348-0.255,0.836-0.182,1.093,0.166l1.113,1.508c0.255,0.347,0.182,0.836-0.166,1.092
	C178.946,221.03,178.784,221.08,178.624,221.08z M157.607,220.482c-0.012,0-0.024,0-0.036-0.001
	c-0.432-0.02-0.765-0.385-0.745-0.816l0.085-1.873c0.02-0.431,0.385-0.768,0.816-0.745c0.431,0.02,0.764,0.385,0.745,0.816
	l-0.085,1.873C158.369,220.155,158.022,220.482,157.607,220.482z M187.563,219.509c-0.012,0-0.023,0-0.036,0
	c-0.431-0.02-0.765-0.384-0.746-0.815l0.083-1.873c0.02-0.431,0.384-0.766,0.815-0.746c0.431,0.019,0.765,0.384,0.746,0.815
	l-0.083,1.873C188.325,219.182,187.979,219.509,187.563,219.509z M167.703,218.215c-0.212,0-0.425-0.086-0.579-0.256
	c-0.29-0.32-0.265-0.814,0.055-1.104l1.389-1.259c0.32-0.29,0.814-0.265,1.104,0.055c0.29,0.319,0.266,0.814-0.054,1.104
	l-1.39,1.258C168.078,218.149,167.89,218.215,167.703,218.215z M175.193,216.427c-0.24,0-0.476-0.11-0.629-0.317l-1.112-1.509
	c-0.256-0.347-0.182-0.836,0.165-1.092c0.347-0.256,0.836-0.182,1.092,0.165l1.113,1.509c0.256,0.348,0.182,0.836-0.166,1.092
	C175.517,216.378,175.354,216.427,175.193,216.427z M157.871,214.708c-0.012,0-0.024,0-0.036,0c-0.431-0.02-0.764-0.385-0.745-0.816
	l0.085-1.873c0.02-0.431,0.388-0.765,0.815-0.745c0.431,0.02,0.765,0.385,0.745,0.816l-0.085,1.872
	C158.631,214.381,158.286,214.708,157.871,214.708z M171.986,214.335c-0.212,0-0.425-0.086-0.579-0.257
	c-0.29-0.32-0.265-0.813,0.055-1.104l1.389-1.258c0.32-0.29,0.814-0.265,1.104,0.055s0.266,0.813-0.054,1.103l-1.39,1.258
	C172.361,214.268,172.174,214.335,171.986,214.335z M187.82,213.734c-0.012,0-0.023,0-0.035,0c-0.431-0.02-0.766-0.384-0.746-0.815
	l0.083-1.873c0.019-0.431,0.384-0.766,0.814-0.746c0.431,0.019,0.765,0.384,0.746,0.815l-0.083,1.873
	C188.581,213.407,188.235,213.734,187.82,213.734z M171.762,211.775c-0.239,0-0.476-0.11-0.629-0.317l-1.113-1.509
	c-0.256-0.347-0.182-0.836,0.165-1.092c0.348-0.255,0.836-0.182,1.093,0.166l1.113,1.508c0.255,0.348,0.181,0.836-0.166,1.092
	C172.086,211.726,171.924,211.775,171.762,211.775z M176.27,210.454c-0.212,0-0.425-0.086-0.579-0.256
	c-0.29-0.32-0.265-0.814,0.055-1.104l1.389-1.258c0.32-0.29,0.814-0.266,1.104,0.054s0.266,0.814-0.054,1.104l-1.39,1.258
	C176.646,210.387,176.458,210.454,176.27,210.454z M158.134,208.934c-0.012,0-0.024,0-0.036,0c-0.431-0.02-0.764-0.385-0.745-0.816
	l0.085-1.873c0.02-0.431,0.387-0.765,0.815-0.745c0.431,0.02,0.765,0.385,0.745,0.816l-0.085,1.873
	C158.894,208.607,158.549,208.934,158.134,208.934z M188.077,207.96c-0.012,0-0.024,0-0.036,0c-0.431-0.02-0.765-0.384-0.746-0.815
	l0.083-1.873c0.019-0.431,0.388-0.764,0.815-0.746c0.431,0.019,0.764,0.384,0.745,0.815l-0.083,1.873
	C188.837,207.633,188.492,207.96,188.077,207.96z M168.332,207.123c-0.24,0-0.476-0.109-0.629-0.317l-1.112-1.509
	c-0.256-0.347-0.183-0.836,0.165-1.092c0.347-0.256,0.835-0.182,1.092,0.165l1.113,1.509c0.255,0.348,0.182,0.836-0.166,1.092
	C168.655,207.074,168.493,207.123,168.332,207.123z M180.554,206.574c-0.212,0-0.424-0.086-0.579-0.257
	c-0.29-0.32-0.265-0.813,0.055-1.103l1.389-1.259c0.32-0.29,0.814-0.265,1.104,0.054c0.29,0.32,0.266,0.814-0.054,1.104l-1.39,1.259
	C180.929,206.507,180.742,206.574,180.554,206.574z M158.397,203.16c-0.012,0-0.024,0-0.036-0.001
	c-0.431-0.02-0.764-0.385-0.745-0.815l0.085-1.873c0.02-0.431,0.386-0.765,0.816-0.745c0.431,0.02,0.764,0.385,0.745,0.816
	l-0.085,1.873C159.158,202.833,158.812,203.16,158.397,203.16z M184.838,202.693c-0.212,0-0.425-0.086-0.579-0.256
	c-0.29-0.32-0.265-0.813,0.055-1.104l1.389-1.258c0.319-0.29,0.813-0.265,1.103,0.054c0.29,0.32,0.266,0.814-0.054,1.104
	l-1.39,1.259C185.213,202.626,185.025,202.693,184.838,202.693z M164.902,202.471c-0.24,0-0.476-0.11-0.629-0.317l-1.113-1.509
	c-0.256-0.348-0.182-0.836,0.165-1.093c0.347-0.255,0.836-0.182,1.092,0.166l1.113,1.509c0.256,0.347,0.182,0.836-0.165,1.092
	C165.226,202.421,165.063,202.471,164.902,202.471z M188.333,202.186c-0.012,0-0.023,0-0.035,0
	c-0.431-0.019-0.765-0.384-0.745-0.815l0.083-1.873c0.019-0.431,0.385-0.767,0.815-0.746c0.431,0.019,0.765,0.384,0.746,0.815
	l-0.083,1.873C189.094,201.859,188.749,202.186,188.333,202.186z M161.472,197.819c-0.24,0-0.477-0.109-0.629-0.317l-1.113-1.509
	c-0.256-0.347-0.182-0.835,0.166-1.092c0.347-0.256,0.836-0.183,1.092,0.165l1.112,1.509c0.256,0.348,0.182,0.836-0.165,1.092
	C161.795,197.77,161.633,197.819,161.472,197.819z M158.66,197.386c-0.012,0-0.024,0-0.036-0.001
	c-0.431-0.02-0.765-0.385-0.745-0.815l0.085-1.873c0.02-0.431,0.387-0.765,0.815-0.745c0.431,0.02,0.765,0.385,0.745,0.815
	l-0.085,1.873C159.421,197.06,159.075,197.386,158.66,197.386z"/>
<path fill="#E6D3B3" d="M263.645,246.315c6.141,5.024,16.138-3.668,30.075-4.401s30.809,1.467,43.278-2.201
	c12.471-3.667,21.273,2.201,25.675,13.938c4.401,11.737,5.416-21.851,5.416-21.851s-30.221,1.797-59.704,4.063
	C278.901,238.13,255.575,239.713,263.645,246.315z"/>
<g>
	<path fill="#FEFFEA" d="M106.47,232.599c-0.325,0-0.629-0.205-0.739-0.529c-0.139-0.409,0.08-0.852,0.488-0.991
		c0.299-0.102,0.6-0.201,0.903-0.298c0.411-0.131,0.851,0.094,0.982,0.505c0.132,0.411-0.094,0.851-0.505,0.982
		c-0.294,0.094-0.586,0.191-0.876,0.29C106.639,232.585,106.554,232.599,106.47,232.599z"/>
	<path fill="#FEFFEA" d="M255.564,240.86c-0.487,0-0.977-0.002-1.469-0.005c-0.431-0.003-0.778-0.355-0.775-0.787
		c0.003-0.43,0.353-0.775,0.781-0.775c0.002,0,0.004,0,0.006,0c0.5,0.004,1,0.006,1.495,0.005h0.364c0,0,0,0,0.001,0
		c0.431,0,0.781,0.349,0.781,0.78c0.001,0.431-0.348,0.781-0.779,0.782h-0.366C255.591,240.86,255.577,240.86,255.564,240.86z
		 M259.855,240.814c-0.423,0-0.771-0.338-0.78-0.764c-0.01-0.431,0.332-0.788,0.764-0.798c0.611-0.014,1.231-0.03,1.859-0.051
		c0.429-0.012,0.792,0.325,0.805,0.756c0.015,0.432-0.324,0.792-0.756,0.806c-0.633,0.021-1.258,0.037-1.874,0.051
		C259.867,240.814,259.861,240.814,259.855,240.814z M250.212,240.794c-0.006,0-0.012,0-0.019,0
		c-0.622-0.015-1.245-0.032-1.872-0.052c-0.432-0.014-0.77-0.374-0.757-0.805c0.014-0.432,0.377-0.767,0.806-0.757
		c0.622,0.02,1.242,0.037,1.86,0.052c0.432,0.01,0.772,0.368,0.762,0.799C250.983,240.457,250.636,240.794,250.212,240.794z
		 M265.611,240.607c-0.414,0-0.759-0.325-0.779-0.743c-0.021-0.432,0.312-0.798,0.742-0.818c0.613-0.03,1.233-0.062,1.86-0.097
		c0.429-0.023,0.799,0.306,0.822,0.737c0.024,0.431-0.306,0.799-0.737,0.823c-0.629,0.034-1.252,0.066-1.87,0.097
		C265.637,240.606,265.624,240.607,265.611,240.607z M244.461,240.593c-0.012,0-0.024,0-0.036-0.001
		c-0.622-0.028-1.245-0.059-1.87-0.091c-0.431-0.022-0.762-0.39-0.74-0.82s0.393-0.764,0.82-0.74
		c0.622,0.032,1.242,0.063,1.86,0.091c0.431,0.02,0.765,0.385,0.745,0.816C245.222,240.266,244.875,240.593,244.461,240.593z
		 M238.713,240.277c-0.017,0-0.033-0.001-0.05-0.002c-0.621-0.04-1.243-0.081-1.867-0.124c-0.43-0.03-0.755-0.403-0.725-0.833
		c0.03-0.431,0.404-0.754,0.833-0.726c0.621,0.043,1.24,0.084,1.858,0.124c0.43,0.027,0.757,0.398,0.729,0.829
		C239.466,239.959,239.123,240.277,238.713,240.277z M271.361,240.271c-0.408,0-0.751-0.315-0.778-0.729
		c-0.029-0.431,0.296-0.803,0.727-0.832c0.615-0.041,1.235-0.084,1.859-0.129c0.436-0.031,0.805,0.292,0.835,0.723
		c0.031,0.43-0.292,0.804-0.723,0.835c-0.627,0.045-1.249,0.089-1.867,0.13C271.396,240.271,271.379,240.271,271.361,240.271z
		 M232.972,239.864c-0.021,0-0.042-0.001-0.063-0.003c-0.623-0.049-1.246-0.101-1.871-0.153c-0.429-0.036-0.749-0.414-0.713-0.844
		c0.036-0.43,0.413-0.748,0.844-0.713c0.622,0.053,1.243,0.104,1.863,0.153c0.43,0.034,0.75,0.411,0.717,0.84
		C233.717,239.554,233.375,239.864,232.972,239.864z M277.105,239.844c-0.403,0-0.745-0.31-0.778-0.718
		c-0.035-0.43,0.285-0.807,0.716-0.842c0.615-0.05,1.235-0.102,1.858-0.154c0.43-0.036,0.808,0.282,0.844,0.712
		c0.037,0.43-0.282,0.808-0.712,0.845c-0.625,0.053-1.246,0.104-1.864,0.155C277.147,239.843,277.126,239.844,277.105,239.844z
		 M227.228,239.367c-0.024,0-0.048-0.001-0.073-0.004c-0.622-0.058-1.243-0.117-1.865-0.178c-0.43-0.041-0.744-0.423-0.702-0.853
		c0.042-0.429,0.426-0.744,0.854-0.702c0.62,0.06,1.24,0.119,1.858,0.177c0.43,0.04,0.746,0.42,0.706,0.85
		C227.967,239.063,227.626,239.367,227.228,239.367z M282.843,239.347c-0.399,0-0.739-0.305-0.776-0.71
		c-0.04-0.43,0.276-0.81,0.706-0.849c0.617-0.057,1.236-0.114,1.857-0.173c0.431-0.042,0.811,0.275,0.851,0.704
		c0.041,0.43-0.275,0.811-0.704,0.852c-0.622,0.059-1.242,0.116-1.861,0.173C282.891,239.346,282.867,239.347,282.843,239.347z
		 M221.494,238.799c-0.027,0-0.055-0.002-0.083-0.005c-0.62-0.064-1.24-0.131-1.86-0.198c-0.429-0.046-0.739-0.431-0.693-0.86
		c0.047-0.429,0.434-0.739,0.861-0.692c0.618,0.067,1.237,0.133,1.854,0.197c0.429,0.045,0.74,0.43,0.696,0.858
		C222.228,238.5,221.888,238.799,221.494,238.799z M288.576,238.796c-0.397,0-0.737-0.3-0.777-0.704
		c-0.042-0.429,0.271-0.812,0.7-0.854c0.616-0.062,1.232-0.124,1.851-0.187c0.429-0.043,0.813,0.269,0.856,0.698
		c0.043,0.429-0.269,0.812-0.698,0.856c-0.619,0.063-1.237,0.125-1.854,0.187C288.628,238.795,288.602,238.796,288.576,238.796z
		 M294.294,238.207c-0.395,0-0.733-0.298-0.775-0.699c-0.046-0.429,0.265-0.813,0.694-0.859c0.618-0.065,1.236-0.131,1.855-0.198
		c0.429-0.046,0.814,0.264,0.86,0.693s-0.264,0.814-0.693,0.86c-0.62,0.066-1.239,0.133-1.858,0.198
		C294.349,238.205,294.321,238.207,294.294,238.207z M215.771,238.17c-0.03,0-0.06-0.002-0.09-0.005
		c-0.618-0.071-1.237-0.143-1.855-0.216c-0.428-0.05-0.734-0.439-0.684-0.867c0.05-0.429,0.437-0.736,0.867-0.685
		c0.616,0.072,1.233,0.144,1.851,0.215c0.429,0.049,0.736,0.437,0.688,0.865C216.5,237.875,216.163,238.17,215.771,238.17z
		 M300.021,237.586c-0.393,0-0.73-0.296-0.774-0.696c-0.048-0.428,0.262-0.814,0.69-0.862c0.621-0.068,1.242-0.138,1.861-0.207
		c0.43-0.049,0.815,0.261,0.863,0.689s-0.262,0.815-0.689,0.863c-0.621,0.069-1.242,0.138-1.863,0.207
		C300.08,237.584,300.051,237.586,300.021,237.586z M210.06,237.489c-0.033,0-0.064-0.002-0.097-0.006
		c-0.618-0.076-1.235-0.153-1.851-0.23c-0.428-0.054-0.731-0.444-0.678-0.873c0.054-0.428,0.445-0.731,0.873-0.678
		c0.615,0.077,1.231,0.154,1.847,0.23c0.429,0.053,0.733,0.443,0.681,0.871C210.784,237.199,210.448,237.489,210.06,237.489z
		 M305.752,236.943c-0.393,0-0.729-0.294-0.775-0.693c-0.049-0.428,0.26-0.815,0.688-0.864l1.855-0.211
		c0.43-0.049,0.815,0.259,0.864,0.688c0.049,0.429-0.26,0.816-0.688,0.865l-1.856,0.211
		C305.812,236.942,305.781,236.943,305.752,236.943z M204.357,236.765c-0.034,0-0.068-0.002-0.102-0.006
		c-0.62-0.081-1.236-0.162-1.853-0.243c-0.428-0.057-0.729-0.449-0.672-0.877c0.057-0.428,0.45-0.728,0.877-0.672
		c0.615,0.081,1.231,0.162,1.849,0.243c0.428,0.055,0.73,0.447,0.673,0.875C205.079,236.479,204.743,236.765,204.357,236.765z
		 M311.475,236.29c-0.392,0-0.73-0.294-0.775-0.692c-0.05-0.428,0.258-0.815,0.687-0.865l1.855-0.213
		c0.429-0.05,0.815,0.258,0.865,0.687c0.05,0.429-0.259,0.816-0.688,0.865l-1.855,0.213
		C311.533,236.288,311.504,236.29,311.475,236.29z M198.651,236.005c-0.036,0-0.071-0.002-0.107-0.007
		c-0.618-0.084-1.235-0.168-1.851-0.253c-0.427-0.059-0.726-0.453-0.667-0.88c0.059-0.427,0.452-0.726,0.88-0.667
		c0.615,0.084,1.231,0.169,1.849,0.253c0.427,0.058,0.727,0.452,0.668,0.879C199.371,235.721,199.036,236.005,198.651,236.005z
		 M317.195,235.632c-0.391,0-0.729-0.294-0.774-0.692c-0.049-0.429,0.258-0.816,0.687-0.865l1.856-0.212
		c0.428-0.049,0.815,0.259,0.865,0.687c0.048,0.429-0.259,0.816-0.688,0.865l-1.854,0.212
		C317.256,235.63,317.226,235.632,317.195,235.632z M192.949,235.216c-0.036,0-0.072-0.002-0.109-0.008
		c-0.619-0.086-1.235-0.173-1.849-0.26c-0.427-0.061-0.725-0.456-0.664-0.883c0.06-0.427,0.456-0.725,0.882-0.664
		c0.614,0.087,1.23,0.174,1.848,0.26c0.428,0.061,0.725,0.455,0.666,0.882C193.667,234.934,193.333,235.216,192.949,235.216z
		 M322.919,234.981c-0.393,0-0.73-0.295-0.775-0.694c-0.049-0.429,0.26-0.815,0.688-0.864c0.624-0.07,1.243-0.14,1.857-0.208
		c0.431-0.049,0.814,0.261,0.863,0.69c0.047,0.428-0.262,0.815-0.69,0.863c-0.614,0.068-1.232,0.137-1.855,0.208
		C322.978,234.979,322.948,234.981,322.919,234.981z M187.25,234.407c-0.037,0-0.074-0.003-0.112-0.008l-1.848-0.265
		c-0.427-0.062-0.724-0.457-0.662-0.884c0.061-0.427,0.459-0.723,0.884-0.662l1.848,0.266c0.427,0.061,0.724,0.457,0.663,0.884
		C187.966,234.126,187.632,234.407,187.25,234.407z M328.645,234.349c-0.395,0-0.733-0.297-0.776-0.698
		c-0.047-0.429,0.264-0.814,0.692-0.86c0.627-0.067,1.246-0.134,1.859-0.198c0.432-0.047,0.813,0.266,0.858,0.694
		c0.046,0.429-0.266,0.813-0.694,0.859c-0.612,0.065-1.23,0.131-1.855,0.198C328.7,234.347,328.672,234.349,328.645,234.349z
		 M376.371,233.846c-0.078,0-0.157-0.012-0.235-0.036c-0.538-0.17-1.122-0.325-1.735-0.459c-0.422-0.093-0.688-0.509-0.595-0.931
		s0.51-0.688,0.93-0.596c0.659,0.145,1.288,0.312,1.871,0.496c0.412,0.13,0.64,0.568,0.51,0.98
		C377.011,233.633,376.703,233.846,376.371,233.846z M334.373,233.751c-0.396,0-0.735-0.301-0.775-0.704
		c-0.043-0.429,0.27-0.812,0.699-0.854c0.63-0.063,1.252-0.124,1.862-0.182c0.43-0.041,0.811,0.273,0.852,0.703
		c0.041,0.429-0.273,0.811-0.703,0.852c-0.608,0.059-1.228,0.119-1.855,0.181C334.426,233.75,334.399,233.751,334.373,233.751z
		 M181.552,233.587c-0.037,0-0.075-0.002-0.113-0.008l-1.848-0.267c-0.427-0.062-0.724-0.458-0.662-0.885
		c0.062-0.427,0.458-0.723,0.885-0.662l1.848,0.267c0.427,0.062,0.723,0.458,0.662,0.885
		C182.268,233.307,181.934,233.587,181.552,233.587z M340.109,233.219c-0.401,0-0.743-0.308-0.777-0.715
		c-0.036-0.43,0.282-0.808,0.713-0.844c0.637-0.054,1.26-0.105,1.867-0.151c0.428-0.035,0.806,0.288,0.84,0.718
		c0.033,0.43-0.289,0.806-0.719,0.839c-0.604,0.047-1.224,0.098-1.856,0.151C340.154,233.218,340.132,233.219,340.109,233.219z
		 M345.856,232.805c-0.411,0-0.756-0.322-0.779-0.738c-0.023-0.431,0.306-0.799,0.737-0.823c0.656-0.037,1.289-0.067,1.878-0.091
		c0.426-0.019,0.794,0.318,0.812,0.749c0.018,0.431-0.318,0.794-0.75,0.812c-0.58,0.023-1.204,0.053-1.854,0.089
		C345.886,232.805,345.871,232.805,345.856,232.805z M370.729,232.783c-0.026,0-0.052-0.001-0.079-0.004
		c-0.575-0.057-1.192-0.107-1.833-0.149c-0.43-0.028-0.757-0.4-0.728-0.831c0.027-0.431,0.397-0.758,0.829-0.729
		c0.658,0.043,1.293,0.095,1.887,0.154c0.43,0.043,0.743,0.426,0.699,0.855C371.464,232.482,371.124,232.783,370.729,232.783z
		 M175.854,232.765c-0.037,0-0.074-0.002-0.112-0.008l-1.847-0.264c-0.428-0.061-0.724-0.457-0.663-0.884
		c0.061-0.427,0.456-0.724,0.884-0.663l1.849,0.265c0.427,0.062,0.724,0.457,0.662,0.884
		C176.57,232.484,176.236,232.765,175.854,232.765z M351.61,232.608c-0.423,0-0.771-0.337-0.78-0.762
		c-0.011-0.431,0.33-0.79,0.762-0.799c0.635-0.016,1.256-0.03,1.867-0.044c0.429-0.007,0.788,0.332,0.798,0.764
		c0.01,0.431-0.332,0.789-0.764,0.798c-0.608,0.014-1.23,0.028-1.864,0.043C351.623,232.608,351.616,232.608,351.61,232.608z
		 M357.363,232.488c-0.425,0-0.773-0.341-0.78-0.769c-0.007-0.431,0.337-0.787,0.769-0.793c0.638-0.011,1.261-0.019,1.869-0.026
		c0.003,0,0.006,0,0.009,0c0.427,0,0.776,0.344,0.781,0.772c0.005,0.431-0.341,0.785-0.772,0.79
		c-0.606,0.007-1.227,0.015-1.862,0.026C357.372,232.488,357.367,232.488,357.363,232.488z M364.983,232.474
		c-0.005,0-0.011,0-0.016,0c-0.584-0.012-1.209-0.02-1.855-0.024c-0.431-0.003-0.778-0.355-0.776-0.786
		c0.003-0.43,0.353-0.776,0.781-0.776c0.002,0,0.004,0,0.006,0c0.653,0.005,1.285,0.013,1.876,0.025
		c0.432,0.009,0.773,0.366,0.766,0.797C365.756,232.135,365.407,232.474,364.983,232.474z M170.156,231.958
		c-0.036,0-0.072-0.002-0.108-0.007c-0.616-0.085-1.23-0.169-1.844-0.252c-0.428-0.057-0.728-0.451-0.67-0.878
		c0.058-0.428,0.451-0.729,0.878-0.67c0.616,0.083,1.232,0.167,1.85,0.252c0.428,0.059,0.727,0.454,0.667,0.881
		C170.875,231.675,170.54,231.958,170.156,231.958z M111.099,231.245c-0.35,0-0.669-0.238-0.757-0.593
		c-0.104-0.418,0.151-0.842,0.57-0.946c0.603-0.149,1.221-0.293,1.84-0.428c0.421-0.092,0.837,0.175,0.93,0.597
		c0.092,0.421-0.176,0.837-0.597,0.929c-0.604,0.131-1.208,0.272-1.795,0.418C111.225,231.237,111.162,231.245,111.099,231.245z
		 M164.454,231.2c-0.032,0-0.065-0.002-0.1-0.007c-0.617-0.078-1.232-0.155-1.847-0.23c-0.428-0.053-0.732-0.443-0.68-0.871
		c0.053-0.428,0.442-0.732,0.87-0.68c0.617,0.076,1.235,0.153,1.854,0.232c0.428,0.055,0.73,0.445,0.676,0.874
		C165.178,230.912,164.842,231.2,164.454,231.2z M158.745,230.512c-0.029,0-0.059-0.001-0.088-0.005
		c-0.618-0.07-1.234-0.138-1.849-0.204c-0.429-0.046-0.739-0.432-0.693-0.86c0.046-0.429,0.431-0.739,0.86-0.693
		c0.617,0.066,1.237,0.135,1.857,0.206c0.429,0.048,0.737,0.435,0.688,0.864C159.475,230.218,159.137,230.512,158.745,230.512z
		 M116.737,230.099c-0.376,0-0.708-0.272-0.771-0.656c-0.069-0.426,0.221-0.827,0.646-0.896c0.609-0.099,1.236-0.193,1.864-0.28
		c0.427-0.059,0.822,0.239,0.881,0.667c0.059,0.427-0.239,0.822-0.667,0.881c-0.615,0.085-1.23,0.178-1.828,0.274
		C116.82,230.096,116.778,230.099,116.737,230.099z M153.026,229.914c-0.024,0-0.05-0.001-0.075-0.004
		c-0.619-0.059-1.236-0.116-1.851-0.17c-0.43-0.039-0.747-0.418-0.709-0.848c0.039-0.43,0.417-0.747,0.848-0.708
		c0.618,0.055,1.239,0.112,1.861,0.172c0.43,0.041,0.744,0.422,0.703,0.852C153.764,229.611,153.424,229.914,153.026,229.914z
		 M147.297,229.426c-0.02,0-0.039,0-0.058-0.002c-0.621-0.046-1.24-0.089-1.855-0.129c-0.431-0.028-0.756-0.4-0.729-0.831
		c0.028-0.43,0.399-0.756,0.831-0.728c0.621,0.041,1.243,0.084,1.868,0.13c0.431,0.032,0.753,0.406,0.722,0.836
		C148.045,229.113,147.702,229.426,147.297,229.426z M122.444,229.374c-0.398,0-0.738-0.303-0.776-0.708
		c-0.041-0.43,0.274-0.811,0.704-0.851c0.614-0.058,1.244-0.112,1.873-0.16c0.43-0.033,0.805,0.29,0.838,0.72
		c0.033,0.43-0.29,0.806-0.72,0.838c-0.619,0.047-1.239,0.1-1.844,0.157C122.494,229.373,122.469,229.374,122.444,229.374z
		 M141.553,229.077c-0.012,0-0.024,0-0.037,0c-0.622-0.03-1.241-0.056-1.857-0.078c-0.431-0.016-0.768-0.379-0.752-0.81
		c0.016-0.431,0.379-0.766,0.81-0.752c0.621,0.023,1.245,0.05,1.872,0.079c0.431,0.02,0.764,0.386,0.744,0.817
		C142.313,228.751,141.968,229.077,141.553,229.077z M128.182,228.99c-0.417,0-0.763-0.329-0.78-0.749
		c-0.018-0.431,0.317-0.795,0.749-0.813c0.613-0.025,1.244-0.046,1.875-0.063c0.435-0.014,0.79,0.329,0.801,0.76
		c0.011,0.432-0.329,0.79-0.761,0.801c-0.624,0.016-1.247,0.038-1.852,0.062C128.204,228.99,128.193,228.99,128.182,228.99z
		 M135.801,228.897c-0.004,0-0.007,0-0.011,0c-0.619-0.009-1.244-0.014-1.857-0.015c-0.431-0.001-0.78-0.352-0.779-0.783
		c0.001-0.431,0.351-0.779,0.781-0.779c0,0,0.001,0,0.001,0c0.619,0.001,1.25,0.006,1.875,0.015
		c0.432,0.006,0.776,0.361,0.771,0.792C136.576,228.555,136.227,228.897,135.801,228.897z"/>
	<path fill="#FEFFEA" d="M380.57,235.988c-0.17,0-0.34-0.054-0.483-0.167c-0.225-0.178-0.463-0.349-0.706-0.51
		c-0.36-0.237-0.459-0.722-0.223-1.082c0.238-0.36,0.723-0.459,1.083-0.222c0.279,0.185,0.553,0.382,0.813,0.586
		c0.339,0.267,0.397,0.758,0.131,1.097C381.03,235.887,380.801,235.988,380.57,235.988z"/>
</g>
</svg>
