<?xml version="1.0" encoding="utf-8"?>
<!-- Generator: Adobe Illustrator 16.0.0, SVG Export Plug-In . SVG Version: 6.00 Build 0)  -->
<!DOCTYPE svg PUBLIC "-//W3C//DTD SVG 1.1 Tiny//EN" "http://www.w3.org/Graphics/SVG/1.1/DTD/svg11-tiny.dtd">
<svg version="1.1" baseProfile="tiny" id="Layer_1" xmlns="http://www.w3.org/2000/svg" xmlns:xlink="http://www.w3.org/1999/xlink"
	 x="0px" y="0px" width="500px" height="500px" viewBox="0 0 500 500" xml:space="preserve">
<g>
	<path fill="#D34418" d="M244.095,17.951c-2.141-3.297-1.529-7.881,1.852-10.103c3.191-2.097,7.485-1.25,9.508,2.038
		c2.363,3.841-0.278,8.546-1.764,12.216c-1.672,4.128-3.343,8.257-5.016,12.385c-0.206,0.51,0.62,0.732,0.825,0.228
		c1.619-4,3.238-7.999,4.859-11.998c1.379-3.407,3.546-7.3,2.716-11.095c-0.607-2.779-2.996-5.076-5.768-5.66
		c-2.847-0.6-5.916,0.612-7.701,2.886c-2.149,2.739-2.115,6.665-0.25,9.536C243.654,18.843,244.396,18.415,244.095,17.951
		L244.095,17.951L244.095,17.951z"/>
	<path fill="#D34418" d="M319.416,62.498c-2.286-1.187-4.575-2.374-6.86-3.56c-5.471-2.84-10.943-5.681-16.416-8.521
		c-6.607-3.43-13.213-6.859-19.82-10.288c-5.59-2.902-11.182-5.804-16.771-8.706c-1.781-0.924-3.563-1.849-5.344-2.773
		c-0.687-0.356-1.476-0.949-2.227-1.156c-0.546-0.15-1.204,0.359-1.688,0.601c-1.478,0.736-2.954,1.472-4.431,2.208
		c-5.278,2.631-10.557,5.261-15.834,7.892c-6.613,3.295-13.226,6.59-19.835,9.885c-5.941,2.961-11.882,5.921-17.823,8.882
		c-3.244,1.618-6.491,3.235-9.737,4.853c-0.154,0.076-0.308,0.153-0.46,0.229c-0.391,0.195-0.19,0.796,0.216,0.797
		c4.562,0.015,9.123,0.03,13.685,0.046c10.879,0.036,21.756,0.072,32.633,0.108c13.15,0.044,26.297,0.087,39.448,0.131
		c11.425,0.039,22.847,0.077,34.271,0.114c3.726,0.013,7.452,0.025,11.177,0.038c1.775,0.006,3.595,0.128,5.367,0.018
		c0.078-0.005,0.156,0,0.234,0c0.549,0.002,0.552-0.854,0-0.855c-4.563-0.015-9.123-0.03-13.688-0.045
		c-10.877-0.036-21.754-0.072-32.633-0.109c-13.148-0.044-26.298-0.087-39.446-0.131c-11.425-0.038-22.849-0.077-34.273-0.115
		c-3.726-0.012-7.449-0.024-11.174-0.037c-1.176-0.004-2.35-0.008-3.524-0.012c-0.551-0.002-1.309-0.142-1.845-0.006
		c-0.066,0.017-0.161-0.001-0.231-0.001c0.07,0.266,0.143,0.531,0.216,0.797c2.291-1.142,4.581-2.284,6.874-3.425
		c5.534-2.759,11.069-5.517,16.606-8.276c6.666-3.323,13.334-6.646,20-9.968c5.768-2.874,11.535-5.748,17.301-8.622
		c1.905-0.949,3.809-1.898,5.714-2.848c0.595-0.296,1.191-0.593,1.786-0.89c0.25-0.124,0.766-0.264,0.953-0.475
		c0.021-0.026,0.084-0.042,0.116-0.058c-0.144,0-0.286,0-0.433,0c2.229,1.156,4.455,2.312,6.681,3.467
		c5.382,2.793,10.762,5.586,16.143,8.379c6.484,3.365,12.967,6.729,19.448,10.094c5.631,2.924,11.264,5.847,16.895,8.77
		c1.849,0.959,3.696,1.917,5.542,2.876c0.859,0.445,1.731,1.025,2.639,1.369c0.04,0.015,0.078,0.041,0.117,0.061
		C319.472,63.491,319.905,62.752,319.416,62.498L319.416,62.498z"/>
	<g>
		<path fill="#D34418" d="M208.377,48.878c0.018,0.011,0.029,0.017,0.048,0.028C208.408,48.896,208.394,48.888,208.377,48.878z"/>
		<path fill="#D34418" d="M189.656,110.772c-10.706,1.866-22.145,1.741-32.434-1.4c-3.599,9.11-6.94,18.653-9.444,27.668
			l17.835,5.721c3.355-8.682,8.161-16.979,12.9-25.025c3.521,7.883,2.614,17.258-0.996,25.1c-0.505,1.098-1.064,2.166-1.661,3.211
			l15.685,5.031l-3.398-1.234L189.656,110.772z"/>
		<path fill="#D34418" d="M221.349,75.526c5.5,10.207,11.304,20.25,17.26,30.196c2.288,3.822,4.607,7.625,6.94,11.419
			c-8.431-14.244-19.411-33.042-27.315-47.476C219.26,71.627,220.3,73.58,221.349,75.526z"/>
		<path fill="#D34418" d="M357.276,392.549c-10.373-4.413-19.531-11.7-26.032-20.917c-5.528-7.842-9.114-16.858-12.647-25.778
			c14.059,6.381,26.416,16.354,35.841,28.575c-12.166-75.448-23.514-117.499-32.131-140.884
			c-6.916,15.46-18.992,28.652-34.039,36.475c5.401-10.629,8.487-22.316,13.956-32.911c3.474-6.73,8.249-13.172,14.25-17.651
			c-0.103-0.216-0.205-0.432-0.307-0.642c-4.164,0.367-8.345,0.39-12.502-0.076c-9.538-1.067-19.004-4.899-25.543-11.922
			c10.718-1.139,21.609-0.514,32.146,1.758c-2.53-3.458-3.944-4.046-3.944-4.046l7.43-53.452l-4.126-54.82l8.073,52.851l-3.947,1.97
			l52.849-20.644c0,0-9.993-23.532-20.513-43.003c0.014,7.155-1.349,14.303-4.164,20.89c-6.464-6.739-9.342-16.283-9.746-25.612
			c-0.229-5.239,0.263-10.458,1.05-15.649c-1.666-2.002-3.222-3.504-4.61-4.337c-1.043-0.625-2.154-1.238-3.308-1.838
			c-1.796,9.613-5.699,18.837-11.489,26.722c-2.149-9.051-4.313-18.333-3.18-27.566c0.208-1.696,0.554-3.394,1.029-5.059
			c-8.991-3.338-16.909-5.471-16.909-5.471s-13.455,50.13-36.382,88.056c0.294,0.459,0.584,0.92,0.879,1.378
			c7.229,11.245,14.623,22.385,22.184,33.407c7.113,10.37,14.378,20.639,21.859,30.748c0.164,0.223-0.208,0.435-0.37,0.216
			c-0.875-1.183-1.747-2.367-2.616-3.554c-7.557-10.319-14.9-20.795-22.096-31.371c-6.834-10.046-13.522-20.192-20.084-30.419
			c-0.025,0.042-0.051,0.084-0.076,0.126c0,0-0.868-1.438-2.366-3.934c-6.819-10.71-13.495-21.515-19.965-32.443
			c-5.789-9.777-11.426-19.651-16.734-29.7c-3.213-6.082-6.338-12.233-9.121-18.53c-0.29-0.635-0.549-1.224-0.775-1.763
			c-0.421-0.982-0.834-1.969-1.237-2.959c-2.176,0.943-23.227,10.168-28.705,16.431c-3.419,3.907-10.883,17.929-18.12,34.883
			c10.183,1.232,20.088,4.792,28.627,10.478l0.682-17.605l1.195,58.122l4.571,39.427c9.751,9.534,15.511,23.293,14.349,36.933
			c-7.297-2.971-12.496-9.1-16.656-15.965c-2.96,4.213-7.272,13.54-12.425,34.091c2.921,2.025,5.419,4.794,7.195,7.861
			c3.819,6.604,4.993,14.358,6.095,21.905c-6.573-3.865-12.238-9.211-16.603-15.463c-5.48,25.477-11.694,63.451-18.133,120.04
			c2.024-3.117,4.234-6.13,6.497-9.059c3.007,16.79,1.066,34.419-5.415,50.19c4.897-1.639,10.154-2.588,15.235-3.311
			c8.377-1.193,16.792-2.094,25.211-2.913c-8.758,12.232-23.97,19.148-38.934,18.883c9.311,8.158,16.148,19.158,19.122,31.186
			c-8.834-0.99-17.182-5.749-22.532-12.845c-2.545-3.375-4.387-7.259-5.469-11.345c-0.856,9.078-1.713,18.499-2.57,28.298
			l25.396,5.038c38.899,7.719,78.662,9.545,117.963,5.485c-2.132-5.279-3.668-10.859-4.873-16.409
			c-2.623-12.06-3.995-24.459-8.17-36.073c10.28,7.442,16.82,19.202,20.097,31.463c0.634,2.375,1.154,4.772,1.582,7.187
			c0.656-3.306,1.644-6.553,2.915-9.657c4.149-10.13,11.096-18.896,18.858-26.612c2.885,10.372,1.067,21.623-3.14,31.535
			c-2.444,5.759-5.661,11.126-9.224,16.277c7.083-1.062,14.146-2.31,21.179-3.758l33.764-6.952
			C364.02,439.097,360.623,414.542,357.276,392.549z M250.878,254.705c11.484,17.224,14.44,39.853,7.766,59.448
			c-0.52-0.241-0.984-0.545-1.412-0.89c-8.926-2.204-16.656-8.143-22.536-15.257c-6.176-7.47-10.565-16.226-14.899-24.896
			c13.026,2.834,22.106,14.282,30.062,24.977c0.958,1.287,1.917,2.587,2.843,3.909C250.048,286.399,249.418,270.458,250.878,254.705
			z M228.154,400.101c0.313-8.276,5.355-15.821,11.852-20.958s14.358-8.208,22.175-10.942
			C254.664,382.119,242.529,393.497,228.154,400.101z M246.126,170.18c-9.904-8.364-18.935-17.74-26.917-27.951
			c-0.167-0.214,0.133-0.518,0.304-0.302c4.457,5.704,9.237,11.148,14.322,16.3c9.05,9.168,19.037,17.406,29.755,24.553
			c10.718,7.149,22.16,13.197,34.107,18.013c0.252,0.101,0.141,0.515-0.113,0.413c-6.677-2.69-13.199-5.757-19.525-9.191
			C266.71,185.847,255.994,178.514,246.126,170.18z"/>
		<path fill="#281607" d="M189.664,110.561c0.087,0.058,0.178,0.11,0.265,0.168c-0.09,0.016-0.183,0.027-0.273,0.043l-1.513,39.072
			l3.398,1.234l-1.195-58.122L189.664,110.561z"/>
		<polygon fill="#281607" points="309.627,96.257 313.753,151.078 317.7,149.108 		"/>
		<path fill="#EDA342" d="M209.874,53.491c-0.259-0.587-0.521-1.173-0.775-1.763C209.325,52.268,209.583,52.856,209.874,53.491z"/>
		<path fill="#EDA342" d="M218.233,69.666c7.905,14.434,18.884,33.232,27.315,47.476c4.211,6.85,8.49,13.658,12.831,20.425
			c22.927-37.926,36.382-88.056,36.382-88.056c-49.666,19.401-82.556,1.608-86.336-0.604c-0.02-0.011-0.03-0.018-0.048-0.028
			c-0.004-0.002-0.009-0.005-0.013-0.008c0.319,0.779,0.641,1.555,0.972,2.328C212.029,57.477,215.063,63.611,218.233,69.666z"/>
		<path fill="#EDA342" d="M255.693,134.165c1.498,2.496,2.366,3.934,2.366,3.934c0.025-0.042,0.051-0.084,0.076-0.126
			c-0.699-1.089-1.404-2.174-2.1-3.266C255.921,134.526,255.808,134.345,255.693,134.165z"/>
		<path fill="#FFFFFF" d="M209.874,53.491c2.783,6.297,5.908,12.448,9.121,18.53c5.308,10.049,10.945,19.923,16.734,29.7
			c6.47,10.928,13.146,21.733,19.965,32.443c0.114,0.18,0.228,0.362,0.343,0.542c0.695,1.091,1.4,2.177,2.1,3.266
			c6.562,10.227,13.25,20.373,20.084,30.419c7.195,10.576,14.539,21.052,22.096,31.371c0.869,1.187,1.741,2.372,2.616,3.554
			c0.162,0.218,0.534,0.006,0.37-0.216c-7.481-10.109-14.746-20.378-21.859-30.748c-7.561-11.022-14.955-22.162-22.184-33.407
			c-0.295-0.458-0.585-0.919-0.879-1.378c-4.341-6.767-8.62-13.575-12.831-20.425c-2.333-3.794-4.652-7.597-6.94-11.419
			c-5.956-9.947-11.76-19.989-17.26-30.196c-1.049-1.946-2.089-3.899-3.116-5.86c-3.171-6.055-6.204-12.189-8.897-18.468
			c-0.331-0.772-0.653-1.549-0.972-2.328c-0.2-0.118-0.307-0.185-0.307-0.185s-0.076,0.033-0.196,0.084
			c0.403,0.99,0.815,1.977,1.237,2.959C209.352,52.318,209.614,52.904,209.874,53.491z"/>
		<path fill="#FFFFFF" d="M297.698,200.793c-11.947-4.816-23.39-10.864-34.107-18.013c-10.718-7.147-20.705-15.385-29.755-24.553
			c-5.085-5.152-9.865-10.597-14.322-16.3c-0.171-0.216-0.47,0.087-0.304,0.302c7.981,10.211,17.013,19.587,26.917,27.951
			c9.868,8.334,20.583,15.667,31.933,21.835c6.326,3.435,12.849,6.501,19.525,9.191C297.839,201.309,297.95,200.894,297.698,200.793
			z"/>
		<path fill="#5B80BC" d="M257.231,313.264c0.428,0.345,0.893,0.648,1.412,0.89c6.675-19.596,3.719-42.225-7.766-59.448
			c-1.46,15.753-0.83,31.694,1.823,47.292c2.518,3.594,4.765,7.365,5.886,11.579C258.131,313.484,257.681,313.374,257.231,313.264z"
			/>
		<path fill="#5B80BC" d="M210.461,227.438c1.162-13.64-4.598-27.399-14.349-36.933l2.035,17.551c0,0-1.585-0.506-4.342,3.417
			C197.965,218.338,203.164,224.467,210.461,227.438z"/>
		<path fill="#5B80BC" d="M201.462,414.816c-8.419,0.819-16.834,1.72-25.211,2.913c-5.082,0.723-10.338,1.672-15.235,3.311
			c-0.866,2.107-1.806,4.185-2.833,6.219c-1.091-1.104-2.042-2.311-2.888-3.584c-0.142,1.436-0.284,2.874-0.426,4.329
			c2.701,1.691,5.264,3.596,7.661,5.695C177.492,433.965,192.704,427.049,201.462,414.816z"/>
		<path fill="#5B80BC" d="M161.015,421.04c6.481-15.771,8.422-33.4,5.415-50.19c-2.263,2.929-4.473,5.941-6.497,9.059
			c-1.536,13.5-3.085,28.064-4.64,43.767c0.846,1.273,1.796,2.48,2.888,3.584C159.209,425.225,160.149,423.147,161.015,421.04z"/>
		<path fill="#5B80BC" d="M181.65,464.885c-2.974-12.027-9.811-23.027-19.122-31.186c-2.396-2.1-4.959-4.004-7.661-5.695
			c-0.406,4.149-0.812,8.384-1.218,12.691c1.082,4.086,2.923,7.97,5.469,11.345C164.469,459.136,172.816,463.895,181.65,464.885z"/>
		<path fill="#5B80BC" d="M303.074,465.684c-0.428-2.414-0.948-4.812-1.582-7.187c-3.276-12.261-9.816-24.021-20.097-31.463
			c4.175,11.614,5.547,24.014,8.17,36.073c1.205,5.55,2.741,11.13,4.873,16.409c2.633-0.272,5.263-0.577,7.891-0.902
			C301.944,474.321,302.228,469.953,303.074,465.684z"/>
		<path fill="#5B80BC" d="M324.848,429.414c-7.763,7.717-14.709,16.482-18.858,26.612c-1.271,3.104-2.259,6.352-2.915,9.657
			c-0.847,4.27-1.13,8.638-0.745,12.931c3.39-0.419,6.774-0.881,10.155-1.388c3.563-5.151,6.779-10.519,9.224-16.277
			C325.915,451.037,327.732,439.786,324.848,429.414z"/>
		<path fill="#5B80BC" d="M302.224,237.108c-5.469,10.595-8.555,22.282-13.956,32.911c15.047-7.822,27.123-21.014,34.039-36.475
			c-2.119-5.752-4.073-10.375-5.833-14.087C310.473,223.936,305.697,230.378,302.224,237.108z"/>
		<path fill="#5B80BC" d="M278.122,206.818c6.539,7.023,16.005,10.855,25.543,11.922c4.157,0.465,8.338,0.443,12.502,0.076
			c-2.346-4.87-4.336-8.104-5.899-10.24C299.731,206.304,288.84,205.679,278.122,206.818z"/>
		<path fill="#5B80BC" d="M189.656,110.772c0.09-0.016,0.183-0.027,0.273-0.043c-0.087-0.059-0.178-0.11-0.265-0.168
			c-8.539-5.685-18.444-9.246-28.627-10.478c-1.288,3.017-2.566,6.127-3.815,9.289C167.511,112.513,178.95,112.638,189.656,110.772z
			"/>
		<path fill="#5B80BC" d="M178.513,117.735c-4.739,8.047-9.545,16.343-12.9,25.025l10.243,3.286
			c0.597-1.045,1.155-2.113,1.661-3.211C181.126,134.994,182.033,125.618,178.513,117.735z"/>
		<path fill="#5B80BC" d="M318.597,345.854c3.533,8.92,7.119,17.937,12.647,25.778c6.501,9.217,15.659,16.504,26.032,20.917
			c-0.95-6.244-1.897-12.282-2.839-18.12C345.013,362.208,332.655,352.234,318.597,345.854z"/>
		<path fill="#5B80BC" d="M219.796,273.111c4.334,8.67,8.723,17.426,14.899,24.896c5.88,7.114,13.61,13.053,22.536,15.257
			c0.449,0.11,0.899,0.221,1.355,0.313c-1.121-4.214-3.368-7.985-5.886-11.579c-0.926-1.322-1.885-2.622-2.843-3.909
			C241.903,287.394,232.822,275.945,219.796,273.111z"/>
		<path fill="#5B80BC" d="M194.67,275.331c-1.102-7.547-2.275-15.301-6.095-21.905c-1.776-3.067-4.274-5.836-7.195-7.861
			c-1.069,4.266-2.175,9.016-3.313,14.304C182.432,266.12,188.097,271.466,194.67,275.331z"/>
		<path fill="#5B80BC" d="M228.154,400.101c14.375-6.604,26.51-17.981,34.027-31.9c-7.816,2.734-15.678,5.806-22.175,10.942
			S228.466,391.824,228.154,400.101z"/>
		<path fill="#5B80BC" d="M313.821,87.607c5.79-7.885,9.693-17.108,11.489-26.722c-4.228-2.199-9.069-4.207-13.64-5.903
			c-0.476,1.665-0.821,3.363-1.029,5.059C309.508,69.273,311.672,78.556,313.821,87.607z"/>
		<path fill="#5B80BC" d="M332.179,82.709c0.404,9.329,3.282,18.873,9.746,25.612c2.815-6.587,4.178-13.735,4.164-20.89
			c-4.43-8.198-8.951-15.672-12.86-20.371C332.441,72.252,331.95,77.47,332.179,82.709z"/>
	</g>
</g>
</svg>
