<?xml version="1.0" encoding="utf-8"?>
<!-- Generator: Adobe Illustrator 16.0.0, SVG Export Plug-In . SVG Version: 6.00 Build 0)  -->
<!DOCTYPE svg PUBLIC "-//W3C//DTD SVG 1.1 Tiny//EN" "http://www.w3.org/Graphics/SVG/1.1/DTD/svg11-tiny.dtd">
<svg version="1.1" baseProfile="tiny" id="Layer_1" xmlns="http://www.w3.org/2000/svg" xmlns:xlink="http://www.w3.org/1999/xlink"
	 x="0px" y="0px" width="500px" height="500px" viewBox="0 0 500 500" xml:space="preserve">
<g>
	<path fill="#FF907E" d="M233.447,489.835c2.976-36.146,10.25-84.992,13.228-121.137c4.322,40.074,9.284,81.043,12.6,121.212
		l118.455-12.773l-58.127-327.948c-4.635-21.801-9.349-47.581-23.676-65.513c3.153-7.186,1.971-16.081-2.947-22.196
		c2.536-2.706,4.157-6.255,4.54-9.945c0.159-1.513,0.088-3.135-0.734-4.414c-0.821-1.28-2.593-2.043-3.932-1.325
		c-13.912,1.913-32.585,4.821-46.179,9.919c-18.575-5.214-33.343-6.292-52.622-6.99c-1.539,5.521,0.988,11.917,5.886,14.896
		c-4.349,5.374-5.728,11.39-5.185,18.281c-14.612,8.11-18.563,26.951-20.951,43.493c-16.357,113.368-43.91,227.121-56.656,354.574
		L233.447,489.835L233.447,489.835z"/>
	<path fill="#476144" d="M229.112,87.722c-8.267-0.491-26.283-3.959-34.357-5.819c0,0-0.387-8.155,1.125-10.043l39.654,10.952
		L229.112,87.722"/>
	<path fill="#476144" d="M255.172,86.965c11.392,0.881,29.71-0.363,40.756-3.289c0,0,3.052-8.417,1.54-13.704l-47.96,13.217"/>
	<path fill="#476144" d="M235.344,93.668c-0.493,1.1-0.985,2.216-1.485,3.338c-15.662,35.343-35.002,81.936-50.416,116.541
		c-4.435-2.724-13.89-6.133-18.718-8.072c12.253-41.28,33.977-80.826,61.485-114.107c1.333-1.609,2.681-3.199,4.034-4.78
		L235.344,93.668L235.344,93.668z"/>
	<path fill="#FFFFFF" d="M282.616,143.771c6.066,30.905,11.912,61.855,17.53,92.846c5.618,30.989,11.01,62.021,16.176,93.092
		c2.894,17.397,5.717,34.809,8.471,52.229c0.043,0.28,0.469,0.162,0.425-0.116c-4.917-31.109-10.055-62.186-15.423-93.219
		c-5.364-31.035-10.957-62.032-16.772-92.987c-3.257-17.334-6.584-34.655-9.98-51.961
		C282.989,143.374,282.563,143.493,282.616,143.771L282.616,143.771L282.616,143.771z"/>
	<path fill="#FFFFFF" d="M243.022,223.679c0.843,18.918,1.551,37.842,2.122,56.771c0.568,18.927,0.999,37.86,1.289,56.793
		c0.165,10.672,0.284,21.347,0.362,32.023c0.002,0.28,0.441,0.283,0.439,0c-0.136-18.937-0.409-37.872-0.82-56.804
		c-0.413-18.934-0.964-37.862-1.653-56.785c-0.39-10.669-0.823-21.333-1.298-31.998
		C243.449,223.397,243.009,223.395,243.022,223.679L243.022,223.679L243.022,223.679z"/>
	<path fill="#FFFFFF" d="M205.921,184.091c-2.502,30.209-5.004,60.418-7.506,90.63c-2.502,30.209-5.004,60.419-7.506,90.628
		c-1.404,16.954-2.808,33.908-4.212,50.863c-0.024,0.282,0.416,0.279,0.44,0c2.501-30.21,5.001-60.421,7.505-90.631
		c2.501-30.208,5.003-60.417,7.505-90.627c1.404-16.955,2.811-33.908,4.214-50.863C206.383,183.81,205.943,183.81,205.921,184.091
		L205.921,184.091L205.921,184.091z"/>
	<path fill="#476144" d="M251.54,198.78c-8.236,2.363-15.828,6.94-21.759,13.126c-1.949-28.358,0.63-56.813,3.206-85.119
		c0.878-9.636,1.752-19.266,2.63-28.902c0.249-2.764,0.504-5.53,0.753-8.293l4.491,1.518c-0.095,3.037-0.152,6.074-0.174,9.108
		C240.404,133.351,244.052,166.508,251.54,198.78L251.54,198.78z"/>
	<path fill="#476144" d="M239.849,74.792c2.713-2.213,6.699-1.86,8.972,0.803c3.77,4.412,6.833,9.777,6.891,15.127
		c0.01,1.047-0.135,2.174-0.829,2.959c-0.485,0.553-1.18,0.865-1.853,1.165c-1.991,0.88-3.979,1.763-5.969,2.643
		c-2.177,0.963-4.697,0.741-6.669-0.587l-9.221-6.206c-0.806-0.542-1.512-1.23-1.996-2.07c-1.609-2.784,0.191-4.661,1.863-6.198
		C233.897,79.794,236.836,77.249,239.849,74.792L239.849,74.792z"/>
	<path fill="#FFFFFF" d="M254.273,66.972c12.51-1.432,24.976-3.236,37.378-5.41c0.279-0.049,0.161-0.473-0.116-0.425
		c-12.364,2.167-24.791,3.967-37.262,5.395C253.993,66.563,253.992,67.004,254.273,66.972L254.273,66.972L254.273,66.972z"/>
	<path fill="#FFFFFF" d="M200.162,64.439c8.958,2.086,18.086,3.364,27.275,3.82c0.284,0.014,0.282-0.426,0-0.44
		c-9.15-0.454-18.238-1.727-27.159-3.805C200,63.951,199.885,64.375,200.162,64.439L200.162,64.439L200.162,64.439z"/>
	<path fill="#D34418" d="M239.583,22.584c-2.203-3.393-1.573-8.109,1.906-10.396c3.285-2.158,7.702-1.286,9.783,2.097
		c2.432,3.953-0.286,8.794-1.813,12.57c-1.721,4.248-3.441,8.496-5.16,12.744c-0.214,0.524,0.638,0.753,0.847,0.234
		c1.666-4.115,3.333-8.23,5-12.345c1.419-3.506,3.648-7.511,2.794-11.418c-0.624-2.858-3.083-5.222-5.935-5.823
		c-2.929-0.617-6.087,0.629-7.922,2.969c-2.214,2.819-2.178,6.858-0.26,9.812C239.132,23.501,239.893,23.061,239.583,22.584
		L239.583,22.584L239.583,22.584z"/>
	<path fill="#D34418" d="M268.4,43.15c-4.539-2.356-9.132-5.254-14.104-6.572c-4.609-1.221-9.516-1.227-14.128-0.019
		c-2.828,0.74-5.386,2.031-7.983,3.325c-2.196,1.095-4.392,2.19-6.59,3.285c-0.507,0.252-0.063,1.012,0.444,0.76
		c1.762-0.878,3.523-1.757,5.285-2.635c2.218-1.105,4.427-2.329,6.765-3.168c4.696-1.688,9.83-2.047,14.71-1
		c3.15,0.675,5.975,2.019,8.807,3.489c2.118,1.099,4.234,2.198,6.351,3.296C268.458,44.171,268.903,43.412,268.4,43.15L268.4,43.15
		L268.4,43.15z"/>
	<path fill="#D34418" d="M175.762,43.994c4.733,0,9.469,0,14.202,0c11.366,0,22.732,0,34.097,0c13.668,0,27.338,0,41.005,0
		c11.882,0,23.76,0,35.641,0c3.911,0,7.823,0,11.735,0c1.838,0,3.719,0.119,5.556,0c0.075-0.005,0.154,0,0.235,0
		c0.564,0,0.566-0.88,0-0.88c-4.736,0-9.471,0-14.203,0c-11.367,0-22.731,0-34.098,0c-13.667,0-27.337,0-41.007,0
		c-11.878,0-23.758,0-35.638,0c-3.913,0-7.823,0-11.736,0c-1.837,0-3.721-0.119-5.553,0c-0.078,0.005-0.159,0-0.236,0
		C175.195,43.113,175.195,43.994,175.762,43.994L175.762,43.994L175.762,43.994z"/>
	<polygon fill="#D34418" points="199.193,53.184 191.263,53.184 191.263,37.322 199.193,37.322 199.193,53.184 	"/>
	<polygon fill="#D34418" points="300.876,53.184 292.945,53.184 292.945,37.322 300.876,37.322 300.876,53.184 	"/>
</g>
</svg>
