<?xml version="1.0" encoding="utf-8"?>
<!-- Generator: Adobe Illustrator 16.0.0, SVG Export Plug-In . SVG Version: 6.00 Build 0)  -->
<!DOCTYPE svg PUBLIC "-//W3C//DTD SVG 1.1 Tiny//EN" "http://www.w3.org/Graphics/SVG/1.1/DTD/svg11-tiny.dtd">
<svg version="1.1" baseProfile="tiny" id="Layer_1" xmlns="http://www.w3.org/2000/svg" xmlns:xlink="http://www.w3.org/1999/xlink"
	 x="0px" y="0px" width="500px" height="500px" viewBox="0 0 500 500" xml:space="preserve">
<path fill="#F2F2F2" d="M423.619,216.641v81.969c0,38.474-2.873,76.897-8.592,114.942l-7.38,49.066h-41.529l-7.38-49.066
	c-5.717-38.045-8.595-76.469-8.595-114.942v-81.969H423.619"/>
<path fill="#D32F2D" d="M395.036,453.845h-16.294c-6.328,0-11.695-4.656-12.597-10.927l-5.244-36.4
	c-5.281-36.686-7.932-73.73-7.932-110.825v-79.051h67.839v79.051c0,37.095-2.656,74.14-7.935,110.825l-5.242,36.4
	C406.728,449.188,401.364,453.845,395.036,453.845"/>
<polyline fill="#BFBFBF" points="424.533,216.641 424.533,262.689 350.144,262.689 350.144,216.641 424.533,216.641 "/>
<path fill="#F6F6F6" d="M379.406,462.619h-9.711l-1.866-14.939c2.243,3.707,6.326,6.165,10.913,6.165h0.189L379.406,462.619"/>
<path fill="#E17170" d="M378.932,453.845h-0.189c-4.587,0-8.67-2.458-10.913-6.165l-4.247-34.127
	c-4.731-38.045-7.112-76.469-7.112-114.942v-35.921h17.203v35.921c0,38.474,1.039,76.897,3.083,114.942L378.932,453.845"/>
<polyline fill="#D3D3D3" points="373.673,262.689 356.47,262.689 356.47,218.075 373.673,218.075 373.673,262.689 "/>
<path fill="#C2C2C2" d="M398.886,462.619h-7.68l0.274-8.774h3.556c1.696,0,3.327-0.334,4.821-0.949L398.886,462.619"/>
<path fill="#A92624" d="M395.036,453.845h-3.556l0.067-2.178l3.041-38.114c3.018-38.045,4.549-76.469,4.549-114.942v-35.921h9.821
	v35.921c0,38.474-3.862,76.897-5.177,114.942l-3.925,39.343C398.363,453.511,396.732,453.845,395.036,453.845"/>
<polyline fill="#999999" points="408.959,262.689 399.138,262.689 399.138,218.075 408.959,218.075 408.959,262.689 "/>
<path fill="#CCCCCC" d="M419.494,378.376c2.746-26.481,4.125-53.108,4.125-79.766v-35.921h0.914v-46.048v81.969
	C424.533,325.268,422.85,351.895,419.494,378.376"/>
<path fill="#C2C2C2" d="M405.551,459.676l6.696-46.123c0.167-2.074,0.334-4.147,0.512-6.216l0.115-0.819
	c5.278-36.686,7.935-73.73,7.935-110.825v-33.003h2.811v35.921c0,26.657-1.379,53.284-4.125,79.766
	c-1.491,11.768-3.308,23.484-5.454,35.177L405.551,459.676"/>
<path fill="#A92624" d="M412.759,407.337c3.022-36.021,7.245-72.352,7.245-108.727v-35.921h0.805v33.003
	c0,37.095-2.656,74.14-7.935,110.825L412.759,407.337"/>
<polyline fill="#999999" points="424.533,262.689 423.619,262.689 420.809,262.689 420.004,262.689 420.004,218.075 
	423.619,218.075 423.619,216.641 424.533,216.641 424.533,262.689 "/>
<polyline fill="#C2C2C2" points="405.124,462.619 405.009,462.619 405.551,459.676 405.124,462.619 "/>
<path fill="#9B9B9B" d="M405.009,462.619h-6.123l0.972-9.724c4.064-1.664,7.115-5.396,7.774-9.978l5.127-35.581
	c-0.178,2.068-0.345,4.142-0.512,6.216l-6.696,46.123L405.009,462.619"/>
<path fill="#871E1D" d="M399.857,452.896l3.925-39.343c1.314-38.045,5.177-76.469,5.177-114.942v-35.921h11.045v35.921
	c0,36.375-4.223,72.706-7.245,108.727l-5.127,35.581C406.973,447.499,403.922,451.231,399.857,452.896"/>
<polyline fill="#7A7A7A" points="420.004,262.689 408.959,262.689 408.959,218.075 420.004,218.075 420.004,262.689 "/>
<polyline fill="#F3F3F3" points="390.674,462.619 382.562,462.619 382.287,453.845 391.373,453.845 390.674,462.619 "/>
<path fill="#D63E3F" d="M391.373,453.845h-9.086l-1.262-40.292c-1.191-38.045-1.791-76.469-1.791-114.942v-35.921h15.294v35.921
	c0,38.474-0.597,76.897-1.788,114.942l-1.192,38.114L391.373,453.845"/>
<polyline fill="#C4C4C5" points="394.528,262.689 379.234,262.689 379.234,218.075 394.528,218.075 394.528,262.689 "/>
<polyline fill="#C6C7C7" points="391.206,462.619 390.674,462.619 391.373,453.845 391.48,453.845 391.206,462.619 "/>
<polyline fill="#AF3636" points="391.48,453.845 391.373,453.845 391.548,451.667 391.48,453.845 "/>
<polyline fill="#515151" points="418.885,208.662 355.79,208.662 355.79,216.641 418.885,216.641 418.885,208.662 "/>
<path fill="#22252A" d="M423.619,130.02v81.964h-73.476V130.02c0-18.547,1.804-48.377,3.498-70.432
	c0.462-6.011,6.2-10.178,12.071-8.774l48.173,11.617c4.122,0.995,7.16,4.527,7.482,8.749
	C422.869,90.751,423.619,110.373,423.619,130.02"/>
<polyline fill="#C8C8CA" points="399.138,218.075 394.528,218.075 394.528,216.641 399.138,216.641 399.138,218.075 "/>
<polyline fill="#FFFFFF" points="423.619,216.641 423.619,216.641 418.885,216.641 418.885,211.984 423.619,211.984 
	423.619,211.935 423.619,216.641 "/>
<path fill="#A7A8AA" d="M423.619,218.075h-3.615v-1.434h-1.119h4.734V218.075 M408.959,218.075h-9.821v-1.434h9.821V218.075"/>
<polyline fill="#8C8D90" points="420.004,218.075 408.959,218.075 408.959,216.641 418.885,216.641 420.004,216.641 
	420.004,218.075 "/>
<polyline fill="#C8C8CA" points="379.234,218.075 373.673,218.075 373.673,216.641 379.234,216.641 379.234,218.075 "/>
<polyline fill="#FFFFFF" points="355.79,216.641 350.144,216.641 350.144,211.984 355.79,211.984 355.79,216.641 "/>
<polyline fill="#C8C8CA" points="356.47,218.075 350.144,218.075 350.144,216.641 355.79,216.641 356.47,216.641 356.47,218.075 "/>
<polyline fill="#D9D9DA" points="373.673,218.075 356.47,218.075 356.47,216.641 373.673,216.641 373.673,218.075 "/>
<polyline fill="#CCCDCF" points="394.528,218.075 379.234,218.075 379.234,216.641 394.528,216.641 394.528,218.075 "/>
<polyline fill="#686A6E" points="418.885,216.641 408.959,216.641 399.138,216.641 394.528,216.641 379.234,216.641 
	373.673,216.641 356.47,216.641 355.79,216.641 355.79,211.984 401.182,211.984 418.859,211.984 418.885,211.984 418.885,216.641 
	"/>
<path fill="#FFFFFF" d="M421.368,71.13c0,0,0,0-0.005,0c-0.348-4.197-3.376-7.705-7.478-8.699l-47.033-11.332
	c0.162,0,0.319,0.025,0.467,0.05l46.573,11.257C418.013,63.375,421.048,66.908,421.368,71.13"/>
<path fill="#3F454D" d="M423.619,211.984h-4.734h-0.025v-0.05h4.76V211.984 M401.182,211.984H355.79h-5.646v-0.05h6.915v-80.561
	c0-18.188,1.472-47.533,2.846-69.203c0.13-2.068,0.253-5.241,0.897-6.905c1.269-3.298,3.715-4.197,5.556-4.197
	c0.17,0,0.335,0,0.495,0.03l47.033,11.332c4.102,0.995,7.13,4.502,7.478,8.699c-0.143-0.235-3.455-5.376-7.471-6.396
	c-6.987-1.794-27.836-6.141-27.836-6.141c-0.852-0.18-1.636-0.285-2.355-0.285c-6.108,0-7.633,6.576-7.745,11.257
	c-0.399,16.424-1.069,48.452-1.069,61.808v80.561h26.295V211.984"/>
<path fill="#1B1E22" d="M418.859,211.935h-17.678v-77.667c0-18.627-0.237-37.225-0.732-55.772c-0.092-3.993-1.074-7.34-2.42-8.29
	l-8.744-6.166l21.732,6.166c3.328,0.949,5.766,4.297,6.036,8.29c1.204,18.547,1.806,37.145,1.806,55.772V211.935"/>
<polyline fill="#32373E" points="418.859,211.984 401.182,211.984 401.182,211.935 418.859,211.935 418.859,211.984 "/>
<path fill="#F2F2F2" d="M329.99,216.641v81.969c0,38.474-2.878,76.897-8.595,114.942l-7.38,49.066h-41.529l-7.38-49.066
	c-5.716-38.045-8.592-76.469-8.592-114.942v-81.969H329.99"/>
<path fill="#FDB26B" d="M301.404,453.845H285.11c-6.328,0-11.694-4.656-12.597-10.927l-5.241-36.4
	c-5.284-36.686-7.935-73.73-7.935-110.825v-79.051h67.839v79.051c0,37.095-2.653,74.14-7.935,110.825l-5.241,36.4
	C313.099,449.188,307.732,453.845,301.404,453.845"/>
<polyline fill="#BFBFBF" points="330.902,216.641 330.902,262.689 256.515,262.689 256.515,216.641 330.902,216.641 "/>
<path fill="#F6F6F6" d="M285.777,462.619h-9.713L274.2,447.68c2.241,3.707,6.323,6.165,10.91,6.165h0.192L285.777,462.619"/>
<path fill="#FECA9A" d="M285.303,453.845h-0.192c-4.587,0-8.669-2.458-10.91-6.165l-4.252-34.127
	c-4.729-38.045-7.11-76.469-7.11-114.942v-35.921h17.203v35.921c0,38.474,1.04,76.897,3.083,114.942L285.303,453.845"/>
<polyline fill="#D3D3D3" points="280.041,262.689 262.838,262.689 262.838,218.075 280.041,218.075 280.041,262.689 "/>
<path fill="#C2C2C2" d="M305.254,462.619h-7.68l0.275-8.774h3.555c1.699,0,3.328-0.334,4.824-0.949L305.254,462.619"/>
<path fill="#CA8E56" d="M301.404,453.845h-3.555l0.069-2.203l3.038-38.089c3.019-38.045,4.55-76.469,4.55-114.942v-35.921h9.82
	v35.921c0,38.474-3.862,76.897-5.174,114.942l-3.925,39.343C304.732,453.511,303.104,453.845,301.404,453.845"/>
<polyline fill="#999999" points="315.327,262.689 305.507,262.689 305.507,218.075 315.327,218.075 315.327,262.689 "/>
<path fill="#CCCCCC" d="M325.865,378.352c2.746-26.482,4.125-53.084,4.125-79.741v-35.921h0.912v-46.048v81.969
	C330.902,325.268,329.218,351.869,325.865,378.352"/>
<path fill="#C2C2C2" d="M311.922,459.651l6.693-46.099c0.165-2.074,0.337-4.147,0.51-6.216l0.117-0.819
	c5.281-36.686,7.935-73.73,7.935-110.825v-33.003h2.813v35.921c0,26.657-1.379,53.259-4.125,79.741
	c-1.489,11.767-3.308,23.509-5.456,35.201L311.922,459.651"/>
<path fill="#CA8E56" d="M319.125,407.337c3.027-36.021,7.25-72.352,7.25-108.727v-35.921h0.802v33.003
	c0,37.095-2.653,74.14-7.935,110.825L319.125,407.337"/>
<polyline fill="#999999" points="330.902,262.689 329.99,262.689 327.177,262.689 326.375,262.689 326.375,218.075 329.99,218.075 
	329.99,216.641 330.902,216.641 330.902,262.689 "/>
<polyline fill="#C2C2C2" points="311.492,462.619 311.378,462.619 311.922,459.651 311.492,462.619 "/>
<path fill="#9B9B9B" d="M311.378,462.619h-6.124l0.975-9.724c4.064-1.664,7.113-5.396,7.772-9.978l5.124-35.581
	c-0.173,2.068-0.345,4.142-0.51,6.216l-6.693,46.099L311.378,462.619"/>
<path fill="#A27245" d="M306.229,452.896l3.925-39.343c1.312-38.045,5.174-76.469,5.174-114.942v-35.921h11.048v35.921
	c0,36.375-4.223,72.706-7.25,108.727l-5.124,35.581C313.342,447.499,310.293,451.231,306.229,452.896"/>
<polyline fill="#7A7A7A" points="326.375,262.689 315.327,262.689 315.327,218.075 326.375,218.075 326.375,262.689 "/>
<polyline fill="#F3F3F3" points="297.042,462.619 288.931,462.619 288.655,453.845 297.744,453.845 297.042,462.619 "/>
<path fill="#FDB877" d="M297.744,453.845h-9.089l-1.262-40.292c-1.191-38.045-1.788-76.469-1.788-114.942v-35.921h15.289v35.921
	c0,38.474-0.595,76.897-1.783,114.942l-1.192,38.089L297.744,453.845"/>
<polyline fill="#C4C4C5" points="300.895,262.689 285.605,262.689 285.605,218.075 300.895,218.075 300.895,262.689 "/>
<polyline fill="#C6C7C7" points="297.574,462.619 297.042,462.619 297.744,453.845 297.85,453.845 297.574,462.619 "/>
<polyline fill="#CE9664" points="297.85,453.845 297.744,453.845 297.919,451.642 297.85,453.845 "/>
<polyline fill="#515151" points="325.253,208.662 262.161,208.662 262.161,216.641 325.253,216.641 325.253,208.662 "/>
<path fill="#22252A" d="M329.99,130.02v81.964h-73.476V130.02c0-18.547,1.802-48.377,3.495-70.432
	c0.463-6.011,6.201-10.178,12.069-8.774l48.178,11.617c4.119,0.995,7.157,4.527,7.479,8.749
	C329.238,90.751,329.99,110.373,329.99,130.02"/>
<polyline fill="#C8C8CA" points="305.507,218.075 300.895,218.075 300.895,216.641 305.507,216.641 305.507,218.075 "/>
<polyline fill="#FFFFFF" points="262.161,216.641 256.515,216.641 256.515,211.984 262.161,211.984 262.161,216.641 "/>
<path fill="#C8C8CA" d="M285.605,218.075h-5.564v-1.434h5.564V218.075 M262.838,218.075h-6.323v-1.434h5.646h0.677V218.075"/>
<polyline fill="#D9D9DA" points="280.041,218.075 262.838,218.075 262.838,216.641 280.041,216.641 280.041,218.075 "/>
<polyline fill="#FFFFFF" points="329.99,216.641 329.99,216.641 325.253,216.641 325.253,211.984 329.99,211.984 329.99,211.935 
	329.99,216.641 "/>
<path fill="#A7A8AA" d="M329.99,218.075h-3.615v-1.434h-1.122h4.737V218.075 M315.327,218.075h-9.82v-1.434h9.82V218.075"/>
<polyline fill="#8C8D90" points="326.375,218.075 315.327,218.075 315.327,216.641 325.253,216.641 326.375,216.641 
	326.375,218.075 "/>
<polyline fill="#CCCDCF" points="300.895,218.075 285.605,218.075 285.605,216.641 300.895,216.641 300.895,218.075 "/>
<polyline fill="#686A6E" points="325.253,216.641 315.327,216.641 305.507,216.641 300.895,216.641 285.605,216.641 
	280.041,216.641 262.838,216.641 262.161,216.641 262.161,211.984 307.55,211.984 325.229,211.984 325.253,211.984 325.253,216.641 
	"/>
<path fill="#FFFFFF" d="M327.736,71.13c0,0-0.002,0-0.005,0c-0.347-4.197-3.373-7.705-7.475-8.699l-47.036-11.332
	c0.16,0,0.32,0.025,0.468,0.05l46.573,11.257C324.384,63.375,327.417,66.908,327.736,71.13"/>
<path fill="#3F454D" d="M329.99,211.984h-4.737h-0.024v-0.05h4.762V211.984 M307.55,211.984h-45.389h-5.646v-0.05h6.915v-80.561
	c0-18.188,1.47-47.533,2.844-69.203c0.13-2.068,0.257-5.241,0.895-6.905c1.271-3.298,3.717-4.197,5.559-4.197
	c0.17,0,0.335,0,0.494,0.03l47.036,11.332c4.102,0.995,7.128,4.502,7.475,8.699c-0.14-0.235-3.455-5.376-7.47-6.396
	c-6.988-1.794-27.836-6.141-27.836-6.141c-0.853-0.18-1.634-0.285-2.354-0.285c-6.111,0-7.635,6.576-7.747,11.257
	c-0.4,16.424-1.069,48.452-1.069,61.808v80.561h26.294V211.984"/>
<path fill="#1B1E22" d="M325.229,211.935H307.55v-77.667c0-18.627-0.237-37.225-0.729-55.772c-0.095-3.993-1.076-7.34-2.423-8.29
	l-8.744-6.166l21.732,6.166c3.328,0.949,5.769,4.297,6.036,8.29c1.204,18.547,1.807,37.145,1.807,55.772V211.935"/>
<polyline fill="#32373E" points="325.229,211.984 307.55,211.984 307.55,211.935 325.229,211.935 325.229,211.984 "/>
<path fill="#F2F2F2" d="M239.466,216.641v81.969c0,38.474-2.875,76.897-8.597,114.942l-7.377,49.066h-41.527l-7.38-49.066
	c-5.719-38.045-8.594-76.469-8.594-114.942v-81.969H239.466"/>
<path fill="#58335D" d="M210.881,453.845h-16.294c-6.328,0-11.697-4.656-12.597-10.927l-5.241-36.4
	c-5.284-36.686-7.935-73.73-7.935-110.825v-79.051h67.839v79.051c0,37.095-2.653,74.14-7.935,110.825l-5.242,36.4
	C222.575,449.188,217.207,453.845,210.881,453.845"/>
<polyline fill="#BFBFBF" points="240.378,216.641 240.378,262.689 165.991,262.689 165.991,216.641 240.378,216.641 "/>
<path fill="#F6F6F6" d="M195.251,462.619h-9.711l-1.864-14.939c2.244,3.707,6.323,6.165,10.91,6.165h0.192L195.251,462.619"/>
<path fill="#8D7490" d="M194.779,453.845h-0.192c-4.587,0-8.667-2.458-10.91-6.165l-4.252-34.127
	c-4.729-38.045-7.11-76.469-7.11-114.942v-35.921h17.206v35.921c0,38.474,1.039,76.897,3.083,114.942L194.779,453.845"/>
<polyline fill="#D3D3D3" points="189.521,262.689 172.314,262.689 172.314,218.075 189.521,218.075 189.521,262.689 "/>
<path fill="#C2C2C2" d="M214.731,462.619h-7.68l0.277-8.774h3.553c1.699,0,3.328-0.334,4.822-0.949L214.731,462.619"/>
<path fill="#46294A" d="M210.881,453.845h-3.553l0.065-2.203l3.041-38.089c3.018-38.045,4.547-76.469,4.547-114.942v-35.921h9.823
	v35.921c0,38.474-3.862,76.897-5.174,114.942l-3.927,39.343C214.208,453.511,212.58,453.845,210.881,453.845"/>
<polyline fill="#999999" points="224.804,262.689 214.98,262.689 214.98,218.075 224.804,218.075 224.804,262.689 "/>
<path fill="#CCCCCC" d="M235.342,378.352c2.746-26.482,4.125-53.084,4.125-79.741v-35.921h0.912v-46.048v81.969
	C240.378,325.268,238.694,351.869,235.342,378.352"/>
<path fill="#C2C2C2" d="M221.391,459.727l6.701-46.174c0.165-2.074,0.337-4.147,0.509-6.216l0.118-0.819
	c5.281-36.686,7.935-73.73,7.935-110.825v-33.003h2.813v35.921c0,26.657-1.379,53.259-4.125,79.741
	c-1.489,11.767-3.311,23.509-5.457,35.201L221.391,459.727"/>
<path fill="#46294A" d="M228.601,407.337c3.028-36.021,7.25-72.352,7.25-108.727v-35.921h0.802v33.003
	c0,37.095-2.653,74.14-7.935,110.825L228.601,407.337"/>
<polyline fill="#999999" points="240.378,262.689 239.466,262.689 236.653,262.689 235.852,262.689 235.852,218.075 
	239.466,218.075 239.466,216.641 240.378,216.641 240.378,262.689 "/>
<polyline fill="#C2C2C2" points="220.969,462.619 220.856,462.619 221.391,459.727 220.969,462.619 "/>
<path fill="#9B9B9B" d="M220.856,462.619h-6.125l0.972-9.724c4.064-1.664,7.115-5.396,7.774-9.978l5.124-35.581
	c-0.172,2.068-0.345,4.142-0.509,6.216l-6.701,46.174L220.856,462.619"/>
<path fill="#38213B" d="M215.703,452.896l3.927-39.343c1.312-38.045,5.174-76.469,5.174-114.942v-35.921h11.048v35.921
	c0,36.375-4.222,72.706-7.25,108.727l-5.124,35.581C222.818,447.499,219.767,451.231,215.703,452.896"/>
<polyline fill="#7A7A7A" points="235.852,262.689 224.804,262.689 224.804,218.075 235.852,218.075 235.852,262.689 "/>
<polyline fill="#F3F3F3" points="206.519,462.619 198.407,462.619 198.134,453.845 207.221,453.845 206.519,462.619 "/>
<path fill="#63426B" d="M207.221,453.845h-9.086l-1.264-40.292c-1.189-38.045-1.789-76.469-1.789-114.942v-35.921h15.294v35.921
	c0,38.474-0.6,76.897-1.789,114.942l-1.194,38.089L207.221,453.845"/>
<polyline fill="#C4C4C5" points="210.376,262.689 195.082,262.689 195.082,218.075 210.376,218.075 210.376,262.689 "/>
<polyline fill="#C6C7C7" points="207.051,462.619 206.519,462.619 207.221,453.845 207.328,453.845 207.051,462.619 "/>
<polyline fill="#533959" points="207.328,453.845 207.221,453.845 207.393,451.642 207.328,453.845 "/>
<polyline fill="#515151" points="234.732,208.662 171.64,208.662 171.64,216.641 234.732,216.641 234.732,208.662 "/>
<path fill="#22252A" d="M239.466,130.02v81.964h-73.475V130.02c0-18.547,1.801-48.377,3.493-70.432
	c0.465-6.011,6.203-10.178,12.072-8.774l48.177,11.617c4.12,0.995,7.158,4.527,7.482,8.749
	C238.714,90.751,239.466,110.373,239.466,130.02"/>
<polyline fill="#C8C8CA" points="214.98,218.075 210.376,218.075 210.376,216.641 214.98,216.641 214.98,218.075 "/>
<polyline fill="#FFFFFF" points="171.64,216.641 165.991,216.641 165.991,211.984 171.64,211.984 171.64,216.641 "/>
<path fill="#C8C8CA" d="M195.082,218.075h-5.561v-1.434h5.561V218.075 M172.314,218.075h-6.323v-1.434h5.649h0.674V218.075"/>
<polyline fill="#D9D9DA" points="189.521,218.075 172.314,218.075 172.314,216.641 189.521,216.641 189.521,218.075 "/>
<polyline fill="#FFFFFF" points="239.466,216.641 239.466,216.641 234.732,216.641 234.732,211.984 239.466,211.984 
	239.466,211.935 239.466,216.641 "/>
<path fill="#A7A8AA" d="M239.466,218.075h-3.615v-1.434h-1.12h4.734V218.075 M224.804,218.075h-9.823v-1.434h9.823V218.075"/>
<polyline fill="#8C8D90" points="235.852,218.075 224.804,218.075 224.804,216.641 234.732,216.641 235.852,216.641 
	235.852,218.075 "/>
<polyline fill="#CCCDCF" points="210.376,218.075 195.082,218.075 195.082,216.641 210.376,216.641 210.376,218.075 "/>
<polyline fill="#686A6E" points="234.732,216.641 224.804,216.641 214.98,216.641 210.376,216.641 195.082,216.641 189.521,216.641 
	172.314,216.641 171.64,216.641 171.64,211.984 217.027,211.984 234.707,211.984 234.732,211.984 234.732,216.641 "/>
<path fill="#FFFFFF" d="M237.213,71.13c0,0,0,0-0.002,0c-0.345-4.197-3.375-7.705-7.478-8.699l-47.038-11.332
	c0.165,0,0.32,0.025,0.47,0.05l46.574,11.257C233.86,63.375,236.893,66.908,237.213,71.13"/>
<path fill="#3F454D" d="M239.466,211.984h-4.734h-0.025v-0.05h4.759V211.984 M217.027,211.984H171.64h-5.649v-0.05h6.916v-80.561
	c0-18.188,1.469-47.533,2.843-69.203c0.13-2.068,0.257-5.241,0.897-6.905c1.272-3.298,3.715-4.197,5.556-4.197
	c0.172,0,0.335,0,0.492,0.03l47.038,11.332c4.103,0.995,7.133,4.502,7.478,8.699c-0.075-0.105-3.413-5.376-7.472-6.396
	c-6.988-1.794-27.836-6.141-27.836-6.141c-0.852-0.18-1.636-0.285-2.354-0.285c-6.111,0-7.635,6.576-7.747,11.257
	c-0.4,16.424-1.069,48.452-1.069,61.808v80.561h26.295V211.984"/>
<path fill="#1B1E22" d="M234.707,211.935h-17.68v-77.667c0-18.627-0.24-37.225-0.729-55.772c-0.095-3.993-1.077-7.34-2.423-8.29
	l-8.744-6.166l21.735,6.166c3.325,0.949,5.766,4.297,6.033,8.29c1.204,18.547,1.809,37.145,1.809,55.772V211.935"/>
<polyline fill="#32373E" points="234.707,211.984 217.027,211.984 217.027,211.935 234.707,211.935 234.707,211.984 "/>
<path fill="#F2F2F2" d="M148.943,216.641v81.969c0,38.474-2.875,76.897-8.594,114.942l-7.38,49.066H91.442l-7.382-49.066
	c-5.719-38.045-8.592-76.469-8.592-114.942v-81.969H148.943"/>
<path fill="#EB7260" d="M120.357,453.845h-16.294c-6.331,0-11.695-4.656-12.597-10.927l-5.241-36.4
	c-5.282-36.686-7.935-73.73-7.935-110.825v-79.051h67.839v79.051c0,37.095-2.653,74.14-7.935,110.825l-5.242,36.4
	C132.054,449.188,126.686,453.845,120.357,453.845"/>
<polyline fill="#BFBFBF" points="149.857,216.641 149.857,262.689 75.468,262.689 75.468,216.641 149.857,216.641 "/>
<path fill="#F6F6F6" d="M104.73,462.619h-9.713l-1.861-14.939c2.238,3.707,6.321,6.165,10.908,6.165h0.192L104.73,462.619"/>
<path fill="#F19F93" d="M104.256,453.845h-0.192c-4.587,0-8.669-2.458-10.908-6.165l-4.257-34.127
	c-4.727-38.045-7.105-76.469-7.105-114.942v-35.921h17.203v35.921c0,38.474,1.037,76.897,3.081,114.942L104.256,453.845"/>
<polyline fill="#D3D3D3" points="98.997,262.689 81.793,262.689 81.793,218.075 98.997,218.075 98.997,262.689 "/>
<path fill="#C2C2C2" d="M124.209,462.619h-7.682l0.277-8.774h3.553c1.701,0,3.33-0.334,4.822-0.949L124.209,462.619"/>
<path fill="#BC5B4D" d="M120.357,453.845h-3.553l0.065-2.178l3.038-38.114c3.021-38.045,4.552-76.469,4.552-114.942v-35.921h9.818
	v35.921c0,38.474-3.86,76.897-5.174,114.942l-3.925,39.343C123.688,453.511,122.059,453.845,120.357,453.845"/>
<polyline fill="#999999" points="134.278,262.689 124.459,262.689 124.459,218.075 134.278,218.075 134.278,262.689 "/>
<path fill="#CCCCCC" d="M144.816,378.376c2.748-26.507,4.127-53.108,4.127-79.766v-35.921h0.915v-46.048v81.969
	C149.857,325.268,148.168,351.869,144.816,378.376"/>
<path fill="#C2C2C2" d="M130.865,459.727l6.703-46.174c0.165-2.074,0.337-4.147,0.512-6.246l0.115-0.789
	c5.281-36.686,7.935-73.73,7.935-110.825v-33.003h2.813v35.921c0,26.657-1.379,53.259-4.127,79.766
	c-1.489,11.742-3.308,23.484-5.454,35.177L130.865,459.727"/>
<path fill="#BC5B4D" d="M138.08,407.307c3.028-35.99,7.248-72.321,7.248-108.696v-35.921h0.802v33.003
	c0,37.095-2.653,74.14-7.935,110.825L138.08,407.307"/>
<polyline fill="#999999" points="149.857,262.689 148.943,262.689 146.13,262.689 145.328,262.689 145.328,218.075 148.943,218.075 
	148.943,216.641 149.857,216.641 149.857,262.689 "/>
<polyline fill="#C2C2C2" points="130.445,462.619 130.331,462.619 130.865,459.727 130.445,462.619 "/>
<path fill="#9B9B9B" d="M130.331,462.619h-6.121l0.97-9.724c4.067-1.664,7.115-5.396,7.774-9.978l5.126-35.611
	c-0.175,2.099-0.347,4.172-0.512,6.246l-6.703,46.174L130.331,462.619"/>
<path fill="#96493E" d="M125.179,452.896l3.925-39.343c1.314-38.045,5.174-76.469,5.174-114.942v-35.921h11.05v35.921
	c0,36.375-4.219,72.706-7.248,108.696l-5.126,35.611C132.294,447.499,129.246,451.231,125.179,452.896"/>
<polyline fill="#7A7A7A" points="145.328,262.689 134.278,262.689 134.278,218.075 145.328,218.075 145.328,262.689 "/>
<polyline fill="#F3F3F3" points="115.998,462.619 107.883,462.619 107.608,453.845 116.7,453.845 115.998,462.619 "/>
<path fill="#ED7C6D" d="M116.7,453.845h-9.091l-1.262-40.292c-1.191-38.045-1.789-76.469-1.789-114.942v-35.921h15.292v35.921
	c0,38.474-0.597,76.897-1.786,114.942l-1.194,38.114L116.7,453.845"/>
<polyline fill="#C4C4C5" points="119.85,262.689 104.558,262.689 104.558,218.075 119.85,218.075 119.85,262.689 "/>
<polyline fill="#C6C7C7" points="116.527,462.619 115.998,462.619 116.7,453.845 116.805,453.845 116.527,462.619 "/>
<polyline fill="#C1675C" points="116.805,453.845 116.7,453.845 116.87,451.667 116.805,453.845 "/>
<polyline fill="#515151" points="144.206,208.662 81.114,208.662 81.114,216.641 144.206,216.641 144.206,208.662 "/>
<path fill="#22252A" d="M148.943,130.02v81.964H75.468V130.02c0-18.547,1.799-48.377,3.493-70.432
	c0.465-6.011,6.206-10.178,12.072-8.774l48.177,11.617c4.12,0.995,7.158,4.527,7.482,8.749
	C148.191,90.751,148.943,110.373,148.943,130.02"/>
<polyline fill="#C8C8CA" points="124.459,218.075 119.85,218.075 119.85,216.641 124.459,216.641 124.459,218.075 "/>
<polyline fill="#FFFFFF" points="81.114,216.641 75.468,216.641 75.468,211.984 81.114,211.984 81.114,216.641 "/>
<path fill="#C8C8CA" d="M104.558,218.075h-5.562v-1.434h5.562V218.075 M81.793,218.075h-6.326v-1.434h5.646h0.68V218.075"/>
<polyline fill="#D9D9DA" points="98.997,218.075 81.793,218.075 81.793,216.641 98.997,216.641 98.997,218.075 "/>
<polyline fill="#FFFFFF" points="148.943,216.641 148.943,216.641 144.206,216.641 144.206,211.984 148.943,211.984 
	148.943,211.935 148.943,216.641 "/>
<path fill="#A7A8AA" d="M148.943,218.075h-3.615v-1.434h-1.122h4.737V218.075 M134.278,218.075h-9.818v-1.434h9.818V218.075"/>
<polyline fill="#8C8D90" points="145.328,218.075 134.278,218.075 134.278,216.641 144.206,216.641 145.328,216.641 
	145.328,218.075 "/>
<polyline fill="#CCCDCF" points="119.85,218.075 104.558,218.075 104.558,216.641 119.85,216.641 119.85,218.075 "/>
<polyline fill="#686A6E" points="144.206,216.641 134.278,216.641 124.459,216.641 119.85,216.641 104.558,216.641 98.997,216.641 
	81.793,216.641 81.114,216.641 81.114,211.984 126.503,211.984 144.181,211.984 144.206,211.984 144.206,216.641 "/>
<path fill="#FFFFFF" d="M146.689,71.13c0,0,0,0-0.002,0c-0.347-4.197-3.378-7.705-7.478-8.699L92.171,51.099
	c0.165,0,0.32,0.025,0.47,0.05l46.573,11.257C143.337,63.375,146.372,66.908,146.689,71.13"/>
<path fill="#3F454D" d="M148.943,211.984h-4.737h-0.025v-0.05h4.762V211.984 M126.503,211.984H81.114h-5.646v-0.05h6.916v-80.561
	c0-18.188,1.469-47.533,2.843-69.203c0.13-2.068,0.255-5.241,0.895-6.905c1.274-3.298,3.717-4.197,5.559-4.197
	c0.172,0,0.335,0,0.492,0.03l47.038,11.332c4.1,0.995,7.13,4.502,7.478,8.699c-0.112-0.18-3.435-5.376-7.473-6.396
	c-6.988-1.794-27.836-6.141-27.836-6.141c-0.85-0.18-1.634-0.285-2.354-0.285c-6.111,0-7.632,6.576-7.747,11.257
	c-0.4,16.424-1.067,48.452-1.067,61.808v80.561h26.292V211.984"/>
<path fill="#1B1E22" d="M144.181,211.935h-17.678v-77.667c0-18.627-0.237-37.225-0.729-55.772c-0.095-3.993-1.079-7.34-2.423-8.29
	l-8.744-6.166l21.735,6.166c3.328,0.949,5.766,4.297,6.036,8.29c1.204,18.547,1.804,37.145,1.804,55.772V211.935"/>
<polyline fill="#32373E" points="144.181,211.984 126.503,211.984 126.503,211.935 144.181,211.935 144.181,211.984 "/>
</svg>
