<?xml version="1.0" encoding="utf-8"?>
<!-- Generator: Adobe Illustrator 16.0.0, SVG Export Plug-In . SVG Version: 6.00 Build 0)  -->
<!DOCTYPE svg PUBLIC "-//W3C//DTD SVG 1.1 Tiny//EN" "http://www.w3.org/Graphics/SVG/1.1/DTD/svg11-tiny.dtd">
<svg version="1.1" baseProfile="tiny" id="Layer_1" xmlns="http://www.w3.org/2000/svg" xmlns:xlink="http://www.w3.org/1999/xlink"
	 x="0px" y="0px" width="500px" height="500px" viewBox="0 0 500 500" xml:space="preserve">
<g>
	<polygon fill="#FFFFFF" points="171.78,60.396 158.638,60.396 158.638,45.064 171.78,45.064 171.78,60.396 	"/>
	<path fill="#D34418" d="M246.374,46.3c2.682,0.438,5.05,2.212,6.054,4.769c1.21,3.081,0.093,6.315-1.074,9.215
		c-0.232,0.581,0.707,0.833,0.938,0.258c1.282-3.189,2.379-6.726,0.941-10.065c-1.159-2.7-3.709-4.643-6.598-5.114
		C246.022,45.262,245.76,46.199,246.374,46.3L246.374,46.3L246.374,46.3z"/>
	<path fill="#281607" d="M207.593,78.413h83.625c0,0,21.679,26.493-7.711,86.7l-24.698,327.064l-24.136-1.341
		c0,0-42.912-360.724-38.889-385.533C199.807,80.495,207.593,78.413,207.593,78.413L207.593,78.413z"/>
	<path fill="#D34418" d="M238.938,59.081c-2.434-3.748-1.738-8.959,2.105-11.484c3.629-2.384,8.508-1.42,10.808,2.316
		c2.687,4.366-0.316,9.714-2.005,13.885c-1.899,4.693-3.8,9.386-5.701,14.079c-0.233,0.58,0.708,0.832,0.938,0.258
		c1.84-4.545,3.683-9.091,5.523-13.638c1.568-3.873,4.03-8.297,3.087-12.612c-0.69-3.158-3.405-5.77-6.556-6.433
		c-3.236-0.682-6.724,0.696-8.753,3.28c-2.444,3.114-2.405,7.576-0.286,10.84C238.439,60.095,239.281,59.608,238.938,59.081
		L238.938,59.081L238.938,59.081z"/>
	<path fill="#D34418" d="M324.556,109.717c-2.599-1.349-5.197-2.698-7.798-4.047c-6.219-3.229-12.439-6.457-18.658-9.686
		c-7.512-3.898-15.021-7.796-22.531-11.694c-6.354-3.298-12.709-6.598-19.063-9.896c-2.025-1.05-4.052-2.102-6.076-3.152
		c-0.78-0.406-1.676-1.08-2.53-1.314c-0.62-0.171-1.368,0.409-1.917,0.683c-1.68,0.836-3.358,1.673-5.038,2.51
		c-5.999,2.989-11.998,5.98-17.998,8.97c-7.516,3.746-15.032,7.491-22.547,11.236c-6.752,3.366-13.505,6.73-20.257,10.096
		c-3.69,1.839-7.38,3.677-11.069,5.516c-0.174,0.087-0.349,0.174-0.523,0.261c-0.444,0.221-0.216,0.904,0.246,0.906
		c5.185,0.017,10.371,0.035,15.556,0.052c12.364,0.041,24.73,0.083,37.094,0.124c14.946,0.05,29.892,0.1,44.841,0.149
		c12.985,0.043,25.971,0.087,38.954,0.13c4.234,0.014,8.47,0.029,12.704,0.042c2.018,0.007,4.087,0.146,6.104,0.02
		c0.086-0.004,0.176,0.001,0.264,0.001c0.624,0.002,0.626-0.97,0-0.973c-5.185-0.016-10.369-0.034-15.559-0.051
		c-12.364-0.042-24.726-0.083-37.094-0.124c-14.944-0.05-29.893-0.1-44.838-0.149c-12.986-0.043-25.971-0.087-38.957-0.13
		c-4.234-0.014-8.468-0.028-12.703-0.042c-1.335-0.004-2.671-0.008-4.006-0.012c-0.626-0.003-1.485-0.162-2.097-0.008
		c-0.076,0.02-0.183,0-0.263,0c0.082,0.303,0.164,0.604,0.245,0.906c2.604-1.298,5.208-2.596,7.813-3.894
		c6.292-3.136,12.584-6.272,18.876-9.407c7.579-3.777,15.158-7.554,22.736-11.331c6.554-3.267,13.11-6.534,19.666-9.8
		c2.165-1.08,4.328-2.158,6.495-3.238c0.675-0.337,1.354-0.674,2.029-1.011c0.285-0.141,0.871-0.3,1.085-0.54
		c0.024-0.03,0.095-0.048,0.131-0.066c-0.163,0-0.325,0-0.491,0c2.534,1.314,5.065,2.627,7.594,3.941
		c6.116,3.174,12.232,6.35,18.349,9.524c7.372,3.825,14.739,7.65,22.108,11.476c6.398,3.322,12.804,6.645,19.204,9.968
		c2.099,1.09,4.199,2.181,6.3,3.27c0.976,0.506,1.967,1.166,2.996,1.556c0.049,0.018,0.093,0.047,0.135,0.07
		C324.618,110.845,325.112,110.005,324.556,109.717L324.556,109.717z"/>
	<path fill="#EDA342" d="M207.593,78.413c-5.916,20.019-8.156,41.727-2.082,61.698c2.606,8.567,6.671,16.61,9.792,25.002
		c3.392,9.124,5.656,18.618,7.911,28.087c3.431,14.411,6.863,28.818,10.295,43.229c3.338,14.017,6.682,28.061,8.656,42.335
		c1.934,13.996-0.054,23.625,0.554,37.744c0.615,14.302-0.615,33.973,0,48.276c1.867,43.383-1.461,85.953-2.681,129.359
		l-102.345-6.649c-1.125-41.791-0.789-83.625,1.011-125.397l-9.299,29.505l-51.627-23.466
		c18.103-81.13,42.379-152.119,70.283-227.422c4.072-10.99,9.271-23.011,20.024-27.672L207.593,78.413L207.593,78.413z"/>
	<path fill="#FFE5CA" d="M141.749,161.126c2.553,2.547,4.206,6.058,5.61,9.333c1.535,3.576,2.603,7.212,3.345,11.029
		c1.953,10.037,3.047,20.228,3.811,30.421c0.424,5.656,0.739,11.323,1.019,16.99c0.015,0.311,0.501,0.313,0.486,0
		c-0.516-10.441-1.151-20.884-2.366-31.27c-1.043-8.914-2.063-18.183-5.508-26.541c-1.488-3.612-3.251-7.509-6.054-10.307
		C141.872,160.56,141.527,160.904,141.749,161.126L141.749,161.126L141.749,161.126z"/>
	<path fill="#FFE5CA" d="M158.907,300.556c4.718,0.017,9.423,0.333,14.102,0.948c0.309,0.042,0.307-0.444,0-0.485
		c-4.678-0.615-9.383-0.932-14.102-0.948C158.594,300.068,158.593,300.554,158.907,300.556L158.907,300.556L158.907,300.556z"/>
	<path fill="#FFE5CA" d="M173.555,301.997c-2.984,20.625-5.2,41.358-6.62,62.15c-0.404,5.909-0.742,11.826-1.02,17.744
		c-0.015,0.313,0.471,0.31,0.486,0c0.972-20.715,2.714-41.393,5.241-61.975c0.729-5.937,1.524-11.868,2.381-17.79
		C174.068,301.819,173.6,301.689,173.555,301.997L173.555,301.997L173.555,301.997z"/>
	<path fill="#FFE5CA" d="M165.647,382.115c-4.668-1.003-9.366-1.854-14.091-2.547c-0.306-0.044-0.438,0.423-0.129,0.469
		c4.725,0.695,9.423,1.542,14.091,2.547C165.823,382.648,165.954,382.18,165.647,382.115L165.647,382.115L165.647,382.115z"/>
	<path fill="#FFE5CA" d="M157.61,300.267c-4.423,20.48-6.911,41.375-7.383,62.324c-0.136,5.979-0.103,11.96,0.084,17.938
		c0.01,0.312,0.496,0.313,0.486,0c-0.657-20.98,0.669-42.014,4.002-62.738c0.937-5.825,2.034-11.626,3.28-17.395
		C158.145,300.089,157.676,299.962,157.61,300.267L157.61,300.267L157.61,300.267z"/>
	<path fill="#FFE5CA" d="M168.162,113.237c-0.098,6.816-0.257,13.632-0.403,20.448c-0.074,3.469-0.147,6.938-0.208,10.409
		c-0.057,3.204-0.205,6.438,0.071,9.634c0.296,3.431,1.176,6.79,3.435,9.469c0.072,0.085,0.204,0.083,0.294,0.037
		c5.783-2.891,11.857-5.122,18.137-6.664c-0.091-0.119-0.183-0.238-0.274-0.357c-3.324,4.507-6.658,9.004-9.971,13.516
		c-1.241,1.692-2.538,3.51-2.638,5.683c-0.11,2.377,1.062,4.661,1.949,6.798c3.569,8.603,7.47,17.067,11.747,25.34
		c8.479,16.399,18.458,32.017,29.954,46.47c6.627,8.329,13.749,16.257,21.286,23.771c0.224,0.222,0.567-0.122,0.346-0.344
		c-13.036-12.992-24.777-27.245-34.971-42.572c-10.022-15.069-18.537-31.106-25.732-47.705c-1.095-2.525-2.206-5.059-3.196-7.628
		c-0.555-1.442-1.034-2.954-0.849-4.517c0.178-1.5,0.945-2.813,1.792-4.035c3.42-4.939,7.137-9.696,10.704-14.533
		c0.133-0.179-0.086-0.403-0.274-0.357c-4.776,1.174-9.448,2.737-13.958,4.699c-1.105,0.482-2.199,0.988-3.282,1.515
		c-0.902,0.437-1.06,0.183-1.581-0.595c-0.307-0.458-0.575-0.939-0.815-1.435c-0.989-2.039-1.421-4.313-1.614-6.556
		c-0.355-4.127-0.099-8.328-0.019-12.466c0.087-4.504,0.187-9.011,0.283-13.518c0.103-4.836,0.206-9.671,0.275-14.508
		C168.653,112.924,168.167,112.923,168.162,113.237L168.162,113.237L168.162,113.237z"/>
	<path fill="#281607" d="M138.704,362.097c0,0,16.18-97.44,16.627-128.731c0,0,4.023,26.373-16.539,142.593L138.704,362.097
		L138.704,362.097z"/>
	<path fill="#EDA342" d="M291.218,78.413c5.915,20.019,8.156,41.727,2.082,61.698c-2.607,8.567-6.671,16.61-9.793,25.002
		c-3.392,9.124-5.653,18.618-7.911,28.087c-3.432,14.411-6.86,28.818-10.294,43.229c-3.338,14.017-6.68,28.061-8.656,42.335
		c-1.935,13.996-2.545,28.141-3.153,42.256c-0.615,14.302-0.772,25.441-1.388,39.74c-1.867,43.384,3.474,89.978,4.694,133.384
		l104.317-6.649c1.126-41.791,0.791-83.625-1.011-125.397l9.301,29.505l51.625-23.466c-18.103-81.13-42.377-152.119-70.283-227.422
		c-4.071-10.99-9.27-23.011-20.021-27.672L291.218,78.413L291.218,78.413z"/>
	<path fill="#FFE5CA" d="M356.718,160.781c-2.549,2.543-4.203,6.006-5.616,9.269c-1.496,3.45-2.603,6.972-3.337,10.657
		c-2.013,10.142-3.139,20.444-3.921,30.747c-0.444,5.81-0.767,11.625-1.053,17.444c-0.017,0.311,0.469,0.311,0.485,0
		c0.496-10.064,1.103-20.128,2.236-30.141c0.578-5.124,1.296-10.237,2.225-15.313c0.707-3.865,1.565-7.584,3.003-11.25
		c1.508-3.851,3.35-8.102,6.32-11.068C357.283,160.904,356.938,160.56,356.718,160.781L356.718,160.781L356.718,160.781z"/>
	<path fill="#FFE5CA" d="M339.903,300.07c-4.718,0.017-9.424,0.333-14.101,0.948c-0.306,0.041-0.312,0.527,0,0.485
		c4.677-0.615,9.383-0.932,14.101-0.948C340.215,300.554,340.217,300.068,339.903,300.07L339.903,300.07L339.903,300.07z"/>
	<path fill="#FFE5CA" d="M324.786,302.127c2.99,20.66,5.203,41.43,6.62,62.259c0.396,5.832,0.73,11.666,1.004,17.506
		c0.015,0.31,0.501,0.313,0.486,0c-0.984-20.956-2.756-41.871-5.332-62.69c-0.709-5.741-1.479-11.477-2.31-17.204
		C325.209,301.689,324.744,301.819,324.786,302.127L324.786,302.127L324.786,302.127z"/>
	<path fill="#FFE5CA" d="M333.294,382.584c4.666-1.005,9.365-1.852,14.088-2.547c0.31-0.046,0.178-0.513-0.128-0.469
		c-4.725,0.692-9.422,1.544-14.09,2.547C332.856,382.18,332.986,382.648,333.294,382.584L333.294,382.584L333.294,382.584z"/>
	<path fill="#FFE5CA" d="M340.732,300.396c4.427,20.517,6.908,41.442,7.369,62.431c0.13,5.9,0.094,11.802-0.09,17.702
		c-0.011,0.312,0.477,0.312,0.487,0c0.655-20.945-0.668-41.94-3.979-62.636c-0.948-5.905-2.057-11.782-3.318-17.627
		C341.134,299.962,340.665,300.089,340.732,300.396L340.732,300.396L340.732,300.396z"/>
	<path fill="#FFE5CA" d="M330.161,113.237c0.128,8.759,0.35,17.517,0.525,26.275c0.084,4.155,0.286,8.338,0.121,12.49
		c-0.088,2.181-0.324,4.381-1,6.466c-0.328,1.026-0.764,2.022-1.337,2.941c-0.354,0.569-0.63,1.303-1.373,1.102
		c-0.612-0.163-1.257-0.61-1.835-0.877c-5.078-2.355-10.378-4.198-15.813-5.533c-0.187-0.046-0.404,0.178-0.271,0.357
		c3.227,4.379,6.455,8.751,9.684,13.13c1.563,2.12,3.168,4.288,2.783,7.071c-0.331,2.407-1.563,4.731-2.499,6.953
		c-3.613,8.596-7.567,17.05-11.899,25.308c-8.396,16.013-18.237,31.266-29.54,45.386c-6.484,8.1-13.433,15.818-20.782,23.142
		c-0.222,0.222,0.122,0.565,0.346,0.344c13.205-13.164,25.084-27.62,35.376-43.171c10.337-15.614,19.056-32.258,26.381-49.484
		c1.016-2.387,2.235-4.81,2.886-7.326c0.643-2.477,0.017-4.626-1.377-6.717c-3.396-5.11-7.296-9.942-10.941-14.88
		c-0.088,0.119-0.182,0.238-0.273,0.357c6.279,1.542,12.354,3.773,18.137,6.664c0.09,0.046,0.224,0.049,0.295-0.037
		c4.137-4.903,3.628-11.821,3.525-17.829c-0.112-6.958-0.278-13.912-0.425-20.87c-0.077-3.753-0.152-7.508-0.207-11.262
		C330.643,112.924,330.157,112.923,330.161,113.237L330.161,113.237L330.161,113.237z"/>
	<path fill="#281607" d="M360.105,362.097c0,0-16.181-97.44-16.624-128.731c0,0-4.023,26.373,16.536,142.593L360.105,362.097
		L360.105,362.097z"/>
	<path fill="#C87540" d="M112.533,98.975c-14.578,13.353-29.485,44.262-20.074,55.235c6.396,7.456,17.864,8.27,27.715,6.71
		c28.605-4.532,52.566-23.515,72.773-43.866c15.19-15.3,29.297-32.024,38.438-51.372c8.379-17.731,16.693-42.957,1.478-55.521
		c-13.836-11.425-43.786,0.79-64.285,26.05"/>
	<path fill="#C65720" d="M190.539,38.487c-11.11-7.71-20.119-12.14-33.648-15.079c-4.986-0.059-10.011,0.876-14.658,2.683
		c-7.462,2.901-15.418,7.976-22.306,12.057c-19.304,11.438-24.473,28.45-21.209,46.871c4.866,12.365,12.496,23.374,23.085,31.086
		c2.982,2.172,6.9,2.541,10.238,0.968c14.707-6.935,28.269-15.479,39.052-27.753c12.03-13.694,20.795-29.9,21.233-48.123l0,0
		C192.104,40.097,191.46,39.127,190.539,38.487L190.539,38.487z"/>
	<path fill="#B54412" d="M103.308,78.733c3.017,6.664,20.341-13.972,23.382-16.877c9.803-9.359,19.605-18.719,29.408-28.081
		c5.948-5.681-3.042-5.234-6.784-3.699c-15.897,6.521-30.04,13.343-40.044,27.596c-2.563,3.651-3.761,6.826-5.224,11.089
		C103.425,70.568,102.242,76.377,103.308,78.733L103.308,78.733z"/>
	<path fill="#5B80BC" d="M115.326,110.193c0,0,3.671,5.314,6.478,5.913c0,0,1.092,3.021,3.714,2.433
		c2.623-0.589,60.746-10.52,66.809-77.341c0,0-1.182-4.101-3.106-4.33c0,0-4.438-3.081-5.575-2.991
		C183.645,33.876,171.295,109.202,115.326,110.193L115.326,110.193z"/>
</g>
</svg>
