<?xml version="1.0" encoding="utf-8"?>
<!-- Generator: Adobe Illustrator 16.0.0, SVG Export Plug-In . SVG Version: 6.00 Build 0)  -->
<!DOCTYPE svg PUBLIC "-//W3C//DTD SVG 1.1 Tiny//EN" "http://www.w3.org/Graphics/SVG/1.1/DTD/svg11-tiny.dtd">
<svg version="1.1" baseProfile="tiny" id="Layer_1" xmlns="http://www.w3.org/2000/svg" xmlns:xlink="http://www.w3.org/1999/xlink"
	 x="0px" y="0px" width="500px" height="500px" viewBox="0 0 500 500" xml:space="preserve">
<g>
	<path fill="#515151" d="M377.91,271.083v181.175c0,4.822-3.913,8.737-8.73,8.737H160.184c-4.817,0-8.718-3.915-8.718-8.737V271.083
		c0-4.817,3.901-8.733,8.718-8.733H369.18C373.997,262.35,377.91,266.266,377.91,271.083"/>
	<path fill="#414141" d="M162.781,449.67L162.781,449.67v-64.93h0.005v64.93 M357.936,443.735H180.013
		c0-14.797,11.994-26.785,26.785-26.785h151.138V443.735 M205.17,421.553v19.274h119.024v-11.588v-5.581v-2.105H205.17"/>
	<polyline fill="#414141" points="366.587,449.67 162.786,449.67 366.582,449.67 366.582,307.852 366.587,307.847 366.587,449.67 	
		"/>
	<path fill="#343434" d="M366.582,449.67H162.781l0.005-64.93c1.611,0.168,3.228,0.315,4.849,0.449v27.549h194.097v-99.782
		c1.638-1.677,3.257-3.376,4.851-5.104V449.67 M206.798,416.95c-14.792,0-26.785,11.988-26.785,26.785h177.923V416.95H206.798"/>
	<polyline fill="#22252A" points="167.635,412.738 167.635,278.526 361.731,278.526 361.731,412.738 167.635,412.738 	"/>
	<polyline fill="#FDB26B" points="293.028,347.585 293.028,408.165 171.872,408.165 171.872,347.585 293.028,347.585 	"/>
	<polyline fill="#EB7260" points="293.028,282.852 293.028,343.427 171.872,343.427 171.872,282.852 293.028,282.852 	"/>
	<polyline fill="#F4867A" points="357.504,282.852 357.504,343.427 297.221,343.427 297.221,282.852 357.504,282.852 	"/>
	<polyline fill="#F29A71" points="357.504,347.585 357.504,408.165 297.221,408.165 297.221,347.585 357.504,347.585 	"/>
	<polyline fill="#22252A" points="297.221,282.852 297.221,408.565 293.028,408.565 293.028,282.852 297.221,282.852 	"/>
	<polyline fill="#22252A" points="357.936,343.427 357.936,347.585 171.423,347.585 171.423,343.427 357.936,343.427 	"/>
	<polyline fill="#BFBFBF" points="324.194,440.827 205.17,440.827 205.17,421.553 324.194,421.553 324.194,440.827 	"/>
	<polyline fill="#D3D3D3" points="324.194,429.239 205.17,429.239 205.17,423.658 324.194,423.658 324.194,429.239 	"/>
	<path fill="#22252A" d="M341.611,440.827h-17.417v-19.274h17.417c3.653,0,6.62,2.965,6.62,6.617v6.04
		C348.231,437.862,345.265,440.827,341.611,440.827L341.611,440.827z"/>
	<path fill="#22252A" d="M187.752,421.553h17.417v19.274h-17.417c-3.653,0-6.618-2.965-6.618-6.617v-6.04
		C181.135,424.518,184.1,421.553,187.752,421.553L187.752,421.553z"/>
	<path fill="#7A7A7A" d="M162.781,384.74c-3.798-0.391-7.57-0.873-11.315-1.437V271.083c0-4.817,3.901-8.733,8.718-8.733H369.18
		c4.817,0,8.73,3.916,8.73,8.733v23.601c-3.621,4.526-7.394,8.914-11.323,13.163v-34.176H162.786h-0.005V384.74"/>
	<polyline fill="#6E6E6E" points="162.786,384.74 162.781,384.74 162.781,273.671 162.786,384.74 	"/>
	<polyline fill="#6E6E6E" points="366.582,307.852 366.582,273.671 162.781,273.671 162.786,273.671 366.587,273.671 
		366.587,307.847 366.582,307.852 	"/>
	<path fill="#646464" d="M167.635,385.189c-1.621-0.134-3.237-0.281-4.849-0.449V273.671h203.796v34.181
		c-1.594,1.729-3.213,3.428-4.851,5.104v-34.43H167.635V385.189"/>
	<path fill="#56595D" d="M171.872,385.5c-1.413-0.086-2.826-0.196-4.237-0.311V278.526h194.097v34.43
		c-1.394,1.422-2.8,2.826-4.228,4.216v-34.32h-60.283h-4.192v60.575H171.423v4.158h0.449V385.5 M171.872,282.852v60.575h121.156
		v-60.575H171.872"/>
	<path fill="#FEC48E" d="M187.891,386.025c-5.381,0-10.719-0.177-16.019-0.525v-37.915h121.156v14.62
		C261.203,377.474,225.552,386.025,187.891,386.025"/>
	<polyline fill="#EF9486" points="293.028,343.427 171.872,343.427 171.872,282.852 293.028,282.852 293.028,343.427 	"/>
	<path fill="#F6A299" d="M325.474,343.427h-28.253v-60.575h60.283v34.32C347.604,326.797,336.89,335.587,325.474,343.427"/>
	<path fill="#F5B293" d="M297.221,360.143v-12.558h21.994C312.124,352.141,304.785,356.332,297.221,360.143"/>
	<path fill="#56595D" d="M293.028,362.205v-14.62h4.192v12.558C295.828,360.844,294.43,361.531,293.028,362.205 M297.221,343.427
		h-4.192v-60.575h4.192V343.427"/>
	<path fill="#56595D" d="M319.215,347.585h-21.994h-4.192H171.872h-0.449v-4.158h121.605h4.192h28.253
		C323.411,344.845,321.32,346.234,319.215,347.585"/>
</g>
<g>
	<polyline fill="#515151" points="367.947,33.594 367.947,240.129 161.412,240.129 161.412,33.594 367.947,33.594 	"/>
	<path fill="#626467" d="M179.071,179.25c-5.943-0.041-11.835-0.301-17.659-0.781V33.594h206.535v49.635
		c-7.229,10.031-15.238,19.451-23.945,28.17c-4.782-3.129-10.498-4.949-16.631-4.949c-16.772,0-30.418,13.641-30.418,30.41
		c0,3.48,0.586,6.82,1.664,9.939c-2.263,1.35-4.558,2.66-6.869,3.941c2.141-4.16,3.351-8.881,3.351-13.881
		c0-16.77-13.646-30.41-30.419-30.41s-30.419,13.641-30.419,30.41c0,14.109,9.651,26.01,22.7,29.43
		c-11.527,4.041-23.471,7.201-35.752,9.381c-5.242-4.281-11.937-6.861-19.222-6.861C192.856,168.809,184.652,172.859,179.071,179.25
		 M201.987,106.449c-16.773,0-30.42,13.641-30.42,30.41c0,16.779,13.646,30.42,30.42,30.42s30.419-13.641,30.419-30.42
		C232.406,120.09,218.761,106.449,201.987,106.449 M327.371,44.076c-16.772,0-30.418,13.646-30.418,30.418
		c0,16.775,13.646,30.416,30.418,30.416c16.773,0,30.42-13.641,30.42-30.416C357.791,57.723,344.145,44.076,327.371,44.076
		 M264.68,44.076c-16.773,0-30.419,13.646-30.419,30.418c0,16.775,13.646,30.416,30.419,30.416s30.419-13.641,30.419-30.416
		C295.099,57.723,281.453,44.076,264.68,44.076 M201.987,44.076c-16.773,0-30.42,13.646-30.42,30.418
		c0,16.775,13.646,30.416,30.42,30.416s30.419-13.641,30.419-30.416C232.406,57.723,218.761,44.076,201.987,44.076"/>
	<path fill="#4E5052" d="M327.371,104.91c-16.772,0-30.418-13.641-30.418-30.416c0-16.771,13.646-30.418,30.418-30.418
		c16.773,0,30.42,13.646,30.42,30.418C357.791,91.27,344.145,104.91,327.371,104.91 M308.051,95.949
		c5.117,4.609,11.891,7.42,19.32,7.42c15.946,0,28.873-12.93,28.873-28.875s-12.927-28.871-28.873-28.871
		c-5.326,0-10.315,1.441-14.599,3.957c-8.542,5.014-14.278,14.295-14.278,24.914c0,8.496,3.672,16.135,9.516,21.416
		c0.011,0.01,0.021,0.02,0.031,0.029C308.045,95.949,308.048,95.949,308.051,95.949"/>
	<path fill="#4E5052" d="M264.68,104.91c-16.773,0-30.419-13.641-30.419-30.416c0-16.771,13.646-30.418,30.419-30.418
		s30.419,13.646,30.419,30.418C295.099,91.27,281.453,104.91,264.68,104.91 M235.881,76.58
		c1.068,14.969,13.554,26.789,28.799,26.789c15.945,0,28.872-12.93,28.872-28.875s-12.927-28.871-28.872-28.871
		c-15.946,0-28.873,12.926-28.873,28.871l0,0l0,0c0,0.027,0,0.057,0,0.086c0,0.008,0,0.016,0,0.025c0,0.02,0,0.039,0.001,0.061
		c0,0.008,0,0.018,0,0.027c0,0.021,0,0.043,0,0.064c0,0.008,0,0.014,0,0.021c0.001,0.027,0.001,0.055,0.001,0.084
		c0,0.008,0.001,0.014,0.001,0.021c0,0.021,0,0.041,0.001,0.063c0,0.01,0,0.02,0,0.029c0,0.02,0.001,0.039,0.001,0.059
		c0,0.01,0,0.018,0.001,0.027c0,0.027,0.001,0.055,0.001,0.082c0,0.006,0.001,0.012,0.001,0.018c0,0.021,0.001,0.045,0.001,0.066
		c0,0.012,0.001,0.02,0.001,0.031c0,0.018,0.001,0.035,0.001,0.053c0.001,0.012,0.001,0.023,0.001,0.035
		c0.001,0.018,0.002,0.035,0.002,0.055c0,0.01,0.002,0.018,0.002,0.027c0,0.027,0.002,0.053,0.002,0.078
		c0,0.012,0,0.025,0.002,0.035c0,0.016,0,0.033,0.002,0.049c0,0.014,0,0.025,0,0.039c0.002,0.014,0.002,0.029,0.002,0.043
		s0.002,0.027,0.002,0.041c0,0.018,0.002,0.035,0.002,0.053c0.002,0.021,0.002,0.043,0.002,0.064
		c0.002,0.012,0.002,0.023,0.002,0.039c0.002,0.014,0.003,0.029,0.003,0.045c0.001,0.012,0.002,0.023,0.002,0.035
		c0.001,0.016,0.002,0.031,0.003,0.047c0,0.01,0.001,0.02,0.001,0.031c0.002,0.035,0.004,0.07,0.006,0.109c0,0,0,0,0.001,0.01
		c0.001,0.021,0.002,0.041,0.003,0.061c0,0,0.001,0.01,0.001,0.02c0.001,0.021,0.002,0.031,0.004,0.051c0,0.01,0,0.02,0.001,0.02
		c0.005,0.07,0.009,0.141,0.013,0.201l0,0c0.002,0.029,0.004,0.049,0.006,0.07V76.58"/>
	<path fill="#4E5052" d="M201.987,104.91c-16.773,0-30.42-13.641-30.42-30.416c0-16.771,13.646-30.418,30.42-30.418
		s30.419,13.646,30.419,30.418C232.406,91.27,218.761,104.91,201.987,104.91 M201.987,45.623c-15.946,0-28.873,12.926-28.873,28.871
		s12.927,28.875,28.873,28.875c15.945,0,28.872-12.93,28.872-28.875S217.933,45.623,201.987,45.623"/>
	<path fill="#414141" d="M327.371,167.279c-13.297,0-24.627-8.57-28.754-20.48c0.453-0.27,0.899-0.539,1.351-0.809
		c0.882,2.648,2.137,5.119,3.704,7.369c0.004,0,0.007,0.01,0.011,0.02c0.009,0.01,0.019,0.02,0.026,0.031
		c5.223,7.459,13.873,12.33,23.662,12.33c15.946,0,28.873-12.932,28.873-28.881c0-10.23-5.324-19.221-13.354-24.35
		c0.37-0.361,0.745-0.74,1.112-1.111c8.297,5.441,13.789,14.82,13.789,25.461C357.791,153.639,344.145,167.279,327.371,167.279"/>
	<path fill="#4E5052" d="M298.617,146.799c-1.078-3.119-1.664-6.459-1.664-9.939c0-16.77,13.646-30.41,30.418-30.41
		c6.133,0,11.849,1.82,16.631,4.949c-0.367,0.371-0.742,0.75-1.112,1.111c-4.463-2.85-9.763-4.51-15.447-4.52
		c-0.021,0-0.041,0-0.062,0c-0.004,0-0.006,0-0.01,0h-0.002c-0.002,0-0.002,0-0.004,0c-15.942,0-28.871,12.93-28.871,28.869l0,0l0,0
		c0,3.189,0.519,6.26,1.474,9.131C299.517,146.26,299.07,146.529,298.617,146.799"/>
	<path fill="#414141" d="M264.68,167.279c-2.666,0-5.254-0.34-7.719-0.99c0.916-0.32,1.83-0.65,2.742-0.98
		c1.616,0.281,3.279,0.432,4.977,0.432c10.344,0,19.417-5.441,24.516-13.621c0.854-0.449,1.704-0.92,2.553-1.379
		C286.695,160.549,276.459,167.279,264.68,167.279"/>
	<path fill="#4E5052" d="M256.961,166.289c-13.049-3.42-22.7-15.32-22.7-29.43c0-16.77,13.646-30.41,30.419-30.41
		s30.419,13.641,30.419,30.41c0,5-1.21,9.721-3.351,13.881c-0.849,0.459-1.698,0.93-2.553,1.379c2.762-4.43,4.356-9.65,4.356-15.26
		c0-15.859-12.796-28.74-28.63-28.869c-0.01,0-0.019,0-0.028,0c-0.015,0-0.026,0-0.042,0c-0.021,0-0.045,0-0.066,0
		c-0.01,0-0.02,0-0.028,0c-0.024,0-0.048,0-0.073,0c-0.002,0-0.003,0-0.004,0l0,0c-0.002,0-0.003,0-0.003,0
		c-15.943,0-28.87,12.93-28.87,28.869l0,0l0,0l0,0l0,0c0,0.01,0,0.01,0,0.01c0,0.029,0,0.051,0,0.07s0,0.029,0,0.039
		c0,0.021,0,0.031,0.001,0.041c0,0.02,0,0.039,0,0.049c0,0.012,0,0.012,0,0.021c0.108,14.15,10.392,25.869,23.896,28.219
		C258.791,165.639,257.877,165.969,256.961,166.289"/>
	<path fill="#4E5052" d="M201.987,167.279c-16.773,0-30.42-13.641-30.42-30.42c0-16.77,13.646-30.41,30.42-30.41
		s30.419,13.641,30.419,30.41C232.406,153.639,218.761,167.279,201.987,167.279 M201.987,107.99
		c-15.946,0-28.873,12.93-28.873,28.869c0,15.949,12.927,28.881,28.873,28.881c15.945,0,28.872-12.932,28.872-28.881
		c0-15.27-11.857-27.77-26.868-28.801c-0.004,0-0.008,0-0.011,0c-0.03,0-0.062-0.01-0.092-0.01c-0.007,0-0.014,0-0.021,0
		c-0.017,0-0.032,0-0.049,0c-0.009,0-0.018,0-0.027,0c-0.023,0-0.047-0.01-0.07-0.01c-0.013,0-0.025,0-0.037,0
		c-0.014,0-0.027,0-0.041,0c-0.021,0-0.041,0-0.063-0.01c-0.012,0-0.021,0-0.033,0c-0.021,0-0.043,0-0.065,0
		c-0.007,0-0.017,0-0.024,0c-0.02,0-0.041,0-0.063-0.01c-0.007,0-0.017,0-0.024,0c-0.024,0-0.05,0-0.075,0c-0.006,0-0.014,0-0.02,0
		c-0.025,0-0.049,0-0.074,0c-0.002,0-0.006,0-0.008,0c-0.027-0.01-0.055-0.01-0.082-0.01c-0.006,0-0.01,0-0.016,0
		c-0.028,0-0.056,0-0.084,0c-0.002,0-0.005,0-0.008,0c-0.025,0-0.053,0-0.078,0c-0.004,0-0.009,0-0.013,0
		c-0.027-0.01-0.054-0.01-0.082-0.01c-0.005,0-0.011,0-0.015,0c-0.057,0-0.113,0-0.17,0c-0.005,0-0.008,0-0.014,0
		c-0.027,0-0.056,0-0.084,0c-0.002,0-0.007,0-0.01,0c-0.027,0-0.054,0-0.081-0.01c-0.003,0-0.005,0-0.007,0
		c-0.028,0-0.057,0-0.085,0c-0.004,0-0.009,0-0.013,0c-0.029,0-0.057,0-0.086,0c-0.001,0-0.004,0-0.005,0c-0.027,0-0.056,0-0.083,0
		c-0.003,0-0.007,0-0.01,0c-0.028,0-0.056,0-0.084,0c-0.005,0-0.01,0-0.015,0C202.044,107.99,202.016,107.99,201.987,107.99
		L201.987,107.99L201.987,107.99"/>
	<path fill="#414141" d="M327.371,229.648c-16.772,0-30.418-13.639-30.418-30.42c0-16.77,13.646-30.42,30.418-30.42
		c16.773,0,30.42,13.65,30.42,30.42C357.791,216.01,344.145,229.648,327.371,229.648 M303.86,216
		c5.236,7.33,13.815,12.1,23.511,12.1c15.946,0,28.873-12.92,28.873-28.871c0-15.92-12.889-28.83-28.802-28.869
		c-0.021,0-0.041,0-0.062,0c-0.004,0-0.006,0-0.01,0h-0.002c-0.002,0-0.002,0-0.004,0c-15.942,0-28.871,12.93-28.871,28.869
		c0,6.23,1.974,11.99,5.328,16.711c0.004,0.01,0.01,0.01,0.014,0.02C303.845,215.969,303.853,215.979,303.86,216"/>
	<path fill="#414141" d="M264.68,229.648c-16.773,0-30.419-13.639-30.419-30.42c0-16.77,13.646-30.42,30.419-30.42
		s30.419,13.65,30.419,30.42C295.099,216.01,281.453,229.648,264.68,229.648 M235.81,199.66c0.231,15.75,13.067,28.439,28.87,28.439
		c15.945,0,28.872-12.92,28.872-28.871c0-15.859-12.796-28.738-28.63-28.869c-0.01,0-0.019,0-0.028,0c-0.015,0-0.026,0-0.042,0
		c-0.021,0-0.045,0-0.066,0c-0.01,0-0.02,0-0.028,0c-0.024,0-0.048,0-0.073,0c-0.002,0-0.003,0-0.004,0l0,0
		c-0.002,0-0.003,0-0.003,0c-15.943,0-28.87,12.93-28.87,28.869l0,0l0,0v0.012c0,0.02,0,0.049,0,0.068c0,0.01,0,0.031,0,0.041
		s0,0.029,0.001,0.039c0,0.021,0,0.031,0,0.051c0,0.01,0,0.02,0,0.029C235.809,199.529,235.809,199.6,235.81,199.66L235.81,199.66"
		/>
	<path fill="#414141" d="M201.987,229.648c-16.773,0-30.42-13.639-30.42-30.42c0-7.639,2.834-14.629,7.504-19.979
		c0.472,0,0.943,0,1.414,0c0.222,0,0.439,0,0.66,0c-4.975,5.189-8.031,12.229-8.031,19.979c0,15.951,12.927,28.871,28.873,28.871
		c15.945,0,28.872-12.92,28.872-28.871c0-9.51-4.597-17.939-11.689-23.199c0.683-0.119,1.358-0.24,2.039-0.359
		c6.83,5.59,11.197,14.07,11.197,23.559C232.406,216.01,218.761,229.648,201.987,229.648"/>
	<path fill="#4E5052" d="M180.485,179.25c-0.471,0-0.942,0-1.414,0c5.581-6.391,13.785-10.441,22.916-10.441
		c7.285,0,13.979,2.58,19.222,6.861c-0.681,0.119-1.356,0.24-2.039,0.359c-4.3-3.189-9.515-5.211-15.179-5.6
		c-0.004,0-0.008,0-0.011,0c-0.03,0-0.062-0.01-0.092-0.01c-0.007,0-0.014,0-0.021,0c-0.017,0-0.032,0-0.049,0
		c-0.009,0-0.018,0-0.027-0.01c-0.023,0-0.047,0-0.07,0c-0.013,0-0.025,0-0.037,0c-0.014,0-0.027,0-0.041,0
		c-0.021-0.012-0.041-0.012-0.063-0.012c-0.012,0-0.021,0-0.033,0c-0.021,0-0.043,0-0.065,0c-0.007,0-0.017,0-0.024,0
		c-0.02,0-0.041-0.01-0.063-0.01c-0.007,0-0.017,0-0.024,0c-0.024,0-0.05,0-0.075,0c-0.006,0-0.014,0-0.02,0
		c-0.025,0-0.049,0-0.074-0.01c-0.002,0-0.006,0-0.008,0c-0.027,0-0.055,0-0.082,0c-0.006,0-0.01,0-0.016,0
		c-0.028,0-0.056,0-0.084,0c-0.002,0-0.005,0-0.008,0c-0.025,0-0.053,0-0.078-0.01c-0.004,0-0.009,0-0.013,0
		c-0.027,0-0.054,0-0.082,0c-0.005,0-0.011,0-0.015,0c-0.057,0-0.113,0-0.17,0c-0.005,0-0.008,0-0.014,0
		c-0.027,0-0.056,0-0.084-0.01c-0.002,0-0.007,0-0.01,0c-0.027,0-0.054,0-0.081,0c-0.003,0-0.005,0-0.007,0
		c-0.028,0-0.057,0-0.085,0c-0.004,0-0.009,0-0.013,0c-0.029,0-0.057,0-0.086,0c-0.001,0-0.004,0-0.005,0c-0.027,0-0.056,0-0.083,0
		c-0.003,0-0.007,0-0.01,0c-0.028,0-0.056,0-0.084,0c-0.005,0-0.01,0-0.015,0c-0.028,0-0.057,0-0.085,0l0,0l0,0
		c-8.192,0-15.587,3.41-20.842,8.891C180.925,179.25,180.707,179.25,180.485,179.25"/>
	<path fill="#9EAC55" d="M356.244,74.494c0,15.945-12.927,28.875-28.873,28.875c-15.945,0-28.873-12.93-28.873-28.875
		s12.928-28.871,28.873-28.871C343.317,45.623,356.244,58.549,356.244,74.494"/>
	<path fill="#CEC6BA" d="M293.552,74.494c0,15.945-12.927,28.875-28.872,28.875c-15.946,0-28.873-12.93-28.873-28.875
		s12.927-28.871,28.873-28.871C280.625,45.623,293.552,58.549,293.552,74.494"/>
	<path fill="#3DAA9D" d="M230.859,74.494c0,15.945-12.927,28.875-28.872,28.875c-15.946,0-28.873-12.93-28.873-28.875
		s12.927-28.871,28.873-28.871C217.933,45.623,230.859,58.549,230.859,74.494"/>
	<path fill="#BFC679" d="M356.244,136.859c0,15.949-12.927,28.881-28.873,28.881c-15.945,0-28.873-12.932-28.873-28.881
		c0-15.939,12.928-28.869,28.873-28.869C343.317,107.99,356.244,120.92,356.244,136.859"/>
	<path fill="#E5D8C7" d="M293.552,136.859c0,15.949-12.927,28.881-28.872,28.881c-15.946,0-28.873-12.932-28.873-28.881
		c0-15.939,12.927-28.869,28.873-28.869C280.625,107.99,293.552,120.92,293.552,136.859"/>
	<path fill="#4DC4B7" d="M230.859,136.859c0,15.949-12.927,28.881-28.872,28.881c-15.946,0-28.873-12.932-28.873-28.881
		c0-15.939,12.927-28.869,28.873-28.869C217.933,107.99,230.859,120.92,230.859,136.859"/>
	<path fill="#D1E1BA" d="M356.244,199.229c0,15.951-12.927,28.871-28.873,28.871c-15.945,0-28.873-12.92-28.873-28.871
		c0-15.939,12.928-28.869,28.873-28.869C343.317,170.359,356.244,183.289,356.244,199.229"/>
	<path fill="#F2F2F2" d="M293.552,199.229c0,15.951-12.927,28.871-28.872,28.871c-15.946,0-28.873-12.92-28.873-28.871
		c0-15.939,12.927-28.869,28.873-28.869C280.625,170.359,293.552,183.289,293.552,199.229"/>
	<path fill="#96E2D6" d="M230.859,199.229c0,15.951-12.927,28.871-28.872,28.871c-15.946,0-28.873-12.92-28.873-28.871
		c0-15.939,12.927-28.869,28.873-28.869C217.933,170.359,230.859,183.289,230.859,199.229"/>
	<path fill="#7BC5BC" d="M191.782,101.5c-10.91-4.111-18.664-14.66-18.664-27.006c0-15.941,12.927-28.869,28.869-28.869
		c4.918,0,9.541,1.229,13.592,3.402c-3.17-1.199-6.602-1.855-10.189-1.855c-15.95,0-28.877,12.926-28.877,28.869
		C176.513,87.07,182.697,96.648,191.782,101.5"/>
	<path fill="#868889" d="M235.881,76.58v-0.01V76.58 M235.875,76.5L235.875,76.5L235.875,76.5 M235.862,76.299
		c-0.001,0-0.001-0.01-0.001-0.02C235.861,76.289,235.861,76.299,235.862,76.299 M235.857,76.229c0-0.01-0.001-0.02-0.001-0.02
		S235.857,76.219,235.857,76.229 M235.854,76.148c-0.001-0.01-0.001-0.01-0.001-0.01S235.853,76.148,235.854,76.148 M235.847,76.029
		c0-0.012-0.001-0.021-0.001-0.031C235.846,76.008,235.847,76.018,235.847,76.029 M235.843,75.951c0-0.012-0.001-0.023-0.002-0.035
		C235.842,75.928,235.843,75.939,235.843,75.951 M235.838,75.871c0-0.016,0-0.027-0.002-0.039
		C235.838,75.844,235.838,75.855,235.838,75.871 M235.834,75.768c0-0.018-0.002-0.035-0.002-0.053
		C235.832,75.73,235.834,75.75,235.834,75.768 M235.83,75.674c0-0.014,0-0.029-0.002-0.043
		C235.83,75.645,235.83,75.66,235.83,75.674 M235.828,75.592c-0.002-0.016-0.002-0.033-0.002-0.049
		C235.826,75.559,235.826,75.576,235.828,75.592 M235.824,75.508c0-0.025-0.002-0.051-0.002-0.078
		C235.822,75.457,235.824,75.482,235.824,75.508 M235.82,75.402c0-0.02-0.001-0.037-0.002-0.055
		C235.819,75.365,235.82,75.383,235.82,75.402 M235.817,75.313c0-0.018-0.001-0.035-0.001-0.053
		C235.816,75.275,235.817,75.295,235.817,75.313 M235.815,75.229c0-0.021-0.001-0.045-0.001-0.066
		C235.814,75.184,235.815,75.207,235.815,75.229 M235.813,75.145c0-0.027-0.001-0.055-0.001-0.082
		C235.813,75.09,235.813,75.117,235.813,75.145 M235.812,75.035c0-0.02-0.001-0.039-0.001-0.059
		C235.811,74.996,235.812,75.016,235.812,75.035 M235.811,74.947c-0.001-0.021-0.001-0.041-0.001-0.063
		C235.81,74.906,235.81,74.926,235.811,74.947 M235.809,74.863c0-0.029,0-0.057-0.001-0.084
		C235.809,74.807,235.809,74.836,235.809,74.863 M235.808,74.758c0-0.021,0-0.043,0-0.064
		C235.808,74.715,235.808,74.736,235.808,74.758 M235.808,74.666c-0.001-0.021-0.001-0.041-0.001-0.061
		C235.807,74.625,235.807,74.645,235.808,74.666 M235.807,74.58c0-0.029,0-0.059,0-0.086l0,0
		C235.807,74.521,235.807,74.551,235.807,74.58"/>
	<path fill="#DED8D0" d="M254.471,101.5c-10.29-3.881-17.773-13.48-18.59-24.92v-0.01c-0.002-0.021-0.004-0.041-0.006-0.07l0,0
		c-0.004-0.061-0.008-0.131-0.013-0.201c-0.001,0-0.001-0.01-0.001-0.02c-0.002-0.01-0.003-0.029-0.004-0.051
		c0-0.01-0.001-0.02-0.001-0.02c-0.001-0.02-0.002-0.039-0.003-0.061c-0.001,0-0.001-0.01-0.001-0.01
		c-0.002-0.039-0.004-0.074-0.006-0.109c0-0.012-0.001-0.021-0.001-0.031c-0.001-0.016-0.002-0.031-0.003-0.047
		c0-0.012-0.001-0.023-0.002-0.035c0-0.016-0.001-0.031-0.003-0.045c0-0.016,0-0.027-0.002-0.039c0-0.021,0-0.043-0.002-0.064
		c0-0.018-0.002-0.037-0.002-0.053c0-0.014-0.002-0.027-0.002-0.041s0-0.029-0.002-0.043c0-0.014,0-0.025,0-0.039
		c-0.002-0.016-0.002-0.033-0.002-0.049c-0.002-0.012-0.002-0.023-0.002-0.035c0-0.025-0.002-0.051-0.002-0.078
		c0-0.008-0.002-0.018-0.002-0.027c0-0.02-0.001-0.037-0.002-0.055c0-0.012,0-0.023-0.001-0.035c0-0.018-0.001-0.037-0.001-0.053
		c0-0.01-0.001-0.021-0.001-0.031c0-0.021-0.001-0.045-0.001-0.066c0-0.006-0.001-0.012-0.001-0.018
		c0-0.027-0.001-0.055-0.001-0.082c-0.001-0.01-0.001-0.018-0.001-0.027c0-0.02-0.001-0.039-0.001-0.059c0-0.01,0-0.02,0-0.029
		c-0.001-0.021-0.001-0.041-0.001-0.063c0-0.008-0.001-0.014-0.001-0.021c0-0.027,0-0.057-0.001-0.084c0-0.008,0-0.016,0-0.021
		c0-0.021,0-0.043,0-0.064c0-0.01,0-0.02,0-0.027c-0.001-0.021-0.001-0.041-0.001-0.061c0-0.01,0-0.018,0-0.025
		c0-0.029,0-0.059,0-0.086c0-15.941,12.927-28.869,28.87-28.869c4.917,0,9.541,1.229,13.592,3.402
		c-3.17-1.199-6.603-1.855-10.19-1.855c-15.951,0-28.877,12.926-28.877,28.869C239.201,87.07,245.386,96.648,254.471,101.5"/>
	<path fill="#868889" d="M308.051,95.949c-0.003,0-0.006,0-0.01-0.01C308.045,95.949,308.048,95.949,308.051,95.949 M308.01,95.91
		c-5.844-5.281-9.516-12.92-9.516-21.416c0-10.619,5.736-19.9,14.278-24.914c-8.54,5.016-14.274,14.295-14.274,24.914
		C298.498,82.99,302.168,90.629,308.01,95.91"/>
	<path fill="#BDC68B" d="M317.16,101.5c-3.387-1.271-6.469-3.17-9.109-5.551c-0.003,0-0.006,0-0.01-0.01
		c-0.01-0.01-0.021-0.02-0.031-0.029c-5.842-5.281-9.512-12.92-9.512-21.416c0-10.619,5.734-19.898,14.274-24.914
		c4.282-2.514,9.269-3.955,14.593-3.955c4.918,0,9.541,1.229,13.592,3.402c-3.17-1.199-6.603-1.855-10.19-1.855
		c-15.95,0-28.877,12.926-28.877,28.869C301.89,87.07,308.074,96.648,317.16,101.5"/>
	<path fill="#ACAEAE" d="M203.991,108.059c-0.004,0-0.007,0-0.011,0C203.983,108.059,203.987,108.059,203.991,108.059
		 M203.889,108.049c-0.007,0-0.014,0-0.021,0C203.875,108.049,203.882,108.049,203.889,108.049 M203.819,108.049
		c-0.008,0-0.019,0-0.027,0C203.802,108.049,203.811,108.049,203.819,108.049 M203.722,108.039c-0.013,0-0.025,0-0.037,0
		C203.696,108.039,203.709,108.039,203.722,108.039 M203.644,108.039c-0.02,0-0.042,0-0.063-0.01
		C203.603,108.039,203.623,108.039,203.644,108.039 M203.548,108.029c-0.021,0-0.043,0-0.065,0
		C203.505,108.029,203.526,108.029,203.548,108.029 M203.458,108.029c-0.021,0-0.041,0-0.063-0.01
		C203.417,108.029,203.438,108.029,203.458,108.029 M203.371,108.02c-0.024,0-0.05,0-0.075,0
		C203.321,108.02,203.347,108.02,203.371,108.02 M203.276,108.02c-0.025,0-0.049,0-0.074,0
		C203.228,108.02,203.251,108.02,203.276,108.02 M203.194,108.02c-0.027-0.01-0.055-0.01-0.082-0.01
		C203.14,108.01,203.167,108.01,203.194,108.02 M203.097,108.01c-0.027,0-0.057,0-0.084,0
		C203.041,108.01,203.068,108.01,203.097,108.01 M203.005,108.01c-0.026,0-0.053,0-0.078,0
		C202.952,108.01,202.979,108.01,203.005,108.01 M202.914,108.01c-0.028-0.01-0.054-0.01-0.082-0.01
		C202.86,108,202.887,108,202.914,108.01 M202.817,108c-0.057,0-0.113,0-0.17,0C202.704,108,202.761,108,202.817,108 M202.634,108
		c-0.027,0-0.055,0-0.084,0C202.578,108,202.606,108,202.634,108 M202.54,108c-0.027,0-0.054,0-0.081-0.01
		C202.486,108,202.513,108,202.54,108 M202.452,107.99c-0.028,0-0.057,0-0.085,0C202.396,107.99,202.424,107.99,202.452,107.99
		 M202.354,107.99c-0.029,0-0.057,0-0.086,0C202.298,107.99,202.325,107.99,202.354,107.99 M202.264,107.99
		c-0.028,0-0.055,0-0.083,0C202.208,107.99,202.236,107.99,202.264,107.99 M202.171,107.99c-0.028,0-0.056,0-0.084,0
		C202.115,107.99,202.143,107.99,202.171,107.99 M202.072,107.99c-0.028,0-0.057,0-0.085,0l0,0
		C202.016,107.99,202.044,107.99,202.072,107.99"/>
	<path fill="#ACE4DE" d="M191.782,163.869c-10.91-4.119-18.664-14.66-18.664-27.01c0-15.939,12.927-28.869,28.869-28.869
		c0.028,0,0.057,0,0.085,0c0.005,0,0.01,0,0.015,0c0.028,0,0.056,0,0.084,0c0.003,0,0.006,0,0.01,0c0.028,0,0.055,0,0.083,0
		c0.001,0,0.003,0,0.005,0c0.029,0,0.057,0,0.086,0c0.004,0,0.008,0,0.013,0c0.028,0,0.057,0,0.085,0c0.002,0,0.004,0,0.007,0
		c0.027,0.01,0.054,0.01,0.081,0.01c0.004,0,0.007,0,0.01,0c0.029,0,0.057,0,0.084,0c0.005,0,0.01,0,0.014,0c0.057,0,0.113,0,0.17,0
		c0.004,0,0.01,0,0.015,0c0.028,0,0.054,0,0.082,0.01c0.004,0,0.009,0,0.013,0c0.025,0,0.052,0,0.078,0c0.003,0,0.006,0,0.008,0
		c0.027,0,0.057,0,0.084,0c0.005,0,0.01,0,0.016,0c0.027,0,0.055,0,0.082,0.01c0.002,0,0.006,0,0.008,0c0.025,0,0.049,0,0.074,0
		c0.006,0,0.013,0,0.02,0c0.025,0,0.051,0,0.075,0c0.009,0,0.017,0,0.024,0c0.021,0.01,0.042,0.01,0.063,0.01
		c0.009,0,0.017,0,0.024,0c0.022,0,0.044,0,0.065,0c0.012,0,0.022,0,0.033,0c0.021,0.01,0.043,0.01,0.063,0.01
		c0.014,0,0.027,0,0.041,0c0.012,0,0.024,0,0.037,0c0.023,0,0.047,0.01,0.07,0.01c0.009,0,0.02,0,0.027,0c0.017,0,0.033,0,0.049,0
		c0.007,0,0.014,0,0.021,0c0.03,0,0.062,0.01,0.092,0.01c0.004,0,0.007,0,0.011,0c4.17,0.291,8.092,1.461,11.588,3.33
		c-3.17-1.199-6.602-1.85-10.189-1.85c-15.95,0-28.877,12.92-28.877,28.871l0,0l0,0C176.513,149.43,182.697,159.01,191.782,163.869"
		/>
	<path fill="#ACAEAE" d="M235.808,137.09c0-0.01,0-0.01,0-0.021C235.808,137.08,235.808,137.08,235.808,137.09 M235.808,137.02
		c-0.001-0.01-0.001-0.02-0.001-0.041C235.807,137,235.807,137.01,235.808,137.02 M235.807,136.939c0-0.02,0-0.041,0-0.07
		C235.807,136.898,235.807,136.92,235.807,136.939 M235.807,136.859L235.807,136.859c0-15.939,12.927-28.869,28.87-28.869h0.001
		C248.733,107.99,235.807,120.92,235.807,136.859 M264.922,107.99c-0.01,0-0.02,0-0.028,0
		C264.903,107.99,264.912,107.99,264.922,107.99 M264.852,107.99c-0.021,0-0.045,0-0.066,0
		C264.807,107.99,264.83,107.99,264.852,107.99 M264.757,107.99c-0.024,0-0.05,0-0.073,0
		C264.709,107.99,264.732,107.99,264.757,107.99"/>
	<path fill="#F3EDE5" d="M254.471,163.869c-10.842-4.09-18.568-14.529-18.663-26.779c0-0.01,0-0.01,0-0.021c0-0.01,0-0.029,0-0.049
		c-0.001-0.01-0.001-0.02-0.001-0.041c0-0.01,0-0.02,0-0.039s0-0.041,0-0.07c0,0,0,0,0-0.01c0-15.939,12.927-28.869,28.873-28.869
		c0,0,0.002,0,0.004,0c0.023,0,0.049,0,0.073,0c0.009,0,0.019,0,0.028,0c0.021,0,0.045,0,0.066,0c0.014,0,0.027,0,0.042,0
		c0.009,0,0.019,0,0.028,0c4.826,0.039,9.363,1.27,13.347,3.398c-3.17-1.199-6.603-1.85-10.19-1.85
		c-15.951,0-28.877,12.92-28.877,28.871l0,0l0,0C239.201,149.43,245.386,159.01,254.471,163.869"/>
	<path fill="#A6A6A6" d="M303.709,153.41c-0.008-0.012-0.018-0.021-0.026-0.031C303.691,153.389,303.701,153.398,303.709,153.41
		 M303.672,153.359c-1.567-2.25-2.822-4.721-3.704-7.369h0.002C300.851,148.639,302.105,151.109,303.672,153.359"/>
	<path fill="#ACAEAE" d="M299.968,145.99c-0.955-2.871-1.474-5.941-1.474-9.131c0-15.939,12.929-28.869,28.871-28.869
		c0.002,0,0.002,0,0.004,0c-15.944,0-28.871,12.93-28.871,28.869c0,3.189,0.518,6.26,1.472,9.131H299.968 M327.442,107.99
		c-0.021,0-0.041,0-0.062,0C327.401,107.99,327.422,107.99,327.442,107.99"/>
	<path fill="#E1E4C1" d="M317.16,163.869c-5.47-2.061-10.146-5.74-13.451-10.459c-0.008-0.012-0.018-0.021-0.026-0.031
		c-0.004-0.01-0.007-0.02-0.011-0.02c-1.566-2.25-2.821-4.721-3.702-7.369c-0.954-2.871-1.472-5.941-1.472-9.131
		c0-15.939,12.927-28.869,28.871-28.869c0.004,0,0.008,0,0.012,0c0.021,0,0.041,0,0.062,0c4.888,0.01,9.484,1.238,13.515,3.398
		c-3.17-1.199-6.603-1.85-10.19-1.85c-15.95,0-28.877,12.92-28.877,28.871l0,0l0,0C301.89,149.43,308.074,159.01,317.16,163.869"/>
	<path fill="#868889" d="M203.991,170.43c-0.004,0-0.007,0-0.011,0C203.983,170.43,203.987,170.43,203.991,170.43 M203.889,170.42
		c-0.007,0-0.014,0-0.021,0C203.875,170.42,203.882,170.42,203.889,170.42 M203.819,170.42c-0.008,0-0.019,0-0.027-0.01
		C203.802,170.42,203.811,170.42,203.819,170.42 M203.722,170.41c-0.013,0-0.025,0-0.037,0
		C203.696,170.41,203.709,170.41,203.722,170.41 M203.644,170.41c-0.02,0-0.042-0.012-0.063-0.012
		C203.603,170.398,203.623,170.398,203.644,170.41 M203.548,170.398c-0.021,0-0.043,0-0.065,0
		C203.505,170.398,203.526,170.398,203.548,170.398 M203.458,170.398c-0.021,0-0.041-0.01-0.063-0.01
		C203.417,170.389,203.438,170.398,203.458,170.398 M203.371,170.389c-0.024,0-0.05,0-0.075,0
		C203.321,170.389,203.347,170.389,203.371,170.389 M203.276,170.389c-0.025,0-0.049,0-0.074-0.01
		C203.228,170.389,203.251,170.389,203.276,170.389 M203.194,170.379c-0.027,0-0.055,0-0.082,0
		C203.14,170.379,203.167,170.379,203.194,170.379 M203.097,170.379c-0.027,0-0.057,0-0.084,0
		C203.041,170.379,203.068,170.379,203.097,170.379 M203.005,170.379c-0.026,0-0.053,0-0.078-0.01
		C202.952,170.379,202.979,170.379,203.005,170.379 M202.914,170.369c-0.028,0-0.054,0-0.082,0
		C202.86,170.369,202.887,170.369,202.914,170.369 M202.817,170.369c-0.057,0-0.113,0-0.17,0
		C202.704,170.369,202.761,170.369,202.817,170.369 M202.634,170.369c-0.027,0-0.055,0-0.084-0.01
		C202.578,170.369,202.606,170.369,202.634,170.369 M202.54,170.359c-0.027,0-0.054,0-0.081,0
		C202.486,170.359,202.513,170.359,202.54,170.359 M202.452,170.359c-0.028,0-0.057,0-0.085,0
		C202.396,170.359,202.424,170.359,202.452,170.359 M202.354,170.359c-0.029,0-0.057,0-0.086,0
		C202.298,170.359,202.325,170.359,202.354,170.359 M202.264,170.359c-0.028,0-0.055,0-0.083,0
		C202.208,170.359,202.236,170.359,202.264,170.359 M202.171,170.359c-0.028,0-0.056,0-0.084,0
		C202.115,170.359,202.143,170.359,202.171,170.359 M202.072,170.359c-0.028,0-0.057,0-0.085,0l0,0
		C202.016,170.359,202.044,170.359,202.072,170.359"/>
	<path fill="#B7EBE3" d="M191.782,226.24c-10.91-4.121-18.664-14.66-18.664-27.012c0-15.939,12.927-28.869,28.869-28.869
		c0.028,0,0.057,0,0.085,0c0.005,0,0.01,0,0.015,0c0.028,0,0.056,0,0.084,0c0.003,0,0.006,0,0.01,0c0.028,0,0.055,0,0.083,0
		c0.001,0,0.003,0,0.005,0c0.029,0,0.057,0,0.086,0c0.004,0,0.008,0,0.013,0c0.028,0,0.057,0,0.085,0c0.002,0,0.004,0,0.007,0
		c0.027,0,0.054,0,0.081,0c0.004,0,0.007,0,0.01,0c0.029,0.01,0.057,0.01,0.084,0.01c0.005,0,0.01,0,0.014,0c0.057,0,0.113,0,0.17,0
		c0.004,0,0.01,0,0.015,0c0.028,0,0.054,0,0.082,0c0.004,0,0.009,0,0.013,0c0.025,0.01,0.052,0.01,0.078,0.01
		c0.003,0,0.006,0,0.008,0c0.027,0,0.057,0,0.084,0c0.005,0,0.01,0,0.016,0c0.027,0,0.055,0,0.082,0c0.002,0,0.006,0,0.008,0
		c0.025,0.01,0.049,0.01,0.074,0.01c0.006,0,0.013,0,0.02,0c0.025,0,0.051,0,0.075,0c0.009,0,0.017,0,0.024,0
		c0.021,0,0.042,0.01,0.063,0.01c0.009,0,0.017,0,0.024,0c0.022,0,0.044,0,0.065,0c0.012,0,0.022,0,0.033,0
		c0.021,0,0.043,0.012,0.063,0.012c0.014,0,0.027,0,0.041,0c0.012,0,0.024,0,0.037,0c0.023,0,0.047,0,0.07,0
		c0.009,0.01,0.02,0.01,0.027,0.01c0.017,0,0.033,0,0.049,0c0.007,0,0.014,0,0.021,0c0.03,0,0.062,0.01,0.092,0.01
		c0.004,0,0.007,0,0.011,0c4.17,0.279,8.092,1.459,11.588,3.33c-3.17-1.201-6.602-1.85-10.189-1.85
		c-15.95,0-28.877,12.92-28.877,28.869C176.513,211.799,182.697,221.379,191.782,226.24"/>
	<path fill="#7D7D7D" d="M235.81,199.66L235.81,199.66L235.81,199.66 M235.808,199.469c0-0.01,0-0.02,0-0.029
		C235.808,199.449,235.808,199.459,235.808,199.469 M235.808,199.389c-0.001-0.01-0.001-0.029-0.001-0.039
		C235.807,199.359,235.807,199.379,235.808,199.389 M235.807,199.309c0-0.02,0-0.049,0-0.068
		C235.807,199.26,235.807,199.289,235.807,199.309 M235.807,199.229L235.807,199.229c0-15.939,12.927-28.869,28.87-28.869h0.001
		C248.733,170.359,235.807,183.289,235.807,199.229 M264.922,170.359c-0.01,0-0.02,0-0.028,0
		C264.903,170.359,264.912,170.359,264.922,170.359 M264.852,170.359c-0.021,0-0.045,0-0.066,0
		C264.807,170.359,264.83,170.359,264.852,170.359 M264.757,170.359c-0.024,0-0.05,0-0.073,0
		C264.709,170.359,264.732,170.359,264.757,170.359"/>
	<path fill="#F6F6F6" d="M254.471,226.24c-10.781-4.07-18.482-14.422-18.661-26.58l0,0c-0.001-0.061-0.001-0.131-0.002-0.191
		c0-0.01,0-0.02,0-0.029c0-0.02,0-0.029,0-0.051c-0.001-0.01-0.001-0.029-0.001-0.039s0-0.031,0-0.041c0-0.02,0-0.049,0-0.068
		v-0.012c0-15.939,12.927-28.869,28.873-28.869c0,0,0.002,0,0.004,0c0.023,0,0.049,0,0.073,0c0.009,0,0.019,0,0.028,0
		c0.021,0,0.045,0,0.066,0c0.014,0,0.027,0,0.042,0c0.009,0,0.019,0,0.028,0c4.826,0.039,9.363,1.27,13.347,3.4
		c-3.17-1.201-6.603-1.85-10.19-1.85c-15.951,0-28.877,12.92-28.877,28.869C239.201,211.799,245.386,221.379,254.471,226.24"/>
	<path fill="#7D7D7D" d="M303.86,216c-0.008-0.021-0.016-0.031-0.024-0.041C303.845,215.969,303.853,215.979,303.86,216
		 M303.822,215.939c-3.354-4.721-5.328-10.48-5.328-16.711c0-15.939,12.929-28.869,28.871-28.869c0.002,0,0.002,0,0.004,0
		c-15.944,0-28.871,12.93-28.871,28.869C298.498,205.459,300.469,211.219,303.822,215.939 M327.442,170.359
		c-0.021,0-0.041,0-0.062,0C327.401,170.359,327.422,170.359,327.442,170.359"/>
	<path fill="#E0EBD0" d="M317.16,226.24c-5.388-2.041-10.004-5.631-13.3-10.24c-0.008-0.021-0.016-0.031-0.024-0.041
		c-0.004-0.01-0.01-0.01-0.014-0.02c-3.354-4.721-5.324-10.48-5.324-16.711c0-15.939,12.927-28.869,28.871-28.869
		c0.004,0,0.008,0,0.012,0c0.021,0,0.041,0,0.062,0c4.888,0.01,9.484,1.24,13.515,3.4c-3.17-1.201-6.603-1.85-10.19-1.85
		c-15.95,0-28.877,12.92-28.877,28.869C301.89,211.799,308.074,221.379,317.16,226.24"/>
</g>
</svg>
